<svg width="198" height="55" viewBox="0 0 198 55" fill="none" xmlns="http://www.w3.org/2000/svg">
<path fill-rule="evenodd" clip-rule="evenodd" d="M20 0C12.268 0 6 6.26801 6 14V32C6 33.7767 6.33094 35.476 6.93455 37.0398L0.189955 51.7827C-0.621658 53.5568 1.3273 55.3243 3.0139 54.3437L17.6913 45.8105C18.4424 45.9352 19.2136 46 20 46H184C191.732 46 198 39.732 198 32V14C198 6.26801 191.732 0 184 0H20Z" fill="#E7D5FF"/>
<path d="M37.422 29V16.076H42.192C44.928 16.076 46.386 17.282 46.386 19.442C46.386 21.098 45.378 21.926 44.388 22.268C45.846 22.664 46.818 23.798 46.818 25.436C46.818 27.686 45.18 29 42.57 29H37.422ZM39.096 21.62H42.048C43.776 21.62 44.73 20.954 44.73 19.586C44.73 18.2 43.776 17.534 42.048 17.534H39.096V21.62ZM39.096 23.096V27.542H42.498C44.226 27.542 45.162 26.642 45.162 25.31C45.162 23.996 44.226 23.096 42.498 23.096H39.096ZM56.9988 24.302C56.9988 27.218 55.1988 29.198 52.6248 29.198C50.0508 29.198 48.2508 27.218 48.2508 24.302C48.2508 21.386 50.0508 19.406 52.6248 19.406C55.1988 19.406 56.9988 21.386 56.9988 24.302ZM49.8888 24.302C49.8888 26.444 50.9688 27.812 52.6248 27.812C54.2808 27.812 55.3608 26.444 55.3608 24.302C55.3608 22.142 54.2808 20.774 52.6248 20.774C50.9688 20.774 49.8888 22.142 49.8888 24.302ZM67.159 24.302C67.159 27.218 65.359 29.198 62.785 29.198C60.211 29.198 58.411 27.218 58.411 24.302C58.411 21.386 60.211 19.406 62.785 19.406C65.359 19.406 67.159 21.386 67.159 24.302ZM60.049 24.302C60.049 26.444 61.129 27.812 62.785 27.812C64.441 27.812 65.521 26.444 65.521 24.302C65.521 22.142 64.441 20.774 62.785 20.774C61.129 20.774 60.049 22.142 60.049 24.302ZM70.8391 16.076V23.978L75.0151 19.586H77.0311L73.3591 23.294L77.3371 29H75.4471L72.2071 24.464L70.8391 25.85V29H69.2191V16.076H70.8391ZM84.9893 29.162C83.2793 29.162 81.8933 28.154 81.8933 26.462C81.8933 24.59 83.3513 23.816 85.4573 23.384L87.7433 22.916V22.52C87.7433 21.44 87.1493 20.828 85.8893 20.828C84.7013 20.828 83.9993 21.386 83.7113 22.43L82.1813 22.034C82.6313 20.504 84.0173 19.406 85.9433 19.406C88.0493 19.406 89.3453 20.432 89.3453 22.448V27.038C89.3453 27.65 89.7233 27.848 90.3533 27.704V29C88.9133 29.18 88.0853 28.838 87.8873 27.938C87.3113 28.676 86.2673 29.162 84.9893 29.162ZM87.7433 25.796V24.176L85.9072 24.572C84.4673 24.86 83.4953 25.256 83.4953 26.39C83.4953 27.308 84.1613 27.848 85.1873 27.848C86.5732 27.848 87.7433 27.002 87.7433 25.796ZM95.9747 29V16.076H100.079C104.003 16.076 106.487 18.596 106.487 22.538C106.487 26.48 104.003 29 100.079 29H95.9747ZM97.6667 27.506H100.079C103.013 27.506 104.795 25.544 104.795 22.538C104.795 19.514 103.013 17.57 100.061 17.57H97.6667V27.506ZM112.286 29.198C109.676 29.198 107.876 27.2 107.876 24.302C107.876 21.494 109.658 19.406 112.214 19.406C114.842 19.406 116.228 21.404 116.228 24.014V24.554H109.424C109.514 26.534 110.648 27.794 112.286 27.794C113.546 27.794 114.446 27.11 114.734 25.994L116.156 26.498C115.58 28.172 114.158 29.198 112.286 29.198ZM112.196 20.792C110.828 20.792 109.802 21.71 109.514 23.312H114.59C114.554 21.98 113.834 20.792 112.196 20.792ZM119.865 23.366V29H118.245V19.586H119.865V20.864C120.369 20.09 121.269 19.406 122.583 19.406C123.843 19.406 124.725 20.036 125.193 21.008C125.715 20.234 126.723 19.406 128.199 19.406C130.143 19.406 131.313 20.792 131.313 22.79V29H129.693V23.222C129.693 21.908 129.153 20.918 127.821 20.918C126.741 20.918 125.589 21.836 125.589 23.366V29H123.969V23.222C123.969 21.908 123.429 20.918 122.097 20.918C121.017 20.918 119.865 21.836 119.865 23.366ZM142.024 24.302C142.024 27.218 140.224 29.198 137.65 29.198C135.076 29.198 133.276 27.218 133.276 24.302C133.276 21.386 135.076 19.406 137.65 19.406C140.224 19.406 142.024 21.386 142.024 24.302ZM134.914 24.302C134.914 26.444 135.994 27.812 137.65 27.812C139.306 27.812 140.386 26.444 140.386 24.302C140.386 22.142 139.306 20.774 137.65 20.774C135.994 20.774 134.914 22.142 134.914 24.302Z" fill="#414141"/>
</svg>
