<svg width="529" height="526" viewBox="0 0 529 526" fill="none" xmlns="http://www.w3.org/2000/svg">
<g filter="url(#filter0_d_169_9913)">
<rect x="75" y="35" width="379" height="376" rx="16" fill="white" fill-opacity="0.84" shape-rendering="crispEdges"/>
</g>
<path d="M386.24 102.953C386.546 110.564 385.351 118.16 382.722 125.308C380.092 132.457 376.081 139.017 370.916 144.616C365.752 150.214 359.535 154.74 352.621 157.935C345.707 161.131 338.231 162.933 330.621 163.24L330.593 162.559C338.115 162.256 345.502 160.475 352.335 157.317C359.168 154.159 365.311 149.686 370.415 144.153C375.519 138.621 379.484 132.137 382.082 125.073C384.68 118.009 385.862 110.501 385.559 102.98L386.24 102.953Z" fill="#08CC85"/>
<path fill-rule="evenodd" clip-rule="evenodd" d="M362.362 157.613C362.309 157.735 362.209 157.83 362.086 157.878C361.962 157.926 361.825 157.923 361.703 157.87L356.936 155.778C356.874 155.753 356.818 155.716 356.771 155.668C356.724 155.621 356.687 155.565 356.662 155.503C356.637 155.441 356.624 155.375 356.625 155.308C356.626 155.242 356.641 155.176 356.668 155.115C356.694 155.054 356.733 154.999 356.781 154.953C356.83 154.907 356.887 154.871 356.949 154.848C357.012 154.824 357.078 154.814 357.145 154.816C357.211 154.819 357.277 154.835 357.337 154.863L362.105 156.955C362.226 157.008 362.322 157.107 362.37 157.231C362.418 157.354 362.415 157.492 362.362 157.613Z" fill="#08CC85"/>
<path fill-rule="evenodd" clip-rule="evenodd" d="M358.449 149.767C358.578 149.798 358.689 149.878 358.759 149.991C358.828 150.104 358.85 150.24 358.82 150.369L357.623 155.436C357.609 155.501 357.582 155.563 357.544 155.617C357.506 155.672 357.458 155.719 357.401 155.755C357.345 155.79 357.282 155.814 357.216 155.825C357.151 155.836 357.083 155.834 357.018 155.819C356.954 155.804 356.892 155.775 356.839 155.736C356.785 155.697 356.739 155.647 356.705 155.59C356.671 155.533 356.648 155.469 356.639 155.403C356.629 155.337 356.633 155.27 356.65 155.206L357.847 150.139C357.878 150.01 357.958 149.898 358.071 149.828C358.184 149.759 358.32 149.737 358.449 149.767Z" fill="#08CC85"/>
<path fill-rule="evenodd" clip-rule="evenodd" d="M379.601 137.333C379.611 137.416 379.588 137.5 379.536 137.566C379.485 137.632 379.409 137.675 379.326 137.685L376.059 138.084C376.017 138.09 375.974 138.088 375.934 138.078C375.893 138.067 375.854 138.048 375.821 138.023C375.787 137.997 375.759 137.965 375.738 137.929C375.718 137.892 375.704 137.852 375.699 137.81C375.694 137.768 375.697 137.726 375.709 137.685C375.72 137.645 375.74 137.607 375.766 137.574C375.792 137.541 375.825 137.514 375.862 137.494C375.899 137.474 375.94 137.461 375.982 137.457L379.249 137.058C379.332 137.048 379.416 137.071 379.482 137.123C379.548 137.174 379.591 137.25 379.601 137.333Z" fill="#08CC85"/>
<path fill-rule="evenodd" clip-rule="evenodd" d="M374.944 134.327C375.024 134.303 375.111 134.31 375.185 134.349C375.259 134.388 375.315 134.455 375.34 134.535L376.322 137.676C376.336 137.716 376.341 137.759 376.338 137.801C376.335 137.843 376.324 137.884 376.305 137.921C376.286 137.959 376.259 137.992 376.227 138.019C376.195 138.047 376.158 138.067 376.117 138.08C376.077 138.092 376.035 138.097 375.993 138.093C375.951 138.089 375.91 138.076 375.873 138.056C375.836 138.036 375.803 138.009 375.777 137.976C375.75 137.943 375.731 137.905 375.719 137.865L374.737 134.723C374.712 134.643 374.72 134.557 374.759 134.483C374.798 134.408 374.864 134.353 374.944 134.327Z" fill="#08CC85"/>
<path d="M265.24 327.953C265.546 335.564 264.351 343.16 261.722 350.308C259.092 357.457 255.081 364.017 249.916 369.616C244.752 375.214 238.535 379.74 231.621 382.935C224.707 386.131 217.231 387.933 209.621 388.24L209.593 387.559C217.115 387.256 224.502 385.475 231.335 382.317C238.168 379.159 244.311 374.686 249.415 369.153C254.519 363.621 258.484 357.137 261.082 350.073C263.68 343.009 264.862 335.501 264.559 327.98L265.24 327.953Z" fill="#FFC87F"/>
<path fill-rule="evenodd" clip-rule="evenodd" d="M241.362 382.613C241.309 382.735 241.209 382.83 241.086 382.878C240.962 382.926 240.825 382.923 240.703 382.87L235.936 380.778C235.874 380.753 235.818 380.716 235.771 380.668C235.724 380.621 235.687 380.565 235.662 380.503C235.637 380.441 235.624 380.375 235.625 380.308C235.626 380.242 235.641 380.176 235.668 380.115C235.694 380.054 235.733 379.999 235.781 379.953C235.83 379.907 235.887 379.871 235.949 379.848C236.012 379.824 236.078 379.813 236.145 379.816C236.211 379.819 236.277 379.835 236.337 379.863L241.105 381.955C241.226 382.008 241.322 382.107 241.37 382.231C241.418 382.354 241.415 382.492 241.362 382.613Z" fill="#FFC87F"/>
<path fill-rule="evenodd" clip-rule="evenodd" d="M237.449 374.767C237.578 374.798 237.689 374.878 237.759 374.991C237.828 375.104 237.85 375.239 237.82 375.368L236.623 380.436C236.609 380.501 236.582 380.563 236.544 380.617C236.506 380.672 236.458 380.719 236.401 380.754C236.345 380.79 236.282 380.814 236.216 380.825C236.151 380.836 236.083 380.834 236.018 380.819C235.954 380.804 235.892 380.775 235.839 380.736C235.785 380.697 235.739 380.647 235.705 380.59C235.671 380.533 235.648 380.469 235.639 380.403C235.629 380.337 235.633 380.27 235.65 380.206L236.847 375.139C236.878 375.01 236.958 374.898 237.071 374.828C237.184 374.759 237.32 374.737 237.449 374.767Z" fill="#FFC87F"/>
<path fill-rule="evenodd" clip-rule="evenodd" d="M258.601 362.333C258.611 362.416 258.588 362.5 258.536 362.566C258.485 362.632 258.409 362.675 258.326 362.685L255.059 363.084C255.017 363.09 254.974 363.088 254.934 363.078C254.893 363.067 254.854 363.048 254.821 363.023C254.787 362.997 254.759 362.965 254.738 362.929C254.718 362.892 254.704 362.852 254.699 362.81C254.694 362.768 254.697 362.726 254.709 362.685C254.72 362.645 254.74 362.607 254.766 362.574C254.792 362.541 254.825 362.514 254.862 362.494C254.899 362.474 254.94 362.461 254.982 362.457L258.249 362.058C258.332 362.048 258.416 362.071 258.482 362.123C258.548 362.174 258.591 362.25 258.601 362.333Z" fill="#FFC87F"/>
<path fill-rule="evenodd" clip-rule="evenodd" d="M253.944 359.327C254.024 359.302 254.111 359.31 254.185 359.349C254.259 359.388 254.315 359.455 254.34 359.535L255.322 362.676C255.336 362.716 255.341 362.758 255.338 362.801C255.335 362.843 255.324 362.884 255.305 362.921C255.286 362.959 255.259 362.992 255.227 363.019C255.195 363.046 255.158 363.067 255.117 363.08C255.077 363.092 255.035 363.097 254.993 363.093C254.951 363.088 254.91 363.076 254.873 363.056C254.836 363.036 254.803 363.009 254.777 362.976C254.75 362.943 254.731 362.905 254.719 362.865L253.737 359.723C253.712 359.643 253.72 359.557 253.759 359.482C253.798 359.408 253.864 359.352 253.944 359.327Z" fill="#FFC87F"/>
<path d="M166.032 223.468C165.766 230.095 166.807 236.71 169.096 242.935C171.386 249.16 174.879 254.874 179.377 259.749C183.874 264.624 189.288 268.565 195.309 271.348C201.33 274.131 207.84 275.701 214.468 275.968L214.491 275.374C207.942 275.111 201.508 273.559 195.558 270.809C189.608 268.059 184.258 264.164 179.813 259.346C175.368 254.528 171.916 248.882 169.653 242.73C167.391 236.578 166.362 230.041 166.626 223.491L166.032 223.468Z" fill="#9747FF"/>
<path fill-rule="evenodd" clip-rule="evenodd" d="M186.827 271.068C186.873 271.173 186.96 271.256 187.067 271.298C187.175 271.34 187.295 271.338 187.401 271.291L191.553 269.47C191.606 269.448 191.655 269.415 191.696 269.374C191.737 269.333 191.769 269.284 191.791 269.23C191.813 269.176 191.824 269.118 191.823 269.06C191.822 269.002 191.809 268.945 191.786 268.892C191.763 268.839 191.729 268.791 191.687 268.751C191.645 268.711 191.595 268.68 191.541 268.659C191.486 268.639 191.428 268.629 191.37 268.632C191.312 268.634 191.255 268.648 191.203 268.672L187.051 270.494C186.945 270.54 186.862 270.627 186.82 270.735C186.778 270.842 186.781 270.962 186.827 271.068Z" fill="#9747FF"/>
<path fill-rule="evenodd" clip-rule="evenodd" d="M190.235 264.235C190.122 264.261 190.025 264.332 189.964 264.43C189.904 264.528 189.885 264.646 189.911 264.759L190.954 269.171C190.966 269.228 190.989 269.282 191.022 269.33C191.055 269.377 191.098 269.418 191.147 269.449C191.196 269.48 191.25 269.501 191.308 269.511C191.365 269.52 191.424 269.518 191.48 269.505C191.537 269.492 191.59 269.467 191.637 269.433C191.684 269.399 191.723 269.355 191.753 269.306C191.783 269.256 191.803 269.201 191.811 269.143C191.819 269.086 191.816 269.027 191.801 268.971L190.758 264.558C190.732 264.446 190.662 264.349 190.564 264.288C190.465 264.227 190.347 264.208 190.235 264.235Z" fill="#9747FF"/>
<path fill-rule="evenodd" clip-rule="evenodd" d="M171.813 253.407C171.805 253.479 171.825 253.552 171.87 253.61C171.915 253.667 171.981 253.705 172.053 253.714L174.898 254.061C174.935 254.066 174.972 254.064 175.007 254.055C175.043 254.046 175.076 254.03 175.105 254.008C175.135 253.985 175.159 253.957 175.177 253.926C175.195 253.894 175.207 253.859 175.212 253.822C175.216 253.786 175.213 253.749 175.203 253.713C175.193 253.678 175.176 253.645 175.153 253.617C175.13 253.588 175.102 253.564 175.069 253.547C175.037 253.529 175.002 253.518 174.965 253.515L172.12 253.167C172.048 253.158 171.975 253.179 171.917 253.224C171.86 253.269 171.822 253.335 171.813 253.407Z" fill="#9747FF"/>
<path fill-rule="evenodd" clip-rule="evenodd" d="M175.869 250.79C175.799 250.768 175.724 250.775 175.659 250.808C175.595 250.842 175.546 250.9 175.524 250.97L174.669 253.706C174.657 253.741 174.652 253.777 174.655 253.814C174.658 253.851 174.668 253.886 174.684 253.919C174.701 253.952 174.724 253.981 174.752 254.005C174.78 254.028 174.813 254.046 174.848 254.057C174.883 254.068 174.919 254.072 174.956 254.068C174.993 254.065 175.028 254.054 175.06 254.037C175.093 254.019 175.121 253.995 175.144 253.967C175.167 253.938 175.184 253.905 175.194 253.87L176.05 251.134C176.071 251.065 176.064 250.989 176.031 250.925C175.997 250.86 175.939 250.811 175.869 250.79Z" fill="#9747FF"/>
<rect x="335" y="10" width="142" height="86" rx="14" fill="#E4FDF1"/>
<path d="M350.072 46.336L351.422 45.256C352.232 46.804 353.69 47.704 355.364 47.704C357.038 47.704 358.334 46.876 358.334 45.4C358.334 43.834 356.84 43.564 354.878 43.096C352.844 42.61 350.828 42.052 350.828 39.622C350.828 37.354 352.79 35.878 355.238 35.878C357.488 35.878 359.108 36.958 359.882 38.416L358.568 39.46C357.902 38.218 356.876 37.372 355.202 37.372C353.636 37.372 352.502 38.236 352.502 39.478C352.502 40.846 353.708 41.134 355.526 41.566C357.668 42.07 360.026 42.52 360.026 45.256C360.026 47.668 357.884 49.198 355.328 49.198C353.096 49.198 350.954 48.082 350.072 46.336ZM362.272 46.75V40.972H360.814V39.586H362.272V36.832H363.874V39.586H366.016V40.972H363.874V46.498C363.874 47.488 364.36 47.668 365.188 47.668C365.566 47.668 365.836 47.65 366.214 47.56V48.946C365.8 49.036 365.332 49.09 364.792 49.09C363.19 49.09 362.272 48.55 362.272 46.75ZM370.495 49.162C368.785 49.162 367.399 48.154 367.399 46.462C367.399 44.59 368.857 43.816 370.963 43.384L373.249 42.916V42.52C373.249 41.44 372.655 40.828 371.395 40.828C370.207 40.828 369.505 41.386 369.217 42.43L367.687 42.034C368.137 40.504 369.523 39.406 371.449 39.406C373.555 39.406 374.851 40.432 374.851 42.448V47.038C374.851 47.65 375.229 47.848 375.859 47.704V49C374.419 49.18 373.591 48.838 373.393 47.938C372.817 48.676 371.773 49.162 370.495 49.162ZM373.249 45.796V44.176L371.413 44.572C369.973 44.86 369.001 45.256 369.001 46.39C369.001 47.308 369.667 47.848 370.693 47.848C372.079 47.848 373.249 47.002 373.249 45.796ZM382.49 39.55V41.188C382.22 41.134 382.004 41.116 381.698 41.116C380.33 41.116 379.232 42.196 379.232 43.852V49H377.612V39.586H379.232V41.188C379.646 40.234 380.564 39.514 381.842 39.514C382.094 39.514 382.328 39.532 382.49 39.55ZM384.631 46.75V40.972H383.173V39.586H384.631V36.832H386.233V39.586H388.375V40.972H386.233V46.498C386.233 47.488 386.719 47.668 387.547 47.668C387.925 47.668 388.195 47.65 388.573 47.56V48.946C388.159 49.036 387.691 49.09 387.151 49.09C385.549 49.09 384.631 48.55 384.631 46.75ZM399.207 49.18C396.291 49.18 394.131 47.452 394.131 43.888V36.076H395.859V43.834C395.859 46.48 397.263 47.632 399.207 47.632C401.169 47.632 402.573 46.48 402.573 43.834V36.076H404.301V43.888C404.301 47.452 402.141 49.18 399.207 49.18ZM411.38 49.198C410.066 49.198 409.022 48.568 408.464 47.632V52.24H406.844V39.586H408.464V40.954C409.022 40.036 410.066 39.406 411.38 39.406C413.99 39.406 415.484 41.62 415.484 44.302C415.484 46.966 413.99 49.198 411.38 49.198ZM408.428 43.978V44.644C408.428 46.804 409.76 47.776 411.092 47.776C412.856 47.776 413.846 46.318 413.846 44.302C413.846 42.268 412.856 40.828 411.092 40.828C409.76 40.828 408.428 41.782 408.428 43.978Z" fill="#414141"/>
<path d="M353.3 60.17H354.38V71H352.94V63.08H350.345V62.015L351.5 61.94C352.775 61.85 353.195 61.415 353.3 60.17ZM359.569 67.235V66.02H363.664V67.235H359.569ZM370.038 65.99L368.718 65.765L369.183 60.23H375.048V61.49H370.293L370.008 64.745C370.473 64.28 371.208 63.905 372.153 63.905C374.253 63.905 375.633 65.465 375.633 67.505C375.633 69.545 374.028 71.165 371.868 71.165C369.843 71.165 368.373 70.025 367.998 67.985L369.378 67.7C369.603 69.08 370.533 69.965 371.868 69.965C373.233 69.965 374.283 68.915 374.283 67.535C374.283 66.17 373.353 65.075 371.988 65.075C371.088 65.075 370.398 65.48 370.038 65.99ZM376.644 65.615C376.644 62.33 378.189 60.065 380.754 60.065C383.304 60.065 384.849 62.33 384.849 65.615C384.849 68.9 383.304 71.165 380.754 71.165C378.189 71.165 376.644 68.9 376.644 65.615ZM378.084 65.615C378.084 68.135 378.999 69.905 380.754 69.905C382.494 69.905 383.424 68.135 383.424 65.615C383.424 63.095 382.494 61.325 380.754 61.325C378.999 61.325 378.084 63.095 378.084 65.615ZM392.844 71.165C390.669 71.165 389.169 69.5 389.169 67.085C389.169 64.745 390.654 63.005 392.784 63.005C394.974 63.005 396.129 64.67 396.129 66.845V67.295H390.459C390.534 68.945 391.479 69.995 392.844 69.995C393.894 69.995 394.644 69.425 394.884 68.495L396.069 68.915C395.589 70.31 394.404 71.165 392.844 71.165ZM392.769 64.16C391.629 64.16 390.774 64.925 390.534 66.26H394.764C394.734 65.15 394.134 64.16 392.769 64.16ZM399.16 66.305V71H397.81V63.155H399.16V64.22C399.58 63.575 400.33 63.005 401.425 63.005C402.475 63.005 403.21 63.53 403.6 64.34C404.035 63.695 404.875 63.005 406.105 63.005C407.725 63.005 408.7 64.16 408.7 65.825V71H407.35V66.185C407.35 65.09 406.9 64.265 405.79 64.265C404.89 64.265 403.93 65.03 403.93 66.305V71H402.58V66.185C402.58 65.09 402.13 64.265 401.02 64.265C400.12 64.265 399.16 65.03 399.16 66.305ZM414.656 71.165C413.561 71.165 412.691 70.64 412.226 69.86V73.7H410.876V63.155H412.226V64.295C412.691 63.53 413.561 63.005 414.656 63.005C416.831 63.005 418.076 64.85 418.076 67.085C418.076 69.305 416.831 71.165 414.656 71.165ZM412.196 66.815V67.37C412.196 69.17 413.306 69.98 414.416 69.98C415.886 69.98 416.711 68.765 416.711 67.085C416.711 65.39 415.886 64.19 414.416 64.19C413.306 64.19 412.196 64.985 412.196 66.815ZM421.132 60.23V71H419.782V60.23H421.132ZM430.136 67.085C430.136 69.515 428.636 71.165 426.491 71.165C424.346 71.165 422.846 69.515 422.846 67.085C422.846 64.655 424.346 63.005 426.491 63.005C428.636 63.005 430.136 64.655 430.136 67.085ZM424.211 67.085C424.211 68.87 425.111 70.01 426.491 70.01C427.871 70.01 428.771 68.87 428.771 67.085C428.771 65.285 427.871 64.145 426.491 64.145C425.111 64.145 424.211 65.285 424.211 67.085ZM434.543 71.855C434.093 73.04 433.478 73.79 432.113 73.79C431.783 73.79 431.618 73.775 431.378 73.73V72.56C431.633 72.62 431.798 72.635 432.023 72.635C432.608 72.635 432.923 72.425 433.238 71.645L433.613 70.715L430.703 63.155H432.128L434.333 69.155L436.508 63.155H437.918L434.543 71.855ZM442.077 71.165C439.902 71.165 438.402 69.5 438.402 67.085C438.402 64.745 439.887 63.005 442.017 63.005C444.207 63.005 445.362 64.67 445.362 66.845V67.295H439.692C439.767 68.945 440.712 69.995 442.077 69.995C443.127 69.995 443.877 69.425 444.117 68.495L445.302 68.915C444.822 70.31 443.637 71.165 442.077 71.165ZM442.002 64.16C440.862 64.16 440.007 64.925 439.767 66.26H443.997C443.967 65.15 443.367 64.16 442.002 64.16ZM450.178 71.165C448.003 71.165 446.503 69.5 446.503 67.085C446.503 64.745 447.988 63.005 450.118 63.005C452.308 63.005 453.463 64.67 453.463 66.845V67.295H447.793C447.868 68.945 448.813 69.995 450.178 69.995C451.228 69.995 451.978 69.425 452.218 68.495L453.403 68.915C452.923 70.31 451.738 71.165 450.178 71.165ZM450.103 64.16C448.963 64.16 448.108 64.925 447.868 66.26H452.098C452.068 65.15 451.468 64.16 450.103 64.16ZM454.274 69.335L455.324 68.57C455.744 69.485 456.704 70.04 457.724 70.04C458.639 70.04 459.449 69.65 459.449 68.795C459.449 67.94 458.699 67.82 457.409 67.55C456.119 67.265 454.769 66.98 454.769 65.375C454.769 63.98 455.984 63.005 457.649 63.005C459.059 63.005 460.214 63.695 460.679 64.625L459.719 65.39C459.314 64.61 458.579 64.115 457.589 64.115C456.689 64.115 456.089 64.565 456.089 65.27C456.089 66.005 456.779 66.14 457.874 66.38C459.224 66.695 460.769 66.965 460.769 68.675C460.769 70.175 459.404 71.165 457.724 71.165C456.299 71.165 454.874 70.55 454.274 69.335Z" fill="#414141"/>
<rect x="164" y="127" width="164" height="86" rx="14" fill="#F0E5FF"/>
<path d="M190.17 166V164.074C189.648 165.262 188.262 166.198 186.408 166.198C183.114 166.198 180.666 163.498 180.666 159.574C180.666 155.632 183.132 152.878 186.516 152.878C189 152.878 190.764 154.228 191.538 156.46L189.882 157C189.414 155.362 188.226 154.408 186.534 154.408C184.086 154.408 182.394 156.496 182.394 159.556C182.394 162.598 184.086 164.704 186.552 164.704C188.64 164.704 190.044 163.102 190.08 160.798H186.372V159.286H191.754V166H190.17ZM199.183 156.55V158.188C198.913 158.134 198.697 158.116 198.391 158.116C197.023 158.116 195.925 159.196 195.925 160.852V166H194.305V156.586H195.925V158.188C196.339 157.234 197.257 156.514 198.535 156.514C198.787 156.514 199.021 156.532 199.183 156.55ZM208.68 161.302C208.68 164.218 206.88 166.198 204.306 166.198C201.732 166.198 199.932 164.218 199.932 161.302C199.932 158.386 201.732 156.406 204.306 156.406C206.88 156.406 208.68 158.386 208.68 161.302ZM201.57 161.302C201.57 163.444 202.65 164.812 204.306 164.812C205.962 164.812 207.042 163.444 207.042 161.302C207.042 159.142 205.962 157.774 204.306 157.774C202.65 157.774 201.57 159.142 201.57 161.302ZM215.047 156.586H216.415L218.359 163.606L220.321 156.586H221.941L219.079 166H217.657L215.695 159.016L213.733 166H212.311L209.449 156.586H211.123L213.103 163.588L215.047 156.586ZM223.948 163.75V157.972H222.49V156.586H223.948V153.832H225.55V156.586H227.692V157.972H225.55V163.498C225.55 164.488 226.036 164.668 226.864 164.668C227.242 164.668 227.512 164.65 227.89 164.56V165.946C227.476 166.036 227.008 166.09 226.468 166.09C224.866 166.09 223.948 165.55 223.948 163.75ZM229.813 166V153.076H231.433V157.864C231.973 157.09 232.909 156.406 234.241 156.406C236.239 156.406 237.373 157.792 237.373 159.79V166H235.753V160.222C235.753 158.908 235.195 157.918 233.791 157.918C232.621 157.918 231.433 158.818 231.433 160.384V166H229.813Z" fill="#414141"/>
<path d="M182.445 182.99L181.125 182.765L181.59 177.23H187.455V178.49H182.7L182.415 181.745C182.88 181.28 183.615 180.905 184.56 180.905C186.66 180.905 188.04 182.465 188.04 184.505C188.04 186.545 186.435 188.165 184.275 188.165C182.25 188.165 180.78 187.025 180.405 184.985L181.785 184.7C182.01 186.08 182.94 186.965 184.275 186.965C185.64 186.965 186.69 185.915 186.69 184.535C186.69 183.17 185.76 182.075 184.395 182.075C183.495 182.075 182.805 182.48 182.445 182.99ZM189.051 182.615C189.051 179.33 190.596 177.065 193.161 177.065C195.711 177.065 197.256 179.33 197.256 182.615C197.256 185.9 195.711 188.165 193.161 188.165C190.596 188.165 189.051 185.9 189.051 182.615ZM190.491 182.615C190.491 185.135 191.406 186.905 193.161 186.905C194.901 186.905 195.831 185.135 195.831 182.615C195.831 180.095 194.901 178.325 193.161 178.325C191.406 178.325 190.491 180.095 190.491 182.615ZM201.756 184.235V183.02H205.851V184.235H201.756ZM213.08 177.17H214.16V188H212.72V180.08H210.125V179.015L211.28 178.94C212.555 178.85 212.975 178.415 213.08 177.17ZM215.99 182.615C215.99 179.33 217.535 177.065 220.1 177.065C222.65 177.065 224.195 179.33 224.195 182.615C224.195 185.9 222.65 188.165 220.1 188.165C217.535 188.165 215.99 185.9 215.99 182.615ZM217.43 182.615C217.43 185.135 218.345 186.905 220.1 186.905C221.84 186.905 222.77 185.135 222.77 182.615C222.77 180.095 221.84 178.325 220.1 178.325C218.345 178.325 217.43 180.095 217.43 182.615ZM225.336 182.615C225.336 179.33 226.881 177.065 229.446 177.065C231.996 177.065 233.541 179.33 233.541 182.615C233.541 185.9 231.996 188.165 229.446 188.165C226.881 188.165 225.336 185.9 225.336 182.615ZM226.776 182.615C226.776 185.135 227.691 186.905 229.446 186.905C231.186 186.905 232.116 185.135 232.116 182.615C232.116 180.095 231.186 178.325 229.446 178.325C227.691 178.325 226.776 180.095 226.776 182.615ZM241.535 188.165C239.36 188.165 237.86 186.5 237.86 184.085C237.86 181.745 239.345 180.005 241.475 180.005C243.665 180.005 244.82 181.67 244.82 183.845V184.295H239.15C239.225 185.945 240.17 186.995 241.535 186.995C242.585 186.995 243.335 186.425 243.575 185.495L244.76 185.915C244.28 187.31 243.095 188.165 241.535 188.165ZM241.46 181.16C240.32 181.16 239.465 181.925 239.225 183.26H243.455C243.425 182.15 242.825 181.16 241.46 181.16ZM247.851 183.305V188H246.501V180.155H247.851V181.22C248.271 180.575 249.021 180.005 250.116 180.005C251.166 180.005 251.901 180.53 252.291 181.34C252.726 180.695 253.566 180.005 254.796 180.005C256.416 180.005 257.391 181.16 257.391 182.825V188H256.041V183.185C256.041 182.09 255.591 181.265 254.481 181.265C253.581 181.265 252.621 182.03 252.621 183.305V188H251.271V183.185C251.271 182.09 250.821 181.265 249.711 181.265C248.811 181.265 247.851 182.03 247.851 183.305ZM263.347 188.165C262.252 188.165 261.382 187.64 260.917 186.86V190.7H259.567V180.155H260.917V181.295C261.382 180.53 262.252 180.005 263.347 180.005C265.522 180.005 266.767 181.85 266.767 184.085C266.767 186.305 265.522 188.165 263.347 188.165ZM260.887 183.815V184.37C260.887 186.17 261.997 186.98 263.107 186.98C264.577 186.98 265.402 185.765 265.402 184.085C265.402 182.39 264.577 181.19 263.107 181.19C261.997 181.19 260.887 181.985 260.887 183.815ZM269.824 177.23V188H268.474V177.23H269.824ZM278.827 184.085C278.827 186.515 277.327 188.165 275.182 188.165C273.037 188.165 271.537 186.515 271.537 184.085C271.537 181.655 273.037 180.005 275.182 180.005C277.327 180.005 278.827 181.655 278.827 184.085ZM272.902 184.085C272.902 185.87 273.802 187.01 275.182 187.01C276.562 187.01 277.462 185.87 277.462 184.085C277.462 182.285 276.562 181.145 275.182 181.145C273.802 181.145 272.902 182.285 272.902 184.085ZM283.234 188.855C282.784 190.04 282.169 190.79 280.804 190.79C280.474 190.79 280.309 190.775 280.069 190.73V189.56C280.324 189.62 280.489 189.635 280.714 189.635C281.299 189.635 281.614 189.425 281.929 188.645L282.304 187.715L279.394 180.155H280.819L283.024 186.155L285.199 180.155H286.609L283.234 188.855ZM290.769 188.165C288.594 188.165 287.094 186.5 287.094 184.085C287.094 181.745 288.579 180.005 290.709 180.005C292.899 180.005 294.054 181.67 294.054 183.845V184.295H288.384C288.459 185.945 289.404 186.995 290.769 186.995C291.819 186.995 292.569 186.425 292.809 185.495L293.994 185.915C293.514 187.31 292.329 188.165 290.769 188.165ZM290.694 181.16C289.554 181.16 288.699 181.925 288.459 183.26H292.689C292.659 182.15 292.059 181.16 290.694 181.16ZM298.869 188.165C296.694 188.165 295.194 186.5 295.194 184.085C295.194 181.745 296.679 180.005 298.809 180.005C300.999 180.005 302.154 181.67 302.154 183.845V184.295H296.484C296.559 185.945 297.504 186.995 298.869 186.995C299.919 186.995 300.669 186.425 300.909 185.495L302.094 185.915C301.614 187.31 300.429 188.165 298.869 188.165ZM298.794 181.16C297.654 181.16 296.799 181.925 296.559 183.26H300.789C300.759 182.15 300.159 181.16 298.794 181.16ZM302.965 186.335L304.015 185.57C304.435 186.485 305.395 187.04 306.415 187.04C307.33 187.04 308.14 186.65 308.14 185.795C308.14 184.94 307.39 184.82 306.1 184.55C304.81 184.265 303.46 183.98 303.46 182.375C303.46 180.98 304.675 180.005 306.34 180.005C307.75 180.005 308.905 180.695 309.37 181.625L308.41 182.39C308.005 181.61 307.27 181.115 306.28 181.115C305.38 181.115 304.78 181.565 304.78 182.27C304.78 183.005 305.47 183.14 306.565 183.38C307.915 183.695 309.46 183.965 309.46 185.675C309.46 187.175 308.095 188.165 306.415 188.165C304.99 188.165 303.565 187.55 302.965 186.335Z" fill="#414141"/>
<path opacity="0.3" d="M111.285 60.23H112.56L114.84 68.855L117.135 60.23H118.56L115.605 71H114.195L111.9 62.615L109.62 71H108.21L105.24 60.23H106.725L109.02 68.855L111.285 60.23ZM122.429 71.165C120.254 71.165 118.754 69.5 118.754 67.085C118.754 64.745 120.239 63.005 122.369 63.005C124.559 63.005 125.714 64.67 125.714 66.845V67.295H120.044C120.119 68.945 121.064 69.995 122.429 69.995C123.479 69.995 124.229 69.425 124.469 68.495L125.654 68.915C125.174 70.31 123.989 71.165 122.429 71.165ZM122.354 64.16C121.214 64.16 120.359 64.925 120.119 66.26H124.349C124.319 65.15 123.719 64.16 122.354 64.16ZM130.559 71V60.23H131.909V64.22C132.359 63.575 133.139 63.005 134.249 63.005C135.914 63.005 136.859 64.16 136.859 65.825V71H135.509V66.185C135.509 65.09 135.044 64.265 133.874 64.265C132.899 64.265 131.909 65.015 131.909 66.32V71H130.559ZM140.99 71.135C139.565 71.135 138.41 70.295 138.41 68.885C138.41 67.325 139.625 66.68 141.38 66.32L143.285 65.93V65.6C143.285 64.7 142.79 64.19 141.74 64.19C140.75 64.19 140.165 64.655 139.925 65.525L138.65 65.195C139.025 63.92 140.18 63.005 141.785 63.005C143.54 63.005 144.62 63.86 144.62 65.54V69.365C144.62 69.875 144.935 70.04 145.46 69.92V71C144.26 71.15 143.57 70.865 143.405 70.115C142.925 70.73 142.055 71.135 140.99 71.135ZM143.285 68.33V66.98L141.755 67.31C140.555 67.55 139.745 67.88 139.745 68.825C139.745 69.59 140.3 70.04 141.155 70.04C142.31 70.04 143.285 69.335 143.285 68.33ZM150.075 71H148.74L145.8 63.155H147.225L149.43 69.35L151.605 63.155H153.015L150.075 71ZM157.263 71.165C155.088 71.165 153.588 69.5 153.588 67.085C153.588 64.745 155.073 63.005 157.203 63.005C159.393 63.005 160.548 64.67 160.548 66.845V67.295H154.878C154.953 68.945 155.898 69.995 157.263 69.995C158.313 69.995 159.063 69.425 159.303 68.495L160.488 68.915C160.008 70.31 158.823 71.165 157.263 71.165ZM157.188 64.16C156.048 64.16 155.193 64.925 154.953 66.26H159.183C159.153 65.15 158.553 64.16 157.188 64.16ZM165.333 61.79V60.23H166.803V61.79H165.333ZM166.743 63.155V71H165.393V63.155H166.743ZM169.206 69.125V64.31H167.991V63.155H169.206V60.86H170.541V63.155H172.326V64.31H170.541V68.915C170.541 69.74 170.946 69.89 171.636 69.89C171.951 69.89 172.176 69.875 172.491 69.8V70.955C172.146 71.03 171.756 71.075 171.306 71.075C169.971 71.075 169.206 70.625 169.206 69.125ZM179.223 71.135C177.798 71.135 176.643 70.295 176.643 68.885C176.643 67.325 177.858 66.68 179.613 66.32L181.518 65.93V65.6C181.518 64.7 181.023 64.19 179.973 64.19C178.983 64.19 178.398 64.655 178.158 65.525L176.883 65.195C177.258 63.92 178.413 63.005 180.018 63.005C181.773 63.005 182.853 63.86 182.853 65.54V69.365C182.853 69.875 183.168 70.04 183.693 69.92V71C182.493 71.15 181.803 70.865 181.638 70.115C181.158 70.73 180.288 71.135 179.223 71.135ZM181.518 68.33V66.98L179.988 67.31C178.788 67.55 177.978 67.88 177.978 68.825C177.978 69.59 178.533 70.04 179.388 70.04C180.543 70.04 181.518 69.335 181.518 68.33ZM186.503 60.23V71H185.153V60.23H186.503ZM190.107 60.23V71H188.757V60.23H190.107ZM198.944 60.095V61.295C198.719 61.265 198.584 61.265 198.359 61.265C197.564 61.265 197.129 61.61 197.129 62.615V63.155H198.869V64.31H197.129V71H195.779V64.31H194.594V63.155H195.779V62.525C195.779 60.995 196.619 60.065 198.224 60.065C198.494 60.065 198.644 60.08 198.944 60.095ZM206.83 67.085C206.83 69.515 205.33 71.165 203.185 71.165C201.04 71.165 199.54 69.515 199.54 67.085C199.54 64.655 201.04 63.005 203.185 63.005C205.33 63.005 206.83 64.655 206.83 67.085ZM200.905 67.085C200.905 68.87 201.805 70.01 203.185 70.01C204.565 70.01 205.465 68.87 205.465 67.085C205.465 65.285 204.565 64.145 203.185 64.145C201.805 64.145 200.905 65.285 200.905 67.085ZM212.612 63.125V64.49C212.387 64.445 212.207 64.43 211.952 64.43C210.812 64.43 209.897 65.33 209.897 66.71V71H208.547V63.155H209.897V64.49C210.242 63.695 211.007 63.095 212.072 63.095C212.282 63.095 212.477 63.11 212.612 63.125ZM220.173 71.855C219.723 73.04 219.108 73.79 217.743 73.79C217.413 73.79 217.248 73.775 217.008 73.73V72.56C217.263 72.62 217.428 72.635 217.653 72.635C218.238 72.635 218.553 72.425 218.868 71.645L219.243 70.715L216.333 63.155H217.758L219.963 69.155L222.138 63.155H223.548L220.173 71.855ZM231.322 67.085C231.322 69.515 229.822 71.165 227.677 71.165C225.532 71.165 224.032 69.515 224.032 67.085C224.032 64.655 225.532 63.005 227.677 63.005C229.822 63.005 231.322 64.655 231.322 67.085ZM225.397 67.085C225.397 68.87 226.297 70.01 227.677 70.01C229.057 70.01 229.957 68.87 229.957 67.085C229.957 65.285 229.057 64.145 227.677 64.145C226.297 64.145 225.397 65.285 225.397 67.085ZM239.264 63.155V71H237.914V69.92C237.464 70.58 236.699 71.165 235.589 71.165C233.909 71.165 232.964 70.01 232.964 68.345V63.155H234.314V68.06C234.314 69.17 234.794 69.92 235.949 69.92C236.924 69.92 237.914 69.185 237.914 67.88V63.155H239.264ZM241.191 71V69.23H242.901V71H241.191Z" fill="#414141"/>
<rect x="223" y="239" width="180" height="86" rx="14" fill="#ECF7FF"/>
<path d="M239.422 265.076H247.864V266.588H241.132V270.566H246.838V272.078H241.132V276.488H247.864V278H239.422V265.076ZM249.844 278V268.586H251.464V269.864C252.004 269.09 252.94 268.406 254.272 268.406C256.27 268.406 257.404 269.792 257.404 271.79V278H255.784V272.222C255.784 270.908 255.226 269.918 253.822 269.918C252.652 269.918 251.464 270.818 251.464 272.384V278H249.844ZM260.256 275.75V269.972H258.798V268.586H260.256V265.832H261.858V268.586H264V269.972H261.858V275.498C261.858 276.488 262.344 276.668 263.172 276.668C263.55 276.668 263.82 276.65 264.198 276.56V277.946C263.784 278.036 263.316 278.09 262.776 278.09C261.174 278.09 260.256 277.55 260.256 275.75ZM269.831 278.198C267.221 278.198 265.421 276.2 265.421 273.302C265.421 270.494 267.203 268.406 269.759 268.406C272.387 268.406 273.773 270.404 273.773 273.014V273.554H266.969C267.059 275.534 268.193 276.794 269.831 276.794C271.091 276.794 271.991 276.11 272.279 274.994L273.701 275.498C273.125 277.172 271.703 278.198 269.831 278.198ZM269.741 269.792C268.373 269.792 267.347 270.71 267.059 272.312H272.135C272.099 270.98 271.379 269.792 269.741 269.792ZM280.667 268.55V270.188C280.397 270.134 280.181 270.116 279.875 270.116C278.507 270.116 277.409 271.196 277.409 272.852V278H275.789V268.586H277.409V270.188C277.823 269.234 278.741 268.514 280.019 268.514C280.271 268.514 280.505 268.532 280.667 268.55ZM286.988 278.198C285.674 278.198 284.63 277.568 284.072 276.632V281.24H282.452V268.586H284.072V269.954C284.63 269.036 285.674 268.406 286.988 268.406C289.598 268.406 291.092 270.62 291.092 273.302C291.092 275.966 289.598 278.198 286.988 278.198ZM284.036 272.978V273.644C284.036 275.804 285.368 276.776 286.7 276.776C288.464 276.776 289.454 275.318 289.454 273.302C289.454 271.268 288.464 269.828 286.7 269.828C285.368 269.828 284.036 270.782 284.036 272.978ZM298.017 268.55V270.188C297.747 270.134 297.531 270.116 297.225 270.116C295.857 270.116 294.759 271.196 294.759 272.852V278H293.139V268.586H294.759V270.188C295.173 269.234 296.091 268.514 297.369 268.514C297.621 268.514 297.855 268.532 298.017 268.55ZM299.729 266.948V265.076H301.493V266.948H299.729ZM301.421 268.586V278H299.801V268.586H301.421ZM303.081 276.002L304.341 275.084C304.845 276.182 305.997 276.848 307.221 276.848C308.319 276.848 309.291 276.38 309.291 275.354C309.291 274.328 308.391 274.184 306.843 273.86C305.295 273.518 303.675 273.176 303.675 271.25C303.675 269.576 305.133 268.406 307.131 268.406C308.823 268.406 310.209 269.234 310.767 270.35L309.615 271.268C309.129 270.332 308.247 269.738 307.059 269.738C305.979 269.738 305.259 270.278 305.259 271.124C305.259 272.006 306.087 272.168 307.401 272.456C309.021 272.834 310.875 273.158 310.875 275.21C310.875 277.01 309.237 278.198 307.221 278.198C305.511 278.198 303.801 277.46 303.081 276.002ZM316.641 278.198C314.031 278.198 312.231 276.2 312.231 273.302C312.231 270.494 314.013 268.406 316.569 268.406C319.197 268.406 320.583 270.404 320.583 273.014V273.554H313.779C313.869 275.534 315.003 276.794 316.641 276.794C317.901 276.794 318.801 276.11 319.089 274.994L320.511 275.498C319.935 277.172 318.513 278.198 316.641 278.198ZM316.551 269.792C315.183 269.792 314.157 270.71 313.869 272.312H318.945C318.909 270.98 318.189 269.792 316.551 269.792Z" fill="#414141"/>
<path d="M241.3 289.17H242.38V300H240.94V292.08H238.345V291.015L239.5 290.94C240.775 290.85 241.195 290.415 241.3 289.17ZM244.21 294.615C244.21 291.33 245.755 289.065 248.32 289.065C250.87 289.065 252.415 291.33 252.415 294.615C252.415 297.9 250.87 300.165 248.32 300.165C245.755 300.165 244.21 297.9 244.21 294.615ZM245.65 294.615C245.65 297.135 246.565 298.905 248.32 298.905C250.06 298.905 250.99 297.135 250.99 294.615C250.99 292.095 250.06 290.325 248.32 290.325C246.565 290.325 245.65 292.095 245.65 294.615ZM253.555 294.615C253.555 291.33 255.1 289.065 257.665 289.065C260.215 289.065 261.76 291.33 261.76 294.615C261.76 297.9 260.215 300.165 257.665 300.165C255.1 300.165 253.555 297.9 253.555 294.615ZM254.995 294.615C254.995 297.135 255.91 298.905 257.665 298.905C259.405 298.905 260.335 297.135 260.335 294.615C260.335 292.095 259.405 290.325 257.665 290.325C255.91 290.325 254.995 292.095 254.995 294.615ZM263.243 296.235V295.02H267.338V296.235H263.243ZM271.193 300.135C269.768 300.135 268.613 299.295 268.613 297.885C268.613 296.325 269.828 295.68 271.583 295.32L273.488 294.93V294.6C273.488 293.7 272.993 293.19 271.943 293.19C270.953 293.19 270.368 293.655 270.128 294.525L268.853 294.195C269.228 292.92 270.383 292.005 271.988 292.005C273.743 292.005 274.823 292.86 274.823 294.54V298.365C274.823 298.875 275.138 299.04 275.663 298.92V300C274.463 300.15 273.773 299.865 273.608 299.115C273.128 299.73 272.258 300.135 271.193 300.135ZM273.488 297.33V295.98L271.958 296.31C270.758 296.55 269.948 296.88 269.948 297.825C269.948 298.59 270.503 299.04 271.358 299.04C272.513 299.04 273.488 298.335 273.488 297.33ZM280.903 300.165C279.808 300.165 278.938 299.64 278.473 298.86V300H277.123V289.23H278.473V293.295C278.938 292.53 279.808 292.005 280.903 292.005C283.078 292.005 284.323 293.85 284.323 296.085C284.323 298.305 283.078 300.165 280.903 300.165ZM278.443 295.815V296.37C278.443 298.17 279.553 298.98 280.663 298.98C282.133 298.98 282.958 297.765 282.958 296.085C282.958 294.39 282.133 293.19 280.663 293.19C279.553 293.19 278.443 293.985 278.443 295.815ZM292.779 296.085C292.779 298.515 291.279 300.165 289.134 300.165C286.989 300.165 285.489 298.515 285.489 296.085C285.489 293.655 286.989 292.005 289.134 292.005C291.279 292.005 292.779 293.655 292.779 296.085ZM286.854 296.085C286.854 297.87 287.754 299.01 289.134 299.01C290.514 299.01 291.414 297.87 291.414 296.085C291.414 294.285 290.514 293.145 289.134 293.145C287.754 293.145 286.854 294.285 286.854 296.085ZM297.636 300H296.301L293.361 292.155H294.786L296.991 298.35L299.166 292.155H300.576L297.636 300ZM304.823 300.165C302.648 300.165 301.148 298.5 301.148 296.085C301.148 293.745 302.633 292.005 304.763 292.005C306.953 292.005 308.108 293.67 308.108 295.845V296.295H302.438C302.513 297.945 303.458 298.995 304.823 298.995C305.873 298.995 306.623 298.425 306.863 297.495L308.048 297.915C307.568 299.31 306.383 300.165 304.823 300.165ZM304.748 293.16C303.608 293.16 302.753 293.925 302.513 295.26H306.743C306.713 294.15 306.113 293.16 304.748 293.16ZM316.088 300.165C313.913 300.165 312.413 298.5 312.413 296.085C312.413 293.745 313.898 292.005 316.028 292.005C318.218 292.005 319.373 293.67 319.373 295.845V296.295H313.703C313.778 297.945 314.723 298.995 316.088 298.995C317.138 298.995 317.888 298.425 318.128 297.495L319.313 297.915C318.833 299.31 317.648 300.165 316.088 300.165ZM316.013 293.16C314.873 293.16 314.018 293.925 313.778 295.26H318.008C317.978 294.15 317.378 293.16 316.013 293.16ZM322.404 295.305V300H321.054V292.155H322.404V293.22C322.824 292.575 323.574 292.005 324.669 292.005C325.719 292.005 326.454 292.53 326.844 293.34C327.279 292.695 328.119 292.005 329.349 292.005C330.969 292.005 331.944 293.16 331.944 294.825V300H330.594V295.185C330.594 294.09 330.144 293.265 329.034 293.265C328.134 293.265 327.174 294.03 327.174 295.305V300H325.824V295.185C325.824 294.09 325.374 293.265 324.264 293.265C323.364 293.265 322.404 294.03 322.404 295.305ZM337.9 300.165C336.805 300.165 335.935 299.64 335.47 298.86V302.7H334.12V292.155H335.47V293.295C335.935 292.53 336.805 292.005 337.9 292.005C340.075 292.005 341.32 293.85 341.32 296.085C341.32 298.305 340.075 300.165 337.9 300.165ZM335.44 295.815V296.37C335.44 298.17 336.55 298.98 337.66 298.98C339.13 298.98 339.955 297.765 339.955 296.085C339.955 294.39 339.13 293.19 337.66 293.19C336.55 293.19 335.44 293.985 335.44 295.815ZM344.376 289.23V300H343.026V289.23H344.376ZM353.38 296.085C353.38 298.515 351.88 300.165 349.735 300.165C347.59 300.165 346.09 298.515 346.09 296.085C346.09 293.655 347.59 292.005 349.735 292.005C351.88 292.005 353.38 293.655 353.38 296.085ZM347.455 296.085C347.455 297.87 348.355 299.01 349.735 299.01C351.115 299.01 352.015 297.87 352.015 296.085C352.015 294.285 351.115 293.145 349.735 293.145C348.355 293.145 347.455 294.285 347.455 296.085ZM357.787 300.855C357.337 302.04 356.722 302.79 355.357 302.79C355.027 302.79 354.862 302.775 354.622 302.73V301.56C354.877 301.62 355.042 301.635 355.267 301.635C355.852 301.635 356.167 301.425 356.482 300.645L356.857 299.715L353.947 292.155H355.372L357.577 298.155L359.752 292.155H361.162L357.787 300.855ZM365.322 300.165C363.147 300.165 361.647 298.5 361.647 296.085C361.647 293.745 363.132 292.005 365.262 292.005C367.452 292.005 368.607 293.67 368.607 295.845V296.295H362.937C363.012 297.945 363.957 298.995 365.322 298.995C366.372 298.995 367.122 298.425 367.362 297.495L368.547 297.915C368.067 299.31 366.882 300.165 365.322 300.165ZM365.247 293.16C364.107 293.16 363.252 293.925 363.012 295.26H367.242C367.212 294.15 366.612 293.16 365.247 293.16ZM373.422 300.165C371.247 300.165 369.747 298.5 369.747 296.085C369.747 293.745 371.232 292.005 373.362 292.005C375.552 292.005 376.707 293.67 376.707 295.845V296.295H371.037C371.112 297.945 372.057 298.995 373.422 298.995C374.472 298.995 375.222 298.425 375.462 297.495L376.647 297.915C376.167 299.31 374.982 300.165 373.422 300.165ZM373.347 293.16C372.207 293.16 371.352 293.925 371.112 295.26H375.342C375.312 294.15 374.712 293.16 373.347 293.16ZM377.518 298.335L378.568 297.57C378.988 298.485 379.948 299.04 380.968 299.04C381.883 299.04 382.693 298.65 382.693 297.795C382.693 296.94 381.943 296.82 380.653 296.55C379.363 296.265 378.013 295.98 378.013 294.375C378.013 292.98 379.228 292.005 380.893 292.005C382.303 292.005 383.458 292.695 383.923 293.625L382.963 294.39C382.558 293.61 381.823 293.115 380.833 293.115C379.933 293.115 379.333 293.565 379.333 294.27C379.333 295.005 380.023 295.14 381.118 295.38C382.468 295.695 384.013 295.965 384.013 297.675C384.013 299.175 382.648 300.165 380.968 300.165C379.543 300.165 378.118 299.55 377.518 298.335Z" fill="#414141"/>
<rect x="32" y="332" width="170" height="86" rx="14" fill="#FFF5E8"/>
<path d="M49.394 364.538C49.394 367.598 51.086 369.668 53.48 369.668C55.154 369.668 56.36 368.696 56.828 367.058L58.466 367.598C57.71 369.83 55.946 371.198 53.48 371.198C50.132 371.198 47.666 368.48 47.666 364.538C47.666 360.596 50.132 357.878 53.48 357.878C55.946 357.878 57.71 359.246 58.466 361.478L56.828 362.018C56.36 360.38 55.154 359.408 53.48 359.408C51.086 359.408 49.394 361.478 49.394 364.538ZM67.6852 361.586V371H66.0652V369.704C65.5252 370.496 64.6072 371.198 63.2752 371.198C61.2592 371.198 60.1252 369.812 60.1252 367.814V361.586H61.7452V367.472C61.7452 368.804 62.3212 369.704 63.7072 369.704C64.8772 369.704 66.0652 368.822 66.0652 367.256V361.586H67.6852ZM69.3314 369.002L70.5914 368.084C71.0954 369.182 72.2474 369.848 73.4714 369.848C74.5694 369.848 75.5414 369.38 75.5414 368.354C75.5414 367.328 74.6414 367.184 73.0934 366.86C71.5454 366.518 69.9254 366.176 69.9254 364.25C69.9254 362.576 71.3834 361.406 73.3814 361.406C75.0734 361.406 76.4594 362.234 77.0174 363.35L75.8654 364.268C75.3794 363.332 74.4974 362.738 73.3094 362.738C72.2294 362.738 71.5094 363.278 71.5094 364.124C71.5094 365.006 72.3374 365.168 73.6514 365.456C75.2714 365.834 77.1254 366.158 77.1254 368.21C77.1254 370.01 75.4874 371.198 73.4714 371.198C71.7614 371.198 70.0514 370.46 69.3314 369.002ZM79.3813 368.75V362.972H77.9233V361.586H79.3813V358.832H80.9833V361.586H83.1253V362.972H80.9833V368.498C80.9833 369.488 81.4693 369.668 82.2973 369.668C82.6753 369.668 82.9453 369.65 83.3233 369.56V370.946C82.9093 371.036 82.4413 371.09 81.9013 371.09C80.2993 371.09 79.3813 370.55 79.3813 368.75ZM93.2938 366.302C93.2938 369.218 91.4938 371.198 88.9198 371.198C86.3458 371.198 84.5458 369.218 84.5458 366.302C84.5458 363.386 86.3458 361.406 88.9198 361.406C91.4938 361.406 93.2938 363.386 93.2938 366.302ZM86.1838 366.302C86.1838 368.444 87.2638 369.812 88.9198 369.812C90.5758 369.812 91.6558 368.444 91.6558 366.302C91.6558 364.142 90.5758 362.774 88.9198 362.774C87.2638 362.774 86.1838 364.142 86.1838 366.302ZM96.9739 365.366V371H95.3539V361.586H96.9739V362.864C97.4779 362.09 98.3779 361.406 99.6919 361.406C100.952 361.406 101.834 362.036 102.302 363.008C102.824 362.234 103.832 361.406 105.308 361.406C107.252 361.406 108.422 362.792 108.422 364.79V371H106.802V365.222C106.802 363.908 106.262 362.918 104.93 362.918C103.85 362.918 102.698 363.836 102.698 365.366V371H101.078V365.222C101.078 363.908 100.538 362.918 99.2059 362.918C98.1259 362.918 96.9739 363.836 96.9739 365.366Z" fill="#414141"/>
<path d="M52.22 393.15C49.79 393.15 47.99 391.71 47.99 388.74V382.23H49.43V388.695C49.43 390.9 50.6 391.86 52.22 391.86C53.855 391.86 55.025 390.9 55.025 388.695V382.23H56.465V388.74C56.465 391.71 54.665 393.15 52.22 393.15ZM58.584 393V385.155H59.934V386.22C60.384 385.575 61.164 385.005 62.274 385.005C63.939 385.005 64.884 386.16 64.884 387.825V393H63.534V388.185C63.534 387.09 63.069 386.265 61.899 386.265C60.924 386.265 59.934 387.015 59.934 388.32V393H58.584ZM68.4008 382.23V393H67.0508V382.23H68.4008ZM70.5943 383.79V382.23H72.0643V383.79H70.5943ZM72.0043 385.155V393H70.6543V385.155H72.0043ZM75.6078 388.305V393H74.2578V385.155H75.6078V386.22C76.0278 385.575 76.7778 385.005 77.8728 385.005C78.9228 385.005 79.6578 385.53 80.0478 386.34C80.4828 385.695 81.3228 385.005 82.5528 385.005C84.1728 385.005 85.1478 386.16 85.1478 387.825V393H83.7978V388.185C83.7978 387.09 83.3478 386.265 82.2378 386.265C81.3378 386.265 80.3778 387.03 80.3778 388.305V393H79.0278V388.185C79.0278 387.09 78.5778 386.265 77.4678 386.265C76.5678 386.265 75.6078 387.03 75.6078 388.305ZM87.2642 383.79V382.23H88.7342V383.79H87.2642ZM88.6742 385.155V393H87.3242V385.155H88.6742ZM91.1377 391.125V386.31H89.9227V385.155H91.1377V382.86H92.4727V385.155H94.2577V386.31H92.4727V390.915C92.4727 391.74 92.8777 391.89 93.5677 391.89C93.8827 391.89 94.1077 391.875 94.4227 391.8V392.955C94.0777 393.03 93.6877 393.075 93.2377 393.075C91.9027 393.075 91.1377 392.625 91.1377 391.125ZM99.1164 393.165C96.9414 393.165 95.4414 391.5 95.4414 389.085C95.4414 386.745 96.9264 385.005 99.0564 385.005C101.246 385.005 102.401 386.67 102.401 388.845V389.295H96.7314C96.8064 390.945 97.7514 391.995 99.1164 391.995C100.166 391.995 100.916 391.425 101.156 390.495L102.341 390.915C101.861 392.31 100.676 393.165 99.1164 393.165ZM99.0414 386.16C97.9014 386.16 97.0464 386.925 96.8064 388.26H101.036C101.006 387.15 100.406 386.16 99.0414 386.16ZM106.962 393.165C104.787 393.165 103.542 391.305 103.542 389.085C103.542 386.85 104.787 385.005 106.962 385.005C108.057 385.005 108.927 385.53 109.392 386.295V382.23H110.742V393H109.392V391.86C108.927 392.64 108.057 393.165 106.962 393.165ZM109.422 388.815C109.422 386.985 108.312 386.19 107.202 386.19C105.732 386.19 104.907 387.39 104.907 389.085C104.907 390.765 105.732 391.98 107.202 391.98C108.312 391.98 109.422 391.17 109.422 389.37V388.815ZM116.198 382.23H123.233V383.49H117.623V386.805H122.378V388.065H117.623V391.74H123.233V393H116.198V382.23ZM126.233 388.305V393H124.883V385.155H126.233V386.22C126.653 385.575 127.403 385.005 128.498 385.005C129.548 385.005 130.283 385.53 130.673 386.34C131.108 385.695 131.948 385.005 133.178 385.005C134.798 385.005 135.773 386.16 135.773 387.825V393H134.423V388.185C134.423 387.09 133.973 386.265 132.863 386.265C131.963 386.265 131.003 387.03 131.003 388.305V393H129.653V388.185C129.653 387.09 129.203 386.265 128.093 386.265C127.193 386.265 126.233 387.03 126.233 388.305ZM141.729 393.165C140.634 393.165 139.764 392.64 139.299 391.86V395.7H137.949V385.155H139.299V386.295C139.764 385.53 140.634 385.005 141.729 385.005C143.904 385.005 145.149 386.85 145.149 389.085C145.149 391.305 143.904 393.165 141.729 393.165ZM139.269 388.815V389.37C139.269 391.17 140.379 391.98 141.489 391.98C142.959 391.98 143.784 390.765 143.784 389.085C143.784 387.39 142.959 386.19 141.489 386.19C140.379 386.19 139.269 386.985 139.269 388.815ZM148.205 382.23V393H146.855V382.23H148.205ZM157.209 389.085C157.209 391.515 155.709 393.165 153.564 393.165C151.419 393.165 149.919 391.515 149.919 389.085C149.919 386.655 151.419 385.005 153.564 385.005C155.709 385.005 157.209 386.655 157.209 389.085ZM151.284 389.085C151.284 390.87 152.184 392.01 153.564 392.01C154.944 392.01 155.844 390.87 155.844 389.085C155.844 387.285 154.944 386.145 153.564 386.145C152.184 386.145 151.284 387.285 151.284 389.085ZM161.616 393.855C161.166 395.04 160.551 395.79 159.186 395.79C158.856 395.79 158.691 395.775 158.451 395.73V394.56C158.706 394.62 158.871 394.635 159.096 394.635C159.681 394.635 159.996 394.425 160.311 393.645L160.686 392.715L157.776 385.155H159.201L161.406 391.155L163.581 385.155H164.991L161.616 393.855ZM169.151 393.165C166.976 393.165 165.476 391.5 165.476 389.085C165.476 386.745 166.961 385.005 169.091 385.005C171.281 385.005 172.436 386.67 172.436 388.845V389.295H166.766C166.841 390.945 167.786 391.995 169.151 391.995C170.201 391.995 170.951 391.425 171.191 390.495L172.376 390.915C171.896 392.31 170.711 393.165 169.151 393.165ZM169.076 386.16C167.936 386.16 167.081 386.925 166.841 388.26H171.071C171.041 387.15 170.441 386.16 169.076 386.16ZM177.251 393.165C175.076 393.165 173.576 391.5 173.576 389.085C173.576 386.745 175.061 385.005 177.191 385.005C179.381 385.005 180.536 386.67 180.536 388.845V389.295H174.866C174.941 390.945 175.886 391.995 177.251 391.995C178.301 391.995 179.051 391.425 179.291 390.495L180.476 390.915C179.996 392.31 178.811 393.165 177.251 393.165ZM177.176 386.16C176.036 386.16 175.181 386.925 174.941 388.26H179.171C179.141 387.15 178.541 386.16 177.176 386.16ZM181.347 391.335L182.397 390.57C182.817 391.485 183.777 392.04 184.797 392.04C185.712 392.04 186.522 391.65 186.522 390.795C186.522 389.94 185.772 389.82 184.482 389.55C183.192 389.265 181.842 388.98 181.842 387.375C181.842 385.98 183.057 385.005 184.722 385.005C186.132 385.005 187.287 385.695 187.752 386.625L186.792 387.39C186.387 386.61 185.652 386.115 184.662 386.115C183.762 386.115 183.162 386.565 183.162 387.27C183.162 388.005 183.852 388.14 184.947 388.38C186.297 388.695 187.842 388.965 187.842 390.675C187.842 392.175 186.477 393.165 184.797 393.165C183.372 393.165 181.947 392.55 181.347 391.335Z" fill="#414141"/>
<defs>
<filter id="filter0_d_169_9913" x="0" y="0" width="529" height="526" filterUnits="userSpaceOnUse" color-interpolation-filters="sRGB">
<feFlood flood-opacity="0" result="BackgroundImageFix"/>
<feColorMatrix in="SourceAlpha" type="matrix" values="0 0 0 0 0 0 0 0 0 0 0 0 0 0 0 0 0 0 127 0" result="hardAlpha"/>
<feOffset dy="40"/>
<feGaussianBlur stdDeviation="37.5"/>
<feComposite in2="hardAlpha" operator="out"/>
<feColorMatrix type="matrix" values="0 0 0 0 1 0 0 0 0 1 0 0 0 0 1 0 0 0 1 0"/>
<feBlend mode="normal" in2="BackgroundImageFix" result="effect1_dropShadow_169_9913"/>
<feBlend mode="normal" in="SourceGraphic" in2="effect1_dropShadow_169_9913" result="shape"/>
</filter>
</defs>
</svg>
