<svg width="547" height="549" viewBox="0 0 547 549" fill="none" xmlns="http://www.w3.org/2000/svg">
<path d="M426.684 -695.706C401.521 -685.641 349.659 -643.438 343.514 -555.141C335.834 -444.77 345.188 -307.044 251.367 -196.31C157.546 -85.5764 92.6767 7.50432 92.1974 188.513C91.718 369.523 93.316 413.879 -2.46087 484.067C-98.2378 554.254 -230.98 588.294 -209.283 746.016" stroke="#FF5656" stroke-opacity="0.65"/>
<path d="M432.131 -689.02C406.387 -680.55 351.986 -641.674 340.33 -553.934C325.76 -444.26 326.48 -306.218 225.915 -201.57C125.351 -96.9227 54.7858 -8.08248 42.9837 172.542C31.1817 353.167 30.0016 397.536 -69.9785 461.595C-169.959 525.653 -304.571 551.322 -292.782 710.092" stroke="#FFC87F"/>
</svg>
