<svg width="582" height="529" viewBox="0 0 582 529" fill="none" xmlns="http://www.w3.org/2000/svg">
<path d="M383.254 433.939C336.531 382.24 340.565 302.453 392.264 255.73L718.689 -39.2746L887.888 147.945L561.463 442.95C509.763 489.673 429.977 485.639 383.254 433.939Z" fill="url(#paint0_linear_209_2453)" fill-opacity="0.19"/>
<path d="M562.477 442.032C511.006 488.55 431.634 484.783 384.798 433.601L-0.00236815 13.0917L187.217 -156.107L570.961 263.248C618.209 314.881 614.402 395.105 562.477 442.032Z" fill="url(#paint1_linear_209_2453)" fill-opacity="0.19"/>
<path d="M536.727 372.846C536.393 372.845 536.063 372.766 535.766 372.614C535.468 372.463 535.21 372.243 535.013 371.973C534.816 371.703 534.685 371.391 534.631 371.061C534.577 370.731 534.602 370.393 534.702 370.075C535.114 368.782 535.487 367.454 535.81 366.126C535.874 365.854 535.992 365.597 536.156 365.37C536.321 365.143 536.528 364.951 536.767 364.805C537.006 364.658 537.271 364.561 537.548 364.517C537.825 364.474 538.107 364.486 538.38 364.552C538.652 364.618 538.908 364.737 539.134 364.903C539.36 365.069 539.551 365.277 539.696 365.517C539.841 365.757 539.937 366.023 539.979 366.3C540.02 366.577 540.007 366.859 539.939 367.131C539.594 368.553 539.193 369.978 538.751 371.365C538.615 371.795 538.345 372.17 537.981 372.436C537.617 372.703 537.178 372.846 536.727 372.846ZM539.311 360.383C539.014 360.384 538.72 360.322 538.448 360.202C538.176 360.082 537.933 359.906 537.733 359.685C537.534 359.465 537.383 359.205 537.29 358.923C537.197 358.64 537.165 358.342 537.195 358.046C537.332 356.695 537.423 355.317 537.468 353.949C537.471 353.668 537.532 353.391 537.645 353.134C537.758 352.877 537.922 352.646 538.127 352.454C538.332 352.262 538.573 352.114 538.837 352.018C539.101 351.921 539.381 351.879 539.661 351.894C539.94 351.903 540.214 351.967 540.469 352.082C540.723 352.197 540.952 352.362 541.143 352.565C541.333 352.769 541.482 353.008 541.581 353.269C541.679 353.531 541.725 353.809 541.716 354.087C541.668 355.552 541.569 357.026 541.424 358.471C541.371 358.995 541.126 359.481 540.735 359.834C540.345 360.187 539.838 360.383 539.311 360.383ZM539.288 347.655C538.762 347.654 538.255 347.459 537.865 347.107C537.475 346.754 537.23 346.27 537.176 345.748C537.037 344.401 536.847 343.035 536.612 341.689C536.561 341.413 536.565 341.13 536.625 340.855C536.684 340.581 536.797 340.321 536.957 340.091C537.118 339.861 537.322 339.665 537.558 339.514C537.795 339.363 538.059 339.26 538.335 339.212C538.612 339.163 538.895 339.17 539.169 339.232C539.442 339.294 539.701 339.409 539.93 339.571C540.159 339.733 540.354 339.939 540.502 340.177C540.651 340.415 540.752 340.68 540.798 340.956C541.051 342.4 541.254 343.865 541.404 345.311C541.462 345.872 541.294 346.432 540.939 346.869C540.583 347.307 540.069 347.585 539.508 347.643C539.435 347.651 539.361 347.655 539.288 347.655ZM536.667 335.207C536.217 335.206 535.778 335.063 535.415 334.798C535.051 334.533 534.781 334.159 534.643 333.731C534.23 332.445 533.762 331.151 533.253 329.883C533.043 329.36 533.049 328.774 533.271 328.256C533.492 327.738 533.911 327.329 534.434 327.119C534.957 326.909 535.542 326.915 536.06 327.137C536.579 327.358 536.988 327.776 537.198 328.299C537.744 329.659 538.245 331.049 538.69 332.43C538.792 332.749 538.817 333.087 538.764 333.418C538.711 333.748 538.58 334.061 538.383 334.332C538.186 334.603 537.928 334.823 537.63 334.975C537.331 335.127 537.001 335.206 536.667 335.207ZM531.534 323.576C531.159 323.576 530.791 323.478 530.467 323.29C530.143 323.102 529.874 322.832 529.688 322.507C529.008 321.32 528.282 320.147 527.53 319.02C527.217 318.551 527.103 317.977 527.213 317.424C527.324 316.872 527.649 316.385 528.118 316.073C528.587 315.76 529.161 315.646 529.714 315.757C530.267 315.867 530.753 316.192 531.066 316.661C531.871 317.869 532.648 319.126 533.375 320.396C533.56 320.719 533.657 321.085 533.657 321.457C533.656 321.829 533.557 322.194 533.371 322.517C533.184 322.839 532.916 323.106 532.594 323.292C532.272 323.478 531.906 323.576 531.534 323.576ZM524.113 313.243C523.812 313.243 523.514 313.18 523.24 313.056C522.965 312.933 522.72 312.752 522.521 312.527C521.621 311.512 520.671 310.512 519.697 309.554C519.303 309.157 519.081 308.622 519.079 308.062C519.078 307.503 519.296 306.966 519.688 306.567C520.08 306.168 520.613 305.94 521.172 305.932C521.731 305.923 522.271 306.135 522.675 306.522C523.718 307.548 524.737 308.62 525.702 309.709C525.974 310.015 526.151 310.393 526.212 310.798C526.274 311.202 526.218 311.616 526.05 311.989C525.882 312.363 525.61 312.679 525.266 312.902C524.923 313.124 524.522 313.242 524.113 313.243ZM514.733 304.641C514.276 304.641 513.832 304.493 513.466 304.221C512.379 303.411 511.243 302.627 510.092 301.886C509.633 301.575 509.313 301.097 509.202 300.554C509.09 300.011 509.196 299.445 509.495 298.979C509.795 298.512 510.265 298.181 510.805 298.056C511.345 297.931 511.913 298.023 512.387 298.31C513.621 299.102 514.837 299.944 516.004 300.811C516.362 301.078 516.628 301.451 516.762 301.877C516.896 302.303 516.893 302.761 516.752 303.185C516.611 303.609 516.34 303.978 515.978 304.24C515.615 304.501 515.18 304.641 514.733 304.641ZM503.789 298.138C503.482 298.139 503.178 298.072 502.9 297.942C501.664 297.373 500.391 296.838 499.116 296.355C498.594 296.151 498.174 295.75 497.947 295.238C497.72 294.726 497.704 294.146 497.902 293.622C498.101 293.099 498.498 292.675 499.007 292.442C499.516 292.21 500.097 292.188 500.622 292.381C501.99 292.9 503.355 293.473 504.681 294.085C505.121 294.288 505.478 294.635 505.693 295.069C505.908 295.503 505.969 295.997 505.865 296.47C505.761 296.943 505.498 297.366 505.121 297.67C504.744 297.973 504.273 298.138 503.789 298.138ZM491.735 294.037C491.576 294.037 491.417 294.02 491.262 293.984C489.936 293.682 488.581 293.423 487.235 293.214C486.958 293.173 486.691 293.078 486.451 292.934C486.21 292.789 486.001 292.599 485.834 292.373C485.668 292.147 485.548 291.891 485.481 291.618C485.414 291.346 485.402 291.063 485.445 290.786C485.488 290.508 485.586 290.242 485.732 290.003C485.878 289.764 486.071 289.556 486.298 289.391C486.525 289.227 486.782 289.109 487.055 289.044C487.328 288.979 487.611 288.97 487.888 289.015C489.33 289.24 490.782 289.517 492.204 289.841C492.713 289.957 493.162 290.256 493.464 290.682C493.767 291.107 493.902 291.63 493.844 292.149C493.786 292.668 493.539 293.147 493.15 293.496C492.761 293.844 492.258 294.037 491.735 294.037ZM474.852 292.578C474.299 292.575 473.769 292.357 473.375 291.97C472.981 291.583 472.752 291.057 472.739 290.505C472.725 289.952 472.928 289.416 473.303 289.011C473.677 288.605 474.196 288.361 474.748 288.331C476.201 288.258 477.667 288.235 479.144 288.26C479.708 288.271 480.244 288.505 480.635 288.911C481.026 289.317 481.239 289.862 481.228 290.426C481.218 290.989 480.984 291.526 480.577 291.917C480.171 292.307 479.627 292.521 479.063 292.51L477.957 292.5C476.953 292.5 475.954 292.525 474.961 292.575C474.924 292.577 474.888 292.578 474.852 292.578Z" fill="white"/>
<path d="M479.414 415.734C478.85 415.74 478.307 415.522 477.905 415.128C477.502 414.734 477.272 414.196 477.266 413.632C477.26 413.069 477.478 412.526 477.872 412.123C478.266 411.72 478.805 411.49 479.368 411.484C480.735 411.455 482.113 411.378 483.464 411.254C484.025 411.203 484.584 411.377 485.017 411.738C485.45 412.098 485.722 412.616 485.773 413.178C485.824 413.739 485.651 414.298 485.29 414.731C484.929 415.164 484.411 415.436 483.85 415.487C482.401 415.619 480.925 415.702 479.462 415.734H479.414ZM470.935 415.345C470.853 415.345 470.771 415.341 470.69 415.332C469.241 415.166 467.779 414.948 466.346 414.683C466.071 414.632 465.81 414.528 465.575 414.376C465.341 414.224 465.139 414.028 464.981 413.798C464.662 413.334 464.54 412.762 464.642 412.207C464.744 411.653 465.063 411.162 465.527 410.843C465.991 410.523 466.563 410.401 467.118 410.504C468.455 410.751 469.82 410.954 471.174 411.109C471.713 411.169 472.209 411.435 472.559 411.849C472.91 412.264 473.088 412.798 473.057 413.34C473.027 413.882 472.79 414.392 472.395 414.765C472 415.138 471.478 415.345 470.935 415.345ZM492.039 414.144C491.517 414.144 491.014 413.952 490.624 413.604C490.235 413.257 489.987 412.779 489.928 412.26C489.868 411.742 490.002 411.22 490.302 410.794C490.603 410.367 491.05 410.067 491.558 409.949C492.877 409.642 494.209 409.282 495.518 408.88C495.786 408.791 496.07 408.756 496.352 408.778C496.635 408.799 496.91 408.877 497.161 409.007C497.413 409.137 497.636 409.315 497.818 409.532C498 409.75 498.136 410.001 498.22 410.271C498.303 410.542 498.331 410.827 498.303 411.108C498.275 411.39 498.19 411.663 498.055 411.912C497.92 412.161 497.736 412.38 497.515 412.557C497.294 412.733 497.039 412.864 496.767 412.941C495.364 413.373 493.938 413.759 492.523 414.089C492.364 414.125 492.202 414.143 492.039 414.144ZM458.508 412.605C458.28 412.605 458.053 412.568 457.837 412.495C456.452 412.034 455.065 411.517 453.713 410.96C453.45 410.857 453.211 410.702 453.01 410.506C452.808 410.309 452.647 410.074 452.537 409.815C452.426 409.555 452.369 409.277 452.367 408.995C452.366 408.713 452.421 408.434 452.528 408.173C452.636 407.913 452.794 407.676 452.994 407.477C453.193 407.278 453.431 407.121 453.692 407.015C453.953 406.909 454.232 406.856 454.514 406.859C454.796 406.862 455.074 406.921 455.333 407.032C456.593 407.551 457.888 408.032 459.18 408.463C459.659 408.622 460.066 408.946 460.328 409.378C460.59 409.81 460.689 410.321 460.609 410.82C460.528 411.318 460.272 411.772 459.887 412.099C459.502 412.426 459.013 412.605 458.508 412.605ZM446.91 407.346C446.533 407.347 446.164 407.246 445.839 407.056C444.577 406.318 443.327 405.526 442.122 404.704C441.662 404.384 441.347 403.895 441.246 403.344C441.144 402.793 441.265 402.224 441.58 401.761C441.896 401.298 442.382 400.979 442.933 400.873C443.483 400.766 444.053 400.882 444.518 401.194C445.642 401.96 446.808 402.698 447.984 403.386C448.387 403.622 448.701 403.984 448.878 404.416C449.055 404.848 449.085 405.327 448.962 405.777C448.84 406.228 448.572 406.626 448.201 406.909C447.83 407.193 447.377 407.347 446.91 407.346ZM436.646 399.817C436.119 399.817 435.611 399.621 435.22 399.267C434.142 398.289 433.081 397.26 432.067 396.207C431.869 396.007 431.713 395.769 431.608 395.508C431.502 395.247 431.45 394.968 431.453 394.687C431.456 394.405 431.516 394.127 431.627 393.869C431.739 393.611 431.901 393.377 432.103 393.182C432.306 392.987 432.545 392.834 432.808 392.732C433.07 392.63 433.35 392.581 433.631 392.588C433.913 392.595 434.19 392.658 434.446 392.773C434.703 392.888 434.935 393.053 435.127 393.258C436.075 394.241 437.067 395.203 438.073 396.115C438.392 396.403 438.616 396.781 438.715 397.199C438.815 397.617 438.785 398.055 438.631 398.456C438.476 398.857 438.204 399.201 437.85 399.444C437.495 399.687 437.076 399.817 436.646 399.817ZM428.146 390.352C427.81 390.352 427.479 390.273 427.18 390.121C426.881 389.969 426.622 389.748 426.425 389.477C425.571 388.303 424.743 387.079 423.964 385.84C423.815 385.604 423.714 385.341 423.668 385.065C423.621 384.79 423.629 384.509 423.691 384.237C423.753 383.964 423.868 383.707 424.029 383.479C424.19 383.252 424.395 383.058 424.631 382.91C424.868 382.761 425.131 382.66 425.406 382.614C425.681 382.567 425.963 382.575 426.235 382.637C426.507 382.699 426.764 382.814 426.992 382.975C427.22 383.136 427.413 383.341 427.562 383.577C428.29 384.736 429.063 385.879 429.861 386.975C430.092 387.292 430.231 387.667 430.262 388.057C430.293 388.448 430.216 388.84 430.038 389.189C429.861 389.539 429.59 389.832 429.256 390.037C428.922 390.242 428.538 390.351 428.146 390.352ZM421.759 379.352C421.349 379.352 420.948 379.234 420.604 379.012C420.26 378.789 419.987 378.472 419.819 378.098C419.223 376.771 418.663 375.403 418.158 374.032C417.963 373.503 417.987 372.918 418.223 372.407C418.459 371.895 418.889 371.498 419.418 371.303C419.947 371.108 420.531 371.132 421.043 371.368C421.555 371.604 421.952 372.034 422.147 372.563C422.618 373.841 423.139 375.117 423.696 376.355C423.841 376.679 423.903 377.034 423.876 377.387C423.849 377.741 423.734 378.082 423.542 378.38C423.349 378.678 423.085 378.923 422.774 379.093C422.462 379.263 422.113 379.351 421.759 379.352ZM417.776 367.27C417.291 367.27 416.822 367.104 416.444 366.799C416.067 366.495 415.805 366.071 415.702 365.598C415.391 364.171 415.127 362.715 414.918 361.272C414.877 360.996 414.892 360.714 414.961 360.444C415.03 360.173 415.151 359.919 415.318 359.695C415.485 359.472 415.694 359.283 415.934 359.141C416.174 358.998 416.439 358.904 416.716 358.864C416.992 358.824 417.273 358.838 417.544 358.907C417.814 358.976 418.068 359.097 418.292 359.264C418.516 359.431 418.704 359.64 418.847 359.88C418.99 360.12 419.084 360.386 419.124 360.662C419.319 362.006 419.565 363.363 419.854 364.693C419.922 365.003 419.919 365.325 419.846 365.634C419.773 365.943 419.632 366.232 419.432 366.479C419.233 366.726 418.981 366.926 418.694 367.063C418.407 367.199 418.094 367.27 417.776 367.27Z" fill="white"/>
<path d="M502.19 375.572L498.669 372.035C500.098 369.767 500.851 367.132 500.839 364.443C500.839 357.563 496.137 351.95 490.37 351.95C484.603 351.95 479.902 357.563 479.902 364.443C479.902 371.324 484.603 376.936 490.37 376.936C492.459 376.914 494.482 376.191 496.118 374.88L499.487 378.301C499.848 378.658 500.333 378.858 500.839 378.858C501.344 378.858 501.829 378.658 502.19 378.301C502.547 377.938 502.747 377.447 502.747 376.936C502.747 376.425 502.547 375.934 502.19 375.572ZM495.909 369.248L494.577 367.884C494.218 367.524 493.733 367.323 493.227 367.324C492.722 367.325 492.237 367.528 491.88 367.889C491.522 368.25 491.321 368.739 491.32 369.25C491.319 369.76 491.518 370.25 491.874 370.613L493.378 372.112C492.495 372.735 491.447 373.077 490.37 373.092C486.697 373.092 483.709 369.21 483.709 364.443C483.709 359.677 486.697 355.794 490.37 355.794C494.044 355.794 497.032 359.677 497.032 364.443C497.039 366.112 496.655 367.759 495.909 369.248ZM502.19 375.572L498.669 372.035C500.098 369.767 500.851 367.132 500.839 364.443C500.839 357.563 496.137 351.95 490.37 351.95C484.603 351.95 479.902 357.563 479.902 364.443C479.902 371.324 484.603 376.936 490.37 376.936C492.459 376.914 494.482 376.191 496.118 374.88L499.487 378.301C499.848 378.658 500.333 378.858 500.839 378.858C501.344 378.858 501.829 378.658 502.19 378.301C502.547 377.938 502.747 377.447 502.747 376.936C502.747 376.425 502.547 375.934 502.19 375.572ZM495.909 369.248L494.577 367.884C494.218 367.524 493.733 367.323 493.227 367.324C492.722 367.325 492.237 367.528 491.88 367.889C491.522 368.25 491.321 368.739 491.32 369.25C491.319 369.76 491.518 370.25 491.874 370.613L493.378 372.112C492.495 372.735 491.447 373.077 490.37 373.092C486.697 373.092 483.709 369.21 483.709 364.443C483.709 359.677 486.697 355.794 490.37 355.794C494.044 355.794 497.032 359.677 497.032 364.443C497.039 366.112 496.655 367.759 495.909 369.248ZM536.297 396.598C532.849 393.689 530.094 390.032 528.239 385.899C526.384 381.766 525.475 377.264 525.582 372.727V366.538C525.582 347.645 510.032 331.578 491.608 331.424C489.901 331.419 488.196 331.541 486.507 331.789C487.156 329.475 487.495 327.083 487.516 324.678C487.552 320.785 486.817 316.924 485.352 313.322C483.888 309.721 481.724 306.452 478.989 303.709C476.224 300.904 472.929 298.688 469.3 297.192C465.671 295.696 461.781 294.952 457.862 295.002C450.086 295.244 442.706 298.518 437.269 304.137C431.833 309.756 428.763 317.283 428.704 325.139V330.405C428.794 334.218 428.032 338.003 426.473 341.477C424.915 344.951 422.6 348.025 419.701 350.471C419.395 350.72 419.175 351.06 419.069 351.442C418.963 351.824 418.978 352.231 419.111 352.604C419.245 352.975 419.489 353.295 419.809 353.521C420.128 353.748 420.509 353.871 420.9 353.872H457.405C458.014 353.872 458.604 353.834 459.213 353.796C457.761 357.696 457.032 361.833 457.063 366C457.215 384.432 473.279 400 492.16 400H535.098C535.489 399.998 535.87 399.876 536.189 399.649C536.509 399.422 536.753 399.102 536.887 398.731C537.02 398.358 537.035 397.952 536.929 397.57C536.824 397.187 536.603 396.848 536.297 396.598ZM455.826 328.887L454.855 331.481C454.769 331.717 454.637 331.934 454.468 332.119C454.299 332.304 454.096 332.453 453.869 332.558C453.643 332.663 453.399 332.723 453.15 332.733C452.901 332.742 452.652 332.703 452.419 332.615C451.946 332.435 451.562 332.074 451.352 331.609C451.141 331.145 451.121 330.615 451.296 330.136L457.006 314.76C457.143 314.393 457.388 314.078 457.708 313.854C458.027 313.631 458.406 313.512 458.795 313.511C459.181 313.512 459.557 313.632 459.874 313.855C460.19 314.079 460.431 314.394 460.565 314.76L466.275 330.136C466.453 330.613 466.437 331.141 466.23 331.606C466.023 332.071 465.642 332.434 465.171 332.615C464.956 332.689 464.731 332.728 464.505 332.731C464.116 332.731 463.736 332.612 463.416 332.389C463.097 332.166 462.852 331.849 462.716 331.481L461.745 328.887H455.826ZM492.16 396.156C475.334 396.156 461.003 382.337 460.869 365.962C460.826 361.936 461.584 357.943 463.098 354.219C464.612 350.495 466.85 347.116 469.682 344.282C472.518 341.408 475.892 339.131 479.607 337.583C483.322 336.036 487.304 335.249 491.322 335.268H491.589C499.649 335.524 507.297 338.925 512.926 344.756C518.555 350.588 521.727 358.395 521.775 366.538V372.727C521.621 381.345 524.678 389.706 530.34 396.156H492.16ZM498.669 372.035C500.098 369.767 500.851 367.132 500.839 364.443C500.839 357.563 496.137 351.95 490.37 351.95C484.603 351.95 479.902 357.563 479.902 364.443C479.902 371.324 484.603 376.936 490.37 376.936C492.459 376.914 494.482 376.191 496.118 374.88L499.487 378.301C499.848 378.658 500.333 378.858 500.839 378.858C501.344 378.858 501.829 378.658 502.19 378.301C502.547 377.938 502.747 377.447 502.747 376.936C502.747 376.425 502.547 375.934 502.19 375.572L498.669 372.035ZM495.909 369.248L494.577 367.884C494.218 367.524 493.733 367.323 493.227 367.324C492.722 367.325 492.237 367.528 491.88 367.889C491.522 368.25 491.321 368.739 491.32 369.25C491.319 369.76 491.518 370.25 491.874 370.613L493.378 372.112C492.495 372.735 491.447 373.077 490.37 373.092C486.697 373.092 483.709 369.21 483.709 364.443C483.709 359.677 486.697 355.794 490.37 355.794C494.044 355.794 497.032 359.677 497.032 364.443C497.039 366.112 496.655 367.759 495.909 369.248ZM457.253 325.043H460.317L458.795 320.911L457.253 325.043ZM458.795 320.911L457.253 325.043H460.317L458.795 320.911ZM458.795 320.911L457.253 325.043H460.317L458.795 320.911Z" fill="white"/>
<defs>
<linearGradient id="paint0_linear_209_2453" x1="731.29" y1="31.5304" x2="379.588" y2="395.955" gradientUnits="userSpaceOnUse">
<stop stop-color="#FFC87F"/>
<stop offset="1" stop-color="#FF5656"/>
</linearGradient>
<linearGradient id="paint1_linear_209_2453" x1="191.908" y1="128.06" x2="522.352" y2="450.828" gradientUnits="userSpaceOnUse">
<stop stop-color="#FFC87F"/>
<stop offset="1" stop-color="#FFC87F"/>
</linearGradient>
</defs>
</svg>
