<svg width="198" height="55" viewBox="0 0 198 55" fill="none" xmlns="http://www.w3.org/2000/svg">
<path fill-rule="evenodd" clip-rule="evenodd" d="M20 0C12.268 0 6 6.26801 6 14V32C6 33.7767 6.33095 35.476 6.93455 37.0398L0.189955 51.7827C-0.621658 53.5568 1.3273 55.3243 3.0139 54.3437L17.6913 45.8105C18.4424 45.9352 19.2136 46 20 46H184C191.732 46 198 39.732 198 32V14C198 6.26801 191.732 0 184 0H20Z" fill="#E7D5FF"/>
<path d="M39.132 29H37.422V16.076H45.774V17.588H39.132V21.746H44.748V23.258H39.132V29ZM55.0125 24.302C55.0125 27.218 53.2125 29.198 50.6385 29.198C48.0645 29.198 46.2645 27.218 46.2645 24.302C46.2645 21.386 48.0645 19.406 50.6385 19.406C53.2125 19.406 55.0125 21.386 55.0125 24.302ZM47.9025 24.302C47.9025 26.444 48.9825 27.812 50.6385 27.812C52.2945 27.812 53.3745 26.444 53.3745 24.302C53.3745 22.142 52.2945 20.774 50.6385 20.774C48.9825 20.774 47.9025 22.142 47.9025 24.302ZM61.9507 19.55V21.188C61.6807 21.134 61.4647 21.116 61.1587 21.116C59.7907 21.116 58.6927 22.196 58.6927 23.852V29H57.0727V19.586H58.6927V21.188C59.1067 20.234 60.0247 19.514 61.3027 19.514C61.5547 19.514 61.7887 19.532 61.9507 19.55ZM71.3924 28.154C71.3924 30.908 69.5744 32.438 67.0184 32.438C64.9484 32.438 63.4364 31.484 62.9144 29.756L64.4264 29.18C64.7324 30.386 65.7044 31.088 67.0184 31.088C68.6744 31.088 69.7724 30.242 69.7724 28.28V27.218C69.2684 28.136 68.2064 28.784 66.8924 28.784C64.3184 28.784 62.8064 26.66 62.8064 24.086C62.8064 21.53 64.3184 19.406 66.8924 19.406C68.1884 19.406 69.2684 20.054 69.7724 20.972V19.586H71.3924V28.154ZM69.7904 23.942C69.7904 21.836 68.5304 20.828 67.1804 20.828C65.4704 20.828 64.4264 22.106 64.4264 24.086C64.4264 26.066 65.4704 27.362 67.1804 27.362C68.5304 27.362 69.7904 26.354 69.7904 24.284V23.942ZM82.1883 24.302C82.1883 27.218 80.3883 29.198 77.8143 29.198C75.2403 29.198 73.4403 27.218 73.4403 24.302C73.4403 21.386 75.2403 19.406 77.8143 19.406C80.3883 19.406 82.1883 21.386 82.1883 24.302ZM75.0783 24.302C75.0783 26.444 76.1583 27.812 77.8143 27.812C79.4703 27.812 80.5503 26.444 80.5503 24.302C80.5503 22.142 79.4703 20.774 77.8143 20.774C76.1583 20.774 75.0783 22.142 75.0783 24.302ZM84.5004 26.75V20.972H83.0424V19.586H84.5004V16.832H86.1024V19.586H88.2444V20.972H86.1024V26.498C86.1024 27.488 86.5884 27.668 87.4164 27.668C87.7944 27.668 88.0644 27.65 88.4424 27.56V28.946C88.0284 29.036 87.5604 29.09 87.0204 29.09C85.4184 29.09 84.5004 28.55 84.5004 26.75ZM95.9625 23.582V29H94.2345V16.076H99.1665C101.902 16.076 103.649 17.354 103.649 19.82C103.649 22.25 101.902 23.582 99.1665 23.582H95.9625ZM95.9625 22.088H99.0765C100.913 22.088 101.939 21.278 101.939 19.82C101.939 18.362 100.913 17.57 99.0765 17.57H95.9625V22.088ZM107.437 29.162C105.727 29.162 104.341 28.154 104.341 26.462C104.341 24.59 105.799 23.816 107.905 23.384L110.191 22.916V22.52C110.191 21.44 109.597 20.828 108.337 20.828C107.149 20.828 106.447 21.386 106.159 22.43L104.629 22.034C105.079 20.504 106.465 19.406 108.391 19.406C110.497 19.406 111.793 20.432 111.793 22.448V27.038C111.793 27.65 112.171 27.848 112.801 27.704V29C111.361 29.18 110.533 28.838 110.335 27.938C109.759 28.676 108.715 29.162 107.437 29.162ZM110.191 25.796V24.176L108.355 24.572C106.915 24.86 105.943 25.256 105.943 26.39C105.943 27.308 106.609 27.848 107.635 27.848C109.021 27.848 110.191 27.002 110.191 25.796ZM113.509 27.002L114.769 26.084C115.273 27.182 116.425 27.848 117.649 27.848C118.747 27.848 119.719 27.38 119.719 26.354C119.719 25.328 118.819 25.184 117.271 24.86C115.723 24.518 114.103 24.176 114.103 22.25C114.103 20.576 115.561 19.406 117.559 19.406C119.251 19.406 120.637 20.234 121.195 21.35L120.043 22.268C119.557 21.332 118.675 20.738 117.487 20.738C116.407 20.738 115.687 21.278 115.687 22.124C115.687 23.006 116.515 23.168 117.829 23.456C119.449 23.834 121.303 24.158 121.303 26.21C121.303 28.01 119.665 29.198 117.649 29.198C115.939 29.198 114.229 28.46 113.509 27.002ZM122.263 27.002L123.523 26.084C124.027 27.182 125.179 27.848 126.403 27.848C127.501 27.848 128.473 27.38 128.473 26.354C128.473 25.328 127.573 25.184 126.025 24.86C124.477 24.518 122.857 24.176 122.857 22.25C122.857 20.576 124.315 19.406 126.313 19.406C128.005 19.406 129.391 20.234 129.949 21.35L128.797 22.268C128.311 21.332 127.429 20.738 126.241 20.738C125.161 20.738 124.441 21.278 124.441 22.124C124.441 23.006 125.269 23.168 126.583 23.456C128.203 23.834 130.057 24.158 130.057 26.21C130.057 28.01 128.419 29.198 126.403 29.198C124.693 29.198 122.983 28.46 122.263 27.002ZM136.402 19.586H137.77L139.714 26.606L141.676 19.586H143.296L140.434 29H139.012L137.05 22.016L135.088 29H133.666L130.804 19.586H132.478L134.458 26.588L136.402 19.586ZM152.8 24.302C152.8 27.218 151 29.198 148.426 29.198C145.852 29.198 144.052 27.218 144.052 24.302C144.052 21.386 145.852 19.406 148.426 19.406C151 19.406 152.8 21.386 152.8 24.302ZM145.69 24.302C145.69 26.444 146.77 27.812 148.426 27.812C150.082 27.812 151.162 26.444 151.162 24.302C151.162 22.142 150.082 20.774 148.426 20.774C146.77 20.774 145.69 22.142 145.69 24.302ZM159.738 19.55V21.188C159.468 21.134 159.252 21.116 158.946 21.116C157.578 21.116 156.48 22.196 156.48 23.852V29H154.86V19.586H156.48V21.188C156.894 20.234 157.812 19.514 159.09 19.514C159.342 19.514 159.576 19.532 159.738 19.55ZM164.661 29.198C162.051 29.198 160.557 26.966 160.557 24.302C160.557 21.62 162.051 19.406 164.661 19.406C165.975 19.406 167.019 20.036 167.577 20.954V16.076H169.197V29H167.577V27.632C167.019 28.568 165.975 29.198 164.661 29.198ZM167.613 23.978C167.613 21.782 166.281 20.828 164.949 20.828C163.185 20.828 162.195 22.268 162.195 24.302C162.195 26.318 163.185 27.776 164.949 27.776C166.281 27.776 167.613 26.804 167.613 24.644V23.978ZM173.048 25.3789V24.8955C173.048 24.1982 173.159 23.6328 173.382 23.1992C173.604 22.7598 173.997 22.3057 174.56 21.8369C175.198 21.2979 175.617 20.9111 175.816 20.6768C176.016 20.4424 176.156 20.208 176.238 19.9736C176.32 19.7393 176.361 19.4668 176.361 19.1562C176.361 18.5762 176.174 18.1309 175.799 17.8203C175.424 17.5098 174.885 17.3545 174.182 17.3545C173.713 17.3545 173.253 17.4131 172.802 17.5303C172.356 17.6475 171.855 17.8408 171.299 18.1104L170.745 16.8535C171.858 16.2617 173.039 15.9658 174.287 15.9658C175.4 15.9658 176.276 16.2441 176.915 16.8008C177.554 17.3516 177.873 18.125 177.873 19.1211C177.873 19.5547 177.814 19.9385 177.697 20.2725C177.58 20.6064 177.401 20.9229 177.161 21.2217C176.927 21.5205 176.455 21.9658 175.746 22.5576C175.166 23.0557 174.779 23.4688 174.586 23.7969C174.398 24.1191 174.305 24.5469 174.305 25.0801V25.3789H173.048ZM172.635 28.0244C172.635 27.2217 173.007 26.8203 173.751 26.8203C174.091 26.8203 174.357 26.9229 174.551 27.1279C174.75 27.3271 174.85 27.626 174.85 28.0244C174.85 28.417 174.75 28.7217 174.551 28.9385C174.352 29.1494 174.085 29.2549 173.751 29.2549C173.423 29.2549 173.153 29.1582 172.942 28.9648C172.737 28.7715 172.635 28.458 172.635 28.0244Z" fill="#414141"/>
</svg>
