<svg width="1280" height="337" viewBox="0 0 1280 337" fill="none" xmlns="http://www.w3.org/2000/svg">
<path d="M-153.106 304.428C-131.631 320.961 -68.9018 344.108 10.2209 304.439C109.124 254.851 222.898 176.675 365.974 201.041C509.049 225.408 622.19 233.845 778.223 142.093C934.255 50.3418 971.618 26.3814 1080.79 73.0763C1189.97 119.771 1286.85 216.686 1411.55 117.705" stroke="url(#paint0_linear_1095_3107)" stroke-opacity="0.32"/>
<circle cx="1109.1" cy="87.0039" r="5.86479" transform="rotate(-6.8054 1109.1 87.0039)" fill="#FFF1EC" stroke="#FFC87F"/>
<circle cx="489.003" cy="216.841" r="6.36479" transform="rotate(-6.8054 489.003 216.841)" fill="#FFF1EC"/>
<circle cx="489.003" cy="216.841" r="5.86479" transform="rotate(-6.8054 489.003 216.841)" stroke="#B379FF" stroke-opacity="0.65"/>
<circle cx="796.482" cy="130.721" r="6.36479" transform="rotate(-6.8054 796.482 130.721)" fill="#FFF1EC"/>
<circle cx="796.482" cy="130.721" r="5.86479" transform="rotate(-6.8054 796.482 130.721)" stroke="#FF5656" stroke-opacity="0.65"/>
<path d="M-162.696 227.987C-142.936 246.535 -82.763 275.689 -0.148835 243.925C103.119 204.219 223.974 137.51 363.992 175.713C504.009 213.915 615.788 233.346 780.024 157.248C944.261 81.1496 983.782 60.9469 1087.88 118.066C1191.98 175.185 1278.95 281.086 1412.71 194.737" stroke="#FFD0D0" stroke-opacity="0.65"/>
<defs>
<linearGradient id="paint0_linear_1095_3107" x1="383.043" y1="174.725" x2="1312.39" y2="-73.7899" gradientUnits="userSpaceOnUse">
<stop stop-color="#9747FF"/>
<stop offset="0.442536" stop-color="#FF5656"/>
<stop offset="0.782668" stop-color="#FF3F33"/>
<stop offset="1" stop-color="#FF5656"/>
</linearGradient>
</defs>
</svg>
