<svg width="1280" height="404" viewBox="0 0 1280 404" fill="none" xmlns="http://www.w3.org/2000/svg">
<path d="M-146.488 371.718C-124.319 387.307 -60.648 407.722 16.6864 364.67C113.354 310.855 223.644 227.835 367.638 245.995C511.633 264.156 625.033 267.695 776.955 169.286C928.876 70.8773 965.169 45.3247 1076.26 87.2577C1187.35 129.191 1288.33 221.829 1408.64 117.55" stroke="url(#paint0_linear_1090_3103)" stroke-opacity="0.32"/>
<path d="M-159.373 295.763C-138.83 313.439 -77.4529 339.966 3.71133 304.661C105.167 260.529 223.026 188.66 364.564 220.776C506.101 252.892 618.615 267.473 779.41 184.349C940.204 101.224 978.815 79.3322 1085.29 131.899C1191.76 184.465 1283.23 286.509 1413.13 194.46" stroke="#FFC87F"/>
<defs>
<linearGradient id="paint0_linear_1090_3103" x1="383.554" y1="218.965" x2="1301.29" y2="-69.4799" gradientUnits="userSpaceOnUse">
<stop stop-color="#9747FF"/>
<stop offset="0.442536" stop-color="#FF5656"/>
<stop offset="0.782668" stop-color="#FF3F33"/>
<stop offset="1" stop-color="#FF5656"/>
</linearGradient>
</defs>
</svg>
