<svg width="699" height="530" viewBox="0 0 699 530" fill="none" xmlns="http://www.w3.org/2000/svg">
<g filter="url(#filter0_d_711_2954)">
<rect x="261.368" y="35.2037" width="208.808" height="173.578" rx="16" fill="white" fill-opacity="0.84" shape-rendering="crispEdges"/>
</g>
<rect x="304.208" y="160.115" width="179.726" height="22.5331" rx="4" fill="#FFF4E5"/>
<path d="M428.219 169.436H425.93V170.297H425.342V168.855H428.933V169.436C427.701 170.801 427.344 172.068 427.344 173.881H426.665C426.665 171.928 427.204 170.563 428.219 169.436ZM429.168 171.368C429.168 169.835 429.889 168.778 431.086 168.778C432.276 168.778 432.997 169.835 432.997 171.368C432.997 172.901 432.276 173.958 431.086 173.958C429.889 173.958 429.168 172.901 429.168 171.368ZM429.84 171.368C429.84 172.544 430.267 173.37 431.086 173.37C431.898 173.37 432.332 172.544 432.332 171.368C432.332 170.192 431.898 169.366 431.086 169.366C430.267 169.366 429.84 170.192 429.84 171.368ZM434.118 170.374C434.118 170.75 434.158 171.034 434.237 171.225C434.319 171.415 434.449 171.509 434.627 171.509C434.987 171.509 435.167 171.131 435.167 170.374C435.167 169.622 434.987 169.246 434.627 169.246C434.449 169.246 434.319 169.341 434.237 169.53C434.158 169.717 434.118 169.998 434.118 170.374ZM435.68 170.374C435.68 170.894 435.59 171.287 435.41 171.554C435.232 171.818 434.971 171.95 434.627 171.95C434.303 171.95 434.052 171.814 433.872 171.543C433.694 171.27 433.605 170.88 433.605 170.374C433.605 169.853 433.692 169.462 433.865 169.202C434.04 168.942 434.294 168.812 434.627 168.812C434.962 168.812 435.221 168.948 435.403 169.219C435.587 169.488 435.68 169.873 435.68 170.374ZM437.177 172.377C437.177 172.758 437.217 173.041 437.296 173.228C437.378 173.415 437.508 173.509 437.686 173.509C437.871 173.509 438.006 173.416 438.093 173.232C438.182 173.045 438.226 172.76 438.226 172.377C438.226 171.63 438.046 171.256 437.686 171.256C437.508 171.256 437.378 171.35 437.296 171.536C437.217 171.721 437.177 172.001 437.177 172.377ZM438.739 172.377C438.739 172.895 438.649 173.286 438.469 173.553C438.289 173.817 438.028 173.95 437.686 173.95C437.362 173.95 437.111 173.814 436.931 173.543C436.753 173.269 436.664 172.881 436.664 172.377C436.664 171.855 436.751 171.465 436.924 171.205C437.097 170.945 437.351 170.815 437.686 170.815C438.021 170.815 438.28 170.951 438.462 171.222C438.646 171.491 438.739 171.876 438.739 172.377ZM437.826 168.884L435.054 173.881H434.518L437.29 168.884H437.826ZM441.46 172.054C441.46 172.887 441.908 173.405 442.559 173.405C443.063 173.405 443.364 173.083 443.469 172.628L444.029 172.887C443.854 173.496 443.322 173.958 442.559 173.958C441.537 173.958 440.83 173.181 440.83 172.054C440.83 170.92 441.537 170.15 442.559 170.15C443.322 170.15 443.84 170.591 444.015 171.2L443.469 171.473C443.364 171.025 443.063 170.696 442.559 170.696C441.908 170.696 441.46 171.214 441.46 172.054ZM447.869 172.054C447.869 173.188 447.169 173.958 446.168 173.958C445.167 173.958 444.467 173.188 444.467 172.054C444.467 170.92 445.167 170.15 446.168 170.15C447.169 170.15 447.869 170.92 447.869 172.054ZM445.104 172.054C445.104 172.887 445.524 173.419 446.168 173.419C446.812 173.419 447.232 172.887 447.232 172.054C447.232 171.214 446.812 170.682 446.168 170.682C445.524 170.682 445.104 171.214 445.104 172.054ZM449.3 171.69V173.881H448.67V170.22H449.3V170.717C449.496 170.416 449.846 170.15 450.357 170.15C450.847 170.15 451.19 170.395 451.372 170.773C451.575 170.472 451.967 170.15 452.541 170.15C453.297 170.15 453.752 170.689 453.752 171.466V173.881H453.122V171.634C453.122 171.123 452.912 170.738 452.394 170.738C451.974 170.738 451.526 171.095 451.526 171.69V173.881H450.896V171.634C450.896 171.123 450.686 170.738 450.168 170.738C449.748 170.738 449.3 171.095 449.3 171.69ZM456.532 173.958C456.021 173.958 455.615 173.713 455.398 173.349V175.141H454.768V170.22H455.398V170.752C455.615 170.395 456.021 170.15 456.532 170.15C457.547 170.15 458.128 171.011 458.128 172.054C458.128 173.09 457.547 173.958 456.532 173.958ZM455.384 171.928V172.187C455.384 173.027 455.902 173.405 456.42 173.405C457.106 173.405 457.491 172.838 457.491 172.054C457.491 171.263 457.106 170.703 456.42 170.703C455.902 170.703 455.384 171.074 455.384 171.928ZM459.554 168.855V173.881H458.924V168.855H459.554ZM462.069 173.958C461.054 173.958 460.354 173.181 460.354 172.054C460.354 170.962 461.047 170.15 462.041 170.15C463.063 170.15 463.602 170.927 463.602 171.942V172.152H460.956C460.991 172.922 461.432 173.412 462.069 173.412C462.559 173.412 462.909 173.146 463.021 172.712L463.574 172.908C463.35 173.559 462.797 173.958 462.069 173.958ZM462.034 170.689C461.502 170.689 461.103 171.046 460.991 171.669H462.965C462.951 171.151 462.671 170.689 462.034 170.689ZM464.484 173.006V170.759H463.917V170.22H464.484V169.149H465.107V170.22H465.94V170.759H465.107V172.908C465.107 173.293 465.296 173.363 465.618 173.363C465.765 173.363 465.87 173.356 466.017 173.321V173.86C465.856 173.895 465.674 173.916 465.464 173.916C464.841 173.916 464.484 173.706 464.484 173.006ZM466.737 169.583V168.855H467.423V169.583H466.737ZM467.395 170.22V173.881H466.765V170.22H467.395ZM471.596 172.054C471.596 173.188 470.896 173.958 469.895 173.958C468.894 173.958 468.194 173.188 468.194 172.054C468.194 170.92 468.894 170.15 469.895 170.15C470.896 170.15 471.596 170.92 471.596 172.054ZM468.831 172.054C468.831 172.887 469.251 173.419 469.895 173.419C470.539 173.419 470.959 172.887 470.959 172.054C470.959 171.214 470.539 170.682 469.895 170.682C469.251 170.682 468.831 171.214 468.831 172.054ZM472.398 173.881V170.22H473.028V170.717C473.238 170.416 473.602 170.15 474.12 170.15C474.897 170.15 475.338 170.689 475.338 171.466V173.881H474.708V171.634C474.708 171.123 474.491 170.738 473.945 170.738C473.49 170.738 473.028 171.088 473.028 171.697V173.881H472.398Z" fill="#414141"/>
<rect x="312.86" y="168.526" width="106.129" height="5.70972" rx="2.85486" fill="#FFC87F"/>
<rect x="304.208" y="110.484" width="8.48102" height="8.48102" rx="4.24051" fill="#FFECD2"/>
<path d="M322.226 107.453V121.813H319.666V107.453H322.226ZM323.479 119.013L325.439 117.393C326.439 118.953 327.939 119.853 329.579 119.853C331.199 119.853 332.419 119.113 332.419 117.733C332.419 116.273 330.919 116.073 328.779 115.553C326.619 115.033 324.299 114.393 324.299 111.593C324.299 108.933 326.579 107.233 329.479 107.233C331.939 107.233 333.859 108.393 334.819 109.893L332.939 111.513C332.139 110.273 331.079 109.413 329.399 109.413C327.859 109.413 326.799 110.193 326.799 111.333C326.799 112.593 327.899 112.853 329.839 113.293C332.159 113.813 334.939 114.353 334.939 117.473C334.939 120.293 332.459 122.033 329.499 122.033C327.039 122.033 324.599 120.853 323.479 119.013ZM335.996 114.633C335.996 110.273 338.796 107.233 342.676 107.233C346.556 107.233 349.356 110.273 349.356 114.633C349.356 118.993 346.556 122.033 342.676 122.033C338.796 122.033 335.996 118.993 335.996 114.633ZM346.796 114.633C346.796 111.513 345.096 109.493 342.676 109.493C340.256 109.493 338.556 111.513 338.556 114.633C338.556 117.753 340.256 119.773 342.676 119.773C345.096 119.773 346.796 117.753 346.796 114.633ZM350.725 119.733L354.325 116.773C356.285 115.173 358.045 113.753 358.045 111.953C358.045 110.473 357.125 109.413 355.605 109.413C354.105 109.413 353.125 110.593 353.125 112.013C353.125 112.473 353.205 112.933 353.365 113.373H350.985C350.785 112.793 350.725 112.413 350.725 111.873C350.725 109.173 352.945 107.233 355.665 107.233C358.665 107.233 360.585 109.093 360.585 111.793C360.585 114.333 358.665 116.073 356.645 117.673L354.245 119.573H360.765V121.813H350.725V119.733ZM369.45 109.653H363.87V111.933H361.65V107.453H372.15V109.673C368.69 113.433 367.79 116.873 367.79 121.813H365.19C365.19 116.413 366.67 112.713 369.45 109.653ZM372.736 114.633C372.736 110.253 374.816 107.233 378.376 107.233C381.936 107.233 384.016 110.253 384.016 114.633C384.016 119.013 381.936 122.033 378.376 122.033C374.816 122.033 372.736 119.013 372.736 114.633ZM375.296 114.633C375.296 117.653 376.256 119.813 378.376 119.813C380.496 119.813 381.456 117.653 381.456 114.633C381.456 111.613 380.496 109.453 378.376 109.453C376.256 109.453 375.296 111.613 375.296 114.633ZM385.372 114.633C385.372 110.253 387.452 107.233 391.012 107.233C394.572 107.233 396.652 110.253 396.652 114.633C396.652 119.013 394.572 122.033 391.012 122.033C387.452 122.033 385.372 119.013 385.372 114.633ZM387.932 114.633C387.932 117.653 388.892 119.813 391.012 119.813C393.132 119.813 394.092 117.653 394.092 114.633C394.092 111.613 393.132 109.453 391.012 109.453C388.892 109.453 387.932 111.613 387.932 114.633ZM401.711 107.353H403.651V121.813H401.091V111.853H397.631V109.953L399.031 109.833C400.831 109.673 401.571 109.053 401.711 107.353Z" fill="#414141"/>
<path d="M307.431 136.008H308.597L311.644 143.906H310.577L309.774 141.827H306.232L305.44 143.906H304.384L307.431 136.008ZM307.992 137.196L306.584 140.903H309.422L307.992 137.196ZM317.075 138.153V143.906H316.085V143.114C315.755 143.598 315.194 144.027 314.38 144.027C313.148 144.027 312.455 143.18 312.455 141.959V138.153H313.445V141.75C313.445 142.564 313.797 143.114 314.644 143.114C315.359 143.114 316.085 142.575 316.085 141.618V138.153H317.075ZM320.831 144.027C319.236 144.027 318.323 142.663 318.323 141.035C318.323 139.396 319.236 138.043 320.831 138.043C321.634 138.043 322.272 138.428 322.613 138.989V136.008H323.603V143.906H322.613V143.07C322.272 143.642 321.634 144.027 320.831 144.027ZM322.635 140.837C322.635 139.495 321.821 138.912 321.007 138.912C319.929 138.912 319.324 139.792 319.324 141.035C319.324 142.267 319.929 143.158 321.007 143.158C321.821 143.158 322.635 142.564 322.635 141.244V140.837ZM325.195 137.152V136.008H326.273V137.152H325.195ZM326.229 138.153V143.906H325.239V138.153H326.229ZM328.036 142.531V139H327.145V138.153H328.036V136.47H329.015V138.153H330.324V139H329.015V142.377C329.015 142.982 329.312 143.092 329.818 143.092C330.049 143.092 330.214 143.081 330.445 143.026V143.873C330.192 143.928 329.906 143.961 329.576 143.961C328.597 143.961 328.036 143.631 328.036 142.531ZM336.052 144.027C334.457 144.027 333.544 142.663 333.544 141.035C333.544 139.396 334.457 138.043 336.052 138.043C336.855 138.043 337.493 138.428 337.834 138.989V138.153H338.824V145.886H337.834V143.07C337.493 143.642 336.855 144.027 336.052 144.027ZM337.856 140.837C337.856 139.495 337.042 138.912 336.228 138.912C335.15 138.912 334.545 139.792 334.545 141.035C334.545 142.267 335.15 143.158 336.228 143.158C337.042 143.158 337.856 142.564 337.856 141.244V140.837ZM345.036 138.153V143.906H344.046V143.114C343.716 143.598 343.155 144.027 342.341 144.027C341.109 144.027 340.416 143.18 340.416 141.959V138.153H341.406V141.75C341.406 142.564 341.758 143.114 342.605 143.114C343.32 143.114 344.046 142.575 344.046 141.618V138.153H345.036ZM348.979 144.027C347.384 144.027 346.284 142.806 346.284 141.035C346.284 139.319 347.373 138.043 348.935 138.043C350.541 138.043 351.388 139.264 351.388 140.859V141.189H347.23C347.285 142.399 347.978 143.169 348.979 143.169C349.749 143.169 350.299 142.751 350.475 142.069L351.344 142.377C350.992 143.4 350.123 144.027 348.979 144.027ZM348.924 138.89C348.088 138.89 347.461 139.451 347.285 140.43H350.387C350.365 139.616 349.925 138.89 348.924 138.89ZM351.983 142.685L352.753 142.124C353.061 142.795 353.765 143.202 354.513 143.202C355.184 143.202 355.778 142.916 355.778 142.289C355.778 141.662 355.228 141.574 354.282 141.376C353.336 141.167 352.346 140.958 352.346 139.781C352.346 138.758 353.237 138.043 354.458 138.043C355.492 138.043 356.339 138.549 356.68 139.231L355.976 139.792C355.679 139.22 355.14 138.857 354.414 138.857C353.754 138.857 353.314 139.187 353.314 139.704C353.314 140.243 353.82 140.342 354.623 140.518C355.613 140.749 356.746 140.947 356.746 142.201C356.746 143.301 355.745 144.027 354.513 144.027C353.468 144.027 352.423 143.576 351.983 142.685ZM358.125 142.531V139H357.234V138.153H358.125V136.47H359.104V138.153H360.413V139H359.104V142.377C359.104 142.982 359.401 143.092 359.907 143.092C360.138 143.092 360.303 143.081 360.534 143.026V143.873C360.281 143.928 359.995 143.961 359.665 143.961C358.686 143.961 358.125 143.631 358.125 142.531ZM361.665 137.152V136.008H362.743V137.152H361.665ZM362.699 138.153V143.906H361.709V138.153H362.699ZM369.301 141.035C369.301 142.817 368.201 144.027 366.628 144.027C365.055 144.027 363.955 142.817 363.955 141.035C363.955 139.253 365.055 138.043 366.628 138.043C368.201 138.043 369.301 139.253 369.301 141.035ZM364.956 141.035C364.956 142.344 365.616 143.18 366.628 143.18C367.64 143.18 368.3 142.344 368.3 141.035C368.3 139.715 367.64 138.879 366.628 138.879C365.616 138.879 364.956 139.715 364.956 141.035ZM370.56 143.906V138.153H371.55V138.934C371.88 138.461 372.452 138.043 373.266 138.043C374.487 138.043 375.18 138.89 375.18 140.111V143.906H374.19V140.375C374.19 139.572 373.849 138.967 372.991 138.967C372.276 138.967 371.55 139.517 371.55 140.474V143.906H370.56ZM376.131 142.685L376.901 142.124C377.209 142.795 377.913 143.202 378.661 143.202C379.332 143.202 379.926 142.916 379.926 142.289C379.926 141.662 379.376 141.574 378.43 141.376C377.484 141.167 376.494 140.958 376.494 139.781C376.494 138.758 377.385 138.043 378.606 138.043C379.64 138.043 380.487 138.549 380.828 139.231L380.124 139.792C379.827 139.22 379.288 138.857 378.562 138.857C377.902 138.857 377.462 139.187 377.462 139.704C377.462 140.243 377.968 140.342 378.771 140.518C379.761 140.749 380.894 140.947 380.894 142.201C380.894 143.301 379.893 144.027 378.661 144.027C377.616 144.027 376.571 143.576 376.131 142.685ZM385.033 141.035C385.033 142.344 385.737 143.158 386.76 143.158C387.552 143.158 388.025 142.652 388.19 141.937L389.07 142.344C388.795 143.301 387.959 144.027 386.76 144.027C385.154 144.027 384.043 142.806 384.043 141.035C384.043 139.253 385.154 138.043 386.76 138.043C387.959 138.043 388.773 138.736 389.048 139.693L388.19 140.122C388.025 139.418 387.552 138.901 386.76 138.901C385.737 138.901 385.033 139.715 385.033 141.035ZM395.104 141.035C395.104 142.817 394.004 144.027 392.431 144.027C390.858 144.027 389.758 142.817 389.758 141.035C389.758 139.253 390.858 138.043 392.431 138.043C394.004 138.043 395.104 139.253 395.104 141.035ZM390.759 141.035C390.759 142.344 391.419 143.18 392.431 143.18C393.443 143.18 394.103 142.344 394.103 141.035C394.103 139.715 393.443 138.879 392.431 138.879C391.419 138.879 390.759 139.715 390.759 141.035ZM397.353 140.463V143.906H396.363V138.153H397.353V138.934C397.661 138.461 398.211 138.043 399.014 138.043C399.784 138.043 400.323 138.428 400.609 139.022C400.928 138.549 401.544 138.043 402.446 138.043C403.634 138.043 404.349 138.89 404.349 140.111V143.906H403.359V140.375C403.359 139.572 403.029 138.967 402.215 138.967C401.555 138.967 400.851 139.528 400.851 140.463V143.906H399.861V140.375C399.861 139.572 399.531 138.967 398.717 138.967C398.057 138.967 397.353 139.528 397.353 140.463ZM408.717 144.027C407.914 144.027 407.276 143.642 406.935 143.07V145.886H405.945V138.153H406.935V138.989C407.276 138.428 407.914 138.043 408.717 138.043C410.312 138.043 411.225 139.396 411.225 141.035C411.225 142.663 410.312 144.027 408.717 144.027ZM406.913 140.837V141.244C406.913 142.564 407.727 143.158 408.541 143.158C409.619 143.158 410.224 142.267 410.224 141.035C410.224 139.792 409.619 138.912 408.541 138.912C407.727 138.912 406.913 139.495 406.913 140.837ZM413.466 136.008V143.906H412.476V136.008H413.466ZM417.418 144.027C415.823 144.027 414.723 142.806 414.723 141.035C414.723 139.319 415.812 138.043 417.374 138.043C418.98 138.043 419.827 139.264 419.827 140.859V141.189H415.669C415.724 142.399 416.417 143.169 417.418 143.169C418.188 143.169 418.738 142.751 418.914 142.069L419.783 142.377C419.431 143.4 418.562 144.027 417.418 144.027ZM417.363 138.89C416.527 138.89 415.9 139.451 415.724 140.43H418.826C418.804 139.616 418.364 138.89 417.363 138.89ZM421.213 142.531V139H420.322V138.153H421.213V136.47H422.192V138.153H423.501V139H422.192V142.377C422.192 142.982 422.489 143.092 422.995 143.092C423.226 143.092 423.391 143.081 423.622 143.026V143.873C423.369 143.928 423.083 143.961 422.753 143.961C421.774 143.961 421.213 143.631 421.213 142.531ZM427.064 144.027C425.469 144.027 424.369 142.806 424.369 141.035C424.369 139.319 425.458 138.043 427.02 138.043C428.626 138.043 429.473 139.264 429.473 140.859V141.189H425.315C425.37 142.399 426.063 143.169 427.064 143.169C427.834 143.169 428.384 142.751 428.56 142.069L429.429 142.377C429.077 143.4 428.208 144.027 427.064 144.027ZM427.009 138.89C426.173 138.89 425.546 139.451 425.37 140.43H428.472C428.45 139.616 428.01 138.89 427.009 138.89ZM432.818 144.027C431.223 144.027 430.31 142.663 430.31 141.035C430.31 139.396 431.223 138.043 432.818 138.043C433.621 138.043 434.259 138.428 434.6 138.989V136.008H435.59V143.906H434.6V143.07C434.259 143.642 433.621 144.027 432.818 144.027ZM434.622 140.837C434.622 139.495 433.808 138.912 432.994 138.912C431.916 138.912 431.311 139.792 431.311 141.035C431.311 142.267 431.916 143.158 432.994 143.158C433.808 143.158 434.622 142.564 434.622 141.244V140.837Z" fill="#414141"/>
<g filter="url(#filter1_d_711_2954)">
<rect x="414.787" y="192.882" width="208.808" height="173.578" rx="16" fill="white" fill-opacity="0.84" shape-rendering="crispEdges"/>
</g>
<rect x="445.965" y="301.935" width="179.726" height="22.5331" rx="4" fill="#FFF4E5"/>
<path d="M569.066 315.778C568.107 315.778 567.344 315.253 567.183 314.252L567.834 314.112C567.932 314.812 568.429 315.218 569.059 315.218C569.696 315.218 570.137 314.854 570.137 314.259C570.137 313.664 569.654 313.37 569.017 313.37H568.478V312.803H569.024C569.605 312.803 569.997 312.509 569.997 312.005C569.997 311.487 569.64 311.165 569.066 311.165C568.464 311.165 568.044 311.564 567.932 312.194L567.33 312.075C567.463 311.235 568.114 310.598 569.08 310.598C570.06 310.598 570.627 311.172 570.627 311.97C570.627 312.516 570.277 312.936 569.85 313.076C570.354 313.216 570.788 313.601 570.788 314.294C570.788 315.12 570.109 315.778 569.066 315.778ZM571.246 313.188C571.246 311.655 571.967 310.598 573.164 310.598C574.354 310.598 575.075 311.655 575.075 313.188C575.075 314.721 574.354 315.778 573.164 315.778C571.967 315.778 571.246 314.721 571.246 313.188ZM571.918 313.188C571.918 314.364 572.345 315.19 573.164 315.19C573.976 315.19 574.41 314.364 574.41 313.188C574.41 312.012 573.976 311.186 573.164 311.186C572.345 311.186 571.918 312.012 571.918 313.188ZM576.196 312.194C576.196 312.57 576.236 312.854 576.315 313.045C576.397 313.235 576.527 313.329 576.705 313.329C577.065 313.329 577.245 312.951 577.245 312.194C577.245 311.442 577.065 311.066 576.705 311.066C576.527 311.066 576.397 311.161 576.315 311.35C576.236 311.537 576.196 311.818 576.196 312.194ZM577.758 312.194C577.758 312.714 577.668 313.107 577.488 313.374C577.31 313.638 577.049 313.77 576.705 313.77C576.382 313.77 576.13 313.634 575.95 313.363C575.772 313.09 575.683 312.7 575.683 312.194C575.683 311.672 575.77 311.282 575.943 311.022C576.118 310.762 576.372 310.632 576.705 310.632C577.04 310.632 577.299 310.768 577.481 311.039C577.666 311.308 577.758 311.693 577.758 312.194ZM579.255 314.197C579.255 314.578 579.295 314.861 579.375 315.048C579.457 315.235 579.586 315.329 579.764 315.329C579.949 315.329 580.084 315.236 580.171 315.052C580.26 314.865 580.304 314.58 580.304 314.197C580.304 313.45 580.124 313.076 579.764 313.076C579.586 313.076 579.457 313.17 579.375 313.356C579.295 313.541 579.255 313.821 579.255 314.197ZM580.817 314.197C580.817 314.714 580.727 315.106 580.547 315.373C580.367 315.637 580.106 315.77 579.764 315.77C579.441 315.77 579.189 315.634 579.009 315.363C578.831 315.089 578.742 314.701 578.742 314.197C578.742 313.675 578.829 313.285 579.002 313.025C579.175 312.765 579.429 312.635 579.764 312.635C580.099 312.635 580.358 312.771 580.54 313.042C580.725 313.311 580.817 313.696 580.817 314.197ZM579.904 310.704L577.132 315.701H576.596L579.368 310.704H579.904ZM583.538 313.874C583.538 314.707 583.986 315.225 584.637 315.225C585.141 315.225 585.442 314.903 585.547 314.448L586.107 314.707C585.932 315.316 585.4 315.778 584.637 315.778C583.615 315.778 582.908 315.001 582.908 313.874C582.908 312.74 583.615 311.97 584.637 311.97C585.4 311.97 585.918 312.411 586.093 313.02L585.547 313.293C585.442 312.845 585.141 312.516 584.637 312.516C583.986 312.516 583.538 313.034 583.538 313.874ZM589.947 313.874C589.947 315.008 589.247 315.778 588.246 315.778C587.245 315.778 586.545 315.008 586.545 313.874C586.545 312.74 587.245 311.97 588.246 311.97C589.247 311.97 589.947 312.74 589.947 313.874ZM587.182 313.874C587.182 314.707 587.602 315.239 588.246 315.239C588.89 315.239 589.31 314.707 589.31 313.874C589.31 313.034 588.89 312.502 588.246 312.502C587.602 312.502 587.182 313.034 587.182 313.874ZM591.378 313.51V315.701H590.748V312.04H591.378V312.537C591.574 312.236 591.924 311.97 592.435 311.97C592.925 311.97 593.268 312.215 593.45 312.593C593.653 312.292 594.045 311.97 594.619 311.97C595.375 311.97 595.83 312.509 595.83 313.286V315.701H595.2V313.454C595.2 312.943 594.99 312.558 594.472 312.558C594.052 312.558 593.604 312.915 593.604 313.51V315.701H592.974V313.454C592.974 312.943 592.764 312.558 592.246 312.558C591.826 312.558 591.378 312.915 591.378 313.51ZM598.61 315.778C598.099 315.778 597.693 315.533 597.476 315.169V316.961H596.846V312.04H597.476V312.572C597.693 312.215 598.099 311.97 598.61 311.97C599.625 311.97 600.206 312.831 600.206 313.874C600.206 314.91 599.625 315.778 598.61 315.778ZM597.462 313.748V314.007C597.462 314.847 597.98 315.225 598.498 315.225C599.184 315.225 599.569 314.658 599.569 313.874C599.569 313.083 599.184 312.523 598.498 312.523C597.98 312.523 597.462 312.894 597.462 313.748ZM601.632 310.675V315.701H601.002V310.675H601.632ZM604.147 315.778C603.132 315.778 602.432 315.001 602.432 313.874C602.432 312.782 603.125 311.97 604.119 311.97C605.141 311.97 605.68 312.747 605.68 313.762V313.972H603.034C603.069 314.742 603.51 315.232 604.147 315.232C604.637 315.232 604.987 314.966 605.099 314.532L605.652 314.728C605.428 315.379 604.875 315.778 604.147 315.778ZM604.112 312.509C603.58 312.509 603.181 312.866 603.069 313.489H605.043C605.029 312.971 604.749 312.509 604.112 312.509ZM606.562 314.826V312.579H605.995V312.04H606.562V310.969H607.185V312.04H608.018V312.579H607.185V314.728C607.185 315.113 607.374 315.183 607.696 315.183C607.843 315.183 607.948 315.176 608.095 315.141V315.68C607.934 315.715 607.752 315.736 607.542 315.736C606.919 315.736 606.562 315.526 606.562 314.826ZM608.815 311.403V310.675H609.501V311.403H608.815ZM609.473 312.04V315.701H608.843V312.04H609.473ZM613.675 313.874C613.675 315.008 612.975 315.778 611.974 315.778C610.973 315.778 610.273 315.008 610.273 313.874C610.273 312.74 610.973 311.97 611.974 311.97C612.975 311.97 613.675 312.74 613.675 313.874ZM610.91 313.874C610.91 314.707 611.33 315.239 611.974 315.239C612.618 315.239 613.038 314.707 613.038 313.874C613.038 313.034 612.618 312.502 611.974 312.502C611.33 312.502 610.91 313.034 610.91 313.874ZM614.476 315.701V312.04H615.106V312.537C615.316 312.236 615.68 311.97 616.198 311.97C616.975 311.97 617.416 312.509 617.416 313.286V315.701H616.786V313.454C616.786 312.943 616.569 312.558 616.023 312.558C615.568 312.558 615.106 312.908 615.106 313.517V315.701H614.476Z" fill="#414141"/>
<rect x="454.617" y="310.346" width="42.6011" height="5.70972" rx="2.85486" fill="#FFC87F"/>
<rect x="445.965" y="242.249" width="8.48102" height="8.48102" rx="4.24051" fill="#FFECD2"/>
<path d="M461.423 253.579V239.219H463.983V251.339H470.743V253.579H461.423ZM476.544 253.799C473.544 253.799 471.444 251.579 471.444 248.339C471.444 245.259 473.524 242.879 476.444 242.879C479.484 242.879 481.104 245.179 481.104 248.059V248.859H473.744C473.924 250.659 475.004 251.759 476.544 251.759C477.724 251.759 478.664 251.159 478.984 250.079L481.044 250.859C480.304 252.699 478.644 253.799 476.544 253.799ZM476.424 244.899C475.184 244.899 474.224 245.639 473.864 247.059H478.684C478.664 245.899 477.944 244.899 476.424 244.899ZM485.88 253.759C483.88 253.759 482.34 252.539 482.34 250.659C482.34 248.659 483.84 247.779 485.86 247.359L488.76 246.759V246.579C488.76 245.579 488.24 244.959 486.96 244.959C485.82 244.959 485.22 245.479 484.94 246.499L482.68 245.979C483.2 244.239 484.74 242.879 487.06 242.879C489.58 242.879 491.1 244.079 491.1 246.499V251.019C491.1 251.619 491.36 251.799 492.02 251.719V253.579C490.28 253.779 489.36 253.439 489 252.579C488.34 253.319 487.24 253.759 485.88 253.759ZM488.76 249.879V248.599L486.5 249.079C485.48 249.299 484.72 249.619 484.72 250.559C484.72 251.379 485.32 251.839 486.24 251.839C487.52 251.839 488.76 251.159 488.76 249.879ZM497.685 253.799C494.745 253.799 493.065 251.319 493.065 248.339C493.065 245.359 494.745 242.879 497.685 242.879C499.045 242.879 500.045 243.419 500.705 244.199V239.219H503.105V253.579H500.705V252.479C500.045 253.259 499.045 253.799 497.685 253.799ZM500.765 248.039C500.765 246.059 499.645 244.979 498.165 244.979C496.425 244.979 495.485 246.339 495.485 248.339C495.485 250.339 496.425 251.699 498.165 251.699C499.645 251.699 500.765 250.599 500.765 248.659V248.039ZM510.059 253.799C507.059 253.799 504.959 251.579 504.959 248.339C504.959 245.259 507.039 242.879 509.959 242.879C512.999 242.879 514.619 245.179 514.619 248.059V248.859H507.259C507.439 250.659 508.519 251.759 510.059 251.759C511.239 251.759 512.179 251.159 512.499 250.079L514.559 250.859C513.819 252.699 512.159 253.799 510.059 253.799ZM509.939 244.899C508.699 244.899 507.739 245.639 507.379 247.059H512.199C512.179 245.899 511.459 244.899 509.939 244.899ZM522.38 243.059V245.459C522.08 245.419 521.84 245.399 521.5 245.399C519.98 245.399 518.82 246.379 518.82 248.059V253.579H516.42V243.079H518.82V244.639C519.28 243.659 520.36 243.019 521.7 243.019C521.98 243.019 522.2 243.039 522.38 243.059ZM522.742 251.579L524.542 250.139C525.162 251.159 526.362 251.839 527.582 251.839C528.602 251.839 529.542 251.479 529.542 250.539C529.542 249.639 528.662 249.539 527.002 249.199C525.342 248.859 523.442 248.439 523.442 246.199C523.442 244.279 525.122 242.879 527.542 242.879C529.382 242.879 531.022 243.699 531.782 244.859L530.162 246.319C529.562 245.379 528.562 244.839 527.402 244.839C526.422 244.839 525.782 245.279 525.782 245.979C525.782 246.739 526.542 246.879 527.862 247.159C529.642 247.539 531.882 247.919 531.882 250.319C531.882 252.439 529.942 253.799 527.562 253.799C525.622 253.799 523.682 253.019 522.742 251.579ZM533.725 253.579V239.219H536.125V244.199C536.725 243.499 537.665 242.879 539.025 242.879C541.225 242.879 542.545 244.399 542.545 246.659V253.579H540.145V247.359C540.145 246.059 539.625 245.119 538.305 245.119C537.225 245.119 536.125 245.919 536.125 247.419V253.579H533.725ZM544.954 241.679V239.219H547.434V241.679H544.954ZM547.394 243.079V253.579H544.994V243.079H547.394ZM555.336 253.799C553.976 253.799 552.976 253.259 552.316 252.479V257.179H549.916V243.079H552.316V244.199C552.976 243.419 553.976 242.879 555.336 242.879C558.276 242.879 559.956 245.359 559.956 248.339C559.956 251.319 558.276 253.799 555.336 253.799ZM552.256 248.039V248.659C552.256 250.599 553.376 251.699 554.856 251.699C556.596 251.699 557.536 250.339 557.536 248.339C557.536 246.339 556.596 244.979 554.856 244.979C553.376 244.979 552.256 246.059 552.256 248.039Z" fill="#414141"/>
<path d="M448.385 335.455H449.177V343.397H448.121V337.589H446.218V336.808L447.065 336.753C448 336.687 448.308 336.368 448.385 335.455ZM453.39 335.378C454.831 335.378 455.909 336.225 455.909 337.49C455.909 338.282 455.458 338.898 454.666 339.206C455.612 339.492 456.316 340.218 456.316 341.219C456.316 342.605 455.084 343.507 453.39 343.507C451.707 343.507 450.475 342.605 450.475 341.219C450.475 340.218 451.179 339.492 452.114 339.206C451.333 338.898 450.882 338.282 450.882 337.49C450.882 336.225 451.96 335.378 453.39 335.378ZM453.39 338.788C454.325 338.788 454.952 338.282 454.952 337.501C454.952 336.731 454.325 336.214 453.39 336.214C452.466 336.214 451.828 336.731 451.828 337.501C451.828 338.282 452.466 338.788 453.39 338.788ZM453.39 339.657C452.279 339.657 451.509 340.273 451.509 341.153C451.509 342.055 452.279 342.671 453.39 342.671C454.501 342.671 455.293 342.055 455.293 341.153C455.293 340.273 454.501 339.657 453.39 339.657ZM460.655 335.544L457.733 343.397H456.782L459.709 335.544H460.655ZM465.729 343.397H464.75V341.34H460.933V340.515L464.398 335.499H465.74V340.46H467.269V341.34H465.729V343.397ZM462.011 340.46H464.739V336.511L462.011 340.46ZM469.178 339.723L468.21 339.558L468.551 335.499H472.852V336.423H469.365L469.156 338.81C469.497 338.469 470.036 338.194 470.729 338.194C472.269 338.194 473.281 339.338 473.281 340.834C473.281 342.33 472.104 343.518 470.52 343.518C469.035 343.518 467.957 342.682 467.682 341.186L468.694 340.977C468.859 341.989 469.541 342.638 470.52 342.638C471.521 342.638 472.291 341.868 472.291 340.856C472.291 339.855 471.609 339.052 470.608 339.052C469.948 339.052 469.442 339.349 469.178 339.723ZM476.386 339.448C476.386 337.039 477.904 335.378 479.972 335.378C482.04 335.378 483.547 337.039 483.547 339.448C483.547 340.988 482.931 342.231 481.941 342.913C482.26 343.375 482.865 343.738 483.481 343.892L482.865 344.651C482.161 344.453 481.424 343.914 481.105 343.342C480.753 343.452 480.368 343.518 479.972 343.518C477.904 343.518 476.386 341.857 476.386 339.448ZM482.502 339.448C482.502 337.578 481.457 336.313 479.972 336.313C478.487 336.313 477.442 337.578 477.442 339.448C477.442 341.318 478.487 342.583 479.972 342.583C481.457 342.583 482.502 341.318 482.502 339.448ZM489.35 337.644V343.397H488.36V342.605C488.03 343.089 487.469 343.518 486.655 343.518C485.423 343.518 484.73 342.671 484.73 341.45V337.644H485.72V341.241C485.72 342.055 486.072 342.605 486.919 342.605C487.634 342.605 488.36 342.066 488.36 341.109V337.644H489.35ZM493.293 343.518C491.698 343.518 490.598 342.297 490.598 340.526C490.598 338.81 491.687 337.534 493.249 337.534C494.855 337.534 495.702 338.755 495.702 340.35V340.68H491.544C491.599 341.89 492.292 342.66 493.293 342.66C494.063 342.66 494.613 342.242 494.789 341.56L495.658 341.868C495.306 342.891 494.437 343.518 493.293 343.518ZM493.238 338.381C492.402 338.381 491.775 338.942 491.599 339.921H494.701C494.679 339.107 494.239 338.381 493.238 338.381ZM496.296 342.176L497.066 341.615C497.374 342.286 498.078 342.693 498.826 342.693C499.497 342.693 500.091 342.407 500.091 341.78C500.091 341.153 499.541 341.065 498.595 340.867C497.649 340.658 496.659 340.449 496.659 339.272C496.659 338.249 497.55 337.534 498.771 337.534C499.805 337.534 500.652 338.04 500.993 338.722L500.289 339.283C499.992 338.711 499.453 338.348 498.727 338.348C498.067 338.348 497.627 338.678 497.627 339.195C497.627 339.734 498.133 339.833 498.936 340.009C499.926 340.24 501.059 340.438 501.059 341.692C501.059 342.792 500.058 343.518 498.826 343.518C497.781 343.518 496.736 343.067 496.296 342.176ZM502.438 342.022V338.491H501.547V337.644H502.438V335.961H503.417V337.644H504.726V338.491H503.417V341.868C503.417 342.473 503.714 342.583 504.22 342.583C504.451 342.583 504.616 342.572 504.847 342.517V343.364C504.594 343.419 504.308 343.452 503.978 343.452C502.999 343.452 502.438 343.122 502.438 342.022ZM505.978 336.643V335.499H507.056V336.643H505.978ZM507.012 337.644V343.397H506.022V337.644H507.012ZM513.615 340.526C513.615 342.308 512.515 343.518 510.942 343.518C509.369 343.518 508.269 342.308 508.269 340.526C508.269 338.744 509.369 337.534 510.942 337.534C512.515 337.534 513.615 338.744 513.615 340.526ZM509.27 340.526C509.27 341.835 509.93 342.671 510.942 342.671C511.954 342.671 512.614 341.835 512.614 340.526C512.614 339.206 511.954 338.37 510.942 338.37C509.93 338.37 509.27 339.206 509.27 340.526ZM514.874 343.397V337.644H515.864V338.425C516.194 337.952 516.766 337.534 517.58 337.534C518.801 337.534 519.494 338.381 519.494 339.602V343.397H518.504V339.866C518.504 339.063 518.163 338.458 517.305 338.458C516.59 338.458 515.864 339.008 515.864 339.965V343.397H514.874ZM520.445 342.176L521.215 341.615C521.523 342.286 522.227 342.693 522.975 342.693C523.646 342.693 524.24 342.407 524.24 341.78C524.24 341.153 523.69 341.065 522.744 340.867C521.798 340.658 520.808 340.449 520.808 339.272C520.808 338.249 521.699 337.534 522.92 337.534C523.954 337.534 524.801 338.04 525.142 338.722L524.438 339.283C524.141 338.711 523.602 338.348 522.876 338.348C522.216 338.348 521.776 338.678 521.776 339.195C521.776 339.734 522.282 339.833 523.085 340.009C524.075 340.24 525.208 340.438 525.208 341.692C525.208 342.792 524.207 343.518 522.975 343.518C521.93 343.518 520.885 343.067 520.445 342.176ZM531.151 335.499H532.317L535.364 343.397H534.297L533.494 341.318H529.952L529.16 343.397H528.104L531.151 335.499ZM531.712 336.687L530.304 340.394H533.142L531.712 336.687ZM536.304 343.397V337.644H537.294V338.425C537.624 337.952 538.196 337.534 539.01 337.534C540.231 337.534 540.924 338.381 540.924 339.602V343.397H539.934V339.866C539.934 339.063 539.593 338.458 538.735 338.458C538.02 338.458 537.294 339.008 537.294 339.965V343.397H536.304ZM541.875 342.176L542.645 341.615C542.953 342.286 543.657 342.693 544.405 342.693C545.076 342.693 545.67 342.407 545.67 341.78C545.67 341.153 545.12 341.065 544.174 340.867C543.228 340.658 542.238 340.449 542.238 339.272C542.238 338.249 543.129 337.534 544.35 337.534C545.384 337.534 546.231 338.04 546.572 338.722L545.868 339.283C545.571 338.711 545.032 338.348 544.306 338.348C543.646 338.348 543.206 338.678 543.206 339.195C543.206 339.734 543.712 339.833 544.515 340.009C545.505 340.24 546.638 340.438 546.638 341.692C546.638 342.792 545.637 343.518 544.405 343.518C543.36 343.518 542.315 343.067 541.875 342.176ZM550.516 337.644H551.352L552.54 341.934L553.739 337.644H554.729L552.98 343.397H552.111L550.912 339.129L549.713 343.397H548.844L547.095 337.644H548.118L549.328 341.923L550.516 337.644ZM557.886 343.518C556.291 343.518 555.191 342.297 555.191 340.526C555.191 338.81 556.28 337.534 557.842 337.534C559.448 337.534 560.295 338.755 560.295 340.35V340.68H556.137C556.192 341.89 556.885 342.66 557.886 342.66C558.656 342.66 559.206 342.242 559.382 341.56L560.251 341.868C559.899 342.891 559.03 343.518 557.886 343.518ZM557.831 338.381C556.995 338.381 556.368 338.942 556.192 339.921H559.294C559.272 339.107 558.832 338.381 557.831 338.381ZM564.508 337.622V338.623C564.343 338.59 564.211 338.579 564.024 338.579C563.188 338.579 562.517 339.239 562.517 340.251V343.397H561.527V337.644H562.517V338.623C562.77 338.04 563.331 337.6 564.112 337.6C564.266 337.6 564.409 337.611 564.508 337.622ZM567.661 343.518C566.066 343.518 564.966 342.297 564.966 340.526C564.966 338.81 566.055 337.534 567.617 337.534C569.223 337.534 570.07 338.755 570.07 340.35V340.68H565.912C565.967 341.89 566.66 342.66 567.661 342.66C568.431 342.66 568.981 342.242 569.157 341.56L570.026 341.868C569.674 342.891 568.805 343.518 567.661 343.518ZM567.606 338.381C566.77 338.381 566.143 338.942 565.967 339.921H569.069C569.047 339.107 568.607 338.381 567.606 338.381ZM573.415 343.518C571.82 343.518 570.907 342.154 570.907 340.526C570.907 338.887 571.82 337.534 573.415 337.534C574.218 337.534 574.856 337.919 575.197 338.48V335.499H576.187V343.397H575.197V342.561C574.856 343.133 574.218 343.518 573.415 343.518ZM575.219 340.328C575.219 338.986 574.405 338.403 573.591 338.403C572.513 338.403 571.908 339.283 571.908 340.526C571.908 341.758 572.513 342.649 573.591 342.649C574.405 342.649 575.219 342.055 575.219 340.735V340.328Z" fill="#B0B0B0"/>
<path d="M447.428 220.759C447.428 222.629 448.462 223.894 449.925 223.894C450.948 223.894 451.685 223.3 451.971 222.299L452.972 222.629C452.51 223.993 451.432 224.829 449.925 224.829C447.879 224.829 446.372 223.168 446.372 220.759C446.372 218.35 447.879 216.689 449.925 216.689C451.432 216.689 452.51 217.525 452.972 218.889L451.971 219.219C451.685 218.218 450.948 217.624 449.925 217.624C448.462 217.624 447.428 218.889 447.428 220.759ZM455.031 216.81V224.708H454.041V216.81H455.031ZM458.124 224.807C457.079 224.807 456.232 224.191 456.232 223.157C456.232 222.013 457.123 221.54 458.41 221.276L459.807 220.99V220.748C459.807 220.088 459.444 219.714 458.674 219.714C457.948 219.714 457.519 220.055 457.343 220.693L456.408 220.451C456.683 219.516 457.53 218.845 458.707 218.845C459.994 218.845 460.786 219.472 460.786 220.704V223.509C460.786 223.883 461.017 224.004 461.402 223.916V224.708C460.522 224.818 460.016 224.609 459.895 224.059C459.543 224.51 458.905 224.807 458.124 224.807ZM459.807 222.75V221.76L458.685 222.002C457.805 222.178 457.211 222.42 457.211 223.113C457.211 223.674 457.618 224.004 458.245 224.004C459.092 224.004 459.807 223.487 459.807 222.75ZM467.038 218.955V224.708H466.048V223.916C465.718 224.4 465.157 224.829 464.343 224.829C463.111 224.829 462.418 223.982 462.418 222.761V218.955H463.408V222.552C463.408 223.366 463.76 223.916 464.607 223.916C465.322 223.916 466.048 223.377 466.048 222.42V218.955H467.038ZM468.044 223.487L468.814 222.926C469.122 223.597 469.826 224.004 470.574 224.004C471.245 224.004 471.839 223.718 471.839 223.091C471.839 222.464 471.289 222.376 470.343 222.178C469.397 221.969 468.407 221.76 468.407 220.583C468.407 219.56 469.298 218.845 470.519 218.845C471.553 218.845 472.4 219.351 472.741 220.033L472.037 220.594C471.74 220.022 471.201 219.659 470.475 219.659C469.815 219.659 469.375 219.989 469.375 220.506C469.375 221.045 469.881 221.144 470.684 221.32C471.674 221.551 472.807 221.749 472.807 223.003C472.807 224.103 471.806 224.829 470.574 224.829C469.529 224.829 468.484 224.378 468.044 223.487ZM476.331 224.829C474.736 224.829 473.636 223.608 473.636 221.837C473.636 220.121 474.725 218.845 476.287 218.845C477.893 218.845 478.74 220.066 478.74 221.661V221.991H474.582C474.637 223.201 475.33 223.971 476.331 223.971C477.101 223.971 477.651 223.553 477.827 222.871L478.696 223.179C478.344 224.202 477.475 224.829 476.331 224.829ZM476.276 219.692C475.44 219.692 474.813 220.253 474.637 221.232H477.739C477.717 220.418 477.277 219.692 476.276 219.692ZM483.261 221.034L482.293 220.869L482.634 216.81H486.935V217.734H483.448L483.239 220.121C483.58 219.78 484.119 219.505 484.812 219.505C486.352 219.505 487.364 220.649 487.364 222.145C487.364 223.641 486.187 224.829 484.603 224.829C483.118 224.829 482.04 223.993 481.765 222.497L482.777 222.288C482.942 223.3 483.624 223.949 484.603 223.949C485.604 223.949 486.374 223.179 486.374 222.167C486.374 221.166 485.692 220.363 484.691 220.363C484.031 220.363 483.525 220.66 483.261 221.034Z" fill="#414141"/>
<g filter="url(#filter2_d_711_2954)">
<rect x="75" y="148.085" width="208.808" height="173.578" rx="16" fill="white" fill-opacity="0.84" shape-rendering="crispEdges"/>
</g>
<rect x="106.178" y="257.138" width="179.726" height="22.5331" rx="4" fill="#FFF4E5"/>
<path d="M229.279 270.981C228.32 270.981 227.557 270.456 227.396 269.455L228.047 269.315C228.145 270.015 228.642 270.421 229.272 270.421C229.909 270.421 230.35 270.057 230.35 269.462C230.35 268.867 229.867 268.573 229.23 268.573H228.691V268.006H229.237C229.818 268.006 230.21 267.712 230.21 267.208C230.21 266.69 229.853 266.368 229.279 266.368C228.677 266.368 228.257 266.767 228.145 267.397L227.543 267.278C227.676 266.438 228.327 265.801 229.293 265.801C230.273 265.801 230.84 266.375 230.84 267.173C230.84 267.719 230.49 268.139 230.063 268.279C230.567 268.419 231.001 268.804 231.001 269.497C231.001 270.323 230.322 270.981 229.279 270.981ZM231.459 268.391C231.459 266.858 232.18 265.801 233.377 265.801C234.567 265.801 235.288 266.858 235.288 268.391C235.288 269.924 234.567 270.981 233.377 270.981C232.18 270.981 231.459 269.924 231.459 268.391ZM232.131 268.391C232.131 269.567 232.558 270.393 233.377 270.393C234.189 270.393 234.623 269.567 234.623 268.391C234.623 267.215 234.189 266.389 233.377 266.389C232.558 266.389 232.131 267.215 232.131 268.391ZM236.409 267.397C236.409 267.773 236.449 268.057 236.529 268.249C236.611 268.438 236.741 268.532 236.918 268.532C237.278 268.532 237.458 268.154 237.458 267.397C237.458 266.646 237.278 266.27 236.918 266.27C236.741 266.27 236.611 266.364 236.529 266.553C236.449 266.74 236.409 267.022 236.409 267.397ZM237.971 267.397C237.971 267.917 237.881 268.31 237.701 268.577C237.523 268.841 237.263 268.973 236.918 268.973C236.595 268.973 236.343 268.838 236.163 268.566C235.985 268.293 235.896 267.903 235.896 267.397C235.896 266.876 235.983 266.485 236.156 266.225C236.332 265.965 236.586 265.835 236.918 265.835C237.253 265.835 237.512 265.971 237.694 266.242C237.879 266.511 237.971 266.896 237.971 267.397ZM239.468 269.4C239.468 269.781 239.508 270.065 239.588 270.251C239.67 270.438 239.8 270.532 239.978 270.532C240.162 270.532 240.298 270.439 240.384 270.255C240.473 270.068 240.518 269.783 240.518 269.4C240.518 268.653 240.338 268.279 239.978 268.279C239.8 268.279 239.67 268.373 239.588 268.56C239.508 268.744 239.468 269.024 239.468 269.4ZM241.03 269.4C241.03 269.918 240.94 270.31 240.76 270.576C240.58 270.841 240.319 270.973 239.978 270.973C239.654 270.973 239.402 270.837 239.222 270.566C239.044 270.293 238.956 269.904 238.956 269.4C238.956 268.879 239.042 268.488 239.215 268.228C239.389 267.968 239.643 267.838 239.978 267.838C240.312 267.838 240.571 267.974 240.753 268.245C240.938 268.514 241.03 268.899 241.03 269.4ZM240.118 265.907L237.346 270.904H236.809L239.581 265.907H240.118ZM243.752 269.077C243.752 269.91 244.2 270.428 244.851 270.428C245.355 270.428 245.656 270.106 245.761 269.651L246.321 269.91C246.146 270.519 245.614 270.981 244.851 270.981C243.829 270.981 243.122 270.204 243.122 269.077C243.122 267.943 243.829 267.173 244.851 267.173C245.614 267.173 246.132 267.614 246.307 268.223L245.761 268.496C245.656 268.048 245.355 267.719 244.851 267.719C244.2 267.719 243.752 268.237 243.752 269.077ZM250.16 269.077C250.16 270.211 249.46 270.981 248.459 270.981C247.458 270.981 246.758 270.211 246.758 269.077C246.758 267.943 247.458 267.173 248.459 267.173C249.46 267.173 250.16 267.943 250.16 269.077ZM247.395 269.077C247.395 269.91 247.815 270.442 248.459 270.442C249.103 270.442 249.523 269.91 249.523 269.077C249.523 268.237 249.103 267.705 248.459 267.705C247.815 267.705 247.395 268.237 247.395 269.077ZM251.592 268.713V270.904H250.962V267.243H251.592V267.74C251.788 267.439 252.138 267.173 252.649 267.173C253.139 267.173 253.482 267.418 253.664 267.796C253.867 267.495 254.259 267.173 254.833 267.173C255.589 267.173 256.044 267.712 256.044 268.489V270.904H255.414V268.657C255.414 268.146 255.204 267.761 254.686 267.761C254.266 267.761 253.818 268.118 253.818 268.713V270.904H253.188V268.657C253.188 268.146 252.978 267.761 252.46 267.761C252.04 267.761 251.592 268.118 251.592 268.713ZM258.823 270.981C258.312 270.981 257.906 270.736 257.689 270.372V272.164H257.059V267.243H257.689V267.775C257.906 267.418 258.312 267.173 258.823 267.173C259.838 267.173 260.419 268.034 260.419 269.077C260.419 270.113 259.838 270.981 258.823 270.981ZM257.675 268.951V269.21C257.675 270.05 258.193 270.428 258.711 270.428C259.397 270.428 259.782 269.861 259.782 269.077C259.782 268.286 259.397 267.726 258.711 267.726C258.193 267.726 257.675 268.097 257.675 268.951ZM261.845 265.878V270.904H261.215V265.878H261.845ZM264.36 270.981C263.345 270.981 262.645 270.204 262.645 269.077C262.645 267.985 263.338 267.173 264.332 267.173C265.354 267.173 265.893 267.95 265.893 268.965V269.175H263.247C263.282 269.945 263.723 270.435 264.36 270.435C264.85 270.435 265.2 270.169 265.312 269.735L265.865 269.931C265.641 270.582 265.088 270.981 264.36 270.981ZM264.325 267.712C263.793 267.712 263.394 268.069 263.282 268.692H265.256C265.242 268.174 264.962 267.712 264.325 267.712ZM266.775 270.029V267.782H266.208V267.243H266.775V266.172H267.398V267.243H268.231V267.782H267.398V269.931C267.398 270.316 267.587 270.386 267.909 270.386C268.056 270.386 268.161 270.379 268.308 270.344V270.883C268.147 270.918 267.965 270.939 267.755 270.939C267.132 270.939 266.775 270.729 266.775 270.029ZM269.028 266.606V265.878H269.714V266.606H269.028ZM269.686 267.243V270.904H269.056V267.243H269.686ZM273.888 269.077C273.888 270.211 273.188 270.981 272.187 270.981C271.186 270.981 270.486 270.211 270.486 269.077C270.486 267.943 271.186 267.173 272.187 267.173C273.188 267.173 273.888 267.943 273.888 269.077ZM271.123 269.077C271.123 269.91 271.543 270.442 272.187 270.442C272.831 270.442 273.251 269.91 273.251 269.077C273.251 268.237 272.831 267.705 272.187 267.705C271.543 267.705 271.123 268.237 271.123 269.077ZM274.689 270.904V267.243H275.319V267.74C275.529 267.439 275.893 267.173 276.411 267.173C277.188 267.173 277.629 267.712 277.629 268.489V270.904H276.999V268.657C276.999 268.146 276.782 267.761 276.236 267.761C275.781 267.761 275.319 268.111 275.319 268.72V270.904H274.689Z" fill="#414141"/>
<rect x="114.831" y="265.549" width="54.6245" height="5.70972" rx="2.85486" fill="#FFC87F"/>
<rect x="106.178" y="197.452" width="8.48102" height="8.48102" rx="4.24051" fill="#FFECD2"/>
<path d="M123.456 201.602C123.456 204.702 125.136 206.742 127.496 206.742C129.176 206.742 130.396 205.722 130.836 204.042L133.236 204.862C132.396 207.402 130.396 209.002 127.496 209.002C123.676 209.002 120.896 205.962 120.896 201.602C120.896 197.242 123.676 194.202 127.496 194.202C130.396 194.202 132.396 195.802 133.236 198.342L130.836 199.162C130.396 197.482 129.176 196.462 127.496 196.462C125.136 196.462 123.456 198.502 123.456 201.602ZM144.336 203.542C144.336 206.802 142.236 209.002 139.276 209.002C136.316 209.002 134.216 206.802 134.216 203.542C134.216 200.282 136.316 198.082 139.276 198.082C142.236 198.082 144.336 200.282 144.336 203.542ZM136.636 203.542C136.636 205.682 137.656 206.982 139.276 206.982C140.896 206.982 141.916 205.682 141.916 203.542C141.916 201.402 140.896 200.102 139.276 200.102C137.656 200.102 136.636 201.402 136.636 203.542ZM146.204 208.782V198.282H148.604V199.402C149.204 198.702 150.144 198.082 151.504 198.082C153.704 198.082 155.024 199.602 155.024 201.862V208.782H152.624V202.562C152.624 201.262 152.104 200.322 150.784 200.322C149.704 200.322 148.604 201.122 148.604 202.622V208.782H146.204ZM157.693 206.142V200.322H156.233V198.282H157.693V195.202H160.053V198.282H162.253V200.322H160.053V205.762C160.053 206.702 160.593 206.802 161.453 206.802C161.853 206.802 162.073 206.782 162.433 206.742V208.762C161.993 208.842 161.393 208.902 160.773 208.902C158.773 208.902 157.693 208.282 157.693 206.142ZM168.574 209.002C165.574 209.002 163.474 206.782 163.474 203.542C163.474 200.462 165.554 198.082 168.474 198.082C171.514 198.082 173.134 200.382 173.134 203.262V204.062H165.774C165.954 205.862 167.034 206.962 168.574 206.962C169.754 206.962 170.694 206.362 171.014 205.282L173.074 206.062C172.334 207.902 170.674 209.002 168.574 209.002ZM168.454 200.102C167.214 200.102 166.254 200.842 165.894 202.262H170.714C170.694 201.102 169.974 200.102 168.454 200.102ZM180.707 208.782L178.227 205.142L175.767 208.782H173.167L176.867 203.342L173.427 198.282H176.147L178.307 201.562L180.507 198.282H183.127L179.687 203.342L183.407 208.782H180.707ZM184.881 206.142V200.322H183.421V198.282H184.881V195.202H187.241V198.282H189.441V200.322H187.241V205.762C187.241 206.702 187.781 206.802 188.641 206.802C189.041 206.802 189.261 206.782 189.621 206.742V208.762C189.181 208.842 188.581 208.902 187.961 208.902C185.961 208.902 184.881 208.282 184.881 206.142ZM205 203.542C205 206.802 202.9 209.002 199.94 209.002C196.98 209.002 194.88 206.802 194.88 203.542C194.88 200.282 196.98 198.082 199.94 198.082C202.9 198.082 205 200.282 205 203.542ZM197.3 203.542C197.3 205.682 198.32 206.982 199.94 206.982C201.56 206.982 202.58 205.682 202.58 203.542C202.58 201.402 201.56 200.102 199.94 200.102C198.32 200.102 197.3 201.402 197.3 203.542ZM211.728 194.222V196.322C211.448 196.302 211.308 196.302 211.008 196.302C210.068 196.302 209.548 196.582 209.548 197.782V198.282H211.688V200.322H209.548V208.782H207.148V200.322H205.688V198.282H207.148V197.602C207.148 195.422 208.368 194.202 210.728 194.202C211.108 194.202 211.288 194.202 211.728 194.222ZM121.756 231.142V225.322H120.296V223.282H121.756V220.202H124.116V223.282H126.316V225.322H124.116V230.762C124.116 231.702 124.656 231.802 125.516 231.802C125.916 231.802 126.136 231.782 126.496 231.742V233.762C126.056 233.842 125.456 233.902 124.836 233.902C122.836 233.902 121.756 233.282 121.756 231.142ZM128.294 233.782V219.422H130.694V224.402C131.294 223.702 132.234 223.082 133.594 223.082C135.794 223.082 137.114 224.602 137.114 226.862V233.782H134.714V227.562C134.714 226.262 134.194 225.322 132.874 225.322C131.794 225.322 130.694 226.122 130.694 227.622V233.782H128.294ZM144.003 234.002C141.003 234.002 138.903 231.782 138.903 228.542C138.903 225.462 140.983 223.082 143.903 223.082C146.943 223.082 148.563 225.382 148.563 228.262V229.062H141.203C141.383 230.862 142.463 231.962 144.003 231.962C145.183 231.962 146.123 231.362 146.443 230.282L148.503 231.062C147.763 232.902 146.103 234.002 144.003 234.002ZM143.883 225.102C142.643 225.102 141.683 225.842 141.323 227.262H146.143C146.123 226.102 145.403 225.102 143.883 225.102ZM153.845 226.602C153.845 222.242 156.645 219.202 160.525 219.202C164.405 219.202 167.205 222.242 167.205 226.602C167.205 230.962 164.405 234.002 160.525 234.002C156.645 234.002 153.845 230.962 153.845 226.602ZM164.645 226.602C164.645 223.482 162.945 221.462 160.525 221.462C158.105 221.462 156.405 223.482 156.405 226.602C156.405 229.722 158.105 231.742 160.525 231.742C162.945 231.742 164.645 229.722 164.645 226.602ZM175.054 223.262V225.662C174.754 225.622 174.514 225.602 174.174 225.602C172.654 225.602 171.494 226.582 171.494 228.262V233.782H169.094V223.282H171.494V224.842C171.954 223.862 173.034 223.222 174.374 223.222C174.654 223.222 174.874 223.242 175.054 223.262ZM185.661 232.722C185.661 235.822 183.541 237.602 180.541 237.602C178.121 237.602 176.421 236.582 175.761 234.542L178.001 233.742C178.321 234.922 179.221 235.662 180.541 235.662C182.161 235.662 183.261 234.862 183.261 232.942V232.202C182.701 232.942 181.641 233.522 180.301 233.522C177.421 233.522 175.701 231.182 175.701 228.302C175.701 225.422 177.421 223.082 180.301 223.082C181.621 223.082 182.701 223.662 183.261 224.402V223.282H185.661V232.722ZM183.301 228.202C183.301 226.282 182.261 225.182 180.761 225.182C179.101 225.182 178.121 226.342 178.121 228.302C178.121 230.242 179.101 231.422 180.761 231.422C182.261 231.422 183.301 230.322 183.301 228.442V228.202ZM190.976 233.962C188.976 233.962 187.436 232.742 187.436 230.862C187.436 228.862 188.936 227.982 190.956 227.562L193.856 226.962V226.782C193.856 225.782 193.336 225.162 192.056 225.162C190.916 225.162 190.316 225.682 190.036 226.702L187.776 226.182C188.296 224.442 189.836 223.082 192.156 223.082C194.676 223.082 196.196 224.282 196.196 226.702V231.222C196.196 231.822 196.456 232.002 197.116 231.922V233.782C195.376 233.982 194.456 233.642 194.096 232.782C193.436 233.522 192.336 233.962 190.976 233.962ZM193.856 230.082V228.802L191.596 229.282C190.576 229.502 189.816 229.822 189.816 230.762C189.816 231.582 190.416 232.042 191.336 232.042C192.616 232.042 193.856 231.362 193.856 230.082ZM198.821 233.782V223.282H201.221V224.402C201.821 223.702 202.761 223.082 204.121 223.082C206.321 223.082 207.641 224.602 207.641 226.862V233.782H205.241V227.562C205.241 226.262 204.721 225.322 203.401 225.322C202.321 225.322 201.221 226.122 201.221 227.622V233.782H198.821ZM210.051 221.882V219.422H212.531V221.882H210.051ZM212.491 223.282V233.782H210.091V223.282H212.491ZM223.012 231.742V233.782H214.452V231.982L220.092 225.322H214.532V223.282H222.952V225.102L217.472 231.742H223.012ZM227.675 233.962C225.675 233.962 224.135 232.742 224.135 230.862C224.135 228.862 225.635 227.982 227.655 227.562L230.555 226.962V226.782C230.555 225.782 230.035 225.162 228.755 225.162C227.615 225.162 227.015 225.682 226.735 226.702L224.475 226.182C224.995 224.442 226.535 223.082 228.855 223.082C231.375 223.082 232.895 224.282 232.895 226.702V231.222C232.895 231.822 233.155 232.002 233.815 231.922V233.782C232.075 233.982 231.155 233.642 230.795 232.782C230.135 233.522 229.035 233.962 227.675 233.962ZM230.555 230.082V228.802L228.295 229.282C227.275 229.502 226.515 229.822 226.515 230.762C226.515 231.582 227.115 232.042 228.035 232.042C229.315 232.042 230.555 231.362 230.555 230.082ZM235.74 231.142V225.322H234.28V223.282H235.74V220.202H238.1V223.282H240.3V225.322H238.1V230.762C238.1 231.702 238.64 231.802 239.5 231.802C239.9 231.802 240.12 231.782 240.48 231.742V233.762C240.04 233.842 239.44 233.902 238.82 233.902C236.82 233.902 235.74 233.282 235.74 231.142ZM242.238 221.882V219.422H244.718V221.882H242.238ZM244.678 223.282V233.782H242.278V223.282H244.678ZM256.66 228.542C256.66 231.802 254.56 234.002 251.6 234.002C248.64 234.002 246.54 231.802 246.54 228.542C246.54 225.282 248.64 223.082 251.6 223.082C254.56 223.082 256.66 225.282 256.66 228.542ZM248.96 228.542C248.96 230.682 249.98 231.982 251.6 231.982C253.22 231.982 254.24 230.682 254.24 228.542C254.24 226.402 253.22 225.102 251.6 225.102C249.98 225.102 248.96 226.402 248.96 228.542ZM258.528 233.782V223.282H260.928V224.402C261.528 223.702 262.468 223.082 263.828 223.082C266.028 223.082 267.348 224.602 267.348 226.862V233.782H264.948V227.562C264.948 226.262 264.428 225.322 263.108 225.322C262.028 225.322 260.928 226.122 260.928 227.622V233.782H258.528Z" fill="#414141"/>
<path d="M108.598 290.658H109.39V298.6H108.334V292.792H106.431V292.011L107.278 291.956C108.213 291.89 108.521 291.571 108.598 290.658ZM113.603 290.581C115.044 290.581 116.122 291.428 116.122 292.693C116.122 293.485 115.671 294.101 114.879 294.409C115.825 294.695 116.529 295.421 116.529 296.422C116.529 297.808 115.297 298.71 113.603 298.71C111.92 298.71 110.688 297.808 110.688 296.422C110.688 295.421 111.392 294.695 112.327 294.409C111.546 294.101 111.095 293.485 111.095 292.693C111.095 291.428 112.173 290.581 113.603 290.581ZM113.603 293.991C114.538 293.991 115.165 293.485 115.165 292.704C115.165 291.934 114.538 291.417 113.603 291.417C112.679 291.417 112.041 291.934 112.041 292.704C112.041 293.485 112.679 293.991 113.603 293.991ZM113.603 294.86C112.492 294.86 111.722 295.476 111.722 296.356C111.722 297.258 112.492 297.874 113.603 297.874C114.714 297.874 115.506 297.258 115.506 296.356C115.506 295.476 114.714 294.86 113.603 294.86ZM120.868 290.747L117.946 298.6H116.996L119.923 290.747H120.868ZM125.942 298.6H124.963V296.543H121.146V295.718L124.611 290.702H125.953V295.663H127.482V296.543H125.942V298.6ZM122.224 295.663H124.952V291.714L122.224 295.663ZM129.391 294.926L128.423 294.761L128.764 290.702H133.065V291.626H129.578L129.369 294.013C129.71 293.672 130.249 293.397 130.942 293.397C132.482 293.397 133.494 294.541 133.494 296.037C133.494 297.533 132.317 298.721 130.733 298.721C129.248 298.721 128.17 297.885 127.895 296.389L128.907 296.18C129.072 297.192 129.754 297.841 130.733 297.841C131.734 297.841 132.504 297.071 132.504 296.059C132.504 295.058 131.822 294.255 130.821 294.255C130.161 294.255 129.655 294.552 129.391 294.926ZM136.599 294.651C136.599 292.242 138.117 290.581 140.185 290.581C142.253 290.581 143.76 292.242 143.76 294.651C143.76 296.191 143.144 297.434 142.154 298.116C142.473 298.578 143.078 298.941 143.694 299.095L143.078 299.854C142.374 299.656 141.637 299.117 141.318 298.545C140.966 298.655 140.581 298.721 140.185 298.721C138.117 298.721 136.599 297.06 136.599 294.651ZM142.715 294.651C142.715 292.781 141.67 291.516 140.185 291.516C138.7 291.516 137.655 292.781 137.655 294.651C137.655 296.521 138.7 297.786 140.185 297.786C141.67 297.786 142.715 296.521 142.715 294.651ZM149.563 292.847V298.6H148.573V297.808C148.243 298.292 147.682 298.721 146.868 298.721C145.636 298.721 144.943 297.874 144.943 296.653V292.847H145.933V296.444C145.933 297.258 146.285 297.808 147.132 297.808C147.847 297.808 148.573 297.269 148.573 296.312V292.847H149.563ZM153.506 298.721C151.911 298.721 150.811 297.5 150.811 295.729C150.811 294.013 151.9 292.737 153.462 292.737C155.068 292.737 155.915 293.958 155.915 295.553V295.883H151.757C151.812 297.093 152.505 297.863 153.506 297.863C154.276 297.863 154.826 297.445 155.002 296.763L155.871 297.071C155.519 298.094 154.65 298.721 153.506 298.721ZM153.451 293.584C152.615 293.584 151.988 294.145 151.812 295.124H154.914C154.892 294.31 154.452 293.584 153.451 293.584ZM156.51 297.379L157.28 296.818C157.588 297.489 158.292 297.896 159.04 297.896C159.711 297.896 160.305 297.61 160.305 296.983C160.305 296.356 159.755 296.268 158.809 296.07C157.863 295.861 156.873 295.652 156.873 294.475C156.873 293.452 157.764 292.737 158.985 292.737C160.019 292.737 160.866 293.243 161.207 293.925L160.503 294.486C160.206 293.914 159.667 293.551 158.941 293.551C158.281 293.551 157.841 293.881 157.841 294.398C157.841 294.937 158.347 295.036 159.15 295.212C160.14 295.443 161.273 295.641 161.273 296.895C161.273 297.995 160.272 298.721 159.04 298.721C157.995 298.721 156.95 298.27 156.51 297.379ZM162.651 297.225V293.694H161.76V292.847H162.651V291.164H163.63V292.847H164.939V293.694H163.63V297.071C163.63 297.676 163.927 297.786 164.433 297.786C164.664 297.786 164.829 297.775 165.06 297.72V298.567C164.807 298.622 164.521 298.655 164.191 298.655C163.212 298.655 162.651 298.325 162.651 297.225ZM166.192 291.846V290.702H167.27V291.846H166.192ZM167.226 292.847V298.6H166.236V292.847H167.226ZM173.828 295.729C173.828 297.511 172.728 298.721 171.155 298.721C169.582 298.721 168.482 297.511 168.482 295.729C168.482 293.947 169.582 292.737 171.155 292.737C172.728 292.737 173.828 293.947 173.828 295.729ZM169.483 295.729C169.483 297.038 170.143 297.874 171.155 297.874C172.167 297.874 172.827 297.038 172.827 295.729C172.827 294.409 172.167 293.573 171.155 293.573C170.143 293.573 169.483 294.409 169.483 295.729ZM175.087 298.6V292.847H176.077V293.628C176.407 293.155 176.979 292.737 177.793 292.737C179.014 292.737 179.707 293.584 179.707 294.805V298.6H178.717V295.069C178.717 294.266 178.376 293.661 177.518 293.661C176.803 293.661 176.077 294.211 176.077 295.168V298.6H175.087ZM180.658 297.379L181.428 296.818C181.736 297.489 182.44 297.896 183.188 297.896C183.859 297.896 184.453 297.61 184.453 296.983C184.453 296.356 183.903 296.268 182.957 296.07C182.011 295.861 181.021 295.652 181.021 294.475C181.021 293.452 181.912 292.737 183.133 292.737C184.167 292.737 185.014 293.243 185.355 293.925L184.651 294.486C184.354 293.914 183.815 293.551 183.089 293.551C182.429 293.551 181.989 293.881 181.989 294.398C181.989 294.937 182.495 295.036 183.298 295.212C184.288 295.443 185.421 295.641 185.421 296.895C185.421 297.995 184.42 298.721 183.188 298.721C182.143 298.721 181.098 298.27 180.658 297.379ZM191.364 290.702H192.53L195.577 298.6H194.51L193.707 296.521H190.165L189.373 298.6H188.317L191.364 290.702ZM191.925 291.89L190.517 295.597H193.355L191.925 291.89ZM196.518 298.6V292.847H197.508V293.628C197.838 293.155 198.41 292.737 199.224 292.737C200.445 292.737 201.138 293.584 201.138 294.805V298.6H200.148V295.069C200.148 294.266 199.807 293.661 198.949 293.661C198.234 293.661 197.508 294.211 197.508 295.168V298.6H196.518ZM202.089 297.379L202.859 296.818C203.167 297.489 203.871 297.896 204.619 297.896C205.29 297.896 205.884 297.61 205.884 296.983C205.884 296.356 205.334 296.268 204.388 296.07C203.442 295.861 202.452 295.652 202.452 294.475C202.452 293.452 203.343 292.737 204.564 292.737C205.598 292.737 206.445 293.243 206.786 293.925L206.082 294.486C205.785 293.914 205.246 293.551 204.52 293.551C203.86 293.551 203.42 293.881 203.42 294.398C203.42 294.937 203.926 295.036 204.729 295.212C205.719 295.443 206.852 295.641 206.852 296.895C206.852 297.995 205.851 298.721 204.619 298.721C203.574 298.721 202.529 298.27 202.089 297.379ZM210.73 292.847H211.566L212.754 297.137L213.953 292.847H214.943L213.194 298.6H212.325L211.126 294.332L209.927 298.6H209.058L207.309 292.847H208.332L209.542 297.126L210.73 292.847ZM218.099 298.721C216.504 298.721 215.404 297.5 215.404 295.729C215.404 294.013 216.493 292.737 218.055 292.737C219.661 292.737 220.508 293.958 220.508 295.553V295.883H216.35C216.405 297.093 217.098 297.863 218.099 297.863C218.869 297.863 219.419 297.445 219.595 296.763L220.464 297.071C220.112 298.094 219.243 298.721 218.099 298.721ZM218.044 293.584C217.208 293.584 216.581 294.145 216.405 295.124H219.507C219.485 294.31 219.045 293.584 218.044 293.584ZM224.722 292.825V293.826C224.557 293.793 224.425 293.782 224.238 293.782C223.402 293.782 222.731 294.442 222.731 295.454V298.6H221.741V292.847H222.731V293.826C222.984 293.243 223.545 292.803 224.326 292.803C224.48 292.803 224.623 292.814 224.722 292.825ZM227.874 298.721C226.279 298.721 225.179 297.5 225.179 295.729C225.179 294.013 226.268 292.737 227.83 292.737C229.436 292.737 230.283 293.958 230.283 295.553V295.883H226.125C226.18 297.093 226.873 297.863 227.874 297.863C228.644 297.863 229.194 297.445 229.37 296.763L230.239 297.071C229.887 298.094 229.018 298.721 227.874 298.721ZM227.819 293.584C226.983 293.584 226.356 294.145 226.18 295.124H229.282C229.26 294.31 228.82 293.584 227.819 293.584ZM233.628 298.721C232.033 298.721 231.12 297.357 231.12 295.729C231.12 294.09 232.033 292.737 233.628 292.737C234.431 292.737 235.069 293.122 235.41 293.683V290.702H236.4V298.6H235.41V297.764C235.069 298.336 234.431 298.721 233.628 298.721ZM235.432 295.531C235.432 294.189 234.618 293.606 233.804 293.606C232.726 293.606 232.121 294.486 232.121 295.729C232.121 296.961 232.726 297.852 233.804 297.852C234.618 297.852 235.432 297.258 235.432 295.938V295.531Z" fill="#B0B0B0"/>
<path d="M107.641 175.962C107.641 177.832 108.675 179.097 110.138 179.097C111.161 179.097 111.898 178.503 112.184 177.502L113.185 177.832C112.723 179.196 111.645 180.032 110.138 180.032C108.092 180.032 106.585 178.371 106.585 175.962C106.585 173.553 108.092 171.892 110.138 171.892C111.645 171.892 112.723 172.728 113.185 174.092L112.184 174.422C111.898 173.421 111.161 172.827 110.138 172.827C108.675 172.827 107.641 174.092 107.641 175.962ZM115.244 172.013V179.911H114.254V172.013H115.244ZM118.338 180.01C117.293 180.01 116.446 179.394 116.446 178.36C116.446 177.216 117.337 176.743 118.624 176.479L120.021 176.193V175.951C120.021 175.291 119.658 174.917 118.888 174.917C118.162 174.917 117.733 175.258 117.557 175.896L116.622 175.654C116.897 174.719 117.744 174.048 118.921 174.048C120.208 174.048 121 174.675 121 175.907V178.712C121 179.086 121.231 179.207 121.616 179.119V179.911C120.736 180.021 120.23 179.812 120.109 179.262C119.757 179.713 119.119 180.01 118.338 180.01ZM120.021 177.953V176.963L118.899 177.205C118.019 177.381 117.425 177.623 117.425 178.316C117.425 178.877 117.832 179.207 118.459 179.207C119.306 179.207 120.021 178.69 120.021 177.953ZM127.252 174.158V179.911H126.262V179.119C125.932 179.603 125.371 180.032 124.557 180.032C123.325 180.032 122.632 179.185 122.632 177.964V174.158H123.622V177.755C123.622 178.569 123.974 179.119 124.821 179.119C125.536 179.119 126.262 178.58 126.262 177.623V174.158H127.252ZM128.258 178.69L129.028 178.129C129.336 178.8 130.04 179.207 130.788 179.207C131.459 179.207 132.053 178.921 132.053 178.294C132.053 177.667 131.503 177.579 130.557 177.381C129.611 177.172 128.621 176.963 128.621 175.786C128.621 174.763 129.512 174.048 130.733 174.048C131.767 174.048 132.614 174.554 132.955 175.236L132.251 175.797C131.954 175.225 131.415 174.862 130.689 174.862C130.029 174.862 129.589 175.192 129.589 175.709C129.589 176.248 130.095 176.347 130.898 176.523C131.888 176.754 133.021 176.952 133.021 178.206C133.021 179.306 132.02 180.032 130.788 180.032C129.743 180.032 128.698 179.581 128.258 178.69ZM136.544 180.032C134.949 180.032 133.849 178.811 133.849 177.04C133.849 175.324 134.938 174.048 136.5 174.048C138.106 174.048 138.953 175.269 138.953 176.864V177.194H134.795C134.85 178.404 135.543 179.174 136.544 179.174C137.314 179.174 137.864 178.756 138.04 178.074L138.909 178.382C138.557 179.405 137.688 180.032 136.544 180.032ZM136.489 174.895C135.653 174.895 135.026 175.456 134.85 176.435H137.952C137.93 175.621 137.49 174.895 136.489 174.895ZM146.642 179.911H145.663V177.854H141.846V177.029L145.311 172.013H146.653V176.974H148.182V177.854H146.642V179.911ZM142.924 176.974H145.652V173.025L142.924 176.974Z" fill="#414141"/>
<path d="M594 324.858V529.641" stroke="url(#paint0_linear_711_2954)"/>
<defs>
<filter id="filter0_d_711_2954" x="186.368" y="0.20372" width="358.808" height="323.578" filterUnits="userSpaceOnUse" color-interpolation-filters="sRGB">
<feFlood flood-opacity="0" result="BackgroundImageFix"/>
<feColorMatrix in="SourceAlpha" type="matrix" values="0 0 0 0 0 0 0 0 0 0 0 0 0 0 0 0 0 0 127 0" result="hardAlpha"/>
<feOffset dy="40"/>
<feGaussianBlur stdDeviation="37.5"/>
<feComposite in2="hardAlpha" operator="out"/>
<feColorMatrix type="matrix" values="0 0 0 0 1 0 0 0 0 1 0 0 0 0 1 0 0 0 1 0"/>
<feBlend mode="normal" in2="BackgroundImageFix" result="effect1_dropShadow_711_2954"/>
<feBlend mode="normal" in="SourceGraphic" in2="effect1_dropShadow_711_2954" result="shape"/>
</filter>
<filter id="filter1_d_711_2954" x="339.787" y="157.882" width="358.808" height="323.578" filterUnits="userSpaceOnUse" color-interpolation-filters="sRGB">
<feFlood flood-opacity="0" result="BackgroundImageFix"/>
<feColorMatrix in="SourceAlpha" type="matrix" values="0 0 0 0 0 0 0 0 0 0 0 0 0 0 0 0 0 0 127 0" result="hardAlpha"/>
<feOffset dy="40"/>
<feGaussianBlur stdDeviation="37.5"/>
<feComposite in2="hardAlpha" operator="out"/>
<feColorMatrix type="matrix" values="0 0 0 0 1 0 0 0 0 1 0 0 0 0 1 0 0 0 1 0"/>
<feBlend mode="normal" in2="BackgroundImageFix" result="effect1_dropShadow_711_2954"/>
<feBlend mode="normal" in="SourceGraphic" in2="effect1_dropShadow_711_2954" result="shape"/>
</filter>
<filter id="filter2_d_711_2954" x="0" y="113.085" width="358.808" height="323.578" filterUnits="userSpaceOnUse" color-interpolation-filters="sRGB">
<feFlood flood-opacity="0" result="BackgroundImageFix"/>
<feColorMatrix in="SourceAlpha" type="matrix" values="0 0 0 0 0 0 0 0 0 0 0 0 0 0 0 0 0 0 127 0" result="hardAlpha"/>
<feOffset dy="40"/>
<feGaussianBlur stdDeviation="37.5"/>
<feComposite in2="hardAlpha" operator="out"/>
<feColorMatrix type="matrix" values="0 0 0 0 1 0 0 0 0 1 0 0 0 0 1 0 0 0 1 0"/>
<feBlend mode="normal" in2="BackgroundImageFix" result="effect1_dropShadow_711_2954"/>
<feBlend mode="normal" in="SourceGraphic" in2="effect1_dropShadow_711_2954" result="shape"/>
</filter>
<linearGradient id="paint0_linear_711_2954" x1="594.5" y1="324.858" x2="594.5" y2="529.641" gradientUnits="userSpaceOnUse">
<stop stop-color="#FFC87F"/>
<stop offset="1" stop-color="#FFC87F" stop-opacity="0"/>
</linearGradient>
</defs>
</svg>
