<svg width="645" height="548" viewBox="0 0 645 548" fill="none" xmlns="http://www.w3.org/2000/svg">
<g filter="url(#filter0_d_728_2987)">
<rect x="295" y="35.2037" width="208.808" height="173.578" rx="16" fill="white" fill-opacity="0.84" shape-rendering="crispEdges"/>
</g>
<rect x="337.84" y="160.115" width="179.726" height="22.5331" rx="4" fill="#BFFFD9" fill-opacity="0.38"/>
<path d="M461.851 169.436H459.562V170.297H458.974V168.855H462.565V169.436C461.333 170.801 460.976 172.068 460.976 173.881H460.297C460.297 171.928 460.836 170.563 461.851 169.436ZM462.8 171.368C462.8 169.835 463.521 168.778 464.718 168.778C465.908 168.778 466.629 169.835 466.629 171.368C466.629 172.901 465.908 173.958 464.718 173.958C463.521 173.958 462.8 172.901 462.8 171.368ZM463.472 171.368C463.472 172.544 463.899 173.37 464.718 173.37C465.53 173.37 465.964 172.544 465.964 171.368C465.964 170.192 465.53 169.366 464.718 169.366C463.899 169.366 463.472 170.192 463.472 171.368ZM467.75 170.374C467.75 170.75 467.789 171.034 467.869 171.225C467.951 171.415 468.081 171.509 468.259 171.509C468.619 171.509 468.799 171.131 468.799 170.374C468.799 169.622 468.619 169.246 468.259 169.246C468.081 169.246 467.951 169.341 467.869 169.53C467.789 169.717 467.75 169.998 467.75 170.374ZM469.312 170.374C469.312 170.894 469.222 171.287 469.042 171.554C468.864 171.818 468.603 171.95 468.259 171.95C467.935 171.95 467.683 171.814 467.503 171.543C467.326 171.27 467.237 170.88 467.237 170.374C467.237 169.853 467.323 169.462 467.497 169.202C467.672 168.942 467.926 168.812 468.259 168.812C468.594 168.812 468.852 168.948 469.035 169.219C469.219 169.488 469.312 169.873 469.312 170.374ZM470.809 172.377C470.809 172.758 470.848 173.041 470.928 173.228C471.01 173.415 471.14 173.509 471.318 173.509C471.502 173.509 471.638 173.416 471.725 173.232C471.813 173.045 471.858 172.76 471.858 172.377C471.858 171.63 471.678 171.256 471.318 171.256C471.14 171.256 471.01 171.35 470.928 171.536C470.848 171.721 470.809 172.001 470.809 172.377ZM472.371 172.377C472.371 172.895 472.281 173.286 472.101 173.553C471.921 173.817 471.66 173.95 471.318 173.95C470.994 173.95 470.743 173.814 470.562 173.543C470.385 173.269 470.296 172.881 470.296 172.377C470.296 171.855 470.382 171.465 470.556 171.205C470.729 170.945 470.983 170.815 471.318 170.815C471.653 170.815 471.911 170.951 472.094 171.222C472.278 171.491 472.371 171.876 472.371 172.377ZM471.458 168.884L468.686 173.881H468.149L470.921 168.884H471.458ZM475.092 172.054C475.092 172.887 475.54 173.405 476.191 173.405C476.695 173.405 476.996 173.083 477.101 172.628L477.661 172.887C477.486 173.496 476.954 173.958 476.191 173.958C475.169 173.958 474.462 173.181 474.462 172.054C474.462 170.92 475.169 170.15 476.191 170.15C476.954 170.15 477.472 170.591 477.647 171.2L477.101 171.473C476.996 171.025 476.695 170.696 476.191 170.696C475.54 170.696 475.092 171.214 475.092 172.054ZM481.501 172.054C481.501 173.188 480.801 173.958 479.8 173.958C478.799 173.958 478.099 173.188 478.099 172.054C478.099 170.92 478.799 170.15 479.8 170.15C480.801 170.15 481.501 170.92 481.501 172.054ZM478.736 172.054C478.736 172.887 479.156 173.419 479.8 173.419C480.444 173.419 480.864 172.887 480.864 172.054C480.864 171.214 480.444 170.682 479.8 170.682C479.156 170.682 478.736 171.214 478.736 172.054ZM482.932 171.69V173.881H482.302V170.22H482.932V170.717C483.128 170.416 483.478 170.15 483.989 170.15C484.479 170.15 484.822 170.395 485.004 170.773C485.207 170.472 485.599 170.15 486.173 170.15C486.929 170.15 487.384 170.689 487.384 171.466V173.881H486.754V171.634C486.754 171.123 486.544 170.738 486.026 170.738C485.606 170.738 485.158 171.095 485.158 171.69V173.881H484.528V171.634C484.528 171.123 484.318 170.738 483.8 170.738C483.38 170.738 482.932 171.095 482.932 171.69ZM490.164 173.958C489.653 173.958 489.247 173.713 489.03 173.349V175.141H488.4V170.22H489.03V170.752C489.247 170.395 489.653 170.15 490.164 170.15C491.179 170.15 491.76 171.011 491.76 172.054C491.76 173.09 491.179 173.958 490.164 173.958ZM489.016 171.928V172.187C489.016 173.027 489.534 173.405 490.052 173.405C490.738 173.405 491.123 172.838 491.123 172.054C491.123 171.263 490.738 170.703 490.052 170.703C489.534 170.703 489.016 171.074 489.016 171.928ZM493.186 168.855V173.881H492.556V168.855H493.186ZM495.7 173.958C494.685 173.958 493.985 173.181 493.985 172.054C493.985 170.962 494.678 170.15 495.672 170.15C496.694 170.15 497.233 170.927 497.233 171.942V172.152H494.587C494.622 172.922 495.063 173.412 495.7 173.412C496.19 173.412 496.54 173.146 496.652 172.712L497.205 172.908C496.981 173.559 496.428 173.958 495.7 173.958ZM495.665 170.689C495.133 170.689 494.734 171.046 494.622 171.669H496.596C496.582 171.151 496.302 170.689 495.665 170.689ZM498.116 173.006V170.759H497.549V170.22H498.116V169.149H498.739V170.22H499.572V170.759H498.739V172.908C498.739 173.293 498.928 173.363 499.25 173.363C499.397 173.363 499.502 173.356 499.649 173.321V173.86C499.488 173.895 499.306 173.916 499.096 173.916C498.473 173.916 498.116 173.706 498.116 173.006ZM500.369 169.583V168.855H501.055V169.583H500.369ZM501.027 170.22V173.881H500.397V170.22H501.027ZM505.228 172.054C505.228 173.188 504.528 173.958 503.527 173.958C502.526 173.958 501.826 173.188 501.826 172.054C501.826 170.92 502.526 170.15 503.527 170.15C504.528 170.15 505.228 170.92 505.228 172.054ZM502.463 172.054C502.463 172.887 502.883 173.419 503.527 173.419C504.171 173.419 504.591 172.887 504.591 172.054C504.591 171.214 504.171 170.682 503.527 170.682C502.883 170.682 502.463 171.214 502.463 172.054ZM506.029 173.881V170.22H506.659V170.717C506.869 170.416 507.233 170.15 507.751 170.15C508.528 170.15 508.969 170.689 508.969 171.466V173.881H508.339V171.634C508.339 171.123 508.122 170.738 507.576 170.738C507.121 170.738 506.659 171.088 506.659 171.697V173.881H506.029Z" fill="#414141"/>
<rect x="346.492" y="168.526" width="106.129" height="5.70972" rx="2.85486" fill="#08CC85"/>
<rect x="337.84" y="84.6705" width="8.48102" height="8.48102" rx="4.24051" fill="#08CC85"/>
<path d="M355.858 90.44V96H353.298V81.64H359.038C362.238 81.64 364.238 83.14 364.238 86.04C364.238 88.9 362.238 90.44 359.038 90.44H355.858ZM355.858 88.24H358.898C360.738 88.24 361.718 87.44 361.718 86.04C361.718 84.62 360.738 83.84 358.898 83.84H355.858V88.24ZM367.852 88.82C367.852 91.92 369.532 93.96 371.892 93.96C373.572 93.96 374.792 92.94 375.232 91.26L377.632 92.08C376.792 94.62 374.792 96.22 371.892 96.22C368.072 96.22 365.292 93.18 365.292 88.82C365.292 84.46 368.072 81.42 371.892 81.42C374.792 81.42 376.792 83.02 377.632 85.56L375.232 86.38C374.792 84.7 373.572 83.68 371.892 83.68C369.532 83.68 367.852 85.72 367.852 88.82ZM381.932 81.64V96H379.372V81.64H381.932ZM384.645 96V81.64H389.445C393.905 81.64 396.665 84.44 396.665 88.82C396.665 93.2 393.905 96 389.445 96H384.645ZM387.145 93.8H389.445C392.405 93.8 394.145 91.84 394.145 88.82C394.145 85.78 392.405 83.84 389.425 83.84H387.145V93.8ZM397.209 93.2L399.169 91.58C400.169 93.14 401.669 94.04 403.309 94.04C404.929 94.04 406.149 93.3 406.149 91.92C406.149 90.46 404.649 90.26 402.509 89.74C400.349 89.22 398.029 88.58 398.029 85.78C398.029 83.12 400.309 81.42 403.209 81.42C405.669 81.42 407.589 82.58 408.549 84.08L406.669 85.7C405.869 84.46 404.809 83.6 403.129 83.6C401.589 83.6 400.529 84.38 400.529 85.52C400.529 86.78 401.629 87.04 403.569 87.48C405.889 88 408.669 88.54 408.669 91.66C408.669 94.48 406.189 96.22 403.229 96.22C400.769 96.22 398.329 95.04 397.209 93.2ZM409.201 93.2L411.161 91.58C412.161 93.14 413.661 94.04 415.301 94.04C416.921 94.04 418.141 93.3 418.141 91.92C418.141 90.46 416.641 90.26 414.501 89.74C412.341 89.22 410.021 88.58 410.021 85.78C410.021 83.12 412.301 81.42 415.201 81.42C417.661 81.42 419.581 82.58 420.541 84.08L418.661 85.7C417.861 84.46 416.801 83.6 415.121 83.6C413.581 83.6 412.521 84.38 412.521 85.52C412.521 86.78 413.621 87.04 415.561 87.48C417.881 88 420.661 88.54 420.661 91.66C420.661 94.48 418.181 96.22 415.221 96.22C412.761 96.22 410.321 95.04 409.201 93.2Z" fill="#414141"/>
<path d="M339.765 114.689V118H338.709V110.102H341.723C343.395 110.102 344.462 110.883 344.462 112.39C344.462 113.875 343.395 114.689 341.723 114.689H339.765ZM339.765 113.776H341.668C342.79 113.776 343.417 113.281 343.417 112.39C343.417 111.499 342.79 111.015 341.668 111.015H339.765V113.776ZM346.178 114.051C346.178 115.921 347.212 117.186 348.675 117.186C349.698 117.186 350.435 116.592 350.721 115.591L351.722 115.921C351.26 117.285 350.182 118.121 348.675 118.121C346.629 118.121 345.122 116.46 345.122 114.051C345.122 111.642 346.629 109.981 348.675 109.981C350.182 109.981 351.26 110.817 351.722 112.181L350.721 112.511C350.435 111.51 349.698 110.916 348.675 110.916C347.212 110.916 346.178 112.181 346.178 114.051ZM353.891 110.102V118H352.835V110.102H353.891ZM357.123 116.372L357.948 115.712C358.443 116.658 359.334 117.208 360.357 117.208C361.38 117.208 362.172 116.702 362.172 115.8C362.172 114.843 361.259 114.678 360.06 114.392C358.817 114.095 357.585 113.754 357.585 112.269C357.585 110.883 358.784 109.981 360.28 109.981C361.655 109.981 362.645 110.641 363.118 111.532L362.315 112.17C361.908 111.411 361.281 110.894 360.258 110.894C359.301 110.894 358.608 111.422 358.608 112.181C358.608 113.017 359.345 113.193 360.456 113.457C361.765 113.765 363.206 114.04 363.206 115.712C363.206 117.186 361.897 118.121 360.335 118.121C358.971 118.121 357.662 117.439 357.123 116.372ZM365.04 115.129C365.04 116.438 365.744 117.252 366.767 117.252C367.559 117.252 368.032 116.746 368.197 116.031L369.077 116.438C368.802 117.395 367.966 118.121 366.767 118.121C365.161 118.121 364.05 116.9 364.05 115.129C364.05 113.347 365.161 112.137 366.767 112.137C367.966 112.137 368.78 112.83 369.055 113.787L368.197 114.216C368.032 113.512 367.559 112.995 366.767 112.995C365.744 112.995 365.04 113.809 365.04 115.129ZM371.666 118.099C370.621 118.099 369.774 117.483 369.774 116.449C369.774 115.305 370.665 114.832 371.952 114.568L373.349 114.282V114.04C373.349 113.38 372.986 113.006 372.216 113.006C371.49 113.006 371.061 113.347 370.885 113.985L369.95 113.743C370.225 112.808 371.072 112.137 372.249 112.137C373.536 112.137 374.328 112.764 374.328 113.996V116.801C374.328 117.175 374.559 117.296 374.944 117.208V118C374.064 118.11 373.558 117.901 373.437 117.351C373.085 117.802 372.447 118.099 371.666 118.099ZM373.349 116.042V115.052L372.227 115.294C371.347 115.47 370.753 115.712 370.753 116.405C370.753 116.966 371.16 117.296 371.787 117.296C372.634 117.296 373.349 116.779 373.349 116.042ZM376.015 118V112.247H377.005V113.028C377.335 112.555 377.907 112.137 378.721 112.137C379.942 112.137 380.635 112.984 380.635 114.205V118H379.645V114.469C379.645 113.666 379.304 113.061 378.446 113.061C377.731 113.061 377.005 113.611 377.005 114.568V118H376.015ZM381.586 116.779L382.356 116.218C382.664 116.889 383.368 117.296 384.116 117.296C384.787 117.296 385.381 117.01 385.381 116.383C385.381 115.756 384.831 115.668 383.885 115.47C382.939 115.261 381.949 115.052 381.949 113.875C381.949 112.852 382.84 112.137 384.061 112.137C385.095 112.137 385.942 112.643 386.283 113.325L385.579 113.886C385.282 113.314 384.743 112.951 384.017 112.951C383.357 112.951 382.917 113.281 382.917 113.798C382.917 114.337 383.423 114.436 384.226 114.612C385.216 114.843 386.349 115.041 386.349 116.295C386.349 117.395 385.348 118.121 384.116 118.121C383.071 118.121 382.026 117.67 381.586 116.779ZM390.532 114.051C390.532 115.921 391.566 117.186 393.029 117.186C394.052 117.186 394.789 116.592 395.075 115.591L396.076 115.921C395.614 117.285 394.536 118.121 393.029 118.121C390.983 118.121 389.476 116.46 389.476 114.051C389.476 111.642 390.983 109.981 393.029 109.981C394.536 109.981 395.614 110.817 396.076 112.181L395.075 112.511C394.789 111.51 394.052 110.916 393.029 110.916C391.566 110.916 390.532 112.181 390.532 114.051ZM402.095 115.129C402.095 116.911 400.995 118.121 399.422 118.121C397.849 118.121 396.749 116.911 396.749 115.129C396.749 113.347 397.849 112.137 399.422 112.137C400.995 112.137 402.095 113.347 402.095 115.129ZM397.75 115.129C397.75 116.438 398.41 117.274 399.422 117.274C400.434 117.274 401.094 116.438 401.094 115.129C401.094 113.809 400.434 112.973 399.422 112.973C398.41 112.973 397.75 113.809 397.75 115.129ZM404.344 114.557V118H403.354V112.247H404.344V113.028C404.652 112.555 405.202 112.137 406.005 112.137C406.775 112.137 407.314 112.522 407.6 113.116C407.919 112.643 408.535 112.137 409.437 112.137C410.625 112.137 411.34 112.984 411.34 114.205V118H410.35V114.469C410.35 113.666 410.02 113.061 409.206 113.061C408.546 113.061 407.842 113.622 407.842 114.557V118H406.852V114.469C406.852 113.666 406.522 113.061 405.708 113.061C405.048 113.061 404.344 113.622 404.344 114.557ZM415.708 118.121C414.905 118.121 414.267 117.736 413.926 117.164V119.98H412.936V112.247H413.926V113.083C414.267 112.522 414.905 112.137 415.708 112.137C417.303 112.137 418.216 113.49 418.216 115.129C418.216 116.757 417.303 118.121 415.708 118.121ZM413.904 114.931V115.338C413.904 116.658 414.718 117.252 415.532 117.252C416.61 117.252 417.215 116.361 417.215 115.129C417.215 113.886 416.61 113.006 415.532 113.006C414.718 113.006 413.904 113.589 413.904 114.931ZM420.458 110.102V118H419.468V110.102H420.458ZM424.409 118.121C422.814 118.121 421.714 116.9 421.714 115.129C421.714 113.413 422.803 112.137 424.365 112.137C425.971 112.137 426.818 113.358 426.818 114.953V115.283H422.66C422.715 116.493 423.408 117.263 424.409 117.263C425.179 117.263 425.729 116.845 425.905 116.163L426.774 116.471C426.422 117.494 425.553 118.121 424.409 118.121ZM424.354 112.984C423.518 112.984 422.891 113.545 422.715 114.524H425.817C425.795 113.71 425.355 112.984 424.354 112.984ZM428.205 116.625V113.094H427.314V112.247H428.205V110.564H429.184V112.247H430.493V113.094H429.184V116.471C429.184 117.076 429.481 117.186 429.987 117.186C430.218 117.186 430.383 117.175 430.614 117.12V117.967C430.361 118.022 430.075 118.055 429.745 118.055C428.766 118.055 428.205 117.725 428.205 116.625ZM434.056 118.121C432.461 118.121 431.361 116.9 431.361 115.129C431.361 113.413 432.45 112.137 434.012 112.137C435.618 112.137 436.465 113.358 436.465 114.953V115.283H432.307C432.362 116.493 433.055 117.263 434.056 117.263C434.826 117.263 435.376 116.845 435.552 116.163L436.421 116.471C436.069 117.494 435.2 118.121 434.056 118.121ZM434.001 112.984C433.165 112.984 432.538 113.545 432.362 114.524H435.464C435.442 113.71 435.002 112.984 434.001 112.984ZM439.809 118.121C438.214 118.121 437.301 116.757 437.301 115.129C437.301 113.49 438.214 112.137 439.809 112.137C440.612 112.137 441.25 112.522 441.591 113.083V110.102H442.581V118H441.591V117.164C441.25 117.736 440.612 118.121 439.809 118.121ZM441.613 114.931C441.613 113.589 440.799 113.006 439.985 113.006C438.907 113.006 438.302 113.886 438.302 115.129C438.302 116.361 438.907 117.252 439.985 117.252C440.799 117.252 441.613 116.658 441.613 115.338V114.931ZM338.709 135V127.102H341.217C343.615 127.102 345.133 128.642 345.133 131.051C345.133 133.46 343.615 135 341.217 135H338.709ZM339.743 134.087H341.217C343.01 134.087 344.099 132.888 344.099 131.051C344.099 129.203 343.01 128.015 341.206 128.015H339.743V134.087ZM351.328 132.129C351.328 133.911 350.228 135.121 348.655 135.121C347.082 135.121 345.982 133.911 345.982 132.129C345.982 130.347 347.082 129.137 348.655 129.137C350.228 129.137 351.328 130.347 351.328 132.129ZM346.983 132.129C346.983 133.438 347.643 134.274 348.655 134.274C349.667 134.274 350.327 133.438 350.327 132.129C350.327 130.809 349.667 129.973 348.655 129.973C347.643 129.973 346.983 130.809 346.983 132.129ZM353.181 132.129C353.181 133.438 353.885 134.252 354.908 134.252C355.7 134.252 356.173 133.746 356.338 133.031L357.218 133.438C356.943 134.395 356.107 135.121 354.908 135.121C353.302 135.121 352.191 133.9 352.191 132.129C352.191 130.347 353.302 129.137 354.908 129.137C356.107 129.137 356.921 129.83 357.196 130.787L356.338 131.216C356.173 130.512 355.7 129.995 354.908 129.995C353.885 129.995 353.181 130.809 353.181 132.129ZM362.867 129.247V135H361.877V134.208C361.547 134.692 360.986 135.121 360.172 135.121C358.94 135.121 358.247 134.274 358.247 133.053V129.247H359.237V132.844C359.237 133.658 359.589 134.208 360.436 134.208C361.151 134.208 361.877 133.669 361.877 132.712V129.247H362.867ZM365.501 131.557V135H364.511V129.247H365.501V130.028C365.809 129.555 366.359 129.137 367.162 129.137C367.932 129.137 368.471 129.522 368.757 130.116C369.076 129.643 369.692 129.137 370.594 129.137C371.782 129.137 372.497 129.984 372.497 131.205V135H371.507V131.469C371.507 130.666 371.177 130.061 370.363 130.061C369.703 130.061 368.999 130.622 368.999 131.557V135H368.009V131.469C368.009 130.666 367.679 130.061 366.865 130.061C366.205 130.061 365.501 130.622 365.501 131.557ZM376.392 135.121C374.797 135.121 373.697 133.9 373.697 132.129C373.697 130.413 374.786 129.137 376.348 129.137C377.954 129.137 378.801 130.358 378.801 131.953V132.283H374.643C374.698 133.493 375.391 134.263 376.392 134.263C377.162 134.263 377.712 133.845 377.888 133.163L378.757 133.471C378.405 134.494 377.536 135.121 376.392 135.121ZM376.337 129.984C375.501 129.984 374.874 130.545 374.698 131.524H377.8C377.778 130.71 377.338 129.984 376.337 129.984ZM380.033 135V129.247H381.023V130.028C381.353 129.555 381.925 129.137 382.739 129.137C383.96 129.137 384.653 129.984 384.653 131.205V135H383.663V131.469C383.663 130.666 383.322 130.061 382.464 130.061C381.749 130.061 381.023 130.611 381.023 131.568V135H380.033ZM386.396 133.625V130.094H385.505V129.247H386.396V127.564H387.375V129.247H388.684V130.094H387.375V133.471C387.375 134.076 387.672 134.186 388.178 134.186C388.409 134.186 388.574 134.175 388.805 134.12V134.967C388.552 135.022 388.266 135.055 387.936 135.055C386.957 135.055 386.396 134.725 386.396 133.625ZM389.342 133.779L390.112 133.218C390.42 133.889 391.124 134.296 391.872 134.296C392.543 134.296 393.137 134.01 393.137 133.383C393.137 132.756 392.587 132.668 391.641 132.47C390.695 132.261 389.705 132.052 389.705 130.875C389.705 129.852 390.596 129.137 391.817 129.137C392.851 129.137 393.698 129.643 394.039 130.325L393.335 130.886C393.038 130.314 392.499 129.951 391.773 129.951C391.113 129.951 390.673 130.281 390.673 130.798C390.673 131.337 391.179 131.436 391.982 131.612C392.972 131.843 394.105 132.041 394.105 133.295C394.105 134.395 393.104 135.121 391.872 135.121C390.827 135.121 389.782 134.67 389.342 133.779ZM400.653 135.11C398.871 135.11 397.551 134.054 397.551 131.876V127.102H398.607V131.843C398.607 133.46 399.465 134.164 400.653 134.164C401.852 134.164 402.71 133.46 402.71 131.843V127.102H403.766V131.876C403.766 134.054 402.446 135.11 400.653 135.11ZM408.092 135.121C407.289 135.121 406.651 134.736 406.31 134.164V136.98H405.32V129.247H406.31V130.083C406.651 129.522 407.289 129.137 408.092 129.137C409.687 129.137 410.6 130.49 410.6 132.129C410.6 133.757 409.687 135.121 408.092 135.121ZM406.288 131.931V132.338C406.288 133.658 407.102 134.252 407.916 134.252C408.994 134.252 409.599 133.361 409.599 132.129C409.599 130.886 408.994 130.006 407.916 130.006C407.102 130.006 406.288 130.589 406.288 131.931ZM412.841 127.102V135H411.851V127.102H412.841ZM419.444 132.129C419.444 133.911 418.344 135.121 416.771 135.121C415.198 135.121 414.098 133.911 414.098 132.129C414.098 130.347 415.198 129.137 416.771 129.137C418.344 129.137 419.444 130.347 419.444 132.129ZM415.099 132.129C415.099 133.438 415.759 134.274 416.771 134.274C417.783 134.274 418.443 133.438 418.443 132.129C418.443 130.809 417.783 129.973 416.771 129.973C415.759 129.973 415.099 130.809 415.099 132.129ZM422.144 135.099C421.099 135.099 420.252 134.483 420.252 133.449C420.252 132.305 421.143 131.832 422.43 131.568L423.827 131.282V131.04C423.827 130.38 423.464 130.006 422.694 130.006C421.968 130.006 421.539 130.347 421.363 130.985L420.428 130.743C420.703 129.808 421.55 129.137 422.727 129.137C424.014 129.137 424.806 129.764 424.806 130.996V133.801C424.806 134.175 425.037 134.296 425.422 134.208V135C424.542 135.11 424.036 134.901 423.915 134.351C423.563 134.802 422.925 135.099 422.144 135.099ZM423.827 133.042V132.052L422.705 132.294C421.825 132.47 421.231 132.712 421.231 133.405C421.231 133.966 421.638 134.296 422.265 134.296C423.112 134.296 423.827 133.779 423.827 133.042ZM428.605 135.121C427.01 135.121 426.097 133.757 426.097 132.129C426.097 130.49 427.01 129.137 428.605 129.137C429.408 129.137 430.046 129.522 430.387 130.083V127.102H431.377V135H430.387V134.164C430.046 134.736 429.408 135.121 428.605 135.121ZM430.409 131.931C430.409 130.589 429.595 130.006 428.781 130.006C427.703 130.006 427.098 130.886 427.098 132.129C427.098 133.361 427.703 134.252 428.781 134.252C429.595 134.252 430.409 133.658 430.409 132.338V131.931ZM435.312 135.121C433.717 135.121 432.617 133.9 432.617 132.129C432.617 130.413 433.706 129.137 435.268 129.137C436.874 129.137 437.721 130.358 437.721 131.953V132.283H433.563C433.618 133.493 434.311 134.263 435.312 134.263C436.082 134.263 436.632 133.845 436.808 133.163L437.677 133.471C437.325 134.494 436.456 135.121 435.312 135.121ZM435.257 129.984C434.421 129.984 433.794 130.545 433.618 131.524H436.72C436.698 130.71 436.258 129.984 435.257 129.984ZM441.066 135.121C439.471 135.121 438.558 133.757 438.558 132.129C438.558 130.49 439.471 129.137 441.066 129.137C441.869 129.137 442.507 129.522 442.848 130.083V127.102H443.838V135H442.848V134.164C442.507 134.736 441.869 135.121 441.066 135.121ZM442.87 131.931C442.87 130.589 442.056 130.006 441.242 130.006C440.164 130.006 439.559 130.886 439.559 132.129C439.559 133.361 440.164 134.252 441.242 134.252C442.056 134.252 442.87 133.658 442.87 132.338V131.931Z" fill="#414141"/>
<g filter="url(#filter1_d_728_2987)">
<rect x="361" y="259" width="208.808" height="173.578" rx="16" fill="white" fill-opacity="0.84" shape-rendering="crispEdges"/>
</g>
<rect x="392.178" y="368.053" width="179.726" height="22.5331" rx="4" fill="#BFFFD9" fill-opacity="0.38"/>
<path d="M514.54 376.946H515.044V382H514.372V378.304H513.161V377.807L513.7 377.772C514.295 377.73 514.491 377.527 514.54 376.946ZM515.898 379.487C515.898 377.954 516.619 376.897 517.816 376.897C519.006 376.897 519.727 377.954 519.727 379.487C519.727 381.02 519.006 382.077 517.816 382.077C516.619 382.077 515.898 381.02 515.898 379.487ZM516.57 379.487C516.57 380.663 516.997 381.489 517.816 381.489C518.628 381.489 519.062 380.663 519.062 379.487C519.062 378.311 518.628 377.485 517.816 377.485C516.997 377.485 516.57 378.311 516.57 379.487ZM520.259 379.487C520.259 377.954 520.98 376.897 522.177 376.897C523.367 376.897 524.088 377.954 524.088 379.487C524.088 381.02 523.367 382.077 522.177 382.077C520.98 382.077 520.259 381.02 520.259 379.487ZM520.931 379.487C520.931 380.663 521.358 381.489 522.177 381.489C522.989 381.489 523.423 380.663 523.423 379.487C523.423 378.311 522.989 377.485 522.177 377.485C521.358 377.485 520.931 378.311 520.931 379.487ZM525.209 378.493C525.209 378.869 525.249 379.153 525.329 379.344C525.411 379.533 525.541 379.628 525.718 379.628C526.078 379.628 526.258 379.25 526.258 378.493C526.258 377.741 526.078 377.365 525.718 377.365C525.541 377.365 525.411 377.46 525.329 377.649C525.249 377.836 525.209 378.117 525.209 378.493ZM526.771 378.493C526.771 379.013 526.681 379.406 526.501 379.672C526.323 379.937 526.062 380.069 525.718 380.069C525.395 380.069 525.143 379.933 524.963 379.662C524.785 379.389 524.696 378.999 524.696 378.493C524.696 377.971 524.783 377.581 524.956 377.321C525.132 377.061 525.386 376.931 525.718 376.931C526.053 376.931 526.312 377.067 526.494 377.338C526.679 377.607 526.771 377.992 526.771 378.493ZM528.268 380.496C528.268 380.877 528.308 381.16 528.388 381.347C528.47 381.534 528.6 381.627 528.777 381.627C528.962 381.627 529.097 381.535 529.184 381.351C529.273 381.164 529.317 380.879 529.317 380.496C529.317 379.749 529.137 379.375 528.777 379.375C528.6 379.375 528.47 379.468 528.388 379.655C528.308 379.84 528.268 380.12 528.268 380.496ZM529.83 380.496C529.83 381.013 529.74 381.405 529.56 381.672C529.38 381.936 529.119 382.068 528.777 382.068C528.454 382.068 528.202 381.933 528.022 381.662C527.844 381.388 527.755 381 527.755 380.496C527.755 379.974 527.842 379.583 528.015 379.324C528.188 379.064 528.442 378.934 528.777 378.934C529.112 378.934 529.371 379.07 529.553 379.341C529.738 379.61 529.83 379.995 529.83 380.496ZM528.917 377.003L526.146 382H525.609L528.381 377.003H528.917ZM532.551 380.173C532.551 381.006 532.999 381.524 533.65 381.524C534.154 381.524 534.455 381.202 534.56 380.747L535.12 381.006C534.945 381.615 534.413 382.077 533.65 382.077C532.628 382.077 531.921 381.3 531.921 380.173C531.921 379.039 532.628 378.269 533.65 378.269C534.413 378.269 534.931 378.71 535.106 379.319L534.56 379.592C534.455 379.144 534.154 378.815 533.65 378.815C532.999 378.815 532.551 379.333 532.551 380.173ZM538.96 380.173C538.96 381.307 538.26 382.077 537.259 382.077C536.258 382.077 535.558 381.307 535.558 380.173C535.558 379.039 536.258 378.269 537.259 378.269C538.26 378.269 538.96 379.039 538.96 380.173ZM536.195 380.173C536.195 381.006 536.615 381.538 537.259 381.538C537.903 381.538 538.323 381.006 538.323 380.173C538.323 379.333 537.903 378.801 537.259 378.801C536.615 378.801 536.195 379.333 536.195 380.173ZM540.391 379.809V382H539.761V378.339H540.391V378.836C540.587 378.535 540.937 378.269 541.448 378.269C541.938 378.269 542.281 378.514 542.463 378.892C542.666 378.591 543.058 378.269 543.632 378.269C544.388 378.269 544.843 378.808 544.843 379.585V382H544.213V379.753C544.213 379.242 544.003 378.857 543.485 378.857C543.065 378.857 542.617 379.214 542.617 379.809V382H541.987V379.753C541.987 379.242 541.777 378.857 541.259 378.857C540.839 378.857 540.391 379.214 540.391 379.809ZM547.623 382.077C547.112 382.077 546.706 381.832 546.489 381.468V383.26H545.859V378.339H546.489V378.871C546.706 378.514 547.112 378.269 547.623 378.269C548.638 378.269 549.219 379.13 549.219 380.173C549.219 381.209 548.638 382.077 547.623 382.077ZM546.475 380.047V380.306C546.475 381.146 546.993 381.524 547.511 381.524C548.197 381.524 548.582 380.957 548.582 380.173C548.582 379.382 548.197 378.822 547.511 378.822C546.993 378.822 546.475 379.193 546.475 380.047ZM550.645 376.974V382H550.015V376.974H550.645ZM553.16 382.077C552.145 382.077 551.445 381.3 551.445 380.173C551.445 379.081 552.138 378.269 553.132 378.269C554.154 378.269 554.693 379.046 554.693 380.061V380.271H552.047C552.082 381.041 552.523 381.531 553.16 381.531C553.65 381.531 554 381.265 554.112 380.831L554.665 381.027C554.441 381.678 553.888 382.077 553.16 382.077ZM553.125 378.808C552.593 378.808 552.194 379.165 552.082 379.788H554.056C554.042 379.27 553.762 378.808 553.125 378.808ZM555.575 381.125V378.878H555.008V378.339H555.575V377.268H556.198V378.339H557.031V378.878H556.198V381.027C556.198 381.412 556.387 381.482 556.709 381.482C556.856 381.482 556.961 381.475 557.108 381.44V381.979C556.947 382.014 556.765 382.035 556.555 382.035C555.932 382.035 555.575 381.825 555.575 381.125ZM557.828 377.702V376.974H558.514V377.702H557.828ZM558.486 378.339V382H557.856V378.339H558.486ZM562.688 380.173C562.688 381.307 561.988 382.077 560.987 382.077C559.986 382.077 559.286 381.307 559.286 380.173C559.286 379.039 559.986 378.269 560.987 378.269C561.988 378.269 562.688 379.039 562.688 380.173ZM559.923 380.173C559.923 381.006 560.343 381.538 560.987 381.538C561.631 381.538 562.051 381.006 562.051 380.173C562.051 379.333 561.631 378.801 560.987 378.801C560.343 378.801 559.923 379.333 559.923 380.173ZM563.489 382V378.339H564.119V378.836C564.329 378.535 564.693 378.269 565.211 378.269C565.988 378.269 566.429 378.808 566.429 379.585V382H565.799V379.753C565.799 379.242 565.582 378.857 565.036 378.857C564.581 378.857 564.119 379.207 564.119 379.816V382H563.489Z" fill="#414141"/>
<rect x="401" y="376" width="108" height="6" rx="3" fill="#08CC85"/>
<rect x="392.178" y="308.367" width="8.48102" height="8.48102" rx="4.24051" fill="#08CC85"/>
<path d="M410.196 314.137V319.697H407.636V305.337H413.376C416.576 305.337 418.576 306.837 418.576 309.737C418.576 311.997 417.336 313.437 415.236 313.937L418.936 319.697H416.016L412.516 314.137H410.196ZM410.196 311.937H413.236C415.076 311.937 416.056 311.137 416.056 309.737C416.056 308.317 415.076 307.537 413.236 307.537H410.196V311.937ZM424.847 319.917C421.847 319.917 419.747 317.697 419.747 314.457C419.747 311.377 421.827 308.997 424.747 308.997C427.787 308.997 429.407 311.297 429.407 314.177V314.977H422.047C422.227 316.777 423.307 317.877 424.847 317.877C426.027 317.877 426.967 317.277 427.287 316.197L429.347 316.977C428.607 318.817 426.947 319.917 424.847 319.917ZM424.727 311.017C423.487 311.017 422.527 311.757 422.167 313.177H426.987C426.967 312.017 426.247 311.017 424.727 311.017ZM435.168 319.917C432.228 319.917 430.548 317.437 430.548 314.457C430.548 311.477 432.228 308.997 435.168 308.997C436.528 308.997 437.528 309.537 438.188 310.317V309.197H440.588V323.297H438.188V318.597C437.528 319.377 436.528 319.917 435.168 319.917ZM438.248 314.157C438.248 312.177 437.128 311.097 435.648 311.097C433.908 311.097 432.968 312.457 432.968 314.457C432.968 316.457 433.908 317.817 435.648 317.817C437.128 317.817 438.248 316.717 438.248 314.777V314.157ZM451.842 309.197V319.697H449.442V318.577C448.842 319.277 447.942 319.917 446.582 319.917C444.382 319.917 443.022 318.417 443.022 316.157V309.197H445.422V315.637C445.422 316.917 445.982 317.737 447.282 317.737C448.362 317.737 449.442 316.937 449.442 315.437V309.197H451.842ZM454.332 307.797V305.337H456.812V307.797H454.332ZM456.772 309.197V319.697H454.372V309.197H456.772ZM465.254 309.177V311.577C464.954 311.537 464.714 311.517 464.374 311.517C462.854 311.517 461.694 312.497 461.694 314.177V319.697H459.294V309.197H461.694V310.757C462.154 309.777 463.234 309.137 464.574 309.137C464.854 309.137 465.074 309.157 465.254 309.177ZM470.843 319.917C467.843 319.917 465.743 317.697 465.743 314.457C465.743 311.377 467.823 308.997 470.743 308.997C473.783 308.997 475.403 311.297 475.403 314.177V314.977H468.043C468.223 316.777 469.303 317.877 470.843 317.877C472.023 317.877 472.963 317.277 473.283 316.197L475.343 316.977C474.603 318.817 472.943 319.917 470.843 319.917ZM470.723 311.017C469.483 311.017 468.523 311.757 468.163 313.177H472.983C472.963 312.017 472.243 311.017 470.723 311.017ZM479.604 313.537V319.697H477.204V309.197H479.604V310.317C480.184 309.617 481.084 308.997 482.484 308.997C483.744 308.997 484.684 309.557 485.264 310.457C485.904 309.777 486.904 308.997 488.524 308.997C490.684 308.997 492.084 310.517 492.084 312.777V319.697H489.684V313.477C489.684 312.177 489.204 311.237 487.924 311.237C486.904 311.237 485.844 312.037 485.844 313.537V319.697H483.444V313.477C483.444 312.177 482.964 311.237 481.684 311.237C480.664 311.237 479.604 312.037 479.604 313.537ZM498.968 319.917C495.968 319.917 493.868 317.697 493.868 314.457C493.868 311.377 495.948 308.997 498.868 308.997C501.908 308.997 503.528 311.297 503.528 314.177V314.977H496.168C496.348 316.777 497.428 317.877 498.968 317.877C500.148 317.877 501.088 317.277 501.408 316.197L503.468 316.977C502.728 318.817 501.068 319.917 498.968 319.917ZM498.848 311.017C497.608 311.017 496.648 311.757 496.288 313.177H501.108C501.088 312.017 500.368 311.017 498.848 311.017ZM505.329 319.697V309.197H507.729V310.317C508.329 309.617 509.269 308.997 510.629 308.997C512.829 308.997 514.149 310.517 514.149 312.777V319.697H511.749V313.477C511.749 312.177 511.229 311.237 509.909 311.237C508.829 311.237 507.729 312.037 507.729 313.537V319.697H505.329ZM516.818 317.057V311.237H515.358V309.197H516.818V306.117H519.178V309.197H521.378V311.237H519.178V316.677C519.178 317.617 519.718 317.717 520.578 317.717C520.978 317.717 521.198 317.697 521.558 317.657V319.677C521.118 319.757 520.518 319.817 519.898 319.817C517.898 319.817 516.818 319.197 516.818 317.057ZM522.256 317.697L524.056 316.257C524.676 317.277 525.876 317.957 527.096 317.957C528.116 317.957 529.056 317.597 529.056 316.657C529.056 315.757 528.176 315.657 526.516 315.317C524.856 314.977 522.956 314.557 522.956 312.317C522.956 310.397 524.636 308.997 527.056 308.997C528.896 308.997 530.536 309.817 531.296 310.977L529.676 312.437C529.076 311.497 528.076 310.957 526.916 310.957C525.936 310.957 525.296 311.397 525.296 312.097C525.296 312.857 526.056 312.997 527.376 313.277C529.156 313.657 531.396 314.037 531.396 316.437C531.396 318.557 529.456 319.917 527.076 319.917C525.136 319.917 523.196 319.137 522.256 317.697ZM536.84 317.617L540.44 314.657C542.4 313.057 544.16 311.637 544.16 309.837C544.16 308.357 543.24 307.297 541.72 307.297C540.22 307.297 539.24 308.477 539.24 309.897C539.24 310.357 539.32 310.817 539.48 311.257H537.1C536.9 310.677 536.84 310.297 536.84 309.757C536.84 307.057 539.06 305.117 541.78 305.117C544.78 305.117 546.7 306.977 546.7 309.677C546.7 312.217 544.78 313.957 542.76 315.557L540.36 317.457H546.88V319.697H536.84V317.617Z" fill="#414141"/>
<path d="M396.961 410H395.982V407.943H392.165V407.118L395.63 402.102H396.972V407.063H398.501V407.943H396.961V410ZM393.243 407.063H395.971V403.114L393.243 407.063ZM400.41 406.326L399.442 406.161L399.783 402.102H404.084V403.026H400.597L400.388 405.413C400.729 405.072 401.268 404.797 401.961 404.797C403.501 404.797 404.513 405.941 404.513 407.437C404.513 408.933 403.336 410.121 401.752 410.121C400.267 410.121 399.189 409.285 398.914 407.789L399.926 407.58C400.091 408.592 400.773 409.241 401.752 409.241C402.753 409.241 403.523 408.471 403.523 407.459C403.523 406.458 402.841 405.655 401.84 405.655C401.18 405.655 400.674 405.952 400.41 406.326ZM408.871 402.147L405.949 410H404.998L407.925 402.147H408.871ZM413.944 410H412.965V407.943H409.148V407.118L412.613 402.102H413.955V407.063H415.484V407.943H413.944V410ZM410.226 407.063H412.954V403.114L410.226 407.063ZM417.394 406.326L416.426 406.161L416.767 402.102H421.068V403.026H417.581L417.372 405.413C417.713 405.072 418.252 404.797 418.945 404.797C420.485 404.797 421.497 405.941 421.497 407.437C421.497 408.933 420.32 410.121 418.736 410.121C417.251 410.121 416.173 409.285 415.898 407.789L416.91 407.58C417.075 408.592 417.757 409.241 418.736 409.241C419.737 409.241 420.507 408.471 420.507 407.459C420.507 406.458 419.825 405.655 418.824 405.655C418.164 405.655 417.658 405.952 417.394 406.326ZM424.601 406.051C424.601 403.642 426.119 401.981 428.187 401.981C430.255 401.981 431.762 403.642 431.762 406.051C431.762 407.591 431.146 408.834 430.156 409.516C430.475 409.978 431.08 410.341 431.696 410.495L431.08 411.254C430.376 411.056 429.639 410.517 429.32 409.945C428.968 410.055 428.583 410.121 428.187 410.121C426.119 410.121 424.601 408.46 424.601 406.051ZM430.717 406.051C430.717 404.181 429.672 402.916 428.187 402.916C426.702 402.916 425.657 404.181 425.657 406.051C425.657 407.921 426.702 409.186 428.187 409.186C429.672 409.186 430.717 407.921 430.717 406.051ZM437.566 404.247V410H436.576V409.208C436.246 409.692 435.685 410.121 434.871 410.121C433.639 410.121 432.946 409.274 432.946 408.053V404.247H433.936V407.844C433.936 408.658 434.288 409.208 435.135 409.208C435.85 409.208 436.576 408.669 436.576 407.712V404.247H437.566ZM441.509 410.121C439.914 410.121 438.814 408.9 438.814 407.129C438.814 405.413 439.903 404.137 441.465 404.137C443.071 404.137 443.918 405.358 443.918 406.953V407.283H439.76C439.815 408.493 440.508 409.263 441.509 409.263C442.279 409.263 442.829 408.845 443.005 408.163L443.874 408.471C443.522 409.494 442.653 410.121 441.509 410.121ZM441.454 404.984C440.618 404.984 439.991 405.545 439.815 406.524H442.917C442.895 405.71 442.455 404.984 441.454 404.984ZM444.512 408.779L445.282 408.218C445.59 408.889 446.294 409.296 447.042 409.296C447.713 409.296 448.307 409.01 448.307 408.383C448.307 407.756 447.757 407.668 446.811 407.47C445.865 407.261 444.875 407.052 444.875 405.875C444.875 404.852 445.766 404.137 446.987 404.137C448.021 404.137 448.868 404.643 449.209 405.325L448.505 405.886C448.208 405.314 447.669 404.951 446.943 404.951C446.283 404.951 445.843 405.281 445.843 405.798C445.843 406.337 446.349 406.436 447.152 406.612C448.142 406.843 449.275 407.041 449.275 408.295C449.275 409.395 448.274 410.121 447.042 410.121C445.997 410.121 444.952 409.67 444.512 408.779ZM450.654 408.625V405.094H449.763V404.247H450.654V402.564H451.633V404.247H452.942V405.094H451.633V408.471C451.633 409.076 451.93 409.186 452.436 409.186C452.667 409.186 452.832 409.175 453.063 409.12V409.967C452.81 410.022 452.524 410.055 452.194 410.055C451.215 410.055 450.654 409.725 450.654 408.625ZM454.194 403.246V402.102H455.272V403.246H454.194ZM455.228 404.247V410H454.238V404.247H455.228ZM461.831 407.129C461.831 408.911 460.731 410.121 459.158 410.121C457.585 410.121 456.485 408.911 456.485 407.129C456.485 405.347 457.585 404.137 459.158 404.137C460.731 404.137 461.831 405.347 461.831 407.129ZM457.486 407.129C457.486 408.438 458.146 409.274 459.158 409.274C460.17 409.274 460.83 408.438 460.83 407.129C460.83 405.809 460.17 404.973 459.158 404.973C458.146 404.973 457.486 405.809 457.486 407.129ZM463.09 410V404.247H464.08V405.028C464.41 404.555 464.982 404.137 465.796 404.137C467.017 404.137 467.71 404.984 467.71 406.205V410H466.72V406.469C466.72 405.666 466.379 405.061 465.521 405.061C464.806 405.061 464.08 405.611 464.08 406.568V410H463.09ZM468.661 408.779L469.431 408.218C469.739 408.889 470.443 409.296 471.191 409.296C471.862 409.296 472.456 409.01 472.456 408.383C472.456 407.756 471.906 407.668 470.96 407.47C470.014 407.261 469.024 407.052 469.024 405.875C469.024 404.852 469.915 404.137 471.136 404.137C472.17 404.137 473.017 404.643 473.358 405.325L472.654 405.886C472.357 405.314 471.818 404.951 471.092 404.951C470.432 404.951 469.992 405.281 469.992 405.798C469.992 406.337 470.498 406.436 471.301 406.612C472.291 406.843 473.424 407.041 473.424 408.295C473.424 409.395 472.423 410.121 471.191 410.121C470.146 410.121 469.101 409.67 468.661 408.779ZM479.367 402.102H480.533L483.58 410H482.513L481.71 407.921H478.168L477.376 410H476.32L479.367 402.102ZM479.928 403.29L478.52 406.997H481.358L479.928 403.29ZM484.52 410V404.247H485.51V405.028C485.84 404.555 486.412 404.137 487.226 404.137C488.447 404.137 489.14 404.984 489.14 406.205V410H488.15V406.469C488.15 405.666 487.809 405.061 486.951 405.061C486.236 405.061 485.51 405.611 485.51 406.568V410H484.52ZM490.091 408.779L490.861 408.218C491.169 408.889 491.873 409.296 492.621 409.296C493.292 409.296 493.886 409.01 493.886 408.383C493.886 407.756 493.336 407.668 492.39 407.47C491.444 407.261 490.454 407.052 490.454 405.875C490.454 404.852 491.345 404.137 492.566 404.137C493.6 404.137 494.447 404.643 494.788 405.325L494.084 405.886C493.787 405.314 493.248 404.951 492.522 404.951C491.862 404.951 491.422 405.281 491.422 405.798C491.422 406.337 491.928 406.436 492.731 406.612C493.721 406.843 494.854 407.041 494.854 408.295C494.854 409.395 493.853 410.121 492.621 410.121C491.576 410.121 490.531 409.67 490.091 408.779ZM498.732 404.247H499.568L500.756 408.537L501.955 404.247H502.945L501.196 410H500.327L499.128 405.732L497.929 410H497.06L495.311 404.247H496.334L497.544 408.526L498.732 404.247ZM506.102 410.121C504.507 410.121 503.407 408.9 503.407 407.129C503.407 405.413 504.496 404.137 506.058 404.137C507.664 404.137 508.511 405.358 508.511 406.953V407.283H504.353C504.408 408.493 505.101 409.263 506.102 409.263C506.872 409.263 507.422 408.845 507.598 408.163L508.467 408.471C508.115 409.494 507.246 410.121 506.102 410.121ZM506.047 404.984C505.211 404.984 504.584 405.545 504.408 406.524H507.51C507.488 405.71 507.048 404.984 506.047 404.984ZM512.724 404.225V405.226C512.559 405.193 512.427 405.182 512.24 405.182C511.404 405.182 510.733 405.842 510.733 406.854V410H509.743V404.247H510.733V405.226C510.986 404.643 511.547 404.203 512.328 404.203C512.482 404.203 512.625 404.214 512.724 404.225ZM515.877 410.121C514.282 410.121 513.182 408.9 513.182 407.129C513.182 405.413 514.271 404.137 515.833 404.137C517.439 404.137 518.286 405.358 518.286 406.953V407.283H514.128C514.183 408.493 514.876 409.263 515.877 409.263C516.647 409.263 517.197 408.845 517.373 408.163L518.242 408.471C517.89 409.494 517.021 410.121 515.877 410.121ZM515.822 404.984C514.986 404.984 514.359 405.545 514.183 406.524H517.285C517.263 405.71 516.823 404.984 515.822 404.984ZM521.63 410.121C520.035 410.121 519.122 408.757 519.122 407.129C519.122 405.49 520.035 404.137 521.63 404.137C522.433 404.137 523.071 404.522 523.412 405.083V402.102H524.402V410H523.412V409.164C523.071 409.736 522.433 410.121 521.63 410.121ZM523.434 406.931C523.434 405.589 522.62 405.006 521.806 405.006C520.728 405.006 520.123 405.886 520.123 407.129C520.123 408.361 520.728 409.252 521.806 409.252C522.62 409.252 523.434 408.658 523.434 407.338V406.931Z" fill="#B0B0B0"/>
<path d="M393.641 286.877C393.641 288.747 394.675 290.012 396.138 290.012C397.161 290.012 397.898 289.418 398.184 288.417L399.185 288.747C398.723 290.111 397.645 290.947 396.138 290.947C394.092 290.947 392.585 289.286 392.585 286.877C392.585 284.468 394.092 282.807 396.138 282.807C397.645 282.807 398.723 283.643 399.185 285.007L398.184 285.337C397.898 284.336 397.161 283.742 396.138 283.742C394.675 283.742 393.641 285.007 393.641 286.877ZM401.244 282.928V290.826H400.254V282.928H401.244ZM404.338 290.925C403.293 290.925 402.446 290.309 402.446 289.275C402.446 288.131 403.337 287.658 404.624 287.394L406.021 287.108V286.866C406.021 286.206 405.658 285.832 404.888 285.832C404.162 285.832 403.733 286.173 403.557 286.811L402.622 286.569C402.897 285.634 403.744 284.963 404.921 284.963C406.208 284.963 407 285.59 407 286.822V289.627C407 290.001 407.231 290.122 407.616 290.034V290.826C406.736 290.936 406.23 290.727 406.109 290.177C405.757 290.628 405.119 290.925 404.338 290.925ZM406.021 288.868V287.878L404.899 288.12C404.019 288.296 403.425 288.538 403.425 289.231C403.425 289.792 403.832 290.122 404.459 290.122C405.306 290.122 406.021 289.605 406.021 288.868ZM413.252 285.073V290.826H412.262V290.034C411.932 290.518 411.371 290.947 410.557 290.947C409.325 290.947 408.632 290.1 408.632 288.879V285.073H409.622V288.67C409.622 289.484 409.974 290.034 410.821 290.034C411.536 290.034 412.262 289.495 412.262 288.538V285.073H413.252ZM414.258 289.605L415.028 289.044C415.336 289.715 416.04 290.122 416.788 290.122C417.459 290.122 418.053 289.836 418.053 289.209C418.053 288.582 417.503 288.494 416.557 288.296C415.611 288.087 414.621 287.878 414.621 286.701C414.621 285.678 415.512 284.963 416.733 284.963C417.767 284.963 418.614 285.469 418.955 286.151L418.251 286.712C417.954 286.14 417.415 285.777 416.689 285.777C416.029 285.777 415.589 286.107 415.589 286.624C415.589 287.163 416.095 287.262 416.898 287.438C417.888 287.669 419.021 287.867 419.021 289.121C419.021 290.221 418.02 290.947 416.788 290.947C415.743 290.947 414.698 290.496 414.258 289.605ZM422.544 290.947C420.949 290.947 419.849 289.726 419.849 287.955C419.849 286.239 420.938 284.963 422.5 284.963C424.106 284.963 424.953 286.184 424.953 287.779V288.109H420.795C420.85 289.319 421.543 290.089 422.544 290.089C423.314 290.089 423.864 289.671 424.04 288.989L424.909 289.297C424.557 290.32 423.688 290.947 422.544 290.947ZM422.489 285.81C421.653 285.81 421.026 286.371 420.85 287.35H423.952C423.93 286.536 423.49 285.81 422.489 285.81ZM429.474 287.152L428.506 286.987L428.847 282.928H433.148V283.852H429.661L429.452 286.239C429.793 285.898 430.332 285.623 431.025 285.623C432.565 285.623 433.577 286.767 433.577 288.263C433.577 289.759 432.4 290.947 430.816 290.947C429.331 290.947 428.253 290.111 427.978 288.615L428.99 288.406C429.155 289.418 429.837 290.067 430.816 290.067C431.817 290.067 432.587 289.297 432.587 288.285C432.587 287.284 431.905 286.481 430.904 286.481C430.244 286.481 429.738 286.778 429.474 287.152Z" fill="#414141"/>
<g filter="url(#filter2_d_728_2987)">
<rect x="75" y="194" width="208.808" height="173.578" rx="16" fill="white" fill-opacity="0.84" shape-rendering="crispEdges"/>
</g>
<rect x="106.178" y="303.053" width="179.726" height="22.5331" rx="4" fill="#BFFFD9" fill-opacity="0.38"/>
<path d="M229.279 316.896C228.32 316.896 227.557 316.371 227.396 315.37L228.047 315.23C228.145 315.93 228.642 316.336 229.272 316.336C229.909 316.336 230.35 315.972 230.35 315.377C230.35 314.782 229.867 314.488 229.23 314.488H228.691V313.921H229.237C229.818 313.921 230.21 313.627 230.21 313.123C230.21 312.605 229.853 312.283 229.279 312.283C228.677 312.283 228.257 312.682 228.145 313.312L227.543 313.193C227.676 312.353 228.327 311.716 229.293 311.716C230.273 311.716 230.84 312.29 230.84 313.088C230.84 313.634 230.49 314.054 230.063 314.194C230.567 314.334 231.001 314.719 231.001 315.412C231.001 316.238 230.322 316.896 229.279 316.896ZM231.459 314.306C231.459 312.773 232.18 311.716 233.377 311.716C234.567 311.716 235.288 312.773 235.288 314.306C235.288 315.839 234.567 316.896 233.377 316.896C232.18 316.896 231.459 315.839 231.459 314.306ZM232.131 314.306C232.131 315.482 232.558 316.308 233.377 316.308C234.189 316.308 234.623 315.482 234.623 314.306C234.623 313.13 234.189 312.304 233.377 312.304C232.558 312.304 232.131 313.13 232.131 314.306ZM236.409 313.312C236.409 313.688 236.449 313.972 236.529 314.163C236.611 314.353 236.741 314.447 236.918 314.447C237.278 314.447 237.458 314.069 237.458 313.312C237.458 312.56 237.278 312.184 236.918 312.184C236.741 312.184 236.611 312.279 236.529 312.468C236.449 312.655 236.409 312.936 236.409 313.312ZM237.971 313.312C237.971 313.832 237.881 314.225 237.701 314.492C237.523 314.756 237.263 314.888 236.918 314.888C236.595 314.888 236.343 314.753 236.163 314.481C235.985 314.208 235.896 313.818 235.896 313.312C235.896 312.791 235.983 312.4 236.156 312.14C236.332 311.88 236.586 311.75 236.918 311.75C237.253 311.75 237.512 311.886 237.694 312.157C237.879 312.426 237.971 312.811 237.971 313.312ZM239.468 315.315C239.468 315.696 239.508 315.98 239.588 316.166C239.67 316.353 239.8 316.447 239.978 316.447C240.162 316.447 240.298 316.354 240.384 316.17C240.473 315.983 240.518 315.698 240.518 315.315C240.518 314.568 240.338 314.194 239.978 314.194C239.8 314.194 239.67 314.288 239.588 314.475C239.508 314.659 239.468 314.939 239.468 315.315ZM241.03 315.315C241.03 315.833 240.94 316.225 240.76 316.491C240.58 316.755 240.319 316.888 239.978 316.888C239.654 316.888 239.402 316.752 239.222 316.481C239.044 316.207 238.956 315.819 238.956 315.315C238.956 314.794 239.042 314.403 239.215 314.143C239.389 313.883 239.643 313.753 239.978 313.753C240.312 313.753 240.571 313.889 240.753 314.16C240.938 314.429 241.03 314.814 241.03 315.315ZM240.118 311.822L237.346 316.819H236.809L239.581 311.822H240.118ZM243.752 314.992C243.752 315.825 244.2 316.343 244.851 316.343C245.355 316.343 245.656 316.021 245.761 315.566L246.321 315.825C246.146 316.434 245.614 316.896 244.851 316.896C243.829 316.896 243.122 316.119 243.122 314.992C243.122 313.858 243.829 313.088 244.851 313.088C245.614 313.088 246.132 313.529 246.307 314.138L245.761 314.411C245.656 313.963 245.355 313.634 244.851 313.634C244.2 313.634 243.752 314.152 243.752 314.992ZM250.16 314.992C250.16 316.126 249.46 316.896 248.459 316.896C247.458 316.896 246.758 316.126 246.758 314.992C246.758 313.858 247.458 313.088 248.459 313.088C249.46 313.088 250.16 313.858 250.16 314.992ZM247.395 314.992C247.395 315.825 247.815 316.357 248.459 316.357C249.103 316.357 249.523 315.825 249.523 314.992C249.523 314.152 249.103 313.62 248.459 313.62C247.815 313.62 247.395 314.152 247.395 314.992ZM251.592 314.628V316.819H250.962V313.158H251.592V313.655C251.788 313.354 252.138 313.088 252.649 313.088C253.139 313.088 253.482 313.333 253.664 313.711C253.867 313.41 254.259 313.088 254.833 313.088C255.589 313.088 256.044 313.627 256.044 314.404V316.819H255.414V314.572C255.414 314.061 255.204 313.676 254.686 313.676C254.266 313.676 253.818 314.033 253.818 314.628V316.819H253.188V314.572C253.188 314.061 252.978 313.676 252.46 313.676C252.04 313.676 251.592 314.033 251.592 314.628ZM258.823 316.896C258.312 316.896 257.906 316.651 257.689 316.287V318.079H257.059V313.158H257.689V313.69C257.906 313.333 258.312 313.088 258.823 313.088C259.838 313.088 260.419 313.949 260.419 314.992C260.419 316.028 259.838 316.896 258.823 316.896ZM257.675 314.866V315.125C257.675 315.965 258.193 316.343 258.711 316.343C259.397 316.343 259.782 315.776 259.782 314.992C259.782 314.201 259.397 313.641 258.711 313.641C258.193 313.641 257.675 314.012 257.675 314.866ZM261.845 311.793V316.819H261.215V311.793H261.845ZM264.36 316.896C263.345 316.896 262.645 316.119 262.645 314.992C262.645 313.9 263.338 313.088 264.332 313.088C265.354 313.088 265.893 313.865 265.893 314.88V315.09H263.247C263.282 315.86 263.723 316.35 264.36 316.35C264.85 316.35 265.2 316.084 265.312 315.65L265.865 315.846C265.641 316.497 265.088 316.896 264.36 316.896ZM264.325 313.627C263.793 313.627 263.394 313.984 263.282 314.607H265.256C265.242 314.089 264.962 313.627 264.325 313.627ZM266.775 315.944V313.697H266.208V313.158H266.775V312.087H267.398V313.158H268.231V313.697H267.398V315.846C267.398 316.231 267.587 316.301 267.909 316.301C268.056 316.301 268.161 316.294 268.308 316.259V316.798C268.147 316.833 267.965 316.854 267.755 316.854C267.132 316.854 266.775 316.644 266.775 315.944ZM269.028 312.521V311.793H269.714V312.521H269.028ZM269.686 313.158V316.819H269.056V313.158H269.686ZM273.888 314.992C273.888 316.126 273.188 316.896 272.187 316.896C271.186 316.896 270.486 316.126 270.486 314.992C270.486 313.858 271.186 313.088 272.187 313.088C273.188 313.088 273.888 313.858 273.888 314.992ZM271.123 314.992C271.123 315.825 271.543 316.357 272.187 316.357C272.831 316.357 273.251 315.825 273.251 314.992C273.251 314.152 272.831 313.62 272.187 313.62C271.543 313.62 271.123 314.152 271.123 314.992ZM274.689 316.819V313.158H275.319V313.655C275.529 313.354 275.893 313.088 276.411 313.088C277.188 313.088 277.629 313.627 277.629 314.404V316.819H276.999V314.572C276.999 314.061 276.782 313.676 276.236 313.676C275.781 313.676 275.319 314.026 275.319 314.635V316.819H274.689Z" fill="#414141"/>
<rect x="114.831" y="311.464" width="54.6245" height="5.70972" rx="2.85486" fill="#08CC85"/>
<rect x="106.178" y="243.367" width="8.48102" height="8.48102" rx="4.24051" fill="#08CC85"/>
<path d="M124.196 249.137V254.697H121.636V240.337H127.376C130.576 240.337 132.576 241.837 132.576 244.737C132.576 246.997 131.336 248.437 129.236 248.937L132.936 254.697H130.016L126.516 249.137H124.196ZM124.196 246.937H127.236C129.076 246.937 130.056 246.137 130.056 244.737C130.056 243.317 129.076 242.537 127.236 242.537H124.196V246.937ZM138.847 254.917C135.847 254.917 133.747 252.697 133.747 249.457C133.747 246.377 135.827 243.997 138.747 243.997C141.787 243.997 143.407 246.297 143.407 249.177V249.977H136.047C136.227 251.777 137.307 252.877 138.847 252.877C140.027 252.877 140.967 252.277 141.287 251.197L143.347 251.977C142.607 253.817 140.947 254.917 138.847 254.917ZM138.727 246.017C137.487 246.017 136.527 246.757 136.167 248.177H140.987C140.967 247.017 140.247 246.017 138.727 246.017ZM149.168 254.917C146.228 254.917 144.548 252.437 144.548 249.457C144.548 246.477 146.228 243.997 149.168 243.997C150.528 243.997 151.528 244.537 152.188 245.317V244.197H154.588V258.297H152.188V253.597C151.528 254.377 150.528 254.917 149.168 254.917ZM152.248 249.157C152.248 247.177 151.128 246.097 149.648 246.097C147.908 246.097 146.968 247.457 146.968 249.457C146.968 251.457 147.908 252.817 149.648 252.817C151.128 252.817 152.248 251.717 152.248 249.777V249.157ZM165.842 244.197V254.697H163.442V253.577C162.842 254.277 161.942 254.917 160.582 254.917C158.382 254.917 157.022 253.417 157.022 251.157V244.197H159.422V250.637C159.422 251.917 159.982 252.737 161.282 252.737C162.362 252.737 163.442 251.937 163.442 250.437V244.197H165.842ZM168.332 242.797V240.337H170.812V242.797H168.332ZM170.772 244.197V254.697H168.372V244.197H170.772ZM179.254 244.177V246.577C178.954 246.537 178.714 246.517 178.374 246.517C176.854 246.517 175.694 247.497 175.694 249.177V254.697H173.294V244.197H175.694V245.757C176.154 244.777 177.234 244.137 178.574 244.137C178.854 244.137 179.074 244.157 179.254 244.177ZM184.843 254.917C181.843 254.917 179.743 252.697 179.743 249.457C179.743 246.377 181.823 243.997 184.743 243.997C187.783 243.997 189.403 246.297 189.403 249.177V249.977H182.043C182.223 251.777 183.303 252.877 184.843 252.877C186.023 252.877 186.963 252.277 187.283 251.197L189.343 251.977C188.603 253.817 186.943 254.917 184.843 254.917ZM184.723 246.017C183.483 246.017 182.523 246.757 182.163 248.177H186.983C186.963 247.017 186.243 246.017 184.723 246.017ZM193.604 248.537V254.697H191.204V244.197H193.604V245.317C194.184 244.617 195.084 243.997 196.484 243.997C197.744 243.997 198.684 244.557 199.264 245.457C199.904 244.777 200.904 243.997 202.524 243.997C204.684 243.997 206.084 245.517 206.084 247.777V254.697H203.684V248.477C203.684 247.177 203.204 246.237 201.924 246.237C200.904 246.237 199.844 247.037 199.844 248.537V254.697H197.444V248.477C197.444 247.177 196.964 246.237 195.684 246.237C194.664 246.237 193.604 247.037 193.604 248.537ZM212.968 254.917C209.968 254.917 207.868 252.697 207.868 249.457C207.868 246.377 209.948 243.997 212.868 243.997C215.908 243.997 217.528 246.297 217.528 249.177V249.977H210.168C210.348 251.777 211.428 252.877 212.968 252.877C214.148 252.877 215.088 252.277 215.408 251.197L217.468 251.977C216.728 253.817 215.068 254.917 212.968 254.917ZM212.848 246.017C211.608 246.017 210.648 246.757 210.288 248.177H215.108C215.088 247.017 214.368 246.017 212.848 246.017ZM219.329 254.697V244.197H221.729V245.317C222.329 244.617 223.269 243.997 224.629 243.997C226.829 243.997 228.149 245.517 228.149 247.777V254.697H225.749V248.477C225.749 247.177 225.229 246.237 223.909 246.237C222.829 246.237 221.729 247.037 221.729 248.537V254.697H219.329ZM230.818 252.057V246.237H229.358V244.197H230.818V241.117H233.178V244.197H235.378V246.237H233.178V251.677C233.178 252.617 233.718 252.717 234.578 252.717C234.978 252.717 235.198 252.697 235.558 252.657V254.677C235.118 254.757 234.518 254.817 233.898 254.817C231.898 254.817 230.818 254.197 230.818 252.057ZM236.256 252.697L238.056 251.257C238.676 252.277 239.876 252.957 241.096 252.957C242.116 252.957 243.056 252.597 243.056 251.657C243.056 250.757 242.176 250.657 240.516 250.317C238.856 249.977 236.956 249.557 236.956 247.317C236.956 245.397 238.636 243.997 241.056 243.997C242.896 243.997 244.536 244.817 245.296 245.977L243.676 247.437C243.076 246.497 242.076 245.957 240.916 245.957C239.936 245.957 239.296 246.397 239.296 247.097C239.296 247.857 240.056 247.997 241.376 248.277C243.156 248.657 245.396 249.037 245.396 251.437C245.396 253.557 243.456 254.917 241.076 254.917C239.136 254.917 237.196 254.137 236.256 252.697ZM254.58 240.237H256.52V254.697H253.96V244.737H250.5V242.837L251.9 242.717C253.7 242.557 254.44 241.937 254.58 240.237Z" fill="#414141"/>
<path d="M108.598 336.573H109.39V344.515H108.334V338.707H106.431V337.926L107.278 337.871C108.213 337.805 108.521 337.486 108.598 336.573ZM113.603 336.496C115.044 336.496 116.122 337.343 116.122 338.608C116.122 339.4 115.671 340.016 114.879 340.324C115.825 340.61 116.529 341.336 116.529 342.337C116.529 343.723 115.297 344.625 113.603 344.625C111.92 344.625 110.688 343.723 110.688 342.337C110.688 341.336 111.392 340.61 112.327 340.324C111.546 340.016 111.095 339.4 111.095 338.608C111.095 337.343 112.173 336.496 113.603 336.496ZM113.603 339.906C114.538 339.906 115.165 339.4 115.165 338.619C115.165 337.849 114.538 337.332 113.603 337.332C112.679 337.332 112.041 337.849 112.041 338.619C112.041 339.4 112.679 339.906 113.603 339.906ZM113.603 340.775C112.492 340.775 111.722 341.391 111.722 342.271C111.722 343.173 112.492 343.789 113.603 343.789C114.714 343.789 115.506 343.173 115.506 342.271C115.506 341.391 114.714 340.775 113.603 340.775ZM120.868 336.662L117.946 344.515H116.996L119.923 336.662H120.868ZM125.942 344.515H124.963V342.458H121.146V341.633L124.611 336.617H125.953V341.578H127.482V342.458H125.942V344.515ZM122.224 341.578H124.952V337.629L122.224 341.578ZM129.391 340.841L128.423 340.676L128.764 336.617H133.065V337.541H129.578L129.369 339.928C129.71 339.587 130.249 339.312 130.942 339.312C132.482 339.312 133.494 340.456 133.494 341.952C133.494 343.448 132.317 344.636 130.733 344.636C129.248 344.636 128.17 343.8 127.895 342.304L128.907 342.095C129.072 343.107 129.754 343.756 130.733 343.756C131.734 343.756 132.504 342.986 132.504 341.974C132.504 340.973 131.822 340.17 130.821 340.17C130.161 340.17 129.655 340.467 129.391 340.841ZM136.599 340.566C136.599 338.157 138.117 336.496 140.185 336.496C142.253 336.496 143.76 338.157 143.76 340.566C143.76 342.106 143.144 343.349 142.154 344.031C142.473 344.493 143.078 344.856 143.694 345.01L143.078 345.769C142.374 345.571 141.637 345.032 141.318 344.46C140.966 344.57 140.581 344.636 140.185 344.636C138.117 344.636 136.599 342.975 136.599 340.566ZM142.715 340.566C142.715 338.696 141.67 337.431 140.185 337.431C138.7 337.431 137.655 338.696 137.655 340.566C137.655 342.436 138.7 343.701 140.185 343.701C141.67 343.701 142.715 342.436 142.715 340.566ZM149.563 338.762V344.515H148.573V343.723C148.243 344.207 147.682 344.636 146.868 344.636C145.636 344.636 144.943 343.789 144.943 342.568V338.762H145.933V342.359C145.933 343.173 146.285 343.723 147.132 343.723C147.847 343.723 148.573 343.184 148.573 342.227V338.762H149.563ZM153.506 344.636C151.911 344.636 150.811 343.415 150.811 341.644C150.811 339.928 151.9 338.652 153.462 338.652C155.068 338.652 155.915 339.873 155.915 341.468V341.798H151.757C151.812 343.008 152.505 343.778 153.506 343.778C154.276 343.778 154.826 343.36 155.002 342.678L155.871 342.986C155.519 344.009 154.65 344.636 153.506 344.636ZM153.451 339.499C152.615 339.499 151.988 340.06 151.812 341.039H154.914C154.892 340.225 154.452 339.499 153.451 339.499ZM156.51 343.294L157.28 342.733C157.588 343.404 158.292 343.811 159.04 343.811C159.711 343.811 160.305 343.525 160.305 342.898C160.305 342.271 159.755 342.183 158.809 341.985C157.863 341.776 156.873 341.567 156.873 340.39C156.873 339.367 157.764 338.652 158.985 338.652C160.019 338.652 160.866 339.158 161.207 339.84L160.503 340.401C160.206 339.829 159.667 339.466 158.941 339.466C158.281 339.466 157.841 339.796 157.841 340.313C157.841 340.852 158.347 340.951 159.15 341.127C160.14 341.358 161.273 341.556 161.273 342.81C161.273 343.91 160.272 344.636 159.04 344.636C157.995 344.636 156.95 344.185 156.51 343.294ZM162.651 343.14V339.609H161.76V338.762H162.651V337.079H163.63V338.762H164.939V339.609H163.63V342.986C163.63 343.591 163.927 343.701 164.433 343.701C164.664 343.701 164.829 343.69 165.06 343.635V344.482C164.807 344.537 164.521 344.57 164.191 344.57C163.212 344.57 162.651 344.24 162.651 343.14ZM166.192 337.761V336.617H167.27V337.761H166.192ZM167.226 338.762V344.515H166.236V338.762H167.226ZM173.828 341.644C173.828 343.426 172.728 344.636 171.155 344.636C169.582 344.636 168.482 343.426 168.482 341.644C168.482 339.862 169.582 338.652 171.155 338.652C172.728 338.652 173.828 339.862 173.828 341.644ZM169.483 341.644C169.483 342.953 170.143 343.789 171.155 343.789C172.167 343.789 172.827 342.953 172.827 341.644C172.827 340.324 172.167 339.488 171.155 339.488C170.143 339.488 169.483 340.324 169.483 341.644ZM175.087 344.515V338.762H176.077V339.543C176.407 339.07 176.979 338.652 177.793 338.652C179.014 338.652 179.707 339.499 179.707 340.72V344.515H178.717V340.984C178.717 340.181 178.376 339.576 177.518 339.576C176.803 339.576 176.077 340.126 176.077 341.083V344.515H175.087ZM180.658 343.294L181.428 342.733C181.736 343.404 182.44 343.811 183.188 343.811C183.859 343.811 184.453 343.525 184.453 342.898C184.453 342.271 183.903 342.183 182.957 341.985C182.011 341.776 181.021 341.567 181.021 340.39C181.021 339.367 181.912 338.652 183.133 338.652C184.167 338.652 185.014 339.158 185.355 339.84L184.651 340.401C184.354 339.829 183.815 339.466 183.089 339.466C182.429 339.466 181.989 339.796 181.989 340.313C181.989 340.852 182.495 340.951 183.298 341.127C184.288 341.358 185.421 341.556 185.421 342.81C185.421 343.91 184.42 344.636 183.188 344.636C182.143 344.636 181.098 344.185 180.658 343.294ZM191.364 336.617H192.53L195.577 344.515H194.51L193.707 342.436H190.165L189.373 344.515H188.317L191.364 336.617ZM191.925 337.805L190.517 341.512H193.355L191.925 337.805ZM196.518 344.515V338.762H197.508V339.543C197.838 339.07 198.41 338.652 199.224 338.652C200.445 338.652 201.138 339.499 201.138 340.72V344.515H200.148V340.984C200.148 340.181 199.807 339.576 198.949 339.576C198.234 339.576 197.508 340.126 197.508 341.083V344.515H196.518ZM202.089 343.294L202.859 342.733C203.167 343.404 203.871 343.811 204.619 343.811C205.29 343.811 205.884 343.525 205.884 342.898C205.884 342.271 205.334 342.183 204.388 341.985C203.442 341.776 202.452 341.567 202.452 340.39C202.452 339.367 203.343 338.652 204.564 338.652C205.598 338.652 206.445 339.158 206.786 339.84L206.082 340.401C205.785 339.829 205.246 339.466 204.52 339.466C203.86 339.466 203.42 339.796 203.42 340.313C203.42 340.852 203.926 340.951 204.729 341.127C205.719 341.358 206.852 341.556 206.852 342.81C206.852 343.91 205.851 344.636 204.619 344.636C203.574 344.636 202.529 344.185 202.089 343.294ZM210.73 338.762H211.566L212.754 343.052L213.953 338.762H214.943L213.194 344.515H212.325L211.126 340.247L209.927 344.515H209.058L207.309 338.762H208.332L209.542 343.041L210.73 338.762ZM218.099 344.636C216.504 344.636 215.404 343.415 215.404 341.644C215.404 339.928 216.493 338.652 218.055 338.652C219.661 338.652 220.508 339.873 220.508 341.468V341.798H216.35C216.405 343.008 217.098 343.778 218.099 343.778C218.869 343.778 219.419 343.36 219.595 342.678L220.464 342.986C220.112 344.009 219.243 344.636 218.099 344.636ZM218.044 339.499C217.208 339.499 216.581 340.06 216.405 341.039H219.507C219.485 340.225 219.045 339.499 218.044 339.499ZM224.722 338.74V339.741C224.557 339.708 224.425 339.697 224.238 339.697C223.402 339.697 222.731 340.357 222.731 341.369V344.515H221.741V338.762H222.731V339.741C222.984 339.158 223.545 338.718 224.326 338.718C224.48 338.718 224.623 338.729 224.722 338.74ZM227.874 344.636C226.279 344.636 225.179 343.415 225.179 341.644C225.179 339.928 226.268 338.652 227.83 338.652C229.436 338.652 230.283 339.873 230.283 341.468V341.798H226.125C226.18 343.008 226.873 343.778 227.874 343.778C228.644 343.778 229.194 343.36 229.37 342.678L230.239 342.986C229.887 344.009 229.018 344.636 227.874 344.636ZM227.819 339.499C226.983 339.499 226.356 340.06 226.18 341.039H229.282C229.26 340.225 228.82 339.499 227.819 339.499ZM233.628 344.636C232.033 344.636 231.12 343.272 231.12 341.644C231.12 340.005 232.033 338.652 233.628 338.652C234.431 338.652 235.069 339.037 235.41 339.598V336.617H236.4V344.515H235.41V343.679C235.069 344.251 234.431 344.636 233.628 344.636ZM235.432 341.446C235.432 340.104 234.618 339.521 233.804 339.521C232.726 339.521 232.121 340.401 232.121 341.644C232.121 342.876 232.726 343.767 233.804 343.767C234.618 343.767 235.432 343.173 235.432 341.853V341.446Z" fill="#B0B0B0"/>
<path d="M107.641 221.877C107.641 223.747 108.675 225.012 110.138 225.012C111.161 225.012 111.898 224.418 112.184 223.417L113.185 223.747C112.723 225.111 111.645 225.947 110.138 225.947C108.092 225.947 106.585 224.286 106.585 221.877C106.585 219.468 108.092 217.807 110.138 217.807C111.645 217.807 112.723 218.643 113.185 220.007L112.184 220.337C111.898 219.336 111.161 218.742 110.138 218.742C108.675 218.742 107.641 220.007 107.641 221.877ZM115.244 217.928V225.826H114.254V217.928H115.244ZM118.338 225.925C117.293 225.925 116.446 225.309 116.446 224.275C116.446 223.131 117.337 222.658 118.624 222.394L120.021 222.108V221.866C120.021 221.206 119.658 220.832 118.888 220.832C118.162 220.832 117.733 221.173 117.557 221.811L116.622 221.569C116.897 220.634 117.744 219.963 118.921 219.963C120.208 219.963 121 220.59 121 221.822V224.627C121 225.001 121.231 225.122 121.616 225.034V225.826C120.736 225.936 120.23 225.727 120.109 225.177C119.757 225.628 119.119 225.925 118.338 225.925ZM120.021 223.868V222.878L118.899 223.12C118.019 223.296 117.425 223.538 117.425 224.231C117.425 224.792 117.832 225.122 118.459 225.122C119.306 225.122 120.021 224.605 120.021 223.868ZM127.252 220.073V225.826H126.262V225.034C125.932 225.518 125.371 225.947 124.557 225.947C123.325 225.947 122.632 225.1 122.632 223.879V220.073H123.622V223.67C123.622 224.484 123.974 225.034 124.821 225.034C125.536 225.034 126.262 224.495 126.262 223.538V220.073H127.252ZM128.258 224.605L129.028 224.044C129.336 224.715 130.04 225.122 130.788 225.122C131.459 225.122 132.053 224.836 132.053 224.209C132.053 223.582 131.503 223.494 130.557 223.296C129.611 223.087 128.621 222.878 128.621 221.701C128.621 220.678 129.512 219.963 130.733 219.963C131.767 219.963 132.614 220.469 132.955 221.151L132.251 221.712C131.954 221.14 131.415 220.777 130.689 220.777C130.029 220.777 129.589 221.107 129.589 221.624C129.589 222.163 130.095 222.262 130.898 222.438C131.888 222.669 133.021 222.867 133.021 224.121C133.021 225.221 132.02 225.947 130.788 225.947C129.743 225.947 128.698 225.496 128.258 224.605ZM136.544 225.947C134.949 225.947 133.849 224.726 133.849 222.955C133.849 221.239 134.938 219.963 136.5 219.963C138.106 219.963 138.953 221.184 138.953 222.779V223.109H134.795C134.85 224.319 135.543 225.089 136.544 225.089C137.314 225.089 137.864 224.671 138.04 223.989L138.909 224.297C138.557 225.32 137.688 225.947 136.544 225.947ZM136.489 220.81C135.653 220.81 135.026 221.371 134.85 222.35H137.952C137.93 221.536 137.49 220.81 136.489 220.81ZM146.642 225.826H145.663V223.769H141.846V222.944L145.311 217.928H146.653V222.889H148.182V223.769H146.642V225.826ZM142.924 222.889H145.652V218.94L142.924 222.889Z" fill="#414141"/>
<path d="M590 324.858V529.641" stroke="url(#paint0_linear_728_2987)"/>
<defs>
<filter id="filter0_d_728_2987" x="220" y="0.20372" width="358.808" height="323.578" filterUnits="userSpaceOnUse" color-interpolation-filters="sRGB">
<feFlood flood-opacity="0" result="BackgroundImageFix"/>
<feColorMatrix in="SourceAlpha" type="matrix" values="0 0 0 0 0 0 0 0 0 0 0 0 0 0 0 0 0 0 127 0" result="hardAlpha"/>
<feOffset dy="40"/>
<feGaussianBlur stdDeviation="37.5"/>
<feComposite in2="hardAlpha" operator="out"/>
<feColorMatrix type="matrix" values="0 0 0 0 1 0 0 0 0 1 0 0 0 0 1 0 0 0 1 0"/>
<feBlend mode="normal" in2="BackgroundImageFix" result="effect1_dropShadow_728_2987"/>
<feBlend mode="normal" in="SourceGraphic" in2="effect1_dropShadow_728_2987" result="shape"/>
</filter>
<filter id="filter1_d_728_2987" x="286" y="224" width="358.808" height="323.578" filterUnits="userSpaceOnUse" color-interpolation-filters="sRGB">
<feFlood flood-opacity="0" result="BackgroundImageFix"/>
<feColorMatrix in="SourceAlpha" type="matrix" values="0 0 0 0 0 0 0 0 0 0 0 0 0 0 0 0 0 0 127 0" result="hardAlpha"/>
<feOffset dy="40"/>
<feGaussianBlur stdDeviation="37.5"/>
<feComposite in2="hardAlpha" operator="out"/>
<feColorMatrix type="matrix" values="0 0 0 0 1 0 0 0 0 1 0 0 0 0 1 0 0 0 1 0"/>
<feBlend mode="normal" in2="BackgroundImageFix" result="effect1_dropShadow_728_2987"/>
<feBlend mode="normal" in="SourceGraphic" in2="effect1_dropShadow_728_2987" result="shape"/>
</filter>
<filter id="filter2_d_728_2987" x="0" y="159" width="358.808" height="323.578" filterUnits="userSpaceOnUse" color-interpolation-filters="sRGB">
<feFlood flood-opacity="0" result="BackgroundImageFix"/>
<feColorMatrix in="SourceAlpha" type="matrix" values="0 0 0 0 0 0 0 0 0 0 0 0 0 0 0 0 0 0 127 0" result="hardAlpha"/>
<feOffset dy="40"/>
<feGaussianBlur stdDeviation="37.5"/>
<feComposite in2="hardAlpha" operator="out"/>
<feColorMatrix type="matrix" values="0 0 0 0 1 0 0 0 0 1 0 0 0 0 1 0 0 0 1 0"/>
<feBlend mode="normal" in2="BackgroundImageFix" result="effect1_dropShadow_728_2987"/>
<feBlend mode="normal" in="SourceGraphic" in2="effect1_dropShadow_728_2987" result="shape"/>
</filter>
<linearGradient id="paint0_linear_728_2987" x1="590.5" y1="324.858" x2="590.5" y2="529.641" gradientUnits="userSpaceOnUse">
<stop stop-color="#FFC87F"/>
<stop offset="1" stop-color="#FFC87F" stop-opacity="0"/>
</linearGradient>
</defs>
</svg>
