<svg width="987" height="418" viewBox="0 0 987 418" fill="none" xmlns="http://www.w3.org/2000/svg">
<g filter="url(#filter0_d_736_2993)">
<rect x="75" y="125" width="208.808" height="173.578" rx="16" fill="#FFF9F2"/>
</g>
<rect x="117.84" y="249.911" width="179.726" height="22.5331" rx="4" fill="#FFEFDB"/>
<path d="M241.851 259.232H239.562V260.093H238.974V258.651H242.565V259.232C241.333 260.597 240.976 261.864 240.976 263.677H240.297C240.297 261.724 240.836 260.359 241.851 259.232ZM242.8 261.164C242.8 259.631 243.521 258.574 244.718 258.574C245.908 258.574 246.629 259.631 246.629 261.164C246.629 262.697 245.908 263.754 244.718 263.754C243.521 263.754 242.8 262.697 242.8 261.164ZM243.472 261.164C243.472 262.34 243.899 263.166 244.718 263.166C245.53 263.166 245.964 262.34 245.964 261.164C245.964 259.988 245.53 259.162 244.718 259.162C243.899 259.162 243.472 259.988 243.472 261.164ZM247.75 260.171C247.75 260.547 247.79 260.83 247.87 261.022C247.952 261.211 248.082 261.305 248.259 261.305C248.619 261.305 248.799 260.927 248.799 260.171C248.799 259.419 248.619 259.043 248.259 259.043C248.082 259.043 247.952 259.137 247.87 259.326C247.79 259.513 247.75 259.795 247.75 260.171ZM249.312 260.171C249.312 260.69 249.222 261.083 249.042 261.35C248.864 261.614 248.603 261.746 248.259 261.746C247.936 261.746 247.684 261.611 247.504 261.34C247.326 261.066 247.237 260.677 247.237 260.171C247.237 259.649 247.324 259.258 247.497 258.998C247.673 258.739 247.927 258.609 248.259 258.609C248.594 258.609 248.853 258.744 249.035 259.015C249.22 259.284 249.312 259.669 249.312 260.171ZM250.809 262.174C250.809 262.554 250.849 262.838 250.929 263.025C251.011 263.212 251.141 263.305 251.318 263.305C251.503 263.305 251.639 263.213 251.725 263.028C251.814 262.841 251.858 262.556 251.858 262.174C251.858 261.426 251.678 261.052 251.318 261.052C251.141 261.052 251.011 261.146 250.929 261.333C250.849 261.517 250.809 261.798 250.809 262.174ZM252.371 262.174C252.371 262.691 252.281 263.083 252.101 263.349C251.921 263.614 251.66 263.746 251.318 263.746C250.995 263.746 250.743 263.61 250.563 263.339C250.385 263.066 250.296 262.677 250.296 262.174C250.296 261.652 250.383 261.261 250.556 261.001C250.729 260.741 250.983 260.612 251.318 260.612C251.653 260.612 251.912 260.747 252.094 261.018C252.279 261.287 252.371 261.672 252.371 262.174ZM251.458 258.68L248.687 263.677H248.15L250.922 258.68H251.458ZM255.092 261.85C255.092 262.683 255.54 263.201 256.191 263.201C256.695 263.201 256.996 262.879 257.101 262.424L257.661 262.683C257.486 263.292 256.954 263.754 256.191 263.754C255.169 263.754 254.462 262.977 254.462 261.85C254.462 260.716 255.169 259.946 256.191 259.946C256.954 259.946 257.472 260.387 257.647 260.996L257.101 261.269C256.996 260.821 256.695 260.492 256.191 260.492C255.54 260.492 255.092 261.01 255.092 261.85ZM261.501 261.85C261.501 262.984 260.801 263.754 259.8 263.754C258.799 263.754 258.099 262.984 258.099 261.85C258.099 260.716 258.799 259.946 259.8 259.946C260.801 259.946 261.501 260.716 261.501 261.85ZM258.736 261.85C258.736 262.683 259.156 263.215 259.8 263.215C260.444 263.215 260.864 262.683 260.864 261.85C260.864 261.01 260.444 260.478 259.8 260.478C259.156 260.478 258.736 261.01 258.736 261.85ZM262.932 261.486V263.677H262.302V260.016H262.932V260.513C263.128 260.212 263.478 259.946 263.989 259.946C264.479 259.946 264.822 260.191 265.004 260.569C265.207 260.268 265.599 259.946 266.173 259.946C266.929 259.946 267.384 260.485 267.384 261.262V263.677H266.754V261.43C266.754 260.919 266.544 260.534 266.026 260.534C265.606 260.534 265.158 260.891 265.158 261.486V263.677H264.528V261.43C264.528 260.919 264.318 260.534 263.8 260.534C263.38 260.534 262.932 260.891 262.932 261.486ZM270.164 263.754C269.653 263.754 269.247 263.509 269.03 263.145V264.937H268.4V260.016H269.03V260.548C269.247 260.191 269.653 259.946 270.164 259.946C271.179 259.946 271.76 260.807 271.76 261.85C271.76 262.886 271.179 263.754 270.164 263.754ZM269.016 261.724V261.983C269.016 262.823 269.534 263.201 270.052 263.201C270.738 263.201 271.123 262.634 271.123 261.85C271.123 261.059 270.738 260.499 270.052 260.499C269.534 260.499 269.016 260.87 269.016 261.724ZM273.186 258.651V263.677H272.556V258.651H273.186ZM275.701 263.754C274.686 263.754 273.986 262.977 273.986 261.85C273.986 260.758 274.679 259.946 275.673 259.946C276.695 259.946 277.234 260.723 277.234 261.738V261.948H274.588C274.623 262.718 275.064 263.208 275.701 263.208C276.191 263.208 276.541 262.942 276.653 262.508L277.206 262.704C276.982 263.355 276.429 263.754 275.701 263.754ZM275.666 260.485C275.134 260.485 274.735 260.842 274.623 261.465H276.597C276.583 260.947 276.303 260.485 275.666 260.485ZM278.116 262.802V260.555H277.549V260.016H278.116V258.945H278.739V260.016H279.572V260.555H278.739V262.704C278.739 263.089 278.928 263.159 279.25 263.159C279.397 263.159 279.502 263.152 279.649 263.117V263.656C279.488 263.691 279.306 263.712 279.096 263.712C278.473 263.712 278.116 263.502 278.116 262.802ZM280.369 259.379V258.651H281.055V259.379H280.369ZM281.027 260.016V263.677H280.397V260.016H281.027ZM285.229 261.85C285.229 262.984 284.529 263.754 283.528 263.754C282.527 263.754 281.827 262.984 281.827 261.85C281.827 260.716 282.527 259.946 283.528 259.946C284.529 259.946 285.229 260.716 285.229 261.85ZM282.464 261.85C282.464 262.683 282.884 263.215 283.528 263.215C284.172 263.215 284.592 262.683 284.592 261.85C284.592 261.01 284.172 260.478 283.528 260.478C282.884 260.478 282.464 261.01 282.464 261.85ZM286.03 263.677V260.016H286.66V260.513C286.87 260.212 287.234 259.946 287.752 259.946C288.529 259.946 288.97 260.485 288.97 261.262V263.677H288.34V261.43C288.34 260.919 288.123 260.534 287.577 260.534C287.122 260.534 286.66 260.884 286.66 261.493V263.677H286.03Z" fill="#414141"/>
<rect x="126.492" y="258.323" width="106.129" height="5.70972" rx="2.85486" fill="#FFC87F"/>
<rect x="117.84" y="174.467" width="8.48102" height="8.48102" rx="4.24051" fill="#FFC87F"/>
<path d="M135.858 180.236V185.796H133.298V171.436H139.038C142.238 171.436 144.238 172.936 144.238 175.836C144.238 178.696 142.238 180.236 139.038 180.236H135.858ZM135.858 178.036H138.898C140.738 178.036 141.718 177.236 141.718 175.836C141.718 174.416 140.738 173.636 138.898 173.636H135.858V178.036ZM147.852 178.616C147.852 181.716 149.532 183.756 151.892 183.756C153.572 183.756 154.792 182.736 155.232 181.056L157.632 181.876C156.792 184.416 154.792 186.016 151.892 186.016C148.072 186.016 145.292 182.976 145.292 178.616C145.292 174.256 148.072 171.216 151.892 171.216C154.792 171.216 156.792 172.816 157.632 175.356L155.232 176.176C154.792 174.496 153.572 173.476 151.892 173.476C149.532 173.476 147.852 175.516 147.852 178.616ZM161.932 171.436V185.796H159.372V171.436H161.932ZM164.645 185.796V171.436H169.445C173.905 171.436 176.665 174.236 176.665 178.616C176.665 182.996 173.905 185.796 169.445 185.796H164.645ZM167.145 183.596H169.445C172.405 183.596 174.145 181.636 174.145 178.616C174.145 175.576 172.405 173.636 169.425 173.636H167.145V183.596ZM177.209 182.996L179.169 181.376C180.169 182.936 181.669 183.836 183.309 183.836C184.929 183.836 186.149 183.096 186.149 181.716C186.149 180.256 184.649 180.056 182.509 179.536C180.349 179.016 178.029 178.376 178.029 175.576C178.029 172.916 180.309 171.216 183.209 171.216C185.669 171.216 187.589 172.376 188.549 173.876L186.669 175.496C185.869 174.256 184.809 173.396 183.129 173.396C181.589 173.396 180.529 174.176 180.529 175.316C180.529 176.576 181.629 176.836 183.569 177.276C185.889 177.796 188.669 178.336 188.669 181.456C188.669 184.276 186.189 186.016 183.229 186.016C180.769 186.016 178.329 184.836 177.209 182.996ZM189.201 182.996L191.161 181.376C192.161 182.936 193.661 183.836 195.301 183.836C196.921 183.836 198.141 183.096 198.141 181.716C198.141 180.256 196.641 180.056 194.501 179.536C192.341 179.016 190.021 178.376 190.021 175.576C190.021 172.916 192.301 171.216 195.201 171.216C197.661 171.216 199.581 172.376 200.541 173.876L198.661 175.496C197.861 174.256 196.801 173.396 195.121 173.396C193.581 173.396 192.521 174.176 192.521 175.316C192.521 176.576 193.621 176.836 195.561 177.276C197.881 177.796 200.661 178.336 200.661 181.456C200.661 184.276 198.181 186.016 195.221 186.016C192.761 186.016 190.321 184.836 189.201 182.996Z" fill="#414141"/>
<path d="M119.765 204.485V207.796H118.709V199.898H121.723C123.395 199.898 124.462 200.679 124.462 202.186C124.462 203.671 123.395 204.485 121.723 204.485H119.765ZM119.765 203.572H121.668C122.79 203.572 123.417 203.077 123.417 202.186C123.417 201.295 122.79 200.811 121.668 200.811H119.765V203.572ZM126.178 203.847C126.178 205.717 127.212 206.982 128.675 206.982C129.698 206.982 130.435 206.388 130.721 205.387L131.722 205.717C131.26 207.081 130.182 207.917 128.675 207.917C126.629 207.917 125.122 206.256 125.122 203.847C125.122 201.438 126.629 199.777 128.675 199.777C130.182 199.777 131.26 200.613 131.722 201.977L130.721 202.307C130.435 201.306 129.698 200.712 128.675 200.712C127.212 200.712 126.178 201.977 126.178 203.847ZM133.891 199.898V207.796H132.835V199.898H133.891ZM137.123 206.168L137.948 205.508C138.443 206.454 139.334 207.004 140.357 207.004C141.38 207.004 142.172 206.498 142.172 205.596C142.172 204.639 141.259 204.474 140.06 204.188C138.817 203.891 137.585 203.55 137.585 202.065C137.585 200.679 138.784 199.777 140.28 199.777C141.655 199.777 142.645 200.437 143.118 201.328L142.315 201.966C141.908 201.207 141.281 200.69 140.258 200.69C139.301 200.69 138.608 201.218 138.608 201.977C138.608 202.813 139.345 202.989 140.456 203.253C141.765 203.561 143.206 203.836 143.206 205.508C143.206 206.982 141.897 207.917 140.335 207.917C138.971 207.917 137.662 207.235 137.123 206.168ZM145.04 204.925C145.04 206.234 145.744 207.048 146.767 207.048C147.559 207.048 148.032 206.542 148.197 205.827L149.077 206.234C148.802 207.191 147.966 207.917 146.767 207.917C145.161 207.917 144.05 206.696 144.05 204.925C144.05 203.143 145.161 201.933 146.767 201.933C147.966 201.933 148.78 202.626 149.055 203.583L148.197 204.012C148.032 203.308 147.559 202.791 146.767 202.791C145.744 202.791 145.04 203.605 145.04 204.925ZM151.666 207.895C150.621 207.895 149.774 207.279 149.774 206.245C149.774 205.101 150.665 204.628 151.952 204.364L153.349 204.078V203.836C153.349 203.176 152.986 202.802 152.216 202.802C151.49 202.802 151.061 203.143 150.885 203.781L149.95 203.539C150.225 202.604 151.072 201.933 152.249 201.933C153.536 201.933 154.328 202.56 154.328 203.792V206.597C154.328 206.971 154.559 207.092 154.944 207.004V207.796C154.064 207.906 153.558 207.697 153.437 207.147C153.085 207.598 152.447 207.895 151.666 207.895ZM153.349 205.838V204.848L152.227 205.09C151.347 205.266 150.753 205.508 150.753 206.201C150.753 206.762 151.16 207.092 151.787 207.092C152.634 207.092 153.349 206.575 153.349 205.838ZM156.015 207.796V202.043H157.005V202.824C157.335 202.351 157.907 201.933 158.721 201.933C159.942 201.933 160.635 202.78 160.635 204.001V207.796H159.645V204.265C159.645 203.462 159.304 202.857 158.446 202.857C157.731 202.857 157.005 203.407 157.005 204.364V207.796H156.015ZM161.586 206.575L162.356 206.014C162.664 206.685 163.368 207.092 164.116 207.092C164.787 207.092 165.381 206.806 165.381 206.179C165.381 205.552 164.831 205.464 163.885 205.266C162.939 205.057 161.949 204.848 161.949 203.671C161.949 202.648 162.84 201.933 164.061 201.933C165.095 201.933 165.942 202.439 166.283 203.121L165.579 203.682C165.282 203.11 164.743 202.747 164.017 202.747C163.357 202.747 162.917 203.077 162.917 203.594C162.917 204.133 163.423 204.232 164.226 204.408C165.216 204.639 166.349 204.837 166.349 206.091C166.349 207.191 165.348 207.917 164.116 207.917C163.071 207.917 162.026 207.466 161.586 206.575ZM170.532 203.847C170.532 205.717 171.566 206.982 173.029 206.982C174.052 206.982 174.789 206.388 175.075 205.387L176.076 205.717C175.614 207.081 174.536 207.917 173.029 207.917C170.983 207.917 169.476 206.256 169.476 203.847C169.476 201.438 170.983 199.777 173.029 199.777C174.536 199.777 175.614 200.613 176.076 201.977L175.075 202.307C174.789 201.306 174.052 200.712 173.029 200.712C171.566 200.712 170.532 201.977 170.532 203.847ZM182.095 204.925C182.095 206.707 180.995 207.917 179.422 207.917C177.849 207.917 176.749 206.707 176.749 204.925C176.749 203.143 177.849 201.933 179.422 201.933C180.995 201.933 182.095 203.143 182.095 204.925ZM177.75 204.925C177.75 206.234 178.41 207.07 179.422 207.07C180.434 207.07 181.094 206.234 181.094 204.925C181.094 203.605 180.434 202.769 179.422 202.769C178.41 202.769 177.75 203.605 177.75 204.925ZM184.344 204.353V207.796H183.354V202.043H184.344V202.824C184.652 202.351 185.202 201.933 186.005 201.933C186.775 201.933 187.314 202.318 187.6 202.912C187.919 202.439 188.535 201.933 189.437 201.933C190.625 201.933 191.34 202.78 191.34 204.001V207.796H190.35V204.265C190.35 203.462 190.02 202.857 189.206 202.857C188.546 202.857 187.842 203.418 187.842 204.353V207.796H186.852V204.265C186.852 203.462 186.522 202.857 185.708 202.857C185.048 202.857 184.344 203.418 184.344 204.353ZM195.708 207.917C194.905 207.917 194.267 207.532 193.926 206.96V209.776H192.936V202.043H193.926V202.879C194.267 202.318 194.905 201.933 195.708 201.933C197.303 201.933 198.216 203.286 198.216 204.925C198.216 206.553 197.303 207.917 195.708 207.917ZM193.904 204.727V205.134C193.904 206.454 194.718 207.048 195.532 207.048C196.61 207.048 197.215 206.157 197.215 204.925C197.215 203.682 196.61 202.802 195.532 202.802C194.718 202.802 193.904 203.385 193.904 204.727ZM200.458 199.898V207.796H199.468V199.898H200.458ZM204.409 207.917C202.814 207.917 201.714 206.696 201.714 204.925C201.714 203.209 202.803 201.933 204.365 201.933C205.971 201.933 206.818 203.154 206.818 204.749V205.079H202.66C202.715 206.289 203.408 207.059 204.409 207.059C205.179 207.059 205.729 206.641 205.905 205.959L206.774 206.267C206.422 207.29 205.553 207.917 204.409 207.917ZM204.354 202.78C203.518 202.78 202.891 203.341 202.715 204.32H205.817C205.795 203.506 205.355 202.78 204.354 202.78ZM208.205 206.421V202.89H207.314V202.043H208.205V200.36H209.184V202.043H210.493V202.89H209.184V206.267C209.184 206.872 209.481 206.982 209.987 206.982C210.218 206.982 210.383 206.971 210.614 206.916V207.763C210.361 207.818 210.075 207.851 209.745 207.851C208.766 207.851 208.205 207.521 208.205 206.421ZM214.056 207.917C212.461 207.917 211.361 206.696 211.361 204.925C211.361 203.209 212.45 201.933 214.012 201.933C215.618 201.933 216.465 203.154 216.465 204.749V205.079H212.307C212.362 206.289 213.055 207.059 214.056 207.059C214.826 207.059 215.376 206.641 215.552 205.959L216.421 206.267C216.069 207.29 215.2 207.917 214.056 207.917ZM214.001 202.78C213.165 202.78 212.538 203.341 212.362 204.32H215.464C215.442 203.506 215.002 202.78 214.001 202.78ZM219.809 207.917C218.214 207.917 217.301 206.553 217.301 204.925C217.301 203.286 218.214 201.933 219.809 201.933C220.612 201.933 221.25 202.318 221.591 202.879V199.898H222.581V207.796H221.591V206.96C221.25 207.532 220.612 207.917 219.809 207.917ZM221.613 204.727C221.613 203.385 220.799 202.802 219.985 202.802C218.907 202.802 218.302 203.682 218.302 204.925C218.302 206.157 218.907 207.048 219.985 207.048C220.799 207.048 221.613 206.454 221.613 205.134V204.727ZM118.709 224.796V216.898H121.217C123.615 216.898 125.133 218.438 125.133 220.847C125.133 223.256 123.615 224.796 121.217 224.796H118.709ZM119.743 223.883H121.217C123.01 223.883 124.099 222.684 124.099 220.847C124.099 218.999 123.01 217.811 121.206 217.811H119.743V223.883ZM131.328 221.925C131.328 223.707 130.228 224.917 128.655 224.917C127.082 224.917 125.982 223.707 125.982 221.925C125.982 220.143 127.082 218.933 128.655 218.933C130.228 218.933 131.328 220.143 131.328 221.925ZM126.983 221.925C126.983 223.234 127.643 224.07 128.655 224.07C129.667 224.07 130.327 223.234 130.327 221.925C130.327 220.605 129.667 219.769 128.655 219.769C127.643 219.769 126.983 220.605 126.983 221.925ZM133.181 221.925C133.181 223.234 133.885 224.048 134.908 224.048C135.7 224.048 136.173 223.542 136.338 222.827L137.218 223.234C136.943 224.191 136.107 224.917 134.908 224.917C133.302 224.917 132.191 223.696 132.191 221.925C132.191 220.143 133.302 218.933 134.908 218.933C136.107 218.933 136.921 219.626 137.196 220.583L136.338 221.012C136.173 220.308 135.7 219.791 134.908 219.791C133.885 219.791 133.181 220.605 133.181 221.925ZM142.867 219.043V224.796H141.877V224.004C141.547 224.488 140.986 224.917 140.172 224.917C138.94 224.917 138.247 224.07 138.247 222.849V219.043H139.237V222.64C139.237 223.454 139.589 224.004 140.436 224.004C141.151 224.004 141.877 223.465 141.877 222.508V219.043H142.867ZM145.501 221.353V224.796H144.511V219.043H145.501V219.824C145.809 219.351 146.359 218.933 147.162 218.933C147.932 218.933 148.471 219.318 148.757 219.912C149.076 219.439 149.692 218.933 150.594 218.933C151.782 218.933 152.497 219.78 152.497 221.001V224.796H151.507V221.265C151.507 220.462 151.177 219.857 150.363 219.857C149.703 219.857 148.999 220.418 148.999 221.353V224.796H148.009V221.265C148.009 220.462 147.679 219.857 146.865 219.857C146.205 219.857 145.501 220.418 145.501 221.353ZM156.392 224.917C154.797 224.917 153.697 223.696 153.697 221.925C153.697 220.209 154.786 218.933 156.348 218.933C157.954 218.933 158.801 220.154 158.801 221.749V222.079H154.643C154.698 223.289 155.391 224.059 156.392 224.059C157.162 224.059 157.712 223.641 157.888 222.959L158.757 223.267C158.405 224.29 157.536 224.917 156.392 224.917ZM156.337 219.78C155.501 219.78 154.874 220.341 154.698 221.32H157.8C157.778 220.506 157.338 219.78 156.337 219.78ZM160.033 224.796V219.043H161.023V219.824C161.353 219.351 161.925 218.933 162.739 218.933C163.96 218.933 164.653 219.78 164.653 221.001V224.796H163.663V221.265C163.663 220.462 163.322 219.857 162.464 219.857C161.749 219.857 161.023 220.407 161.023 221.364V224.796H160.033ZM166.396 223.421V219.89H165.505V219.043H166.396V217.36H167.375V219.043H168.684V219.89H167.375V223.267C167.375 223.872 167.672 223.982 168.178 223.982C168.409 223.982 168.574 223.971 168.805 223.916V224.763C168.552 224.818 168.266 224.851 167.936 224.851C166.957 224.851 166.396 224.521 166.396 223.421ZM169.342 223.575L170.112 223.014C170.42 223.685 171.124 224.092 171.872 224.092C172.543 224.092 173.137 223.806 173.137 223.179C173.137 222.552 172.587 222.464 171.641 222.266C170.695 222.057 169.705 221.848 169.705 220.671C169.705 219.648 170.596 218.933 171.817 218.933C172.851 218.933 173.698 219.439 174.039 220.121L173.335 220.682C173.038 220.11 172.499 219.747 171.773 219.747C171.113 219.747 170.673 220.077 170.673 220.594C170.673 221.133 171.179 221.232 171.982 221.408C172.972 221.639 174.105 221.837 174.105 223.091C174.105 224.191 173.104 224.917 171.872 224.917C170.827 224.917 169.782 224.466 169.342 223.575ZM180.653 224.906C178.871 224.906 177.551 223.85 177.551 221.672V216.898H178.607V221.639C178.607 223.256 179.465 223.96 180.653 223.96C181.852 223.96 182.71 223.256 182.71 221.639V216.898H183.766V221.672C183.766 223.85 182.446 224.906 180.653 224.906ZM188.092 224.917C187.289 224.917 186.651 224.532 186.31 223.96V226.776H185.32V219.043H186.31V219.879C186.651 219.318 187.289 218.933 188.092 218.933C189.687 218.933 190.6 220.286 190.6 221.925C190.6 223.553 189.687 224.917 188.092 224.917ZM186.288 221.727V222.134C186.288 223.454 187.102 224.048 187.916 224.048C188.994 224.048 189.599 223.157 189.599 221.925C189.599 220.682 188.994 219.802 187.916 219.802C187.102 219.802 186.288 220.385 186.288 221.727ZM192.841 216.898V224.796H191.851V216.898H192.841ZM199.444 221.925C199.444 223.707 198.344 224.917 196.771 224.917C195.198 224.917 194.098 223.707 194.098 221.925C194.098 220.143 195.198 218.933 196.771 218.933C198.344 218.933 199.444 220.143 199.444 221.925ZM195.099 221.925C195.099 223.234 195.759 224.07 196.771 224.07C197.783 224.07 198.443 223.234 198.443 221.925C198.443 220.605 197.783 219.769 196.771 219.769C195.759 219.769 195.099 220.605 195.099 221.925ZM202.144 224.895C201.099 224.895 200.252 224.279 200.252 223.245C200.252 222.101 201.143 221.628 202.43 221.364L203.827 221.078V220.836C203.827 220.176 203.464 219.802 202.694 219.802C201.968 219.802 201.539 220.143 201.363 220.781L200.428 220.539C200.703 219.604 201.55 218.933 202.727 218.933C204.014 218.933 204.806 219.56 204.806 220.792V223.597C204.806 223.971 205.037 224.092 205.422 224.004V224.796C204.542 224.906 204.036 224.697 203.915 224.147C203.563 224.598 202.925 224.895 202.144 224.895ZM203.827 222.838V221.848L202.705 222.09C201.825 222.266 201.231 222.508 201.231 223.201C201.231 223.762 201.638 224.092 202.265 224.092C203.112 224.092 203.827 223.575 203.827 222.838ZM208.605 224.917C207.01 224.917 206.097 223.553 206.097 221.925C206.097 220.286 207.01 218.933 208.605 218.933C209.408 218.933 210.046 219.318 210.387 219.879V216.898H211.377V224.796H210.387V223.96C210.046 224.532 209.408 224.917 208.605 224.917ZM210.409 221.727C210.409 220.385 209.595 219.802 208.781 219.802C207.703 219.802 207.098 220.682 207.098 221.925C207.098 223.157 207.703 224.048 208.781 224.048C209.595 224.048 210.409 223.454 210.409 222.134V221.727ZM215.312 224.917C213.717 224.917 212.617 223.696 212.617 221.925C212.617 220.209 213.706 218.933 215.268 218.933C216.874 218.933 217.721 220.154 217.721 221.749V222.079H213.563C213.618 223.289 214.311 224.059 215.312 224.059C216.082 224.059 216.632 223.641 216.808 222.959L217.677 223.267C217.325 224.29 216.456 224.917 215.312 224.917ZM215.257 219.78C214.421 219.78 213.794 220.341 213.618 221.32H216.72C216.698 220.506 216.258 219.78 215.257 219.78ZM221.066 224.917C219.471 224.917 218.558 223.553 218.558 221.925C218.558 220.286 219.471 218.933 221.066 218.933C221.869 218.933 222.507 219.318 222.848 219.879V216.898H223.838V224.796H222.848V223.96C222.507 224.532 221.869 224.917 221.066 224.917ZM222.87 221.727C222.87 220.385 222.056 219.802 221.242 219.802C220.164 219.802 219.559 220.682 219.559 221.925C219.559 223.157 220.164 224.048 221.242 224.048C222.056 224.048 222.87 223.454 222.87 222.134V221.727Z" fill="#414141"/>
<g filter="url(#filter1_d_736_2993)">
<rect x="618" y="129" width="294" height="174" rx="16" fill="white" fill-opacity="0.84" shape-rendering="crispEdges"/>
</g>
<rect x="687" y="238.053" width="235.726" height="22.5331" rx="4" fill="#BFFFD9" fill-opacity="0.38"/>
<path d="M861.037 252.077C860.078 252.077 859.315 251.552 859.154 250.551L859.805 250.411C859.903 251.111 860.4 251.517 861.03 251.517C861.667 251.517 862.108 251.153 862.108 250.558C862.108 249.963 861.625 249.669 860.988 249.669H860.449V249.102H860.995C861.576 249.102 861.968 248.808 861.968 248.304C861.968 247.786 861.611 247.464 861.037 247.464C860.435 247.464 860.015 247.863 859.903 248.493L859.301 248.374C859.434 247.534 860.085 246.897 861.051 246.897C862.031 246.897 862.598 247.471 862.598 248.269C862.598 248.815 862.248 249.235 861.821 249.375C862.325 249.515 862.759 249.9 862.759 250.593C862.759 251.419 862.08 252.077 861.037 252.077ZM863.217 249.487C863.217 247.954 863.938 246.897 865.135 246.897C866.325 246.897 867.046 247.954 867.046 249.487C867.046 251.02 866.325 252.077 865.135 252.077C863.938 252.077 863.217 251.02 863.217 249.487ZM863.889 249.487C863.889 250.663 864.316 251.489 865.135 251.489C865.947 251.489 866.381 250.663 866.381 249.487C866.381 248.311 865.947 247.485 865.135 247.485C864.316 247.485 863.889 248.311 863.889 249.487ZM868.167 248.493C868.167 248.869 868.207 249.153 868.287 249.344C868.369 249.533 868.499 249.628 868.676 249.628C869.036 249.628 869.216 249.25 869.216 248.493C869.216 247.741 869.036 247.365 868.676 247.365C868.499 247.365 868.369 247.46 868.287 247.649C868.207 247.836 868.167 248.117 868.167 248.493ZM869.729 248.493C869.729 249.013 869.639 249.406 869.459 249.672C869.281 249.937 869.02 250.069 868.676 250.069C868.353 250.069 868.101 249.933 867.921 249.662C867.743 249.389 867.654 248.999 867.654 248.493C867.654 247.971 867.741 247.581 867.914 247.321C868.09 247.061 868.344 246.931 868.676 246.931C869.011 246.931 869.27 247.067 869.452 247.338C869.637 247.607 869.729 247.992 869.729 248.493ZM871.226 250.496C871.226 250.877 871.266 251.16 871.346 251.347C871.428 251.534 871.558 251.627 871.735 251.627C871.92 251.627 872.056 251.535 872.142 251.351C872.231 251.164 872.275 250.879 872.275 250.496C872.275 249.749 872.095 249.375 871.735 249.375C871.558 249.375 871.428 249.468 871.346 249.655C871.266 249.84 871.226 250.12 871.226 250.496ZM872.788 250.496C872.788 251.013 872.698 251.405 872.518 251.672C872.338 251.936 872.077 252.068 871.735 252.068C871.412 252.068 871.16 251.933 870.98 251.662C870.802 251.388 870.713 251 870.713 250.496C870.713 249.974 870.8 249.583 870.973 249.324C871.146 249.064 871.4 248.934 871.735 248.934C872.07 248.934 872.329 249.07 872.511 249.341C872.696 249.61 872.788 249.995 872.788 250.496ZM871.875 247.003L869.104 252H868.567L871.339 247.003H871.875ZM875.509 250.173C875.509 251.006 875.957 251.524 876.608 251.524C877.112 251.524 877.413 251.202 877.518 250.747L878.078 251.006C877.903 251.615 877.371 252.077 876.608 252.077C875.586 252.077 874.879 251.3 874.879 250.173C874.879 249.039 875.586 248.269 876.608 248.269C877.371 248.269 877.889 248.71 878.064 249.319L877.518 249.592C877.413 249.144 877.112 248.815 876.608 248.815C875.957 248.815 875.509 249.333 875.509 250.173ZM881.918 250.173C881.918 251.307 881.218 252.077 880.217 252.077C879.216 252.077 878.516 251.307 878.516 250.173C878.516 249.039 879.216 248.269 880.217 248.269C881.218 248.269 881.918 249.039 881.918 250.173ZM879.153 250.173C879.153 251.006 879.573 251.538 880.217 251.538C880.861 251.538 881.281 251.006 881.281 250.173C881.281 249.333 880.861 248.801 880.217 248.801C879.573 248.801 879.153 249.333 879.153 250.173ZM883.349 249.809V252H882.719V248.339H883.349V248.836C883.545 248.535 883.895 248.269 884.406 248.269C884.896 248.269 885.239 248.514 885.421 248.892C885.624 248.591 886.016 248.269 886.59 248.269C887.346 248.269 887.801 248.808 887.801 249.585V252H887.171V249.753C887.171 249.242 886.961 248.857 886.443 248.857C886.023 248.857 885.575 249.214 885.575 249.809V252H884.945V249.753C884.945 249.242 884.735 248.857 884.217 248.857C883.797 248.857 883.349 249.214 883.349 249.809ZM890.581 252.077C890.07 252.077 889.664 251.832 889.447 251.468V253.26H888.817V248.339H889.447V248.871C889.664 248.514 890.07 248.269 890.581 248.269C891.596 248.269 892.177 249.13 892.177 250.173C892.177 251.209 891.596 252.077 890.581 252.077ZM889.433 250.047V250.306C889.433 251.146 889.951 251.524 890.469 251.524C891.155 251.524 891.54 250.957 891.54 250.173C891.54 249.382 891.155 248.822 890.469 248.822C889.951 248.822 889.433 249.193 889.433 250.047ZM893.603 246.974V252H892.973V246.974H893.603ZM896.118 252.077C895.103 252.077 894.403 251.3 894.403 250.173C894.403 249.081 895.096 248.269 896.09 248.269C897.112 248.269 897.651 249.046 897.651 250.061V250.271H895.005C895.04 251.041 895.481 251.531 896.118 251.531C896.608 251.531 896.958 251.265 897.07 250.831L897.623 251.027C897.399 251.678 896.846 252.077 896.118 252.077ZM896.083 248.808C895.551 248.808 895.152 249.165 895.04 249.788H897.014C897 249.27 896.72 248.808 896.083 248.808ZM898.533 251.125V248.878H897.966V248.339H898.533V247.268H899.156V248.339H899.989V248.878H899.156V251.027C899.156 251.412 899.345 251.482 899.667 251.482C899.814 251.482 899.919 251.475 900.066 251.44V251.979C899.905 252.014 899.723 252.035 899.513 252.035C898.89 252.035 898.533 251.825 898.533 251.125ZM900.786 247.702V246.974H901.472V247.702H900.786ZM901.444 248.339V252H900.814V248.339H901.444ZM905.646 250.173C905.646 251.307 904.946 252.077 903.945 252.077C902.944 252.077 902.244 251.307 902.244 250.173C902.244 249.039 902.944 248.269 903.945 248.269C904.946 248.269 905.646 249.039 905.646 250.173ZM902.881 250.173C902.881 251.006 903.301 251.538 903.945 251.538C904.589 251.538 905.009 251.006 905.009 250.173C905.009 249.333 904.589 248.801 903.945 248.801C903.301 248.801 902.881 249.333 902.881 250.173ZM906.447 252V248.339H907.077V248.836C907.287 248.535 907.651 248.269 908.169 248.269C908.946 248.269 909.387 248.808 909.387 249.585V252H908.757V249.753C908.757 249.242 908.54 248.857 907.994 248.857C907.539 248.857 907.077 249.207 907.077 249.816V252H906.447Z" fill="#414141"/>
<rect x="699" y="246" width="74" height="6" rx="3" fill="#08CC85"/>
<rect x="649.179" y="154.67" width="8.48102" height="8.48102" rx="4.24051" fill="#08CC85"/>
<path d="M664.36 166V151.64H669.16C673.62 151.64 676.38 154.44 676.38 158.82C676.38 163.2 673.62 166 669.16 166H664.36ZM666.86 163.8H669.16C672.12 163.8 673.86 161.84 673.86 158.82C673.86 155.78 672.12 153.84 669.14 153.84H666.86V163.8ZM681.063 166.18C679.063 166.18 677.523 164.96 677.523 163.08C677.523 161.08 679.023 160.2 681.043 159.78L683.943 159.18V159C683.943 158 683.423 157.38 682.143 157.38C681.003 157.38 680.403 157.9 680.123 158.92L677.863 158.4C678.383 156.66 679.923 155.3 682.243 155.3C684.763 155.3 686.283 156.5 686.283 158.92V163.44C686.283 164.04 686.543 164.22 687.203 164.14V166C685.463 166.2 684.543 165.86 684.183 165C683.523 165.74 682.423 166.18 681.063 166.18ZM683.943 162.3V161.02L681.683 161.5C680.663 161.72 679.903 162.04 679.903 162.98C679.903 163.8 680.503 164.26 681.423 164.26C682.703 164.26 683.943 163.58 683.943 162.3ZM689.128 163.36V157.54H687.668V155.5H689.128V152.42H691.488V155.5H693.688V157.54H691.488V162.98C691.488 163.92 692.028 164.02 692.888 164.02C693.288 164.02 693.508 164 693.868 163.96V165.98C693.428 166.06 692.828 166.12 692.208 166.12C690.208 166.12 689.128 165.5 689.128 163.36ZM698.446 166.18C696.446 166.18 694.906 164.96 694.906 163.08C694.906 161.08 696.406 160.2 698.426 159.78L701.326 159.18V159C701.326 158 700.806 157.38 699.526 157.38C698.386 157.38 697.786 157.9 697.506 158.92L695.246 158.4C695.766 156.66 697.306 155.3 699.626 155.3C702.146 155.3 703.666 156.5 703.666 158.92V163.44C703.666 164.04 703.926 164.22 704.586 164.14V166C702.846 166.2 701.926 165.86 701.566 165C700.906 165.74 699.806 166.18 698.446 166.18ZM701.326 162.3V161.02L699.066 161.5C698.046 161.72 697.286 162.04 697.286 162.98C697.286 163.8 697.886 164.26 698.806 164.26C700.086 164.26 701.326 163.58 701.326 162.3ZM713.072 160.44V166H710.512V151.64H716.252C719.452 151.64 721.452 153.14 721.452 156.04C721.452 158.9 719.452 160.44 716.252 160.44H713.072ZM713.072 158.24H716.112C717.952 158.24 718.932 157.44 718.932 156.04C718.932 154.62 717.952 153.84 716.112 153.84H713.072V158.24ZM728.814 155.48V157.88C728.514 157.84 728.274 157.82 727.934 157.82C726.414 157.82 725.254 158.8 725.254 160.48V166H722.854V155.5H725.254V157.06C725.714 156.08 726.794 155.44 728.134 155.44C728.414 155.44 728.634 155.46 728.814 155.48ZM739.423 160.76C739.423 164.02 737.323 166.22 734.363 166.22C731.403 166.22 729.303 164.02 729.303 160.76C729.303 157.5 731.403 155.3 734.363 155.3C737.323 155.3 739.423 157.5 739.423 160.76ZM731.723 160.76C731.723 162.9 732.743 164.2 734.363 164.2C735.983 164.2 737.003 162.9 737.003 160.76C737.003 158.62 735.983 157.32 734.363 157.32C732.743 157.32 731.723 158.62 731.723 160.76ZM741.511 163.36V157.54H740.051V155.5H741.511V152.42H743.871V155.5H746.071V157.54H743.871V162.98C743.871 163.92 744.411 164.02 745.271 164.02C745.671 164.02 745.891 164 746.251 163.96V165.98C745.811 166.06 745.211 166.12 744.591 166.12C742.591 166.12 741.511 165.5 741.511 163.36ZM752.391 166.22C749.391 166.22 747.291 164 747.291 160.76C747.291 157.68 749.371 155.3 752.291 155.3C755.331 155.3 756.951 157.6 756.951 160.48V161.28H749.591C749.771 163.08 750.851 164.18 752.391 164.18C753.571 164.18 754.511 163.58 754.831 162.5L756.891 163.28C756.151 165.12 754.491 166.22 752.391 166.22ZM752.271 157.32C751.031 157.32 750.071 158.06 749.711 159.48H754.531C754.511 158.32 753.791 157.32 752.271 157.32ZM760.492 160.76C760.492 162.9 761.612 164.14 763.252 164.14C764.532 164.14 765.312 163.3 765.612 162.14L767.672 163.18C767.132 164.88 765.532 166.22 763.252 166.22C760.252 166.22 758.092 164 758.092 160.76C758.092 157.52 760.252 155.3 763.252 155.3C765.512 155.3 767.072 156.58 767.632 158.26L765.612 159.36C765.312 158.22 764.532 157.36 763.252 157.36C761.612 157.36 760.492 158.62 760.492 160.76ZM769.343 163.36V157.54H767.883V155.5H769.343V152.42H771.703V155.5H773.903V157.54H771.703V162.98C771.703 163.92 772.243 164.02 773.103 164.02C773.503 164.02 773.723 164 774.083 163.96V165.98C773.643 166.06 773.043 166.12 772.423 166.12C770.423 166.12 769.343 165.5 769.343 163.36ZM775.841 154.1V151.64H778.321V154.1H775.841ZM778.281 155.5V166H775.881V155.5H778.281ZM790.263 160.76C790.263 164.02 788.163 166.22 785.203 166.22C782.243 166.22 780.143 164.02 780.143 160.76C780.143 157.5 782.243 155.3 785.203 155.3C788.163 155.3 790.263 157.5 790.263 160.76ZM782.563 160.76C782.563 162.9 783.583 164.2 785.203 164.2C786.823 164.2 787.843 162.9 787.843 160.76C787.843 158.62 786.823 157.32 785.203 157.32C783.583 157.32 782.563 158.62 782.563 160.76ZM792.131 166V155.5H794.531V156.62C795.131 155.92 796.071 155.3 797.431 155.3C799.631 155.3 800.951 156.82 800.951 159.08V166H798.551V159.78C798.551 158.48 798.031 157.54 796.711 157.54C795.631 157.54 794.531 158.34 794.531 159.84V166H792.131ZM806.882 158.82C806.882 154.46 809.682 151.42 813.562 151.42C817.442 151.42 820.242 154.46 820.242 158.82C820.242 163.18 817.442 166.22 813.562 166.22C809.682 166.22 806.882 163.18 806.882 158.82ZM817.682 158.82C817.682 155.7 815.982 153.68 813.562 153.68C811.142 153.68 809.442 155.7 809.442 158.82C809.442 161.94 811.142 163.96 813.562 163.96C815.982 163.96 817.682 161.94 817.682 158.82ZM827.089 151.44V153.54C826.809 153.52 826.669 153.52 826.369 153.52C825.429 153.52 824.909 153.8 824.909 155V155.5H827.049V157.54H824.909V166H822.509V157.54H821.049V155.5H822.509V154.82C822.509 152.64 823.729 151.42 826.089 151.42C826.469 151.42 826.649 151.42 827.089 151.44ZM833.573 151.44V153.54C833.293 153.52 833.153 153.52 832.853 153.52C831.913 153.52 831.393 153.8 831.393 155V155.5H833.533V157.54H831.393V166H828.993V157.54H827.533V155.5H828.993V154.82C828.993 152.64 830.213 151.42 832.573 151.42C832.953 151.42 833.133 151.42 833.573 151.44ZM834.865 154.1V151.64H837.345V154.1H834.865ZM837.305 155.5V166H834.905V155.5H837.305ZM841.566 160.76C841.566 162.9 842.686 164.14 844.326 164.14C845.606 164.14 846.386 163.3 846.686 162.14L848.746 163.18C848.206 164.88 846.606 166.22 844.326 166.22C841.326 166.22 839.166 164 839.166 160.76C839.166 157.52 841.326 155.3 844.326 155.3C846.586 155.3 848.146 156.58 848.706 158.26L846.686 159.36C846.386 158.22 845.606 157.36 844.326 157.36C842.686 157.36 841.566 158.62 841.566 160.76ZM854.638 166.22C851.638 166.22 849.538 164 849.538 160.76C849.538 157.68 851.618 155.3 854.538 155.3C857.578 155.3 859.198 157.6 859.198 160.48V161.28H851.838C852.018 163.08 853.098 164.18 854.638 164.18C855.818 164.18 856.758 163.58 857.078 162.5L859.138 163.28C858.398 165.12 856.738 166.22 854.638 166.22ZM854.518 157.32C853.278 157.32 852.318 158.06 851.958 159.48H856.778C856.758 158.32 856.038 157.32 854.518 157.32ZM866.958 155.48V157.88C866.658 157.84 866.418 157.82 866.078 157.82C864.558 157.82 863.398 158.8 863.398 160.48V166H860.998V155.5H863.398V157.06C863.858 156.08 864.938 155.44 866.278 155.44C866.558 155.44 866.778 155.46 866.958 155.48ZM874.592 151.723L869.279 166H867.551L872.873 151.723H874.592ZM664.36 191V176.64H669.16C673.62 176.64 676.38 179.44 676.38 183.82C676.38 188.2 673.62 191 669.16 191H664.36ZM666.86 188.8H669.16C672.12 188.8 673.86 186.84 673.86 183.82C673.86 180.78 672.12 178.84 669.14 178.84H666.86V188.8ZM681.063 191.18C679.063 191.18 677.523 189.96 677.523 188.08C677.523 186.08 679.023 185.2 681.043 184.78L683.943 184.18V184C683.943 183 683.423 182.38 682.143 182.38C681.003 182.38 680.403 182.9 680.123 183.92L677.863 183.4C678.383 181.66 679.923 180.3 682.243 180.3C684.763 180.3 686.283 181.5 686.283 183.92V188.44C686.283 189.04 686.543 189.22 687.203 189.14V191C685.463 191.2 684.543 190.86 684.183 190C683.523 190.74 682.423 191.18 681.063 191.18ZM683.943 187.3V186.02L681.683 186.5C680.663 186.72 679.903 187.04 679.903 187.98C679.903 188.8 680.503 189.26 681.423 189.26C682.703 189.26 683.943 188.58 683.943 187.3ZM689.128 188.36V182.54H687.668V180.5H689.128V177.42H691.488V180.5H693.688V182.54H691.488V187.98C691.488 188.92 692.028 189.02 692.888 189.02C693.288 189.02 693.508 189 693.868 188.96V190.98C693.428 191.06 692.828 191.12 692.208 191.12C690.208 191.12 689.128 190.5 689.128 188.36ZM698.446 191.18C696.446 191.18 694.906 189.96 694.906 188.08C694.906 186.08 696.406 185.2 698.426 184.78L701.326 184.18V184C701.326 183 700.806 182.38 699.526 182.38C698.386 182.38 697.786 182.9 697.506 183.92L695.246 183.4C695.766 181.66 697.306 180.3 699.626 180.3C702.146 180.3 703.666 181.5 703.666 183.92V188.44C703.666 189.04 703.926 189.22 704.586 189.14V191C702.846 191.2 701.926 190.86 701.566 190C700.906 190.74 699.806 191.18 698.446 191.18ZM701.326 187.3V186.02L699.066 186.5C698.046 186.72 697.286 187.04 697.286 187.98C697.286 188.8 697.886 189.26 698.806 189.26C700.086 189.26 701.326 188.58 701.326 187.3ZM713.072 185.44V191H710.512V176.64H716.252C719.452 176.64 721.452 178.14 721.452 181.04C721.452 183.9 719.452 185.44 716.252 185.44H713.072ZM713.072 183.24H716.112C717.952 183.24 718.932 182.44 718.932 181.04C718.932 179.62 717.952 178.84 716.112 178.84H713.072V183.24ZM728.814 180.48V182.88C728.514 182.84 728.274 182.82 727.934 182.82C726.414 182.82 725.254 183.8 725.254 185.48V191H722.854V180.5H725.254V182.06C725.714 181.08 726.794 180.44 728.134 180.44C728.414 180.44 728.634 180.46 728.814 180.48ZM739.423 185.76C739.423 189.02 737.323 191.22 734.363 191.22C731.403 191.22 729.303 189.02 729.303 185.76C729.303 182.5 731.403 180.3 734.363 180.3C737.323 180.3 739.423 182.5 739.423 185.76ZM731.723 185.76C731.723 187.9 732.743 189.2 734.363 189.2C735.983 189.2 737.003 187.9 737.003 185.76C737.003 183.62 735.983 182.32 734.363 182.32C732.743 182.32 731.723 183.62 731.723 185.76ZM741.511 188.36V182.54H740.051V180.5H741.511V177.42H743.871V180.5H746.071V182.54H743.871V187.98C743.871 188.92 744.411 189.02 745.271 189.02C745.671 189.02 745.891 189 746.251 188.96V190.98C745.811 191.06 745.211 191.12 744.591 191.12C742.591 191.12 741.511 190.5 741.511 188.36ZM752.391 191.22C749.391 191.22 747.291 189 747.291 185.76C747.291 182.68 749.371 180.3 752.291 180.3C755.331 180.3 756.951 182.6 756.951 185.48V186.28H749.591C749.771 188.08 750.851 189.18 752.391 189.18C753.571 189.18 754.511 188.58 754.831 187.5L756.891 188.28C756.151 190.12 754.491 191.22 752.391 191.22ZM752.271 182.32C751.031 182.32 750.071 183.06 749.711 184.48H754.531C754.511 183.32 753.791 182.32 752.271 182.32ZM760.492 185.76C760.492 187.9 761.612 189.14 763.252 189.14C764.532 189.14 765.312 188.3 765.612 187.14L767.672 188.18C767.132 189.88 765.532 191.22 763.252 191.22C760.252 191.22 758.092 189 758.092 185.76C758.092 182.52 760.252 180.3 763.252 180.3C765.512 180.3 767.072 181.58 767.632 183.26L765.612 184.36C765.312 183.22 764.532 182.36 763.252 182.36C761.612 182.36 760.492 183.62 760.492 185.76ZM769.343 188.36V182.54H767.883V180.5H769.343V177.42H771.703V180.5H773.903V182.54H771.703V187.98C771.703 188.92 772.243 189.02 773.103 189.02C773.503 189.02 773.723 189 774.083 188.96V190.98C773.643 191.06 773.043 191.12 772.423 191.12C770.423 191.12 769.343 190.5 769.343 188.36ZM775.841 179.1V176.64H778.321V179.1H775.841ZM778.281 180.5V191H775.881V180.5H778.281ZM790.263 185.76C790.263 189.02 788.163 191.22 785.203 191.22C782.243 191.22 780.143 189.02 780.143 185.76C780.143 182.5 782.243 180.3 785.203 180.3C788.163 180.3 790.263 182.5 790.263 185.76ZM782.563 185.76C782.563 187.9 783.583 189.2 785.203 189.2C786.823 189.2 787.843 187.9 787.843 185.76C787.843 183.62 786.823 182.32 785.203 182.32C783.583 182.32 782.563 183.62 782.563 185.76ZM792.131 191V180.5H794.531V181.62C795.131 180.92 796.071 180.3 797.431 180.3C799.631 180.3 800.951 181.82 800.951 184.08V191H798.551V184.78C798.551 183.48 798.031 182.54 796.711 182.54C795.631 182.54 794.531 183.34 794.531 184.84V191H792.131ZM666.18 208.82C666.18 211.92 667.86 213.96 670.22 213.96C671.9 213.96 673.12 212.94 673.56 211.26L675.96 212.08C675.12 214.62 673.12 216.22 670.22 216.22C666.4 216.22 663.62 213.18 663.62 208.82C663.62 204.46 666.4 201.42 670.22 201.42C673.12 201.42 675.12 203.02 675.96 205.56L673.56 206.38C673.12 204.7 671.9 203.68 670.22 203.68C667.86 203.68 666.18 205.72 666.18 208.82ZM687.06 210.76C687.06 214.02 684.96 216.22 682 216.22C679.04 216.22 676.94 214.02 676.94 210.76C676.94 207.5 679.04 205.3 682 205.3C684.96 205.3 687.06 207.5 687.06 210.76ZM679.36 210.76C679.36 212.9 680.38 214.2 682 214.2C683.62 214.2 684.64 212.9 684.64 210.76C684.64 208.62 683.62 207.32 682 207.32C680.38 207.32 679.36 208.62 679.36 210.76ZM691.328 209.84V216H688.928V205.5H691.328V206.62C691.908 205.92 692.808 205.3 694.208 205.3C695.468 205.3 696.408 205.86 696.988 206.76C697.628 206.08 698.628 205.3 700.248 205.3C702.408 205.3 703.808 206.82 703.808 209.08V216H701.408V209.78C701.408 208.48 700.928 207.54 699.648 207.54C698.628 207.54 697.568 208.34 697.568 209.84V216H695.168V209.78C695.168 208.48 694.688 207.54 693.408 207.54C692.388 207.54 691.328 208.34 691.328 209.84ZM711.672 216.22C710.312 216.22 709.312 215.68 708.652 214.9V219.6H706.252V205.5H708.652V206.62C709.312 205.84 710.312 205.3 711.672 205.3C714.612 205.3 716.292 207.78 716.292 210.76C716.292 213.74 714.612 216.22 711.672 216.22ZM708.592 210.46V211.08C708.592 213.02 709.712 214.12 711.192 214.12C712.932 214.12 713.872 212.76 713.872 210.76C713.872 208.76 712.932 207.4 711.192 207.4C709.712 207.4 708.592 208.48 708.592 210.46ZM720.547 201.64V216H718.147V201.64H720.547ZM723.029 204.1V201.64H725.509V204.1H723.029ZM725.469 205.5V216H723.069V205.5H725.469ZM730.77 216.18C728.77 216.18 727.23 214.96 727.23 213.08C727.23 211.08 728.73 210.2 730.75 209.78L733.65 209.18V209C733.65 208 733.13 207.38 731.85 207.38C730.71 207.38 730.11 207.9 729.83 208.92L727.57 208.4C728.09 206.66 729.63 205.3 731.95 205.3C734.47 205.3 735.99 206.5 735.99 208.92V213.44C735.99 214.04 736.25 214.22 736.91 214.14V216C735.17 216.2 734.25 215.86 733.89 215C733.23 215.74 732.13 216.18 730.77 216.18ZM733.65 212.3V211.02L731.39 211.5C730.37 211.72 729.61 212.04 729.61 212.98C729.61 213.8 730.21 214.26 731.13 214.26C732.41 214.26 733.65 213.58 733.65 212.3ZM738.615 216V205.5H741.015V206.62C741.615 205.92 742.555 205.3 743.915 205.3C746.115 205.3 747.435 206.82 747.435 209.08V216H745.035V209.78C745.035 208.48 744.515 207.54 743.195 207.54C742.115 207.54 741.015 208.34 741.015 209.84V216H738.615ZM751.625 210.76C751.625 212.9 752.745 214.14 754.385 214.14C755.665 214.14 756.445 213.3 756.745 212.14L758.805 213.18C758.265 214.88 756.665 216.22 754.385 216.22C751.385 216.22 749.225 214 749.225 210.76C749.225 207.52 751.385 205.3 754.385 205.3C756.645 205.3 758.205 206.58 758.765 208.26L756.745 209.36C756.445 208.22 755.665 207.36 754.385 207.36C752.745 207.36 751.625 208.62 751.625 210.76ZM764.696 216.22C761.696 216.22 759.596 214 759.596 210.76C759.596 207.68 761.676 205.3 764.596 205.3C767.636 205.3 769.256 207.6 769.256 210.48V211.28H761.896C762.076 213.08 763.156 214.18 764.696 214.18C765.876 214.18 766.816 213.58 767.136 212.5L769.196 213.28C768.456 215.12 766.796 216.22 764.696 216.22ZM764.576 207.32C763.336 207.32 762.376 208.06 762.016 209.48H766.836C766.816 208.32 766.096 207.32 764.576 207.32ZM774.538 208.82C774.538 204.46 777.338 201.42 781.218 201.42C785.098 201.42 787.898 204.46 787.898 208.82C787.898 213.18 785.098 216.22 781.218 216.22C777.338 216.22 774.538 213.18 774.538 208.82ZM785.338 208.82C785.338 205.7 783.638 203.68 781.218 203.68C778.798 203.68 777.098 205.7 777.098 208.82C777.098 211.94 778.798 213.96 781.218 213.96C783.638 213.96 785.338 211.94 785.338 208.82ZM795.747 205.48V207.88C795.447 207.84 795.207 207.82 794.867 207.82C793.347 207.82 792.187 208.8 792.187 210.48V216H789.787V205.5H792.187V207.06C792.647 206.08 793.727 205.44 795.067 205.44C795.347 205.44 795.567 205.46 795.747 205.48ZM806.354 214.94C806.354 218.04 804.234 219.82 801.234 219.82C798.814 219.82 797.114 218.8 796.454 216.76L798.694 215.96C799.014 217.14 799.914 217.88 801.234 217.88C802.854 217.88 803.954 217.08 803.954 215.16V214.42C803.394 215.16 802.334 215.74 800.994 215.74C798.114 215.74 796.394 213.4 796.394 210.52C796.394 207.64 798.114 205.3 800.994 205.3C802.314 205.3 803.394 205.88 803.954 206.62V205.5H806.354V214.94ZM803.994 210.42C803.994 208.5 802.954 207.4 801.454 207.4C799.794 207.4 798.814 208.56 798.814 210.52C798.814 212.46 799.794 213.64 801.454 213.64C802.954 213.64 803.994 212.54 803.994 210.66V210.42ZM811.669 216.18C809.669 216.18 808.129 214.96 808.129 213.08C808.129 211.08 809.629 210.2 811.649 209.78L814.549 209.18V209C814.549 208 814.029 207.38 812.749 207.38C811.609 207.38 811.009 207.9 810.729 208.92L808.469 208.4C808.989 206.66 810.529 205.3 812.849 205.3C815.369 205.3 816.889 206.5 816.889 208.92V213.44C816.889 214.04 817.149 214.22 817.809 214.14V216C816.069 216.2 815.149 215.86 814.789 215C814.129 215.74 813.029 216.18 811.669 216.18ZM814.549 212.3V211.02L812.289 211.5C811.269 211.72 810.509 212.04 810.509 212.98C810.509 213.8 811.109 214.26 812.029 214.26C813.309 214.26 814.549 213.58 814.549 212.3ZM819.514 216V205.5H821.914V206.62C822.514 205.92 823.454 205.3 824.814 205.3C827.014 205.3 828.334 206.82 828.334 209.08V216H825.934V209.78C825.934 208.48 825.414 207.54 824.094 207.54C823.014 207.54 821.914 208.34 821.914 209.84V216H819.514ZM830.743 204.1V201.64H833.223V204.1H830.743ZM833.183 205.5V216H830.783V205.5H833.183ZM843.705 213.96V216H835.145V214.2L840.785 207.54H835.225V205.5H843.645V207.32L838.165 213.96H843.705ZM848.368 216.18C846.368 216.18 844.828 214.96 844.828 213.08C844.828 211.08 846.328 210.2 848.348 209.78L851.248 209.18V209C851.248 208 850.728 207.38 849.448 207.38C848.308 207.38 847.708 207.9 847.428 208.92L845.168 208.4C845.688 206.66 847.228 205.3 849.548 205.3C852.068 205.3 853.588 206.5 853.588 208.92V213.44C853.588 214.04 853.848 214.22 854.508 214.14V216C852.768 216.2 851.848 215.86 851.488 215C850.828 215.74 849.728 216.18 848.368 216.18ZM851.248 212.3V211.02L848.988 211.5C847.968 211.72 847.208 212.04 847.208 212.98C847.208 213.8 847.808 214.26 848.728 214.26C850.008 214.26 851.248 213.58 851.248 212.3ZM856.433 213.36V207.54H854.973V205.5H856.433V202.42H858.793V205.5H860.993V207.54H858.793V212.98C858.793 213.92 859.333 214.02 860.193 214.02C860.593 214.02 860.813 214 861.173 213.96V215.98C860.733 216.06 860.133 216.12 859.513 216.12C857.513 216.12 856.433 215.5 856.433 213.36ZM862.931 204.1V201.64H865.411V204.1H862.931ZM865.371 205.5V216H862.971V205.5H865.371ZM877.353 210.76C877.353 214.02 875.253 216.22 872.293 216.22C869.333 216.22 867.233 214.02 867.233 210.76C867.233 207.5 869.333 205.3 872.293 205.3C875.253 205.3 877.353 207.5 877.353 210.76ZM869.653 210.76C869.653 212.9 870.673 214.2 872.293 214.2C873.913 214.2 874.933 212.9 874.933 210.76C874.933 208.62 873.913 207.32 872.293 207.32C870.673 207.32 869.653 208.62 869.653 210.76ZM879.221 216V205.5H881.621V206.62C882.221 205.92 883.161 205.3 884.521 205.3C886.721 205.3 888.041 206.82 888.041 209.08V216H885.641V209.78C885.641 208.48 885.121 207.54 883.801 207.54C882.721 207.54 881.621 208.34 881.621 209.84V216H879.221Z" fill="#414141"/>
<path d="M689.42 272.058H690.212V280H689.156V274.192H687.253V273.411L688.1 273.356C689.035 273.29 689.343 272.971 689.42 272.058ZM694.425 271.981C695.866 271.981 696.944 272.828 696.944 274.093C696.944 274.885 696.493 275.501 695.701 275.809C696.647 276.095 697.351 276.821 697.351 277.822C697.351 279.208 696.119 280.11 694.425 280.11C692.742 280.11 691.51 279.208 691.51 277.822C691.51 276.821 692.214 276.095 693.149 275.809C692.368 275.501 691.917 274.885 691.917 274.093C691.917 272.828 692.995 271.981 694.425 271.981ZM694.425 275.391C695.36 275.391 695.987 274.885 695.987 274.104C695.987 273.334 695.36 272.817 694.425 272.817C693.501 272.817 692.863 273.334 692.863 274.104C692.863 274.885 693.501 275.391 694.425 275.391ZM694.425 276.26C693.314 276.26 692.544 276.876 692.544 277.756C692.544 278.658 693.314 279.274 694.425 279.274C695.536 279.274 696.328 278.658 696.328 277.756C696.328 276.876 695.536 276.26 694.425 276.26ZM701.69 272.147L698.768 280H697.817L700.745 272.147H701.69ZM706.764 280H705.785V277.943H701.968V277.118L705.433 272.102H706.775V277.063H708.304V277.943H706.764V280ZM703.046 277.063H705.774V273.114L703.046 277.063ZM710.213 276.326L709.245 276.161L709.586 272.102H713.887V273.026H710.4L710.191 275.413C710.532 275.072 711.071 274.797 711.764 274.797C713.304 274.797 714.316 275.941 714.316 277.437C714.316 278.933 713.139 280.121 711.555 280.121C710.07 280.121 708.992 279.285 708.717 277.789L709.729 277.58C709.894 278.592 710.576 279.241 711.555 279.241C712.556 279.241 713.326 278.471 713.326 277.459C713.326 276.458 712.644 275.655 711.643 275.655C710.983 275.655 710.477 275.952 710.213 276.326ZM717.421 276.051C717.421 273.642 718.939 271.981 721.007 271.981C723.075 271.981 724.582 273.642 724.582 276.051C724.582 277.591 723.966 278.834 722.976 279.516C723.295 279.978 723.9 280.341 724.516 280.495L723.9 281.254C723.196 281.056 722.459 280.517 722.14 279.945C721.788 280.055 721.403 280.121 721.007 280.121C718.939 280.121 717.421 278.46 717.421 276.051ZM723.537 276.051C723.537 274.181 722.492 272.916 721.007 272.916C719.522 272.916 718.477 274.181 718.477 276.051C718.477 277.921 719.522 279.186 721.007 279.186C722.492 279.186 723.537 277.921 723.537 276.051ZM730.385 274.247V280H729.395V279.208C729.065 279.692 728.504 280.121 727.69 280.121C726.458 280.121 725.765 279.274 725.765 278.053V274.247H726.755V277.844C726.755 278.658 727.107 279.208 727.954 279.208C728.669 279.208 729.395 278.669 729.395 277.712V274.247H730.385ZM734.328 280.121C732.733 280.121 731.633 278.9 731.633 277.129C731.633 275.413 732.722 274.137 734.284 274.137C735.89 274.137 736.737 275.358 736.737 276.953V277.283H732.579C732.634 278.493 733.327 279.263 734.328 279.263C735.098 279.263 735.648 278.845 735.824 278.163L736.693 278.471C736.341 279.494 735.472 280.121 734.328 280.121ZM734.273 274.984C733.437 274.984 732.81 275.545 732.634 276.524H735.736C735.714 275.71 735.274 274.984 734.273 274.984ZM737.332 278.779L738.102 278.218C738.41 278.889 739.114 279.296 739.862 279.296C740.533 279.296 741.127 279.01 741.127 278.383C741.127 277.756 740.577 277.668 739.631 277.47C738.685 277.261 737.695 277.052 737.695 275.875C737.695 274.852 738.586 274.137 739.807 274.137C740.841 274.137 741.688 274.643 742.029 275.325L741.325 275.886C741.028 275.314 740.489 274.951 739.763 274.951C739.103 274.951 738.663 275.281 738.663 275.798C738.663 276.337 739.169 276.436 739.972 276.612C740.962 276.843 742.095 277.041 742.095 278.295C742.095 279.395 741.094 280.121 739.862 280.121C738.817 280.121 737.772 279.67 737.332 278.779ZM743.473 278.625V275.094H742.582V274.247H743.473V272.564H744.452V274.247H745.761V275.094H744.452V278.471C744.452 279.076 744.749 279.186 745.255 279.186C745.486 279.186 745.651 279.175 745.882 279.12V279.967C745.629 280.022 745.343 280.055 745.013 280.055C744.034 280.055 743.473 279.725 743.473 278.625ZM747.013 273.246V272.102H748.091V273.246H747.013ZM748.047 274.247V280H747.057V274.247H748.047ZM754.65 277.129C754.65 278.911 753.55 280.121 751.977 280.121C750.404 280.121 749.304 278.911 749.304 277.129C749.304 275.347 750.404 274.137 751.977 274.137C753.55 274.137 754.65 275.347 754.65 277.129ZM750.305 277.129C750.305 278.438 750.965 279.274 751.977 279.274C752.989 279.274 753.649 278.438 753.649 277.129C753.649 275.809 752.989 274.973 751.977 274.973C750.965 274.973 750.305 275.809 750.305 277.129ZM755.909 280V274.247H756.899V275.028C757.229 274.555 757.801 274.137 758.615 274.137C759.836 274.137 760.529 274.984 760.529 276.205V280H759.539V276.469C759.539 275.666 759.198 275.061 758.34 275.061C757.625 275.061 756.899 275.611 756.899 276.568V280H755.909ZM761.48 278.779L762.25 278.218C762.558 278.889 763.262 279.296 764.01 279.296C764.681 279.296 765.275 279.01 765.275 278.383C765.275 277.756 764.725 277.668 763.779 277.47C762.833 277.261 761.843 277.052 761.843 275.875C761.843 274.852 762.734 274.137 763.955 274.137C764.989 274.137 765.836 274.643 766.177 275.325L765.473 275.886C765.176 275.314 764.637 274.951 763.911 274.951C763.251 274.951 762.811 275.281 762.811 275.798C762.811 276.337 763.317 276.436 764.12 276.612C765.11 276.843 766.243 277.041 766.243 278.295C766.243 279.395 765.242 280.121 764.01 280.121C762.965 280.121 761.92 279.67 761.48 278.779ZM772.186 272.102H773.352L776.399 280H775.332L774.529 277.921H770.987L770.195 280H769.139L772.186 272.102ZM772.747 273.29L771.339 276.997H774.177L772.747 273.29ZM777.34 280V274.247H778.33V275.028C778.66 274.555 779.232 274.137 780.046 274.137C781.267 274.137 781.96 274.984 781.96 276.205V280H780.97V276.469C780.97 275.666 780.629 275.061 779.771 275.061C779.056 275.061 778.33 275.611 778.33 276.568V280H777.34ZM782.911 278.779L783.681 278.218C783.989 278.889 784.693 279.296 785.441 279.296C786.112 279.296 786.706 279.01 786.706 278.383C786.706 277.756 786.156 277.668 785.21 277.47C784.264 277.261 783.274 277.052 783.274 275.875C783.274 274.852 784.165 274.137 785.386 274.137C786.42 274.137 787.267 274.643 787.608 275.325L786.904 275.886C786.607 275.314 786.068 274.951 785.342 274.951C784.682 274.951 784.242 275.281 784.242 275.798C784.242 276.337 784.748 276.436 785.551 276.612C786.541 276.843 787.674 277.041 787.674 278.295C787.674 279.395 786.673 280.121 785.441 280.121C784.396 280.121 783.351 279.67 782.911 278.779ZM791.551 274.247H792.387L793.575 278.537L794.774 274.247H795.764L794.015 280H793.146L791.947 275.732L790.748 280H789.879L788.13 274.247H789.153L790.363 278.526L791.551 274.247ZM798.921 280.121C797.326 280.121 796.226 278.9 796.226 277.129C796.226 275.413 797.315 274.137 798.877 274.137C800.483 274.137 801.33 275.358 801.33 276.953V277.283H797.172C797.227 278.493 797.92 279.263 798.921 279.263C799.691 279.263 800.241 278.845 800.417 278.163L801.286 278.471C800.934 279.494 800.065 280.121 798.921 280.121ZM798.866 274.984C798.03 274.984 797.403 275.545 797.227 276.524H800.329C800.307 275.71 799.867 274.984 798.866 274.984ZM805.543 274.225V275.226C805.378 275.193 805.246 275.182 805.059 275.182C804.223 275.182 803.552 275.842 803.552 276.854V280H802.562V274.247H803.552V275.226C803.805 274.643 804.366 274.203 805.147 274.203C805.301 274.203 805.444 274.214 805.543 274.225ZM808.696 280.121C807.101 280.121 806.001 278.9 806.001 277.129C806.001 275.413 807.09 274.137 808.652 274.137C810.258 274.137 811.105 275.358 811.105 276.953V277.283H806.947C807.002 278.493 807.695 279.263 808.696 279.263C809.466 279.263 810.016 278.845 810.192 278.163L811.061 278.471C810.709 279.494 809.84 280.121 808.696 280.121ZM808.641 274.984C807.805 274.984 807.178 275.545 807.002 276.524H810.104C810.082 275.71 809.642 274.984 808.641 274.984ZM814.45 280.121C812.855 280.121 811.942 278.757 811.942 277.129C811.942 275.49 812.855 274.137 814.45 274.137C815.253 274.137 815.891 274.522 816.232 275.083V272.102H817.222V280H816.232V279.164C815.891 279.736 815.253 280.121 814.45 280.121ZM816.254 276.931C816.254 275.589 815.44 275.006 814.626 275.006C813.548 275.006 812.943 275.886 812.943 277.129C812.943 278.361 813.548 279.252 814.626 279.252C815.44 279.252 816.254 278.658 816.254 277.338V276.931Z" fill="#B0B0B0"/>
<g filter="url(#filter2_d_736_2993)">
<rect x="344" y="61" width="209" height="151" rx="16" fill="white" fill-opacity="0.84" shape-rendering="crispEdges"/>
</g>
<rect x="375.178" y="170.053" width="179.726" height="22.5331" rx="4" fill="#FFC7C7" fill-opacity="0.78"/>
<path d="M498.335 178.716C499.252 178.716 499.938 179.255 499.938 180.06C499.938 180.564 499.651 180.956 499.147 181.152C499.749 181.334 500.197 181.796 500.197 182.433C500.197 183.315 499.413 183.889 498.335 183.889C497.264 183.889 496.48 183.315 496.48 182.433C496.48 181.796 496.928 181.334 497.523 181.152C497.026 180.956 496.739 180.564 496.739 180.06C496.739 179.255 497.425 178.716 498.335 178.716ZM498.335 180.886C498.93 180.886 499.329 180.564 499.329 180.067C499.329 179.577 498.93 179.248 498.335 179.248C497.747 179.248 497.341 179.577 497.341 180.067C497.341 180.564 497.747 180.886 498.335 180.886ZM498.335 181.439C497.628 181.439 497.138 181.831 497.138 182.391C497.138 182.965 497.628 183.357 498.335 183.357C499.042 183.357 499.546 182.965 499.546 182.391C499.546 181.831 499.042 181.439 498.335 181.439ZM500.637 181.306C500.637 179.773 501.358 178.716 502.555 178.716C503.745 178.716 504.466 179.773 504.466 181.306C504.466 182.839 503.745 183.896 502.555 183.896C501.358 183.896 500.637 182.839 500.637 181.306ZM501.309 181.306C501.309 182.482 501.736 183.308 502.555 183.308C503.367 183.308 503.801 182.482 503.801 181.306C503.801 180.13 503.367 179.304 502.555 179.304C501.736 179.304 501.309 180.13 501.309 181.306ZM505.587 180.312C505.587 180.688 505.627 180.972 505.707 181.163C505.789 181.353 505.918 181.447 506.096 181.447C506.456 181.447 506.636 181.069 506.636 180.312C506.636 179.56 506.456 179.184 506.096 179.184C505.918 179.184 505.789 179.279 505.707 179.468C505.627 179.655 505.587 179.936 505.587 180.312ZM507.149 180.312C507.149 180.832 507.059 181.225 506.879 181.492C506.701 181.756 506.44 181.888 506.096 181.888C505.773 181.888 505.521 181.752 505.341 181.481C505.163 181.208 505.074 180.818 505.074 180.312C505.074 179.791 505.161 179.4 505.334 179.14C505.509 178.88 505.764 178.75 506.096 178.75C506.431 178.75 506.69 178.886 506.872 179.157C507.057 179.426 507.149 179.811 507.149 180.312ZM508.646 182.315C508.646 182.696 508.686 182.98 508.766 183.166C508.848 183.353 508.978 183.447 509.155 183.447C509.34 183.447 509.475 183.354 509.562 183.17C509.651 182.983 509.695 182.698 509.695 182.315C509.695 181.568 509.515 181.194 509.155 181.194C508.978 181.194 508.848 181.288 508.766 181.474C508.686 181.659 508.646 181.939 508.646 182.315ZM510.208 182.315C510.208 182.833 510.118 183.224 509.938 183.491C509.758 183.755 509.497 183.888 509.155 183.888C508.832 183.888 508.58 183.752 508.4 183.481C508.222 183.207 508.133 182.819 508.133 182.315C508.133 181.793 508.22 181.403 508.393 181.143C508.566 180.883 508.82 180.753 509.155 180.753C509.49 180.753 509.749 180.889 509.931 181.16C510.116 181.429 510.208 181.814 510.208 182.315ZM509.295 178.822L506.523 183.819H505.987L508.759 178.822H509.295ZM512.929 181.992C512.929 182.825 513.377 183.343 514.028 183.343C514.532 183.343 514.833 183.021 514.938 182.566L515.498 182.825C515.323 183.434 514.791 183.896 514.028 183.896C513.006 183.896 512.299 183.119 512.299 181.992C512.299 180.858 513.006 180.088 514.028 180.088C514.791 180.088 515.309 180.529 515.484 181.138L514.938 181.411C514.833 180.963 514.532 180.634 514.028 180.634C513.377 180.634 512.929 181.152 512.929 181.992ZM519.338 181.992C519.338 183.126 518.638 183.896 517.637 183.896C516.636 183.896 515.936 183.126 515.936 181.992C515.936 180.858 516.636 180.088 517.637 180.088C518.638 180.088 519.338 180.858 519.338 181.992ZM516.573 181.992C516.573 182.825 516.993 183.357 517.637 183.357C518.281 183.357 518.701 182.825 518.701 181.992C518.701 181.152 518.281 180.62 517.637 180.62C516.993 180.62 516.573 181.152 516.573 181.992ZM520.769 181.628V183.819H520.139V180.158H520.769V180.655C520.965 180.354 521.315 180.088 521.826 180.088C522.316 180.088 522.659 180.333 522.841 180.711C523.044 180.41 523.436 180.088 524.01 180.088C524.766 180.088 525.221 180.627 525.221 181.404V183.819H524.591V181.572C524.591 181.061 524.381 180.676 523.863 180.676C523.443 180.676 522.995 181.033 522.995 181.628V183.819H522.365V181.572C522.365 181.061 522.155 180.676 521.637 180.676C521.217 180.676 520.769 181.033 520.769 181.628ZM528.001 183.896C527.49 183.896 527.084 183.651 526.867 183.287V185.079H526.237V180.158H526.867V180.69C527.084 180.333 527.49 180.088 528.001 180.088C529.016 180.088 529.597 180.949 529.597 181.992C529.597 183.028 529.016 183.896 528.001 183.896ZM526.853 181.866V182.125C526.853 182.965 527.371 183.343 527.889 183.343C528.575 183.343 528.96 182.776 528.96 181.992C528.96 181.201 528.575 180.641 527.889 180.641C527.371 180.641 526.853 181.012 526.853 181.866ZM531.023 178.793V183.819H530.393V178.793H531.023ZM533.538 183.896C532.523 183.896 531.823 183.119 531.823 181.992C531.823 180.9 532.516 180.088 533.51 180.088C534.532 180.088 535.071 180.865 535.071 181.88V182.09H532.425C532.46 182.86 532.901 183.35 533.538 183.35C534.028 183.35 534.378 183.084 534.49 182.65L535.043 182.846C534.819 183.497 534.266 183.896 533.538 183.896ZM533.503 180.627C532.971 180.627 532.572 180.984 532.46 181.607H534.434C534.42 181.089 534.14 180.627 533.503 180.627ZM535.953 182.944V180.697H535.386V180.158H535.953V179.087H536.576V180.158H537.409V180.697H536.576V182.846C536.576 183.231 536.765 183.301 537.087 183.301C537.234 183.301 537.339 183.294 537.486 183.259V183.798C537.325 183.833 537.143 183.854 536.933 183.854C536.31 183.854 535.953 183.644 535.953 182.944ZM538.206 179.521V178.793H538.892V179.521H538.206ZM538.864 180.158V183.819H538.234V180.158H538.864ZM543.066 181.992C543.066 183.126 542.366 183.896 541.365 183.896C540.364 183.896 539.664 183.126 539.664 181.992C539.664 180.858 540.364 180.088 541.365 180.088C542.366 180.088 543.066 180.858 543.066 181.992ZM540.301 181.992C540.301 182.825 540.721 183.357 541.365 183.357C542.009 183.357 542.429 182.825 542.429 181.992C542.429 181.152 542.009 180.62 541.365 180.62C540.721 180.62 540.301 181.152 540.301 181.992ZM543.867 183.819V180.158H544.497V180.655C544.707 180.354 545.071 180.088 545.589 180.088C546.366 180.088 546.807 180.627 546.807 181.404V183.819H546.177V181.572C546.177 181.061 545.96 180.676 545.414 180.676C544.959 180.676 544.497 181.026 544.497 181.635V183.819H543.867Z" fill="#414141"/>
<rect x="384" y="178" width="102" height="6" rx="3" fill="#FF5656"/>
<rect x="375.179" y="88.6704" width="8.48102" height="8.48102" rx="4.24051" fill="#FF5656"/>
<path d="M402.456 85.64V100H400.216L393.096 89.46V100H390.636V85.64H393.276L399.996 95.7V85.64H402.456ZM405.168 100V85.64H409.968C414.428 85.64 417.188 88.44 417.188 92.82C417.188 97.2 414.428 100 409.968 100H405.168ZM407.668 97.8H409.968C412.928 97.8 414.668 95.84 414.668 92.82C414.668 89.78 412.928 87.84 409.948 87.84H407.668V97.8ZM421.751 94.44V100H419.191V85.64H424.931C428.131 85.64 430.131 87.14 430.131 90.04C430.131 92.9 428.131 94.44 424.931 94.44H421.751ZM421.751 92.24H424.791C426.631 92.24 427.611 91.44 427.611 90.04C427.611 88.62 426.631 87.84 424.791 87.84H421.751V92.24ZM434.388 94.44V100H431.828V85.64H437.568C440.768 85.64 442.768 87.14 442.768 90.04C442.768 92.3 441.528 93.74 439.428 94.24L443.128 100H440.208L436.708 94.44H434.388ZM434.388 92.24H437.428C439.268 92.24 440.248 91.44 440.248 90.04C440.248 88.62 439.268 87.84 437.428 87.84H434.388V92.24Z" fill="#414141"/>
<path d="M376.048 123V115.102H378.556C380.954 115.102 382.472 116.642 382.472 119.051C382.472 121.46 380.954 123 378.556 123H376.048ZM377.082 122.087H378.556C380.349 122.087 381.438 120.888 381.438 119.051C381.438 117.203 380.349 116.015 378.545 116.015H377.082V122.087ZM388.667 120.129C388.667 121.911 387.567 123.121 385.994 123.121C384.421 123.121 383.321 121.911 383.321 120.129C383.321 118.347 384.421 117.137 385.994 117.137C387.567 117.137 388.667 118.347 388.667 120.129ZM384.322 120.129C384.322 121.438 384.982 122.274 385.994 122.274C387.006 122.274 387.666 121.438 387.666 120.129C387.666 118.809 387.006 117.973 385.994 117.973C384.982 117.973 384.322 118.809 384.322 120.129ZM390.52 120.129C390.52 121.438 391.224 122.252 392.247 122.252C393.039 122.252 393.512 121.746 393.677 121.031L394.557 121.438C394.282 122.395 393.446 123.121 392.247 123.121C390.641 123.121 389.53 121.9 389.53 120.129C389.53 118.347 390.641 117.137 392.247 117.137C393.446 117.137 394.26 117.83 394.535 118.787L393.677 119.216C393.512 118.512 393.039 117.995 392.247 117.995C391.224 117.995 390.52 118.809 390.52 120.129ZM400.205 117.247V123H399.215V122.208C398.885 122.692 398.324 123.121 397.51 123.121C396.278 123.121 395.585 122.274 395.585 121.053V117.247H396.575V120.844C396.575 121.658 396.927 122.208 397.774 122.208C398.489 122.208 399.215 121.669 399.215 120.712V117.247H400.205ZM402.839 119.557V123H401.849V117.247H402.839V118.028C403.147 117.555 403.697 117.137 404.5 117.137C405.27 117.137 405.809 117.522 406.095 118.116C406.414 117.643 407.03 117.137 407.932 117.137C409.12 117.137 409.835 117.984 409.835 119.205V123H408.845V119.469C408.845 118.666 408.515 118.061 407.701 118.061C407.041 118.061 406.337 118.622 406.337 119.557V123H405.347V119.469C405.347 118.666 405.017 118.061 404.203 118.061C403.543 118.061 402.839 118.622 402.839 119.557ZM413.73 123.121C412.135 123.121 411.035 121.9 411.035 120.129C411.035 118.413 412.124 117.137 413.686 117.137C415.292 117.137 416.139 118.358 416.139 119.953V120.283H411.981C412.036 121.493 412.729 122.263 413.73 122.263C414.5 122.263 415.05 121.845 415.226 121.163L416.095 121.471C415.743 122.494 414.874 123.121 413.73 123.121ZM413.675 117.984C412.839 117.984 412.212 118.545 412.036 119.524H415.138C415.116 118.71 414.676 117.984 413.675 117.984ZM417.372 123V117.247H418.362V118.028C418.692 117.555 419.264 117.137 420.078 117.137C421.299 117.137 421.992 117.984 421.992 119.205V123H421.002V119.469C421.002 118.666 420.661 118.061 419.803 118.061C419.088 118.061 418.362 118.611 418.362 119.568V123H417.372ZM423.735 121.625V118.094H422.844V117.247H423.735V115.564H424.714V117.247H426.023V118.094H424.714V121.471C424.714 122.076 425.011 122.186 425.517 122.186C425.748 122.186 425.913 122.175 426.144 122.12V122.967C425.891 123.022 425.605 123.055 425.275 123.055C424.296 123.055 423.735 122.725 423.735 121.625ZM426.681 121.779L427.451 121.218C427.759 121.889 428.463 122.296 429.211 122.296C429.882 122.296 430.476 122.01 430.476 121.383C430.476 120.756 429.926 120.668 428.98 120.47C428.034 120.261 427.044 120.052 427.044 118.875C427.044 117.852 427.935 117.137 429.156 117.137C430.19 117.137 431.037 117.643 431.378 118.325L430.674 118.886C430.377 118.314 429.838 117.951 429.112 117.951C428.452 117.951 428.012 118.281 428.012 118.798C428.012 119.337 428.518 119.436 429.321 119.612C430.311 119.843 431.444 120.041 431.444 121.295C431.444 122.395 430.443 123.121 429.211 123.121C428.166 123.121 427.121 122.67 426.681 121.779ZM437.761 123.121C436.958 123.121 436.32 122.736 435.979 122.164V124.98H434.989V117.247H435.979V118.083C436.32 117.522 436.958 117.137 437.761 117.137C439.356 117.137 440.269 118.49 440.269 120.129C440.269 121.757 439.356 123.121 437.761 123.121ZM435.957 119.931V120.338C435.957 121.658 436.771 122.252 437.585 122.252C438.663 122.252 439.268 121.361 439.268 120.129C439.268 118.886 438.663 118.006 437.585 118.006C436.771 118.006 435.957 118.589 435.957 119.931ZM443.819 123.121C442.224 123.121 441.124 121.9 441.124 120.129C441.124 118.413 442.213 117.137 443.775 117.137C445.381 117.137 446.228 118.358 446.228 119.953V120.283H442.07C442.125 121.493 442.818 122.263 443.819 122.263C444.589 122.263 445.139 121.845 445.315 121.163L446.184 121.471C445.832 122.494 444.963 123.121 443.819 123.121ZM443.764 117.984C442.928 117.984 442.301 118.545 442.125 119.524H445.227C445.205 118.71 444.765 117.984 443.764 117.984ZM447.461 123V117.247H448.451V118.028C448.781 117.555 449.353 117.137 450.167 117.137C451.388 117.137 452.081 117.984 452.081 119.205V123H451.091V119.469C451.091 118.666 450.75 118.061 449.892 118.061C449.177 118.061 448.451 118.611 448.451 119.568V123H447.461ZM455.782 123.121C454.187 123.121 453.274 121.757 453.274 120.129C453.274 118.49 454.187 117.137 455.782 117.137C456.585 117.137 457.223 117.522 457.564 118.083V115.102H458.554V123H457.564V122.164C457.223 122.736 456.585 123.121 455.782 123.121ZM457.586 119.931C457.586 118.589 456.772 118.006 455.958 118.006C454.88 118.006 454.275 118.886 454.275 120.129C454.275 121.361 454.88 122.252 455.958 122.252C456.772 122.252 457.586 121.658 457.586 120.338V119.931ZM460.146 116.246V115.102H461.224V116.246H460.146ZM461.18 117.247V123H460.19V117.247H461.18ZM462.833 123V117.247H463.823V118.028C464.153 117.555 464.725 117.137 465.539 117.137C466.76 117.137 467.453 117.984 467.453 119.205V123H466.463V119.469C466.463 118.666 466.122 118.061 465.264 118.061C464.549 118.061 463.823 118.611 463.823 119.568V123H462.833ZM473.915 122.483C473.915 124.166 472.804 125.101 471.242 125.101C469.977 125.101 469.053 124.518 468.734 123.462L469.658 123.11C469.845 123.847 470.439 124.276 471.242 124.276C472.254 124.276 472.925 123.759 472.925 122.56V121.911C472.617 122.472 471.968 122.868 471.165 122.868C469.592 122.868 468.668 121.57 468.668 119.997C468.668 118.435 469.592 117.137 471.165 117.137C471.957 117.137 472.617 117.533 472.925 118.094V117.247H473.915V122.483ZM472.936 119.909C472.936 118.622 472.166 118.006 471.341 118.006C470.296 118.006 469.658 118.787 469.658 119.997C469.658 121.207 470.296 121.999 471.341 121.999C472.166 121.999 472.936 121.383 472.936 120.118V119.909Z" fill="#414141"/>
<path d="M981 0.85791V205.641" stroke="url(#paint0_linear_736_2993)"/>
<defs>
<filter id="filter0_d_736_2993" x="0" y="90" width="358.808" height="323.578" filterUnits="userSpaceOnUse" color-interpolation-filters="sRGB">
<feFlood flood-opacity="0" result="BackgroundImageFix"/>
<feColorMatrix in="SourceAlpha" type="matrix" values="0 0 0 0 0 0 0 0 0 0 0 0 0 0 0 0 0 0 127 0" result="hardAlpha"/>
<feOffset dy="40"/>
<feGaussianBlur stdDeviation="37.5"/>
<feComposite in2="hardAlpha" operator="out"/>
<feColorMatrix type="matrix" values="0 0 0 0 1 0 0 0 0 0.886111 0 0 0 0 0.886111 0 0 0 1 0"/>
<feBlend mode="normal" in2="BackgroundImageFix" result="effect1_dropShadow_736_2993"/>
<feBlend mode="normal" in="SourceGraphic" in2="effect1_dropShadow_736_2993" result="shape"/>
</filter>
<filter id="filter1_d_736_2993" x="543" y="94" width="444" height="324" filterUnits="userSpaceOnUse" color-interpolation-filters="sRGB">
<feFlood flood-opacity="0" result="BackgroundImageFix"/>
<feColorMatrix in="SourceAlpha" type="matrix" values="0 0 0 0 0 0 0 0 0 0 0 0 0 0 0 0 0 0 127 0" result="hardAlpha"/>
<feOffset dy="40"/>
<feGaussianBlur stdDeviation="37.5"/>
<feComposite in2="hardAlpha" operator="out"/>
<feColorMatrix type="matrix" values="0 0 0 0 1 0 0 0 0 1 0 0 0 0 1 0 0 0 1 0"/>
<feBlend mode="normal" in2="BackgroundImageFix" result="effect1_dropShadow_736_2993"/>
<feBlend mode="normal" in="SourceGraphic" in2="effect1_dropShadow_736_2993" result="shape"/>
</filter>
<filter id="filter2_d_736_2993" x="269" y="26" width="359" height="301" filterUnits="userSpaceOnUse" color-interpolation-filters="sRGB">
<feFlood flood-opacity="0" result="BackgroundImageFix"/>
<feColorMatrix in="SourceAlpha" type="matrix" values="0 0 0 0 0 0 0 0 0 0 0 0 0 0 0 0 0 0 127 0" result="hardAlpha"/>
<feOffset dy="40"/>
<feGaussianBlur stdDeviation="37.5"/>
<feComposite in2="hardAlpha" operator="out"/>
<feColorMatrix type="matrix" values="0 0 0 0 1 0 0 0 0 1 0 0 0 0 1 0 0 0 1 0"/>
<feBlend mode="normal" in2="BackgroundImageFix" result="effect1_dropShadow_736_2993"/>
<feBlend mode="normal" in="SourceGraphic" in2="effect1_dropShadow_736_2993" result="shape"/>
</filter>
<linearGradient id="paint0_linear_736_2993" x1="981.5" y1="0.85791" x2="981.5" y2="205.641" gradientUnits="userSpaceOnUse">
<stop stop-color="#FFC87F"/>
<stop offset="1" stop-color="#FFC87F" stop-opacity="0"/>
</linearGradient>
</defs>
</svg>
