<svg width="166" height="55" viewBox="0 0 166 55" fill="none" xmlns="http://www.w3.org/2000/svg">
<path fill-rule="evenodd" clip-rule="evenodd" d="M19.9997 0C12.2677 0 5.99969 6.26801 5.99969 14V32C5.99969 33.7768 6.33069 35.4763 6.93438 37.0402L0.189955 51.7827C-0.621658 53.5568 1.3273 55.3243 3.0139 54.3437L17.6912 45.8106C18.4422 45.9352 19.2134 46 19.9997 46H152C159.732 46 166 39.732 166 32V14C166 6.26801 159.732 0 152 0H19.9997Z" fill="#E7D5FF"/>
<path d="M29.394 22.538C29.394 25.598 31.086 27.668 33.48 27.668C35.154 27.668 36.36 26.696 36.828 25.058L38.466 25.598C37.71 27.83 35.946 29.198 33.48 29.198C30.132 29.198 27.666 26.48 27.666 22.538C27.666 18.596 30.132 15.878 33.48 15.878C35.946 15.878 37.71 17.246 38.466 19.478L36.828 20.018C36.36 18.38 35.154 17.408 33.48 17.408C31.086 17.408 29.394 19.478 29.394 22.538ZM45.0932 19.55V21.188C44.8232 21.134 44.6072 21.116 44.3012 21.116C42.9332 21.116 41.8352 22.196 41.8352 23.852V29H40.2152V19.586H41.8352V21.188C42.2492 20.234 43.1672 19.514 44.4452 19.514C44.6972 19.514 44.9312 19.532 45.0932 19.55ZM50.2526 29.198C47.6426 29.198 45.8426 27.2 45.8426 24.302C45.8426 21.494 47.6246 19.406 50.1806 19.406C52.8086 19.406 54.1946 21.404 54.1946 24.014V24.554H47.3906C47.4806 26.534 48.6146 27.794 50.2526 27.794C51.5126 27.794 52.4126 27.11 52.7006 25.994L54.1226 26.498C53.5466 28.172 52.1246 29.198 50.2526 29.198ZM50.1626 20.792C48.7946 20.792 47.7686 21.71 47.4806 23.312H52.5566C52.5206 21.98 51.8006 20.792 50.1626 20.792ZM58.6748 29.162C56.9648 29.162 55.5788 28.154 55.5788 26.462C55.5788 24.59 57.0368 23.816 59.1428 23.384L61.4288 22.916V22.52C61.4288 21.44 60.8348 20.828 59.5748 20.828C58.3868 20.828 57.6848 21.386 57.3968 22.43L55.8668 22.034C56.3168 20.504 57.7028 19.406 59.6288 19.406C61.7348 19.406 63.0308 20.432 63.0308 22.448V27.038C63.0308 27.65 63.4088 27.848 64.0388 27.704V29C62.5988 29.18 61.7708 28.838 61.5728 27.938C60.9968 28.676 59.9528 29.162 58.6748 29.162ZM61.4288 25.796V24.176L59.5928 24.572C58.1528 24.86 57.1808 25.256 57.1808 26.39C57.1808 27.308 57.8468 27.848 58.8728 27.848C60.2588 27.848 61.4288 27.002 61.4288 25.796ZM66.0434 26.75V20.972H64.5854V19.586H66.0434V16.832H67.6454V19.586H69.7874V20.972H67.6454V26.498C67.6454 27.488 68.1314 27.668 68.9594 27.668C69.3374 27.668 69.6074 27.65 69.9854 27.56V28.946C69.5714 29.036 69.1034 29.09 68.5634 29.09C66.9614 29.09 66.0434 28.55 66.0434 26.75ZM75.6179 29.198C73.0079 29.198 71.2079 27.2 71.2079 24.302C71.2079 21.494 72.9899 19.406 75.5459 19.406C78.1739 19.406 79.5599 21.404 79.5599 24.014V24.554H72.7559C72.8459 26.534 73.9799 27.794 75.6179 27.794C76.8779 27.794 77.7779 27.11 78.0659 25.994L79.4879 26.498C78.9119 28.172 77.4899 29.198 75.6179 29.198ZM75.5279 20.792C74.1599 20.792 73.1339 21.71 72.8459 23.312H77.9219C77.8859 21.98 77.1659 20.792 75.5279 20.792ZM87.7314 29.162C86.0214 29.162 84.6354 28.154 84.6354 26.462C84.6354 24.59 86.0934 23.816 88.1994 23.384L90.4854 22.916V22.52C90.4854 21.44 89.8914 20.828 88.6314 20.828C87.4434 20.828 86.7414 21.386 86.4534 22.43L84.9234 22.034C85.3734 20.504 86.7594 19.406 88.6854 19.406C90.7914 19.406 92.0874 20.432 92.0874 22.448V27.038C92.0874 27.65 92.4654 27.848 93.0954 27.704V29C91.6554 29.18 90.8274 28.838 90.6294 27.938C90.0534 28.676 89.0094 29.162 87.7314 29.162ZM90.4854 25.796V24.176L88.6494 24.572C87.2094 24.86 86.2374 25.256 86.2374 26.39C86.2374 27.308 86.9034 27.848 87.9294 27.848C89.3154 27.848 90.4854 27.002 90.4854 25.796ZM95.82 24.302C95.82 26.444 96.972 27.776 98.646 27.776C99.942 27.776 100.716 26.948 100.986 25.778L102.426 26.444C101.976 28.01 100.608 29.198 98.646 29.198C96.018 29.198 94.2 27.2 94.2 24.302C94.2 21.386 96.018 19.406 98.646 19.406C100.608 19.406 101.94 20.54 102.39 22.106L100.986 22.808C100.716 21.656 99.942 20.81 98.646 20.81C96.972 20.81 95.82 22.142 95.82 24.302ZM105.172 24.302C105.172 26.444 106.324 27.776 107.998 27.776C109.294 27.776 110.068 26.948 110.338 25.778L111.778 26.444C111.328 28.01 109.96 29.198 107.998 29.198C105.37 29.198 103.552 27.2 103.552 24.302C103.552 21.386 105.37 19.406 107.998 19.406C109.96 19.406 111.292 20.54 111.742 22.106L110.338 22.808C110.068 21.656 109.294 20.81 107.998 20.81C106.324 20.81 105.172 22.142 105.172 24.302ZM121.651 24.302C121.651 27.218 119.851 29.198 117.277 29.198C114.703 29.198 112.903 27.218 112.903 24.302C112.903 21.386 114.703 19.406 117.277 19.406C119.851 19.406 121.651 21.386 121.651 24.302ZM114.541 24.302C114.541 26.444 115.621 27.812 117.277 27.812C118.933 27.812 120.013 26.444 120.013 24.302C120.013 22.142 118.933 20.774 117.277 20.774C115.621 20.774 114.541 22.142 114.541 24.302ZM131.181 19.586V29H129.561V27.704C129.021 28.496 128.103 29.198 126.771 29.198C124.755 29.198 123.621 27.812 123.621 25.814V19.586H125.241V25.472C125.241 26.804 125.817 27.704 127.203 27.704C128.373 27.704 129.561 26.822 129.561 25.256V19.586H131.181ZM133.871 29V19.586H135.491V20.864C136.031 20.09 136.967 19.406 138.299 19.406C140.297 19.406 141.431 20.792 141.431 22.79V29H139.811V23.222C139.811 21.908 139.253 20.918 137.849 20.918C136.679 20.918 135.491 21.818 135.491 23.384V29H133.871ZM144.284 26.75V20.972H142.826V19.586H144.284V16.832H145.886V19.586H148.028V20.972H145.886V26.498C145.886 27.488 146.372 27.668 147.2 27.668C147.578 27.668 147.848 27.65 148.226 27.56V28.946C147.812 29.036 147.344 29.09 146.804 29.09C145.202 29.09 144.284 28.55 144.284 26.75Z" fill="#414141"/>
</svg>
