<svg width="123" height="55" viewBox="0 0 123 55" fill="none" xmlns="http://www.w3.org/2000/svg">
<path fill-rule="evenodd" clip-rule="evenodd" d="M20.0915 0C12.3595 0 6.09149 6.26801 6.09149 14V32C6.09149 33.7354 6.40725 35.3971 6.98446 36.9307L0.189955 51.7827C-0.621658 53.5568 1.3273 55.3243 3.0139 54.3437L17.7119 45.7986C18.4853 45.931 19.2803 46 20.0915 46H108.091C115.823 46 122.091 39.732 122.091 32V14C122.091 6.26801 115.823 0 108.091 0H20.0915Z" fill="#E7D5FF"/>
<path d="M36.072 26.336L37.422 25.256C38.232 26.804 39.69 27.704 41.364 27.704C43.038 27.704 44.334 26.876 44.334 25.4C44.334 23.834 42.84 23.564 40.878 23.096C38.844 22.61 36.828 22.052 36.828 19.622C36.828 17.354 38.79 15.878 41.238 15.878C43.488 15.878 45.108 16.958 45.882 18.416L44.568 19.46C43.902 18.218 42.876 17.372 41.202 17.372C39.636 17.372 38.502 18.236 38.502 19.478C38.502 20.846 39.708 21.134 41.526 21.566C43.668 22.07 46.026 22.52 46.026 25.256C46.026 27.668 43.884 29.198 41.328 29.198C39.096 29.198 36.954 28.082 36.072 26.336ZM47.8425 17.948V16.076H49.6065V17.948H47.8425ZM49.5345 19.586V29H47.9145V19.586H49.5345ZM60.2127 28.154C60.2127 30.908 58.3947 32.438 55.8387 32.438C53.7687 32.438 52.2567 31.484 51.7347 29.756L53.2467 29.18C53.5527 30.386 54.5247 31.088 55.8387 31.088C57.4947 31.088 58.5927 30.242 58.5927 28.28V27.218C58.0887 28.136 57.0267 28.784 55.7127 28.784C53.1387 28.784 51.6267 26.66 51.6267 24.086C51.6267 21.53 53.1387 19.406 55.7127 19.406C57.0087 19.406 58.0887 20.054 58.5927 20.972V19.586H60.2127V28.154ZM58.6107 23.942C58.6107 21.836 57.3507 20.828 56.0007 20.828C54.2907 20.828 53.2467 22.106 53.2467 24.086C53.2467 26.066 54.2907 27.362 56.0007 27.362C57.3507 27.362 58.6107 26.354 58.6107 24.284V23.942ZM62.9086 29V19.586H64.5286V20.864C65.0686 20.09 66.0046 19.406 67.3366 19.406C69.3346 19.406 70.4686 20.792 70.4686 22.79V29H68.8486V23.222C68.8486 21.908 68.2906 20.918 66.8866 20.918C65.7166 20.918 64.5286 21.818 64.5286 23.384V29H62.9086ZM76.7936 17.948V16.076H78.5576V17.948H76.7936ZM78.4856 19.586V29H76.8656V19.586H78.4856ZM81.1898 29V19.586H82.8098V20.864C83.3498 20.09 84.2858 19.406 85.6178 19.406C87.6158 19.406 88.7498 20.792 88.7498 22.79V29H87.1298V23.222C87.1298 21.908 86.5718 20.918 85.1678 20.918C83.9978 20.918 82.8098 21.818 82.8098 23.384V29H81.1898Z" fill="#414141"/>
</svg>
