<svg width="645" height="548" viewBox="0 0 645 548" fill="none" xmlns="http://www.w3.org/2000/svg">
<g filter="url(#filter0_d_717_2976)">
<rect x="295" y="35.2037" width="208.808" height="173.578" rx="16" fill="white" fill-opacity="0.84" shape-rendering="crispEdges"/>
</g>
<rect x="337.84" y="160.115" width="179.726" height="22.5331" rx="4" fill="#E2E3FF"/>
<path d="M461.851 169.436H459.562V170.297H458.974V168.855H462.565V169.436C461.333 170.801 460.976 172.068 460.976 173.881H460.297C460.297 171.928 460.836 170.563 461.851 169.436ZM462.8 171.368C462.8 169.835 463.521 168.778 464.718 168.778C465.908 168.778 466.629 169.835 466.629 171.368C466.629 172.901 465.908 173.958 464.718 173.958C463.521 173.958 462.8 172.901 462.8 171.368ZM463.472 171.368C463.472 172.544 463.899 173.37 464.718 173.37C465.53 173.37 465.964 172.544 465.964 171.368C465.964 170.192 465.53 169.366 464.718 169.366C463.899 169.366 463.472 170.192 463.472 171.368ZM467.75 170.374C467.75 170.75 467.789 171.034 467.869 171.225C467.951 171.415 468.081 171.509 468.259 171.509C468.619 171.509 468.799 171.131 468.799 170.374C468.799 169.622 468.619 169.246 468.259 169.246C468.081 169.246 467.951 169.341 467.869 169.53C467.789 169.717 467.75 169.998 467.75 170.374ZM469.312 170.374C469.312 170.894 469.222 171.287 469.042 171.554C468.864 171.818 468.603 171.95 468.259 171.95C467.935 171.95 467.683 171.814 467.503 171.543C467.326 171.27 467.237 170.88 467.237 170.374C467.237 169.853 467.323 169.462 467.497 169.202C467.672 168.942 467.926 168.812 468.259 168.812C468.594 168.812 468.852 168.948 469.035 169.219C469.219 169.488 469.312 169.873 469.312 170.374ZM470.809 172.377C470.809 172.758 470.848 173.041 470.928 173.228C471.01 173.415 471.14 173.509 471.318 173.509C471.502 173.509 471.638 173.416 471.725 173.232C471.813 173.045 471.858 172.76 471.858 172.377C471.858 171.63 471.678 171.256 471.318 171.256C471.14 171.256 471.01 171.35 470.928 171.536C470.848 171.721 470.809 172.001 470.809 172.377ZM472.371 172.377C472.371 172.895 472.281 173.286 472.101 173.553C471.921 173.817 471.66 173.95 471.318 173.95C470.994 173.95 470.743 173.814 470.562 173.543C470.385 173.269 470.296 172.881 470.296 172.377C470.296 171.855 470.382 171.465 470.556 171.205C470.729 170.945 470.983 170.815 471.318 170.815C471.653 170.815 471.911 170.951 472.094 171.222C472.278 171.491 472.371 171.876 472.371 172.377ZM471.458 168.884L468.686 173.881H468.149L470.921 168.884H471.458ZM475.092 172.054C475.092 172.887 475.54 173.405 476.191 173.405C476.695 173.405 476.996 173.083 477.101 172.628L477.661 172.887C477.486 173.496 476.954 173.958 476.191 173.958C475.169 173.958 474.462 173.181 474.462 172.054C474.462 170.92 475.169 170.15 476.191 170.15C476.954 170.15 477.472 170.591 477.647 171.2L477.101 171.473C476.996 171.025 476.695 170.696 476.191 170.696C475.54 170.696 475.092 171.214 475.092 172.054ZM481.501 172.054C481.501 173.188 480.801 173.958 479.8 173.958C478.799 173.958 478.099 173.188 478.099 172.054C478.099 170.92 478.799 170.15 479.8 170.15C480.801 170.15 481.501 170.92 481.501 172.054ZM478.736 172.054C478.736 172.887 479.156 173.419 479.8 173.419C480.444 173.419 480.864 172.887 480.864 172.054C480.864 171.214 480.444 170.682 479.8 170.682C479.156 170.682 478.736 171.214 478.736 172.054ZM482.932 171.69V173.881H482.302V170.22H482.932V170.717C483.128 170.416 483.478 170.15 483.989 170.15C484.479 170.15 484.822 170.395 485.004 170.773C485.207 170.472 485.599 170.15 486.173 170.15C486.929 170.15 487.384 170.689 487.384 171.466V173.881H486.754V171.634C486.754 171.123 486.544 170.738 486.026 170.738C485.606 170.738 485.158 171.095 485.158 171.69V173.881H484.528V171.634C484.528 171.123 484.318 170.738 483.8 170.738C483.38 170.738 482.932 171.095 482.932 171.69ZM490.164 173.958C489.653 173.958 489.247 173.713 489.03 173.349V175.141H488.4V170.22H489.03V170.752C489.247 170.395 489.653 170.15 490.164 170.15C491.179 170.15 491.76 171.011 491.76 172.054C491.76 173.09 491.179 173.958 490.164 173.958ZM489.016 171.928V172.187C489.016 173.027 489.534 173.405 490.052 173.405C490.738 173.405 491.123 172.838 491.123 172.054C491.123 171.263 490.738 170.703 490.052 170.703C489.534 170.703 489.016 171.074 489.016 171.928ZM493.186 168.855V173.881H492.556V168.855H493.186ZM495.7 173.958C494.685 173.958 493.985 173.181 493.985 172.054C493.985 170.962 494.678 170.15 495.672 170.15C496.694 170.15 497.233 170.927 497.233 171.942V172.152H494.587C494.622 172.922 495.063 173.412 495.7 173.412C496.19 173.412 496.54 173.146 496.652 172.712L497.205 172.908C496.981 173.559 496.428 173.958 495.7 173.958ZM495.665 170.689C495.133 170.689 494.734 171.046 494.622 171.669H496.596C496.582 171.151 496.302 170.689 495.665 170.689ZM498.116 173.006V170.759H497.549V170.22H498.116V169.149H498.739V170.22H499.572V170.759H498.739V172.908C498.739 173.293 498.928 173.363 499.25 173.363C499.397 173.363 499.502 173.356 499.649 173.321V173.86C499.488 173.895 499.306 173.916 499.096 173.916C498.473 173.916 498.116 173.706 498.116 173.006ZM500.369 169.583V168.855H501.055V169.583H500.369ZM501.027 170.22V173.881H500.397V170.22H501.027ZM505.228 172.054C505.228 173.188 504.528 173.958 503.527 173.958C502.526 173.958 501.826 173.188 501.826 172.054C501.826 170.92 502.526 170.15 503.527 170.15C504.528 170.15 505.228 170.92 505.228 172.054ZM502.463 172.054C502.463 172.887 502.883 173.419 503.527 173.419C504.171 173.419 504.591 172.887 504.591 172.054C504.591 171.214 504.171 170.682 503.527 170.682C502.883 170.682 502.463 171.214 502.463 172.054ZM506.029 173.881V170.22H506.659V170.717C506.869 170.416 507.233 170.15 507.751 170.15C508.528 170.15 508.969 170.689 508.969 171.466V173.881H508.339V171.634C508.339 171.123 508.122 170.738 507.576 170.738C507.121 170.738 506.659 171.088 506.659 171.697V173.881H506.029Z" fill="#414141"/>
<rect x="346.492" y="168.526" width="106.129" height="5.70972" rx="2.85486" fill="#9747FF"/>
<rect x="337.84" y="84.6705" width="8.48102" height="8.48102" rx="4.24051" fill="#9747FF"/>
<path d="M351.837 93.2L353.798 91.58C354.798 93.14 356.298 94.04 357.938 94.04C359.558 94.04 360.778 93.3 360.778 91.92C360.778 90.46 359.278 90.26 357.138 89.74C354.978 89.22 352.658 88.58 352.658 85.78C352.658 83.12 354.938 81.42 357.838 81.42C360.298 81.42 362.217 82.58 363.178 84.08L361.298 85.7C360.498 84.46 359.438 83.6 357.758 83.6C356.218 83.6 355.158 84.38 355.158 85.52C355.158 86.78 356.258 87.04 358.198 87.48C360.518 88 363.298 88.54 363.298 91.66C363.298 94.48 360.818 96.22 357.858 96.22C355.398 96.22 352.958 95.04 351.837 93.2ZM364.354 88.82C364.354 84.46 367.154 81.42 371.034 81.42C374.914 81.42 377.714 84.46 377.714 88.82C377.714 93.18 374.914 96.22 371.034 96.22C367.154 96.22 364.354 93.18 364.354 88.82ZM375.154 88.82C375.154 85.7 373.454 83.68 371.034 83.68C368.614 83.68 366.914 85.7 366.914 88.82C366.914 91.94 368.614 93.96 371.034 93.96C373.454 93.96 375.154 91.94 375.154 88.82ZM381.621 88.82C381.621 91.92 383.301 93.96 385.661 93.96C387.341 93.96 388.561 92.94 389.001 91.26L391.401 92.08C390.561 94.62 388.561 96.22 385.661 96.22C381.841 96.22 379.061 93.18 379.061 88.82C379.061 84.46 381.841 81.42 385.661 81.42C388.561 81.42 390.561 83.02 391.401 85.56L389.001 86.38C388.561 84.7 387.341 83.68 385.661 83.68C383.301 83.68 381.621 85.72 381.621 88.82ZM392.521 93.92L396.121 90.96C398.081 89.36 399.841 87.94 399.841 86.14C399.841 84.66 398.921 83.6 397.401 83.6C395.901 83.6 394.921 84.78 394.921 86.2C394.921 86.66 395.001 87.12 395.161 87.56H392.781C392.581 86.98 392.521 86.6 392.521 86.06C392.521 83.36 394.741 81.42 397.461 81.42C400.461 81.42 402.381 83.28 402.381 85.98C402.381 88.52 400.461 90.26 398.441 91.86L396.041 93.76H402.561V96H392.521V93.92Z" fill="#414141"/>
<path d="M341.223 110.102H342.389L345.436 118H344.369L343.566 115.921H340.024L339.232 118H338.176L341.223 110.102ZM341.784 111.29L340.376 114.997H343.214L341.784 111.29ZM350.867 112.247V118H349.877V117.208C349.547 117.692 348.986 118.121 348.172 118.121C346.94 118.121 346.247 117.274 346.247 116.053V112.247H347.237V115.844C347.237 116.658 347.589 117.208 348.436 117.208C349.151 117.208 349.877 116.669 349.877 115.712V112.247H350.867ZM354.623 118.121C353.028 118.121 352.115 116.757 352.115 115.129C352.115 113.49 353.028 112.137 354.623 112.137C355.426 112.137 356.064 112.522 356.405 113.083V110.102H357.395V118H356.405V117.164C356.064 117.736 355.426 118.121 354.623 118.121ZM356.427 114.931C356.427 113.589 355.613 113.006 354.799 113.006C353.721 113.006 353.116 113.886 353.116 115.129C353.116 116.361 353.721 117.252 354.799 117.252C355.613 117.252 356.427 116.658 356.427 115.338V114.931ZM358.987 111.246V110.102H360.065V111.246H358.987ZM360.021 112.247V118H359.031V112.247H360.021ZM361.828 116.625V113.094H360.937V112.247H361.828V110.564H362.807V112.247H364.116V113.094H362.807V116.471C362.807 117.076 363.104 117.186 363.61 117.186C363.841 117.186 364.006 117.175 364.237 117.12V117.967C363.984 118.022 363.698 118.055 363.368 118.055C362.389 118.055 361.828 117.725 361.828 116.625ZM369.844 118.121C368.249 118.121 367.336 116.757 367.336 115.129C367.336 113.49 368.249 112.137 369.844 112.137C370.647 112.137 371.285 112.522 371.626 113.083V112.247H372.616V119.98H371.626V117.164C371.285 117.736 370.647 118.121 369.844 118.121ZM371.648 114.931C371.648 113.589 370.834 113.006 370.02 113.006C368.942 113.006 368.337 113.886 368.337 115.129C368.337 116.361 368.942 117.252 370.02 117.252C370.834 117.252 371.648 116.658 371.648 115.338V114.931ZM378.828 112.247V118H377.838V117.208C377.508 117.692 376.947 118.121 376.133 118.121C374.901 118.121 374.208 117.274 374.208 116.053V112.247H375.198V115.844C375.198 116.658 375.55 117.208 376.397 117.208C377.112 117.208 377.838 116.669 377.838 115.712V112.247H378.828ZM382.771 118.121C381.176 118.121 380.076 116.9 380.076 115.129C380.076 113.413 381.165 112.137 382.727 112.137C384.333 112.137 385.18 113.358 385.18 114.953V115.283H381.022C381.077 116.493 381.77 117.263 382.771 117.263C383.541 117.263 384.091 116.845 384.267 116.163L385.136 116.471C384.784 117.494 383.915 118.121 382.771 118.121ZM382.716 112.984C381.88 112.984 381.253 113.545 381.077 114.524H384.179C384.157 113.71 383.717 112.984 382.716 112.984ZM385.775 116.779L386.545 116.218C386.853 116.889 387.557 117.296 388.305 117.296C388.976 117.296 389.57 117.01 389.57 116.383C389.57 115.756 389.02 115.668 388.074 115.47C387.128 115.261 386.138 115.052 386.138 113.875C386.138 112.852 387.029 112.137 388.25 112.137C389.284 112.137 390.131 112.643 390.472 113.325L389.768 113.886C389.471 113.314 388.932 112.951 388.206 112.951C387.546 112.951 387.106 113.281 387.106 113.798C387.106 114.337 387.612 114.436 388.415 114.612C389.405 114.843 390.538 115.041 390.538 116.295C390.538 117.395 389.537 118.121 388.305 118.121C387.26 118.121 386.215 117.67 385.775 116.779ZM391.917 116.625V113.094H391.026V112.247H391.917V110.564H392.896V112.247H394.205V113.094H392.896V116.471C392.896 117.076 393.193 117.186 393.699 117.186C393.93 117.186 394.095 117.175 394.326 117.12V117.967C394.073 118.022 393.787 118.055 393.457 118.055C392.478 118.055 391.917 117.725 391.917 116.625ZM395.457 111.246V110.102H396.535V111.246H395.457ZM396.491 112.247V118H395.501V112.247H396.491ZM403.093 115.129C403.093 116.911 401.993 118.121 400.42 118.121C398.847 118.121 397.747 116.911 397.747 115.129C397.747 113.347 398.847 112.137 400.42 112.137C401.993 112.137 403.093 113.347 403.093 115.129ZM398.748 115.129C398.748 116.438 399.408 117.274 400.42 117.274C401.432 117.274 402.092 116.438 402.092 115.129C402.092 113.809 401.432 112.973 400.42 112.973C399.408 112.973 398.748 113.809 398.748 115.129ZM404.352 118V112.247H405.342V113.028C405.672 112.555 406.244 112.137 407.058 112.137C408.279 112.137 408.972 112.984 408.972 114.205V118H407.982V114.469C407.982 113.666 407.641 113.061 406.783 113.061C406.068 113.061 405.342 113.611 405.342 114.568V118H404.352ZM409.923 116.779L410.693 116.218C411.001 116.889 411.705 117.296 412.453 117.296C413.124 117.296 413.718 117.01 413.718 116.383C413.718 115.756 413.168 115.668 412.222 115.47C411.276 115.261 410.286 115.052 410.286 113.875C410.286 112.852 411.177 112.137 412.398 112.137C413.432 112.137 414.279 112.643 414.62 113.325L413.916 113.886C413.619 113.314 413.08 112.951 412.354 112.951C411.694 112.951 411.254 113.281 411.254 113.798C411.254 114.337 411.76 114.436 412.563 114.612C413.553 114.843 414.686 115.041 414.686 116.295C414.686 117.395 413.685 118.121 412.453 118.121C411.408 118.121 410.363 117.67 409.923 116.779ZM418.825 115.129C418.825 116.438 419.529 117.252 420.552 117.252C421.344 117.252 421.817 116.746 421.982 116.031L422.862 116.438C422.587 117.395 421.751 118.121 420.552 118.121C418.946 118.121 417.835 116.9 417.835 115.129C417.835 113.347 418.946 112.137 420.552 112.137C421.751 112.137 422.565 112.83 422.84 113.787L421.982 114.216C421.817 113.512 421.344 112.995 420.552 112.995C419.529 112.995 418.825 113.809 418.825 115.129ZM428.896 115.129C428.896 116.911 427.796 118.121 426.223 118.121C424.65 118.121 423.55 116.911 423.55 115.129C423.55 113.347 424.65 112.137 426.223 112.137C427.796 112.137 428.896 113.347 428.896 115.129ZM424.551 115.129C424.551 116.438 425.211 117.274 426.223 117.274C427.235 117.274 427.895 116.438 427.895 115.129C427.895 113.809 427.235 112.973 426.223 112.973C425.211 112.973 424.551 113.809 424.551 115.129ZM431.145 114.557V118H430.155V112.247H431.145V113.028C431.453 112.555 432.003 112.137 432.806 112.137C433.576 112.137 434.115 112.522 434.401 113.116C434.72 112.643 435.336 112.137 436.238 112.137C437.426 112.137 438.141 112.984 438.141 114.205V118H437.151V114.469C437.151 113.666 436.821 113.061 436.007 113.061C435.347 113.061 434.643 113.622 434.643 114.557V118H433.653V114.469C433.653 113.666 433.323 113.061 432.509 113.061C431.849 113.061 431.145 113.622 431.145 114.557ZM442.509 118.121C441.706 118.121 441.068 117.736 440.727 117.164V119.98H439.737V112.247H440.727V113.083C441.068 112.522 441.706 112.137 442.509 112.137C444.104 112.137 445.017 113.49 445.017 115.129C445.017 116.757 444.104 118.121 442.509 118.121ZM440.705 114.931V115.338C440.705 116.658 441.519 117.252 442.333 117.252C443.411 117.252 444.016 116.361 444.016 115.129C444.016 113.886 443.411 113.006 442.333 113.006C441.519 113.006 440.705 113.589 440.705 114.931ZM447.258 110.102V118H446.268V110.102H447.258ZM451.21 118.121C449.615 118.121 448.515 116.9 448.515 115.129C448.515 113.413 449.604 112.137 451.166 112.137C452.772 112.137 453.619 113.358 453.619 114.953V115.283H449.461C449.516 116.493 450.209 117.263 451.21 117.263C451.98 117.263 452.53 116.845 452.706 116.163L453.575 116.471C453.223 117.494 452.354 118.121 451.21 118.121ZM451.155 112.984C450.319 112.984 449.692 113.545 449.516 114.524H452.618C452.596 113.71 452.156 112.984 451.155 112.984ZM455.005 116.625V113.094H454.114V112.247H455.005V110.564H455.984V112.247H457.293V113.094H455.984V116.471C455.984 117.076 456.281 117.186 456.787 117.186C457.018 117.186 457.183 117.175 457.414 117.12V117.967C457.161 118.022 456.875 118.055 456.545 118.055C455.566 118.055 455.005 117.725 455.005 116.625ZM460.856 118.121C459.261 118.121 458.161 116.9 458.161 115.129C458.161 113.413 459.25 112.137 460.812 112.137C462.418 112.137 463.265 113.358 463.265 114.953V115.283H459.107C459.162 116.493 459.855 117.263 460.856 117.263C461.626 117.263 462.176 116.845 462.352 116.163L463.221 116.471C462.869 117.494 462 118.121 460.856 118.121ZM460.801 112.984C459.965 112.984 459.338 113.545 459.162 114.524H462.264C462.242 113.71 461.802 112.984 460.801 112.984ZM466.61 118.121C465.015 118.121 464.102 116.757 464.102 115.129C464.102 113.49 465.015 112.137 466.61 112.137C467.413 112.137 468.051 112.522 468.392 113.083V110.102H469.382V118H468.392V117.164C468.051 117.736 467.413 118.121 466.61 118.121ZM468.414 114.931C468.414 113.589 467.6 113.006 466.786 113.006C465.708 113.006 465.103 113.886 465.103 115.129C465.103 116.361 465.708 117.252 466.786 117.252C467.6 117.252 468.414 116.658 468.414 115.338V114.931Z" fill="#414141"/>
<g filter="url(#filter1_d_717_2976)">
<rect x="361" y="259" width="208.808" height="173.578" rx="16" fill="white" fill-opacity="0.84" shape-rendering="crispEdges"/>
</g>
<rect x="392.178" y="368.053" width="179.726" height="22.5331" rx="4" fill="#E2E3FF"/>
<path d="M515.037 382.077C514.078 382.077 513.315 381.552 513.154 380.551L513.805 380.411C513.903 381.111 514.4 381.517 515.03 381.517C515.667 381.517 516.108 381.153 516.108 380.558C516.108 379.963 515.625 379.669 514.988 379.669H514.449V379.102H514.995C515.576 379.102 515.968 378.808 515.968 378.304C515.968 377.786 515.611 377.464 515.037 377.464C514.435 377.464 514.015 377.863 513.903 378.493L513.301 378.374C513.434 377.534 514.085 376.897 515.051 376.897C516.031 376.897 516.598 377.471 516.598 378.269C516.598 378.815 516.248 379.235 515.821 379.375C516.325 379.515 516.759 379.9 516.759 380.593C516.759 381.419 516.08 382.077 515.037 382.077ZM517.217 379.487C517.217 377.954 517.938 376.897 519.135 376.897C520.325 376.897 521.046 377.954 521.046 379.487C521.046 381.02 520.325 382.077 519.135 382.077C517.938 382.077 517.217 381.02 517.217 379.487ZM517.889 379.487C517.889 380.663 518.316 381.489 519.135 381.489C519.947 381.489 520.381 380.663 520.381 379.487C520.381 378.311 519.947 377.485 519.135 377.485C518.316 377.485 517.889 378.311 517.889 379.487ZM522.167 378.493C522.167 378.869 522.207 379.153 522.287 379.344C522.369 379.533 522.499 379.628 522.676 379.628C523.036 379.628 523.216 379.25 523.216 378.493C523.216 377.741 523.036 377.365 522.676 377.365C522.499 377.365 522.369 377.46 522.287 377.649C522.207 377.836 522.167 378.117 522.167 378.493ZM523.729 378.493C523.729 379.013 523.639 379.406 523.459 379.672C523.281 379.937 523.02 380.069 522.676 380.069C522.353 380.069 522.101 379.933 521.921 379.662C521.743 379.389 521.654 378.999 521.654 378.493C521.654 377.971 521.741 377.581 521.914 377.321C522.09 377.061 522.344 376.931 522.676 376.931C523.011 376.931 523.27 377.067 523.452 377.338C523.637 377.607 523.729 377.992 523.729 378.493ZM525.226 380.496C525.226 380.877 525.266 381.16 525.346 381.347C525.428 381.534 525.558 381.627 525.735 381.627C525.92 381.627 526.056 381.535 526.142 381.351C526.231 381.164 526.275 380.879 526.275 380.496C526.275 379.749 526.095 379.375 525.735 379.375C525.558 379.375 525.428 379.468 525.346 379.655C525.266 379.84 525.226 380.12 525.226 380.496ZM526.788 380.496C526.788 381.013 526.698 381.405 526.518 381.672C526.338 381.936 526.077 382.068 525.735 382.068C525.412 382.068 525.16 381.933 524.98 381.662C524.802 381.388 524.713 381 524.713 380.496C524.713 379.974 524.8 379.583 524.973 379.324C525.146 379.064 525.4 378.934 525.735 378.934C526.07 378.934 526.329 379.07 526.511 379.341C526.696 379.61 526.788 379.995 526.788 380.496ZM525.875 377.003L523.104 382H522.567L525.339 377.003H525.875ZM529.509 380.173C529.509 381.006 529.957 381.524 530.608 381.524C531.112 381.524 531.413 381.202 531.518 380.747L532.078 381.006C531.903 381.615 531.371 382.077 530.608 382.077C529.586 382.077 528.879 381.3 528.879 380.173C528.879 379.039 529.586 378.269 530.608 378.269C531.371 378.269 531.889 378.71 532.064 379.319L531.518 379.592C531.413 379.144 531.112 378.815 530.608 378.815C529.957 378.815 529.509 379.333 529.509 380.173ZM535.918 380.173C535.918 381.307 535.218 382.077 534.217 382.077C533.216 382.077 532.516 381.307 532.516 380.173C532.516 379.039 533.216 378.269 534.217 378.269C535.218 378.269 535.918 379.039 535.918 380.173ZM533.153 380.173C533.153 381.006 533.573 381.538 534.217 381.538C534.861 381.538 535.281 381.006 535.281 380.173C535.281 379.333 534.861 378.801 534.217 378.801C533.573 378.801 533.153 379.333 533.153 380.173ZM537.349 379.809V382H536.719V378.339H537.349V378.836C537.545 378.535 537.895 378.269 538.406 378.269C538.896 378.269 539.239 378.514 539.421 378.892C539.624 378.591 540.016 378.269 540.59 378.269C541.346 378.269 541.801 378.808 541.801 379.585V382H541.171V379.753C541.171 379.242 540.961 378.857 540.443 378.857C540.023 378.857 539.575 379.214 539.575 379.809V382H538.945V379.753C538.945 379.242 538.735 378.857 538.217 378.857C537.797 378.857 537.349 379.214 537.349 379.809ZM544.581 382.077C544.07 382.077 543.664 381.832 543.447 381.468V383.26H542.817V378.339H543.447V378.871C543.664 378.514 544.07 378.269 544.581 378.269C545.596 378.269 546.177 379.13 546.177 380.173C546.177 381.209 545.596 382.077 544.581 382.077ZM543.433 380.047V380.306C543.433 381.146 543.951 381.524 544.469 381.524C545.155 381.524 545.54 380.957 545.54 380.173C545.54 379.382 545.155 378.822 544.469 378.822C543.951 378.822 543.433 379.193 543.433 380.047ZM547.603 376.974V382H546.973V376.974H547.603ZM550.118 382.077C549.103 382.077 548.403 381.3 548.403 380.173C548.403 379.081 549.096 378.269 550.09 378.269C551.112 378.269 551.651 379.046 551.651 380.061V380.271H549.005C549.04 381.041 549.481 381.531 550.118 381.531C550.608 381.531 550.958 381.265 551.07 380.831L551.623 381.027C551.399 381.678 550.846 382.077 550.118 382.077ZM550.083 378.808C549.551 378.808 549.152 379.165 549.04 379.788H551.014C551 379.27 550.72 378.808 550.083 378.808ZM552.533 381.125V378.878H551.966V378.339H552.533V377.268H553.156V378.339H553.989V378.878H553.156V381.027C553.156 381.412 553.345 381.482 553.667 381.482C553.814 381.482 553.919 381.475 554.066 381.44V381.979C553.905 382.014 553.723 382.035 553.513 382.035C552.89 382.035 552.533 381.825 552.533 381.125ZM554.786 377.702V376.974H555.472V377.702H554.786ZM555.444 378.339V382H554.814V378.339H555.444ZM559.646 380.173C559.646 381.307 558.946 382.077 557.945 382.077C556.944 382.077 556.244 381.307 556.244 380.173C556.244 379.039 556.944 378.269 557.945 378.269C558.946 378.269 559.646 379.039 559.646 380.173ZM556.881 380.173C556.881 381.006 557.301 381.538 557.945 381.538C558.589 381.538 559.009 381.006 559.009 380.173C559.009 379.333 558.589 378.801 557.945 378.801C557.301 378.801 556.881 379.333 556.881 380.173ZM560.447 382V378.339H561.077V378.836C561.287 378.535 561.651 378.269 562.169 378.269C562.946 378.269 563.387 378.808 563.387 379.585V382H562.757V379.753C562.757 379.242 562.54 378.857 561.994 378.857C561.539 378.857 561.077 379.207 561.077 379.816V382H560.447Z" fill="#414141"/>
<rect x="401" y="376" width="52" height="6" rx="3" fill="#9747FF"/>
<rect x="392.178" y="308.367" width="8.48102" height="8.48102" rx="4.24051" fill="#9747FF"/>
<path d="M409.18 312.82C409.18 315.92 410.86 317.96 413.22 317.96C414.9 317.96 416.12 316.94 416.56 315.26L418.96 316.08C418.12 318.62 416.12 320.22 413.22 320.22C409.4 320.22 406.62 317.18 406.62 312.82C406.62 308.46 409.4 305.42 413.22 305.42C416.12 305.42 418.12 307.02 418.96 309.56L416.56 310.38C416.12 308.7 414.9 307.68 413.22 307.68C410.86 307.68 409.18 309.72 409.18 312.82ZM430.06 314.76C430.06 318.02 427.96 320.22 425 320.22C422.04 320.22 419.94 318.02 419.94 314.76C419.94 311.5 422.04 309.3 425 309.3C427.96 309.3 430.06 311.5 430.06 314.76ZM422.36 314.76C422.36 316.9 423.38 318.2 425 318.2C426.62 318.2 427.64 316.9 427.64 314.76C427.64 312.62 426.62 311.32 425 311.32C423.38 311.32 422.36 312.62 422.36 314.76ZM431.928 320V309.5H434.328V310.62C434.928 309.92 435.868 309.3 437.228 309.3C439.428 309.3 440.748 310.82 440.748 313.08V320H438.348V313.78C438.348 312.48 437.828 311.54 436.508 311.54C435.428 311.54 434.328 312.34 434.328 313.84V320H431.928ZM448.058 305.44V307.54C447.778 307.52 447.638 307.52 447.338 307.52C446.398 307.52 445.878 307.8 445.878 309V309.5H448.018V311.54H445.878V320H443.478V311.54H442.018V309.5H443.478V308.82C443.478 306.64 444.698 305.42 447.058 305.42C447.438 305.42 447.618 305.42 448.058 305.44ZM449.349 308.1V305.64H451.829V308.1H449.349ZM451.789 309.5V320H449.389V309.5H451.789ZM458.271 320.22C455.331 320.22 453.651 317.74 453.651 314.76C453.651 311.78 455.331 309.3 458.271 309.3C459.631 309.3 460.631 309.84 461.291 310.62V305.64H463.691V320H461.291V318.9C460.631 319.68 459.631 320.22 458.271 320.22ZM461.351 314.46C461.351 312.48 460.231 311.4 458.751 311.4C457.011 311.4 456.071 312.76 456.071 314.76C456.071 316.76 457.011 318.12 458.751 318.12C460.231 318.12 461.351 317.02 461.351 315.08V314.46ZM470.645 320.22C467.645 320.22 465.545 318 465.545 314.76C465.545 311.68 467.625 309.3 470.545 309.3C473.585 309.3 475.205 311.6 475.205 314.48V315.28H467.845C468.025 317.08 469.105 318.18 470.645 318.18C471.825 318.18 472.765 317.58 473.085 316.5L475.145 317.28C474.405 319.12 472.745 320.22 470.645 320.22ZM470.525 311.32C469.285 311.32 468.325 312.06 467.965 313.48H472.785C472.765 312.32 472.045 311.32 470.525 311.32ZM477.006 320V309.5H479.406V310.62C480.006 309.92 480.946 309.3 482.306 309.3C484.506 309.3 485.826 310.82 485.826 313.08V320H483.426V313.78C483.426 312.48 482.906 311.54 481.586 311.54C480.506 311.54 479.406 312.34 479.406 313.84V320H477.006ZM488.496 317.36V311.54H487.036V309.5H488.496V306.42H490.856V309.5H493.056V311.54H490.856V316.98C490.856 317.92 491.396 318.02 492.256 318.02C492.656 318.02 492.876 318 493.236 317.96V319.98C492.796 320.06 492.196 320.12 491.576 320.12C489.576 320.12 488.496 319.5 488.496 317.36ZM494.993 308.1V305.64H497.473V308.1H494.993ZM497.433 309.5V320H495.033V309.5H497.433ZM502.735 320.18C500.735 320.18 499.195 318.96 499.195 317.08C499.195 315.08 500.695 314.2 502.715 313.78L505.615 313.18V313C505.615 312 505.095 311.38 503.815 311.38C502.675 311.38 502.075 311.9 501.795 312.92L499.535 312.4C500.055 310.66 501.595 309.3 503.915 309.3C506.435 309.3 507.955 310.5 507.955 312.92V317.44C507.955 318.04 508.215 318.22 508.875 318.14V320C507.135 320.2 506.215 319.86 505.855 319C505.195 319.74 504.095 320.18 502.735 320.18ZM505.615 316.3V315.02L503.355 315.5C502.335 315.72 501.575 316.04 501.575 316.98C501.575 317.8 502.175 318.26 503.095 318.26C504.375 318.26 505.615 317.58 505.615 316.3ZM512.98 305.64V320H510.58V305.64H512.98ZM515.462 308.1V305.64H517.942V308.1H515.462ZM517.902 309.5V320H515.502V309.5H517.902ZM520.644 317.36V311.54H519.184V309.5H520.644V306.42H523.004V309.5H525.204V311.54H523.004V316.98C523.004 317.92 523.544 318.02 524.404 318.02C524.804 318.02 525.024 318 525.384 317.96V319.98C524.944 320.06 524.344 320.12 523.724 320.12C521.724 320.12 520.644 319.5 520.644 317.36ZM531.742 320.98C531.142 322.58 530.222 323.68 528.042 323.68C527.542 323.68 527.402 323.66 527.062 323.62V321.6C527.382 321.64 527.562 321.66 527.862 321.66C528.662 321.66 529.042 321.44 529.382 320.6L529.782 319.62L525.962 309.5H528.482L531.062 316.86L533.582 309.5H536.062L531.742 320.98ZM416.72 339.76C416.72 343.02 414.62 345.22 411.66 345.22C408.7 345.22 406.6 343.02 406.6 339.76C406.6 336.5 408.7 334.3 411.66 334.3C414.62 334.3 416.72 336.5 416.72 339.76ZM409.02 339.76C409.02 341.9 410.04 343.2 411.66 343.2C413.28 343.2 414.3 341.9 414.3 339.76C414.3 337.62 413.28 336.32 411.66 336.32C410.04 336.32 409.02 337.62 409.02 339.76ZM423.448 330.44V332.54C423.168 332.52 423.028 332.52 422.728 332.52C421.788 332.52 421.268 332.8 421.268 334V334.5H423.408V336.54H421.268V345H418.868V336.54H417.408V334.5H418.868V333.82C418.868 331.64 420.088 330.42 422.448 330.42C422.828 330.42 423.008 330.42 423.448 330.44ZM429.001 345V330.64H433.801C438.261 330.64 441.021 333.44 441.021 337.82C441.021 342.2 438.261 345 433.801 345H429.001ZM431.501 342.8H433.801C436.761 342.8 438.501 340.84 438.501 337.82C438.501 334.78 436.761 332.84 433.781 332.84H431.501V342.8ZM445.704 345.18C443.704 345.18 442.164 343.96 442.164 342.08C442.164 340.08 443.664 339.2 445.684 338.78L448.584 338.18V338C448.584 337 448.064 336.38 446.784 336.38C445.644 336.38 445.044 336.9 444.764 337.92L442.504 337.4C443.024 335.66 444.564 334.3 446.884 334.3C449.404 334.3 450.924 335.5 450.924 337.92V342.44C450.924 343.04 451.184 343.22 451.844 343.14V345C450.104 345.2 449.184 344.86 448.824 344C448.164 344.74 447.064 345.18 445.704 345.18ZM448.584 341.3V340.02L446.324 340.5C445.304 340.72 444.544 341.04 444.544 341.98C444.544 342.8 445.144 343.26 446.064 343.26C447.344 343.26 448.584 342.58 448.584 341.3ZM453.769 342.36V336.54H452.309V334.5H453.769V331.42H456.129V334.5H458.329V336.54H456.129V341.98C456.129 342.92 456.669 343.02 457.529 343.02C457.929 343.02 458.149 343 458.509 342.96V344.98C458.069 345.06 457.469 345.12 456.849 345.12C454.849 345.12 453.769 344.5 453.769 342.36ZM463.087 345.18C461.087 345.18 459.547 343.96 459.547 342.08C459.547 340.08 461.047 339.2 463.067 338.78L465.967 338.18V338C465.967 337 465.447 336.38 464.167 336.38C463.027 336.38 462.427 336.9 462.147 337.92L459.887 337.4C460.407 335.66 461.947 334.3 464.267 334.3C466.787 334.3 468.307 335.5 468.307 337.92V342.44C468.307 343.04 468.567 343.22 469.227 343.14V345C467.487 345.2 466.567 344.86 466.207 344C465.547 344.74 464.447 345.18 463.087 345.18ZM465.967 341.3V340.02L463.707 340.5C462.687 340.72 461.927 341.04 461.927 341.98C461.927 342.8 462.527 343.26 463.447 343.26C464.727 343.26 465.967 342.58 465.967 341.3Z" fill="#414141"/>
<path d="M394.42 404.058H395.212V412H394.156V406.192H392.253V405.411L393.1 405.356C394.035 405.29 394.343 404.971 394.42 404.058ZM399.425 403.981C400.866 403.981 401.944 404.828 401.944 406.093C401.944 406.885 401.493 407.501 400.701 407.809C401.647 408.095 402.351 408.821 402.351 409.822C402.351 411.208 401.119 412.11 399.425 412.11C397.742 412.11 396.51 411.208 396.51 409.822C396.51 408.821 397.214 408.095 398.149 407.809C397.368 407.501 396.917 406.885 396.917 406.093C396.917 404.828 397.995 403.981 399.425 403.981ZM399.425 407.391C400.36 407.391 400.987 406.885 400.987 406.104C400.987 405.334 400.36 404.817 399.425 404.817C398.501 404.817 397.863 405.334 397.863 406.104C397.863 406.885 398.501 407.391 399.425 407.391ZM399.425 408.26C398.314 408.26 397.544 408.876 397.544 409.756C397.544 410.658 398.314 411.274 399.425 411.274C400.536 411.274 401.328 410.658 401.328 409.756C401.328 408.876 400.536 408.26 399.425 408.26ZM406.69 404.147L403.768 412H402.817L405.745 404.147H406.69ZM411.764 412H410.785V409.943H406.968V409.118L410.433 404.102H411.775V409.063H413.304V409.943H411.764V412ZM408.046 409.063H410.774V405.114L408.046 409.063ZM415.213 408.326L414.245 408.161L414.586 404.102H418.887V405.026H415.4L415.191 407.413C415.532 407.072 416.071 406.797 416.764 406.797C418.304 406.797 419.316 407.941 419.316 409.437C419.316 410.933 418.139 412.121 416.555 412.121C415.07 412.121 413.992 411.285 413.717 409.789L414.729 409.58C414.894 410.592 415.576 411.241 416.555 411.241C417.556 411.241 418.326 410.471 418.326 409.459C418.326 408.458 417.644 407.655 416.643 407.655C415.983 407.655 415.477 407.952 415.213 408.326ZM422.421 408.051C422.421 405.642 423.939 403.981 426.007 403.981C428.075 403.981 429.582 405.642 429.582 408.051C429.582 409.591 428.966 410.834 427.976 411.516C428.295 411.978 428.9 412.341 429.516 412.495L428.9 413.254C428.196 413.056 427.459 412.517 427.14 411.945C426.788 412.055 426.403 412.121 426.007 412.121C423.939 412.121 422.421 410.46 422.421 408.051ZM428.537 408.051C428.537 406.181 427.492 404.916 426.007 404.916C424.522 404.916 423.477 406.181 423.477 408.051C423.477 409.921 424.522 411.186 426.007 411.186C427.492 411.186 428.537 409.921 428.537 408.051ZM435.385 406.247V412H434.395V411.208C434.065 411.692 433.504 412.121 432.69 412.121C431.458 412.121 430.765 411.274 430.765 410.053V406.247H431.755V409.844C431.755 410.658 432.107 411.208 432.954 411.208C433.669 411.208 434.395 410.669 434.395 409.712V406.247H435.385ZM439.328 412.121C437.733 412.121 436.633 410.9 436.633 409.129C436.633 407.413 437.722 406.137 439.284 406.137C440.89 406.137 441.737 407.358 441.737 408.953V409.283H437.579C437.634 410.493 438.327 411.263 439.328 411.263C440.098 411.263 440.648 410.845 440.824 410.163L441.693 410.471C441.341 411.494 440.472 412.121 439.328 412.121ZM439.273 406.984C438.437 406.984 437.81 407.545 437.634 408.524H440.736C440.714 407.71 440.274 406.984 439.273 406.984ZM442.332 410.779L443.102 410.218C443.41 410.889 444.114 411.296 444.862 411.296C445.533 411.296 446.127 411.01 446.127 410.383C446.127 409.756 445.577 409.668 444.631 409.47C443.685 409.261 442.695 409.052 442.695 407.875C442.695 406.852 443.586 406.137 444.807 406.137C445.841 406.137 446.688 406.643 447.029 407.325L446.325 407.886C446.028 407.314 445.489 406.951 444.763 406.951C444.103 406.951 443.663 407.281 443.663 407.798C443.663 408.337 444.169 408.436 444.972 408.612C445.962 408.843 447.095 409.041 447.095 410.295C447.095 411.395 446.094 412.121 444.862 412.121C443.817 412.121 442.772 411.67 442.332 410.779ZM448.473 410.625V407.094H447.582V406.247H448.473V404.564H449.452V406.247H450.761V407.094H449.452V410.471C449.452 411.076 449.749 411.186 450.255 411.186C450.486 411.186 450.651 411.175 450.882 411.12V411.967C450.629 412.022 450.343 412.055 450.013 412.055C449.034 412.055 448.473 411.725 448.473 410.625ZM452.013 405.246V404.102H453.091V405.246H452.013ZM453.047 406.247V412H452.057V406.247H453.047ZM459.65 409.129C459.65 410.911 458.55 412.121 456.977 412.121C455.404 412.121 454.304 410.911 454.304 409.129C454.304 407.347 455.404 406.137 456.977 406.137C458.55 406.137 459.65 407.347 459.65 409.129ZM455.305 409.129C455.305 410.438 455.965 411.274 456.977 411.274C457.989 411.274 458.649 410.438 458.649 409.129C458.649 407.809 457.989 406.973 456.977 406.973C455.965 406.973 455.305 407.809 455.305 409.129ZM460.909 412V406.247H461.899V407.028C462.229 406.555 462.801 406.137 463.615 406.137C464.836 406.137 465.529 406.984 465.529 408.205V412H464.539V408.469C464.539 407.666 464.198 407.061 463.34 407.061C462.625 407.061 461.899 407.611 461.899 408.568V412H460.909ZM466.48 410.779L467.25 410.218C467.558 410.889 468.262 411.296 469.01 411.296C469.681 411.296 470.275 411.01 470.275 410.383C470.275 409.756 469.725 409.668 468.779 409.47C467.833 409.261 466.843 409.052 466.843 407.875C466.843 406.852 467.734 406.137 468.955 406.137C469.989 406.137 470.836 406.643 471.177 407.325L470.473 407.886C470.176 407.314 469.637 406.951 468.911 406.951C468.251 406.951 467.811 407.281 467.811 407.798C467.811 408.337 468.317 408.436 469.12 408.612C470.11 408.843 471.243 409.041 471.243 410.295C471.243 411.395 470.242 412.121 469.01 412.121C467.965 412.121 466.92 411.67 466.48 410.779ZM477.186 404.102H478.352L481.399 412H480.332L479.529 409.921H475.987L475.195 412H474.139L477.186 404.102ZM477.747 405.29L476.339 408.997H479.177L477.747 405.29ZM482.34 412V406.247H483.33V407.028C483.66 406.555 484.232 406.137 485.046 406.137C486.267 406.137 486.96 406.984 486.96 408.205V412H485.97V408.469C485.97 407.666 485.629 407.061 484.771 407.061C484.056 407.061 483.33 407.611 483.33 408.568V412H482.34ZM487.911 410.779L488.681 410.218C488.989 410.889 489.693 411.296 490.441 411.296C491.112 411.296 491.706 411.01 491.706 410.383C491.706 409.756 491.156 409.668 490.21 409.47C489.264 409.261 488.274 409.052 488.274 407.875C488.274 406.852 489.165 406.137 490.386 406.137C491.42 406.137 492.267 406.643 492.608 407.325L491.904 407.886C491.607 407.314 491.068 406.951 490.342 406.951C489.682 406.951 489.242 407.281 489.242 407.798C489.242 408.337 489.748 408.436 490.551 408.612C491.541 408.843 492.674 409.041 492.674 410.295C492.674 411.395 491.673 412.121 490.441 412.121C489.396 412.121 488.351 411.67 487.911 410.779ZM496.551 406.247H497.387L498.575 410.537L499.774 406.247H500.764L499.015 412H498.146L496.947 407.732L495.748 412H494.879L493.13 406.247H494.153L495.363 410.526L496.551 406.247ZM503.921 412.121C502.326 412.121 501.226 410.9 501.226 409.129C501.226 407.413 502.315 406.137 503.877 406.137C505.483 406.137 506.33 407.358 506.33 408.953V409.283H502.172C502.227 410.493 502.92 411.263 503.921 411.263C504.691 411.263 505.241 410.845 505.417 410.163L506.286 410.471C505.934 411.494 505.065 412.121 503.921 412.121ZM503.866 406.984C503.03 406.984 502.403 407.545 502.227 408.524H505.329C505.307 407.71 504.867 406.984 503.866 406.984ZM510.543 406.225V407.226C510.378 407.193 510.246 407.182 510.059 407.182C509.223 407.182 508.552 407.842 508.552 408.854V412H507.562V406.247H508.552V407.226C508.805 406.643 509.366 406.203 510.147 406.203C510.301 406.203 510.444 406.214 510.543 406.225ZM513.696 412.121C512.101 412.121 511.001 410.9 511.001 409.129C511.001 407.413 512.09 406.137 513.652 406.137C515.258 406.137 516.105 407.358 516.105 408.953V409.283H511.947C512.002 410.493 512.695 411.263 513.696 411.263C514.466 411.263 515.016 410.845 515.192 410.163L516.061 410.471C515.709 411.494 514.84 412.121 513.696 412.121ZM513.641 406.984C512.805 406.984 512.178 407.545 512.002 408.524H515.104C515.082 407.71 514.642 406.984 513.641 406.984ZM519.45 412.121C517.855 412.121 516.942 410.757 516.942 409.129C516.942 407.49 517.855 406.137 519.45 406.137C520.253 406.137 520.891 406.522 521.232 407.083V404.102H522.222V412H521.232V411.164C520.891 411.736 520.253 412.121 519.45 412.121ZM521.254 408.931C521.254 407.589 520.44 407.006 519.626 407.006C518.548 407.006 517.943 407.886 517.943 409.129C517.943 410.361 518.548 411.252 519.626 411.252C520.44 411.252 521.254 410.658 521.254 409.338V408.931Z" fill="#B0B0B0"/>
<path d="M393.641 286.877C393.641 288.747 394.675 290.012 396.138 290.012C397.161 290.012 397.898 289.418 398.184 288.417L399.185 288.747C398.723 290.111 397.645 290.947 396.138 290.947C394.092 290.947 392.585 289.286 392.585 286.877C392.585 284.468 394.092 282.807 396.138 282.807C397.645 282.807 398.723 283.643 399.185 285.007L398.184 285.337C397.898 284.336 397.161 283.742 396.138 283.742C394.675 283.742 393.641 285.007 393.641 286.877ZM401.244 282.928V290.826H400.254V282.928H401.244ZM404.338 290.925C403.293 290.925 402.446 290.309 402.446 289.275C402.446 288.131 403.337 287.658 404.624 287.394L406.021 287.108V286.866C406.021 286.206 405.658 285.832 404.888 285.832C404.162 285.832 403.733 286.173 403.557 286.811L402.622 286.569C402.897 285.634 403.744 284.963 404.921 284.963C406.208 284.963 407 285.59 407 286.822V289.627C407 290.001 407.231 290.122 407.616 290.034V290.826C406.736 290.936 406.23 290.727 406.109 290.177C405.757 290.628 405.119 290.925 404.338 290.925ZM406.021 288.868V287.878L404.899 288.12C404.019 288.296 403.425 288.538 403.425 289.231C403.425 289.792 403.832 290.122 404.459 290.122C405.306 290.122 406.021 289.605 406.021 288.868ZM413.252 285.073V290.826H412.262V290.034C411.932 290.518 411.371 290.947 410.557 290.947C409.325 290.947 408.632 290.1 408.632 288.879V285.073H409.622V288.67C409.622 289.484 409.974 290.034 410.821 290.034C411.536 290.034 412.262 289.495 412.262 288.538V285.073H413.252ZM414.258 289.605L415.028 289.044C415.336 289.715 416.04 290.122 416.788 290.122C417.459 290.122 418.053 289.836 418.053 289.209C418.053 288.582 417.503 288.494 416.557 288.296C415.611 288.087 414.621 287.878 414.621 286.701C414.621 285.678 415.512 284.963 416.733 284.963C417.767 284.963 418.614 285.469 418.955 286.151L418.251 286.712C417.954 286.14 417.415 285.777 416.689 285.777C416.029 285.777 415.589 286.107 415.589 286.624C415.589 287.163 416.095 287.262 416.898 287.438C417.888 287.669 419.021 287.867 419.021 289.121C419.021 290.221 418.02 290.947 416.788 290.947C415.743 290.947 414.698 290.496 414.258 289.605ZM422.544 290.947C420.949 290.947 419.849 289.726 419.849 287.955C419.849 286.239 420.938 284.963 422.5 284.963C424.106 284.963 424.953 286.184 424.953 287.779V288.109H420.795C420.85 289.319 421.543 290.089 422.544 290.089C423.314 290.089 423.864 289.671 424.04 288.989L424.909 289.297C424.557 290.32 423.688 290.947 422.544 290.947ZM422.489 285.81C421.653 285.81 421.026 286.371 420.85 287.35H423.952C423.93 286.536 423.49 285.81 422.489 285.81ZM429.474 287.152L428.506 286.987L428.847 282.928H433.148V283.852H429.661L429.452 286.239C429.793 285.898 430.332 285.623 431.025 285.623C432.565 285.623 433.577 286.767 433.577 288.263C433.577 289.759 432.4 290.947 430.816 290.947C429.331 290.947 428.253 290.111 427.978 288.615L428.99 288.406C429.155 289.418 429.837 290.067 430.816 290.067C431.817 290.067 432.587 289.297 432.587 288.285C432.587 287.284 431.905 286.481 430.904 286.481C430.244 286.481 429.738 286.778 429.474 287.152Z" fill="#414141"/>
<g filter="url(#filter2_d_717_2976)">
<rect x="75" y="194" width="208.808" height="173.578" rx="16" fill="white" fill-opacity="0.84" shape-rendering="crispEdges"/>
</g>
<rect x="106.178" y="303.053" width="179.726" height="22.5331" rx="4" fill="#E2E3FF"/>
<rect x="114.831" y="311.464" width="54.6245" height="5.70972" rx="2.85486" fill="#9747FF"/>
<path d="M125.64 240.64H128.54L133.98 255H131.4L130.16 251.72H123.96L122.74 255H120.2L125.64 240.64ZM127.04 243.48L124.8 249.48H129.32L127.04 243.48ZM139.581 255H137.161L133.321 244.5H135.841L138.401 252.12L140.941 244.5H143.421L139.581 255ZM147.106 255.18C145.106 255.18 143.566 253.96 143.566 252.08C143.566 250.08 145.066 249.2 147.086 248.78L149.986 248.18V248C149.986 247 149.466 246.38 148.186 246.38C147.046 246.38 146.446 246.9 146.166 247.92L143.906 247.4C144.426 245.66 145.966 244.3 148.286 244.3C150.806 244.3 152.326 245.5 152.326 247.92V252.44C152.326 253.04 152.586 253.22 153.246 253.14V255C151.506 255.2 150.586 254.86 150.226 254C149.566 254.74 148.466 255.18 147.106 255.18ZM149.986 251.3V250.02L147.726 250.5C146.706 250.72 145.946 251.04 145.946 251.98C145.946 252.8 146.546 253.26 147.466 253.26C148.746 253.26 149.986 252.58 149.986 251.3ZM154.911 243.1V240.64H157.391V243.1H154.911ZM157.351 244.5V255H154.951V244.5H157.351ZM162.273 240.64V255H159.873V240.64H162.273ZM167.575 255.18C165.575 255.18 164.035 253.96 164.035 252.08C164.035 250.08 165.535 249.2 167.555 248.78L170.455 248.18V248C170.455 247 169.935 246.38 168.655 246.38C167.515 246.38 166.915 246.9 166.635 247.92L164.375 247.4C164.895 245.66 166.435 244.3 168.755 244.3C171.275 244.3 172.795 245.5 172.795 247.92V252.44C172.795 253.04 173.055 253.22 173.715 253.14V255C171.975 255.2 171.055 254.86 170.695 254C170.035 254.74 168.935 255.18 167.575 255.18ZM170.455 251.3V250.02L168.195 250.5C167.175 250.72 166.415 251.04 166.415 251.98C166.415 252.8 167.015 253.26 167.935 253.26C169.215 253.26 170.455 252.58 170.455 251.3ZM180.84 255.22C179.48 255.22 178.48 254.68 177.82 253.9V255H175.42V240.64H177.82V245.62C178.48 244.84 179.48 244.3 180.84 244.3C183.78 244.3 185.46 246.78 185.46 249.76C185.46 252.74 183.78 255.22 180.84 255.22ZM177.76 249.46V250.08C177.76 252.02 178.88 253.12 180.36 253.12C182.1 253.12 183.04 251.76 183.04 249.76C183.04 247.76 182.1 246.4 180.36 246.4C178.88 246.4 177.76 247.48 177.76 249.46ZM187.275 243.1V240.64H189.755V243.1H187.275ZM189.715 244.5V255H187.315V244.5H189.715ZM194.637 240.64V255H192.237V240.64H194.637ZM197.118 243.1V240.64H199.598V243.1H197.118ZM199.558 244.5V255H197.158V244.5H199.558ZM202.3 252.36V246.54H200.84V244.5H202.3V241.42H204.66V244.5H206.86V246.54H204.66V251.98C204.66 252.92 205.2 253.02 206.06 253.02C206.46 253.02 206.68 253 207.04 252.96V254.98C206.6 255.06 206 255.12 205.38 255.12C203.38 255.12 202.3 254.5 202.3 252.36ZM213.398 255.98C212.798 257.58 211.878 258.68 209.698 258.68C209.198 258.68 209.058 258.66 208.718 258.62V256.6C209.038 256.64 209.218 256.66 209.518 256.66C210.318 256.66 210.698 256.44 211.038 255.6L211.438 254.62L207.618 244.5H210.138L212.718 251.86L215.238 244.5H217.718L213.398 255.98ZM123.18 272.82C123.18 275.92 124.86 277.96 127.22 277.96C128.9 277.96 130.12 276.94 130.56 275.26L132.96 276.08C132.12 278.62 130.12 280.22 127.22 280.22C123.4 280.22 120.62 277.18 120.62 272.82C120.62 268.46 123.4 265.42 127.22 265.42C130.12 265.42 132.12 267.02 132.96 269.56L130.56 270.38C130.12 268.7 128.9 267.68 127.22 267.68C124.86 267.68 123.18 269.72 123.18 272.82ZM144.06 274.76C144.06 278.02 141.96 280.22 139 280.22C136.04 280.22 133.94 278.02 133.94 274.76C133.94 271.5 136.04 269.3 139 269.3C141.96 269.3 144.06 271.5 144.06 274.76ZM136.36 274.76C136.36 276.9 137.38 278.2 139 278.2C140.62 278.2 141.64 276.9 141.64 274.76C141.64 272.62 140.62 271.32 139 271.32C137.38 271.32 136.36 272.62 136.36 274.76ZM145.928 280V269.5H148.328V270.62C148.928 269.92 149.868 269.3 151.228 269.3C153.428 269.3 154.748 270.82 154.748 273.08V280H152.348V273.78C152.348 272.48 151.828 271.54 150.508 271.54C149.428 271.54 148.328 272.34 148.328 273.84V280H145.928ZM157.418 277.36V271.54H155.958V269.5H157.418V266.42H159.778V269.5H161.978V271.54H159.778V276.98C159.778 277.92 160.318 278.02 161.178 278.02C161.578 278.02 161.798 278 162.158 277.96V279.98C161.718 280.06 161.118 280.12 160.498 280.12C158.498 280.12 157.418 279.5 157.418 277.36ZM169.915 269.48V271.88C169.615 271.84 169.375 271.82 169.035 271.82C167.515 271.82 166.355 272.8 166.355 274.48V280H163.955V269.5H166.355V271.06C166.815 270.08 167.895 269.44 169.235 269.44C169.515 269.44 169.735 269.46 169.915 269.48ZM180.525 274.76C180.525 278.02 178.425 280.22 175.465 280.22C172.505 280.22 170.405 278.02 170.405 274.76C170.405 271.5 172.505 269.3 175.465 269.3C178.425 269.3 180.525 271.5 180.525 274.76ZM172.825 274.76C172.825 276.9 173.845 278.2 175.465 278.2C177.085 278.2 178.105 276.9 178.105 274.76C178.105 272.62 177.085 271.32 175.465 271.32C173.845 271.32 172.825 272.62 172.825 274.76ZM184.793 265.64V280H182.393V265.64H184.793Z" fill="#414141"/>
<path d="M108.598 336.573H109.39V344.515H108.334V338.707H106.431V337.926L107.278 337.871C108.213 337.805 108.521 337.486 108.598 336.573ZM113.603 336.496C115.044 336.496 116.122 337.343 116.122 338.608C116.122 339.4 115.671 340.016 114.879 340.324C115.825 340.61 116.529 341.336 116.529 342.337C116.529 343.723 115.297 344.625 113.603 344.625C111.92 344.625 110.688 343.723 110.688 342.337C110.688 341.336 111.392 340.61 112.327 340.324C111.546 340.016 111.095 339.4 111.095 338.608C111.095 337.343 112.173 336.496 113.603 336.496ZM113.603 339.906C114.538 339.906 115.165 339.4 115.165 338.619C115.165 337.849 114.538 337.332 113.603 337.332C112.679 337.332 112.041 337.849 112.041 338.619C112.041 339.4 112.679 339.906 113.603 339.906ZM113.603 340.775C112.492 340.775 111.722 341.391 111.722 342.271C111.722 343.173 112.492 343.789 113.603 343.789C114.714 343.789 115.506 343.173 115.506 342.271C115.506 341.391 114.714 340.775 113.603 340.775ZM120.868 336.662L117.946 344.515H116.996L119.923 336.662H120.868ZM125.942 344.515H124.963V342.458H121.146V341.633L124.611 336.617H125.953V341.578H127.482V342.458H125.942V344.515ZM122.224 341.578H124.952V337.629L122.224 341.578ZM129.391 340.841L128.423 340.676L128.764 336.617H133.065V337.541H129.578L129.369 339.928C129.71 339.587 130.249 339.312 130.942 339.312C132.482 339.312 133.494 340.456 133.494 341.952C133.494 343.448 132.317 344.636 130.733 344.636C129.248 344.636 128.17 343.8 127.895 342.304L128.907 342.095C129.072 343.107 129.754 343.756 130.733 343.756C131.734 343.756 132.504 342.986 132.504 341.974C132.504 340.973 131.822 340.17 130.821 340.17C130.161 340.17 129.655 340.467 129.391 340.841ZM136.599 340.566C136.599 338.157 138.117 336.496 140.185 336.496C142.253 336.496 143.76 338.157 143.76 340.566C143.76 342.106 143.144 343.349 142.154 344.031C142.473 344.493 143.078 344.856 143.694 345.01L143.078 345.769C142.374 345.571 141.637 345.032 141.318 344.46C140.966 344.57 140.581 344.636 140.185 344.636C138.117 344.636 136.599 342.975 136.599 340.566ZM142.715 340.566C142.715 338.696 141.67 337.431 140.185 337.431C138.7 337.431 137.655 338.696 137.655 340.566C137.655 342.436 138.7 343.701 140.185 343.701C141.67 343.701 142.715 342.436 142.715 340.566ZM149.563 338.762V344.515H148.573V343.723C148.243 344.207 147.682 344.636 146.868 344.636C145.636 344.636 144.943 343.789 144.943 342.568V338.762H145.933V342.359C145.933 343.173 146.285 343.723 147.132 343.723C147.847 343.723 148.573 343.184 148.573 342.227V338.762H149.563ZM153.506 344.636C151.911 344.636 150.811 343.415 150.811 341.644C150.811 339.928 151.9 338.652 153.462 338.652C155.068 338.652 155.915 339.873 155.915 341.468V341.798H151.757C151.812 343.008 152.505 343.778 153.506 343.778C154.276 343.778 154.826 343.36 155.002 342.678L155.871 342.986C155.519 344.009 154.65 344.636 153.506 344.636ZM153.451 339.499C152.615 339.499 151.988 340.06 151.812 341.039H154.914C154.892 340.225 154.452 339.499 153.451 339.499ZM156.51 343.294L157.28 342.733C157.588 343.404 158.292 343.811 159.04 343.811C159.711 343.811 160.305 343.525 160.305 342.898C160.305 342.271 159.755 342.183 158.809 341.985C157.863 341.776 156.873 341.567 156.873 340.39C156.873 339.367 157.764 338.652 158.985 338.652C160.019 338.652 160.866 339.158 161.207 339.84L160.503 340.401C160.206 339.829 159.667 339.466 158.941 339.466C158.281 339.466 157.841 339.796 157.841 340.313C157.841 340.852 158.347 340.951 159.15 341.127C160.14 341.358 161.273 341.556 161.273 342.81C161.273 343.91 160.272 344.636 159.04 344.636C157.995 344.636 156.95 344.185 156.51 343.294ZM162.651 343.14V339.609H161.76V338.762H162.651V337.079H163.63V338.762H164.939V339.609H163.63V342.986C163.63 343.591 163.927 343.701 164.433 343.701C164.664 343.701 164.829 343.69 165.06 343.635V344.482C164.807 344.537 164.521 344.57 164.191 344.57C163.212 344.57 162.651 344.24 162.651 343.14ZM166.192 337.761V336.617H167.27V337.761H166.192ZM167.226 338.762V344.515H166.236V338.762H167.226ZM173.828 341.644C173.828 343.426 172.728 344.636 171.155 344.636C169.582 344.636 168.482 343.426 168.482 341.644C168.482 339.862 169.582 338.652 171.155 338.652C172.728 338.652 173.828 339.862 173.828 341.644ZM169.483 341.644C169.483 342.953 170.143 343.789 171.155 343.789C172.167 343.789 172.827 342.953 172.827 341.644C172.827 340.324 172.167 339.488 171.155 339.488C170.143 339.488 169.483 340.324 169.483 341.644ZM175.087 344.515V338.762H176.077V339.543C176.407 339.07 176.979 338.652 177.793 338.652C179.014 338.652 179.707 339.499 179.707 340.72V344.515H178.717V340.984C178.717 340.181 178.376 339.576 177.518 339.576C176.803 339.576 176.077 340.126 176.077 341.083V344.515H175.087ZM180.658 343.294L181.428 342.733C181.736 343.404 182.44 343.811 183.188 343.811C183.859 343.811 184.453 343.525 184.453 342.898C184.453 342.271 183.903 342.183 182.957 341.985C182.011 341.776 181.021 341.567 181.021 340.39C181.021 339.367 181.912 338.652 183.133 338.652C184.167 338.652 185.014 339.158 185.355 339.84L184.651 340.401C184.354 339.829 183.815 339.466 183.089 339.466C182.429 339.466 181.989 339.796 181.989 340.313C181.989 340.852 182.495 340.951 183.298 341.127C184.288 341.358 185.421 341.556 185.421 342.81C185.421 343.91 184.42 344.636 183.188 344.636C182.143 344.636 181.098 344.185 180.658 343.294ZM191.364 336.617H192.53L195.577 344.515H194.51L193.707 342.436H190.165L189.373 344.515H188.317L191.364 336.617ZM191.925 337.805L190.517 341.512H193.355L191.925 337.805ZM196.518 344.515V338.762H197.508V339.543C197.838 339.07 198.41 338.652 199.224 338.652C200.445 338.652 201.138 339.499 201.138 340.72V344.515H200.148V340.984C200.148 340.181 199.807 339.576 198.949 339.576C198.234 339.576 197.508 340.126 197.508 341.083V344.515H196.518ZM202.089 343.294L202.859 342.733C203.167 343.404 203.871 343.811 204.619 343.811C205.29 343.811 205.884 343.525 205.884 342.898C205.884 342.271 205.334 342.183 204.388 341.985C203.442 341.776 202.452 341.567 202.452 340.39C202.452 339.367 203.343 338.652 204.564 338.652C205.598 338.652 206.445 339.158 206.786 339.84L206.082 340.401C205.785 339.829 205.246 339.466 204.52 339.466C203.86 339.466 203.42 339.796 203.42 340.313C203.42 340.852 203.926 340.951 204.729 341.127C205.719 341.358 206.852 341.556 206.852 342.81C206.852 343.91 205.851 344.636 204.619 344.636C203.574 344.636 202.529 344.185 202.089 343.294ZM210.73 338.762H211.566L212.754 343.052L213.953 338.762H214.943L213.194 344.515H212.325L211.126 340.247L209.927 344.515H209.058L207.309 338.762H208.332L209.542 343.041L210.73 338.762ZM218.099 344.636C216.504 344.636 215.404 343.415 215.404 341.644C215.404 339.928 216.493 338.652 218.055 338.652C219.661 338.652 220.508 339.873 220.508 341.468V341.798H216.35C216.405 343.008 217.098 343.778 218.099 343.778C218.869 343.778 219.419 343.36 219.595 342.678L220.464 342.986C220.112 344.009 219.243 344.636 218.099 344.636ZM218.044 339.499C217.208 339.499 216.581 340.06 216.405 341.039H219.507C219.485 340.225 219.045 339.499 218.044 339.499ZM224.722 338.74V339.741C224.557 339.708 224.425 339.697 224.238 339.697C223.402 339.697 222.731 340.357 222.731 341.369V344.515H221.741V338.762H222.731V339.741C222.984 339.158 223.545 338.718 224.326 338.718C224.48 338.718 224.623 338.729 224.722 338.74ZM227.874 344.636C226.279 344.636 225.179 343.415 225.179 341.644C225.179 339.928 226.268 338.652 227.83 338.652C229.436 338.652 230.283 339.873 230.283 341.468V341.798H226.125C226.18 343.008 226.873 343.778 227.874 343.778C228.644 343.778 229.194 343.36 229.37 342.678L230.239 342.986C229.887 344.009 229.018 344.636 227.874 344.636ZM227.819 339.499C226.983 339.499 226.356 340.06 226.18 341.039H229.282C229.26 340.225 228.82 339.499 227.819 339.499ZM233.628 344.636C232.033 344.636 231.12 343.272 231.12 341.644C231.12 340.005 232.033 338.652 233.628 338.652C234.431 338.652 235.069 339.037 235.41 339.598V336.617H236.4V344.515H235.41V343.679C235.069 344.251 234.431 344.636 233.628 344.636ZM235.432 341.446C235.432 340.104 234.618 339.521 233.804 339.521C232.726 339.521 232.121 340.401 232.121 341.644C232.121 342.876 232.726 343.767 233.804 343.767C234.618 343.767 235.432 343.173 235.432 341.853V341.446Z" fill="#B0B0B0"/>
<path d="M590 324.858V529.641" stroke="url(#paint0_linear_717_2976)"/>
<defs>
<filter id="filter0_d_717_2976" x="220" y="0.20372" width="358.808" height="323.578" filterUnits="userSpaceOnUse" color-interpolation-filters="sRGB">
<feFlood flood-opacity="0" result="BackgroundImageFix"/>
<feColorMatrix in="SourceAlpha" type="matrix" values="0 0 0 0 0 0 0 0 0 0 0 0 0 0 0 0 0 0 127 0" result="hardAlpha"/>
<feOffset dy="40"/>
<feGaussianBlur stdDeviation="37.5"/>
<feComposite in2="hardAlpha" operator="out"/>
<feColorMatrix type="matrix" values="0 0 0 0 1 0 0 0 0 1 0 0 0 0 1 0 0 0 1 0"/>
<feBlend mode="normal" in2="BackgroundImageFix" result="effect1_dropShadow_717_2976"/>
<feBlend mode="normal" in="SourceGraphic" in2="effect1_dropShadow_717_2976" result="shape"/>
</filter>
<filter id="filter1_d_717_2976" x="286" y="224" width="358.808" height="323.578" filterUnits="userSpaceOnUse" color-interpolation-filters="sRGB">
<feFlood flood-opacity="0" result="BackgroundImageFix"/>
<feColorMatrix in="SourceAlpha" type="matrix" values="0 0 0 0 0 0 0 0 0 0 0 0 0 0 0 0 0 0 127 0" result="hardAlpha"/>
<feOffset dy="40"/>
<feGaussianBlur stdDeviation="37.5"/>
<feComposite in2="hardAlpha" operator="out"/>
<feColorMatrix type="matrix" values="0 0 0 0 1 0 0 0 0 1 0 0 0 0 1 0 0 0 1 0"/>
<feBlend mode="normal" in2="BackgroundImageFix" result="effect1_dropShadow_717_2976"/>
<feBlend mode="normal" in="SourceGraphic" in2="effect1_dropShadow_717_2976" result="shape"/>
</filter>
<filter id="filter2_d_717_2976" x="0" y="159" width="358.808" height="323.578" filterUnits="userSpaceOnUse" color-interpolation-filters="sRGB">
<feFlood flood-opacity="0" result="BackgroundImageFix"/>
<feColorMatrix in="SourceAlpha" type="matrix" values="0 0 0 0 0 0 0 0 0 0 0 0 0 0 0 0 0 0 127 0" result="hardAlpha"/>
<feOffset dy="40"/>
<feGaussianBlur stdDeviation="37.5"/>
<feComposite in2="hardAlpha" operator="out"/>
<feColorMatrix type="matrix" values="0 0 0 0 1 0 0 0 0 1 0 0 0 0 1 0 0 0 1 0"/>
<feBlend mode="normal" in2="BackgroundImageFix" result="effect1_dropShadow_717_2976"/>
<feBlend mode="normal" in="SourceGraphic" in2="effect1_dropShadow_717_2976" result="shape"/>
</filter>
<linearGradient id="paint0_linear_717_2976" x1="590.5" y1="324.858" x2="590.5" y2="529.641" gradientUnits="userSpaceOnUse">
<stop stop-color="#FFC87F"/>
<stop offset="1" stop-color="#FFC87F" stop-opacity="0"/>
</linearGradient>
</defs>
</svg>
