<svg width="116" height="116" viewBox="0 0 116 116" fill="none" xmlns="http://www.w3.org/2000/svg">
<path d="M0 58C0 65.6167 1.50021 73.1588 4.41499 80.1956C7.32976 87.2325 11.602 93.6264 16.9878 99.0122C22.3736 104.398 28.7675 108.67 35.8044 111.585C42.8412 114.5 50.3833 116 58 116V115.318C50.4729 115.318 43.0194 113.836 36.0652 110.955C29.1111 108.075 22.7924 103.853 17.4699 98.5301C12.1474 93.2076 7.92533 86.8889 5.04482 79.9348C2.1643 72.9806 0.681717 65.5271 0.681717 58H0Z" fill="#CFABFF"/>
<path fill-rule="evenodd" clip-rule="evenodd" d="M15.0239 102.224C14.8919 102.212 14.7701 102.148 14.6852 102.046C14.6004 101.944 14.5594 101.813 14.5714 101.681L15.043 96.4954C15.0475 96.4289 15.0652 96.3639 15.0951 96.3044C15.125 96.2448 15.1665 96.1918 15.2172 96.1485C15.2679 96.1052 15.3268 96.0725 15.3903 96.0523C15.4538 96.032 15.5208 96.0247 15.5872 96.0308C15.6536 96.0368 15.7181 96.0561 15.7769 96.0874C15.8358 96.1187 15.8878 96.1615 15.9298 96.2133C15.9719 96.265 16.0032 96.3246 16.0219 96.3886C16.0406 96.4526 16.0463 96.5197 16.0386 96.5859L15.567 101.771C15.5549 101.903 15.491 102.025 15.3891 102.11C15.2873 102.195 15.1559 102.236 15.0239 102.224Z" fill="#CFABFF"/>
<path fill-rule="evenodd" clip-rule="evenodd" d="M21.2237 96.0238C21.2357 96.1558 21.1947 96.2872 21.1099 96.389C21.025 96.4909 20.9032 96.5548 20.7712 96.5669L15.586 97.0385C15.5197 97.0462 15.4526 97.0405 15.3886 97.0218C15.3246 97.0031 15.265 96.9718 15.2133 96.9297C15.1616 96.8877 15.1188 96.8357 15.0874 96.7768C15.0561 96.718 15.0369 96.6535 15.0308 96.5871C15.0248 96.5207 15.0321 96.4537 15.0523 96.3902C15.0725 96.3267 15.1052 96.2678 15.1485 96.2171C15.1918 96.1664 15.2448 96.1249 15.3044 96.095C15.364 96.0651 15.4289 96.0474 15.4955 96.0429L20.6807 95.5713C20.8127 95.5593 20.9441 95.6003 21.0459 95.6851C21.1477 95.77 21.2117 95.8918 21.2237 96.0238Z" fill="#CFABFF"/>
<path fill-rule="evenodd" clip-rule="evenodd" d="M2.06422 79.453C2.0151 79.4151 1.98303 79.3592 1.97507 79.2977C1.96711 79.2362 1.98391 79.174 2.02177 79.1249L3.50952 77.1951C3.52797 77.1699 3.55126 77.1487 3.57804 77.1327C3.60481 77.1167 3.63451 77.1061 3.66541 77.1018C3.6963 77.0974 3.72776 77.0992 3.75793 77.1072C3.7881 77.1152 3.81637 77.1291 3.84108 77.1481C3.86579 77.1672 3.88644 77.191 3.90182 77.2181C3.9172 77.2453 3.92699 77.2752 3.93063 77.3062C3.93426 77.3372 3.93166 77.3686 3.92297 77.3986C3.91429 77.4285 3.8997 77.4565 3.88006 77.4807L2.39231 79.4105C2.35442 79.4596 2.29858 79.4917 2.23706 79.4997C2.17553 79.5076 2.11336 79.4908 2.06422 79.453Z" fill="#CFABFF"/>
<path fill-rule="evenodd" clip-rule="evenodd" d="M6.06936 78.5603C6.04095 78.6154 5.9918 78.6571 5.93272 78.676C5.87364 78.6949 5.80946 78.6896 5.7543 78.6612L3.58775 77.5461C3.55968 77.5324 3.53461 77.5134 3.51402 77.4899C3.49343 77.4665 3.47773 77.4391 3.46786 77.4096C3.45798 77.38 3.45413 77.3487 3.45652 77.3176C3.45891 77.2865 3.4675 77.2561 3.48178 77.2284C3.49606 77.2007 3.51575 77.1761 3.53968 77.156C3.56361 77.136 3.5913 77.121 3.62113 77.1118C3.65095 77.1027 3.68231 77.0995 3.71335 77.1027C3.7444 77.1058 3.7745 77.1151 3.80189 77.1301L5.96843 78.2452C6.02358 78.2736 6.06519 78.3228 6.08412 78.3819C6.10304 78.4409 6.09773 78.5051 6.06936 78.5603Z" fill="#CFABFF"/>
</svg>
