<svg width="171" height="171" viewBox="0 0 171 171" fill="none" xmlns="http://www.w3.org/2000/svg">
<path d="M126.113 44.0893C131.512 49.4624 135.799 55.8463 138.73 62.8763C141.662 69.9063 143.179 77.4449 143.197 85.0615C143.215 92.6782 141.733 100.224 138.834 107.267C135.936 114.311 131.679 120.715 126.306 126.113L125.822 125.632C131.132 120.298 135.34 113.969 138.204 107.008C141.068 100.047 142.533 92.5903 142.516 85.0631C142.498 77.536 140.998 70.0861 138.101 63.1387C135.204 56.1913 130.967 49.8824 125.633 44.5724L126.113 44.0893Z" fill="#CFABFF"/>
<path fill-rule="evenodd" clip-rule="evenodd" d="M145.759 100.41C145.802 100.535 145.794 100.672 145.736 100.792C145.679 100.911 145.576 101.002 145.451 101.046L140.532 102.753C140.469 102.776 140.403 102.787 140.336 102.784C140.27 102.781 140.204 102.765 140.144 102.737C140.083 102.709 140.029 102.669 139.985 102.619C139.94 102.569 139.906 102.511 139.884 102.448C139.862 102.385 139.853 102.319 139.857 102.252C139.862 102.186 139.879 102.121 139.909 102.061C139.939 102.001 139.98 101.948 140.031 101.905C140.082 101.862 140.14 101.829 140.204 101.808L145.123 100.101C145.248 100.058 145.385 100.066 145.505 100.124C145.624 100.182 145.715 100.284 145.759 100.41Z" fill="#CFABFF"/>
<path fill-rule="evenodd" clip-rule="evenodd" d="M137.555 97.3155C137.67 97.2502 137.807 97.2334 137.935 97.2688C138.062 97.3041 138.171 97.3888 138.236 97.5041L140.803 102.034C140.837 102.091 140.859 102.155 140.869 102.221C140.878 102.287 140.874 102.354 140.857 102.419C140.84 102.483 140.81 102.544 140.77 102.596C140.729 102.649 140.678 102.693 140.62 102.726C140.562 102.759 140.498 102.78 140.432 102.788C140.366 102.795 140.299 102.79 140.235 102.771C140.171 102.753 140.111 102.722 140.059 102.68C140.007 102.638 139.964 102.586 139.933 102.527L137.366 97.9968C137.301 97.8815 137.284 97.7449 137.32 97.6172C137.355 97.4894 137.44 97.3809 137.555 97.3155Z" fill="#CFABFF"/>
<path fill-rule="evenodd" clip-rule="evenodd" d="M144.616 73.8169C144.68 73.871 144.72 73.9483 144.727 74.0318C144.734 74.1153 144.707 74.1982 144.653 74.2622L142.529 76.776C142.502 76.8088 142.469 76.836 142.432 76.856C142.395 76.876 142.354 76.8884 142.313 76.8924C142.271 76.8964 142.228 76.892 142.188 76.8795C142.148 76.8669 142.11 76.8464 142.078 76.8192C142.046 76.792 142.02 76.7586 142.001 76.721C141.981 76.6835 141.97 76.6425 141.967 76.6004C141.964 76.5584 141.969 76.5162 141.983 76.4762C141.996 76.4363 142.018 76.3995 142.046 76.368L144.171 73.8542C144.225 73.7902 144.302 73.7504 144.386 73.7433C144.469 73.7363 144.552 73.7628 144.616 73.8169Z" fill="#CFABFF"/>
<path fill-rule="evenodd" clip-rule="evenodd" d="M139.157 74.7784C139.199 74.7057 139.268 74.6525 139.349 74.6306C139.429 74.6086 139.516 74.6197 139.588 74.6613L142.444 76.2978C142.481 76.3178 142.514 76.3451 142.54 76.378C142.567 76.4109 142.586 76.4487 142.598 76.4892C142.609 76.5298 142.613 76.5722 142.608 76.6141C142.602 76.6559 142.589 76.6963 142.568 76.7329C142.547 76.7694 142.519 76.8014 142.486 76.827C142.452 76.8526 142.414 76.8712 142.373 76.8817C142.332 76.8923 142.29 76.8946 142.248 76.8884C142.206 76.8823 142.166 76.8679 142.13 76.8461L139.274 75.2097C139.201 75.168 139.148 75.0991 139.126 75.0183C139.104 74.9374 139.115 74.8511 139.157 74.7784Z" fill="#CFABFF"/>
</svg>
