<svg width="121" height="121" viewBox="0 0 121 121" fill="none" xmlns="http://www.w3.org/2000/svg">
<path d="M2.33399 62.6209C2.02749 55.0104 3.22299 47.4141 5.85224 40.2656C8.48148 33.1171 12.493 26.5565 17.6577 20.9584C22.8224 15.3602 29.0392 10.8341 35.9531 7.63853C42.867 4.44296 50.3426 2.64046 57.9531 2.33396L57.9805 3.01514C50.4595 3.31802 43.0717 5.09933 36.2391 8.25736C29.4065 11.4154 23.2628 15.8883 18.1587 21.4206C13.0547 26.953 9.0904 33.4365 6.49206 40.5009C3.89371 47.5654 2.71226 55.0724 3.01515 62.5935L2.33399 62.6209Z" fill="#CFABFF"/>
<path fill-rule="evenodd" clip-rule="evenodd" d="M26.2127 7.96064C26.266 7.83926 26.3653 7.74401 26.4888 7.69583C26.6122 7.64765 26.7498 7.65048 26.8712 7.7037L31.6391 9.79563C31.7008 9.82094 31.7568 9.85833 31.8038 9.9056C31.8508 9.95288 31.8879 10.0091 31.9129 10.0709C31.9379 10.1327 31.9502 10.1989 31.9492 10.2656C31.9483 10.3322 31.9339 10.398 31.9072 10.4591C31.8804 10.5201 31.8417 10.5752 31.7933 10.6211C31.7449 10.6669 31.6878 10.7027 31.6254 10.7261C31.563 10.7496 31.4966 10.7604 31.4299 10.7578C31.3633 10.7552 31.2979 10.7394 31.2375 10.7111L26.4696 8.61919C26.3482 8.5659 26.253 8.4666 26.2048 8.3431C26.1566 8.21961 26.1594 8.08204 26.2127 7.96064Z" fill="#CFABFF"/>
<path fill-rule="evenodd" clip-rule="evenodd" d="M30.1259 15.8068C29.9969 15.7763 29.8853 15.6958 29.8157 15.583C29.746 15.4702 29.724 15.3344 29.7544 15.2054L30.9518 10.1383C30.9656 10.0731 30.9922 10.0113 31.0303 9.95649C31.0683 9.90172 31.1169 9.85511 31.1732 9.8194C31.2295 9.78368 31.2923 9.75959 31.3581 9.74853C31.4238 9.73748 31.4911 9.73968 31.556 9.75502C31.6209 9.77035 31.6821 9.79851 31.7359 9.83783C31.7897 9.87715 31.8352 9.92684 31.8695 9.98398C31.9039 10.0411 31.9265 10.1046 31.9359 10.1705C31.9454 10.2365 31.9416 10.3038 31.9247 10.3683L30.7273 15.4353C30.6968 15.5643 30.6163 15.6759 30.5035 15.7456C30.3908 15.8152 30.2549 15.8373 30.1259 15.8068Z" fill="#CFABFF"/>
<path fill-rule="evenodd" clip-rule="evenodd" d="M8.97298 28.2407C8.96283 28.1575 8.98614 28.0737 9.03777 28.0077C9.0894 27.9417 9.16513 27.8989 9.2483 27.8887L12.5155 27.4895C12.5572 27.4834 12.5997 27.4857 12.6405 27.4963C12.6813 27.5068 12.7196 27.5254 12.7531 27.551C12.7866 27.5766 12.8147 27.6086 12.8356 27.6451C12.8566 27.6817 12.87 27.7221 12.8751 27.7639C12.8802 27.8058 12.8769 27.8482 12.8654 27.8888C12.8539 27.9293 12.8344 27.9671 12.808 28C12.7816 28.0329 12.749 28.0602 12.7119 28.0802C12.6748 28.1003 12.6341 28.1128 12.5922 28.1169L9.32497 28.516C9.24179 28.5262 9.15798 28.5029 9.09198 28.4512C9.02597 28.3996 8.98317 28.3239 8.97298 28.2407Z" fill="#CFABFF"/>
<path fill-rule="evenodd" clip-rule="evenodd" d="M13.6302 31.2464C13.5502 31.2714 13.4636 31.2636 13.3893 31.2247C13.3151 31.1858 13.2593 31.1191 13.2343 31.0391L12.2522 27.8975C12.2387 27.8576 12.2333 27.8154 12.2363 27.7733C12.2393 27.7313 12.2507 27.6903 12.2698 27.6527C12.2889 27.6151 12.3154 27.5818 12.3476 27.5546C12.3797 27.5274 12.4171 27.5069 12.4573 27.4943C12.4975 27.4817 12.5398 27.4773 12.5818 27.4814C12.6238 27.4854 12.6645 27.4978 12.7016 27.5178C12.7387 27.5378 12.7714 27.565 12.7978 27.5978C12.8243 27.6307 12.8438 27.6684 12.8554 27.709L13.8375 30.8505C13.8625 30.9305 13.8547 31.0172 13.8158 31.0914C13.7769 31.1656 13.7102 31.2214 13.6302 31.2464Z" fill="#CFABFF"/>
</svg>
