<svg width="9" height="58" viewBox="0 0 9 58" fill="none" xmlns="http://www.w3.org/2000/svg">
<path d="M4 57.5V0" stroke="#CFABFF"/>
<path fill-rule="evenodd" clip-rule="evenodd" d="M0.115799 27.3393C0.0309661 27.4412 -0.00994647 27.5726 0.00205479 27.7046C0.0140561 27.8366 0.0779885 27.9584 0.179798 28.0433L4.1798 31.3763C4.22998 31.4202 4.28843 31.4536 4.35171 31.4746C4.415 31.4956 4.48184 31.5037 4.54831 31.4985C4.61477 31.4932 4.67952 31.4747 4.73873 31.4441C4.79795 31.4135 4.85045 31.3713 4.89313 31.3201C4.93581 31.2689 4.96782 31.2096 4.98727 31.1459C5.00672 31.0821 5.01322 31.0151 5.00638 30.9488C4.99955 30.8824 4.97953 30.8182 4.94748 30.7597C4.91544 30.7012 4.87203 30.6498 4.8198 30.6083L0.819799 27.2753C0.71794 27.1905 0.586563 27.1496 0.454549 27.1616C0.322535 27.1736 0.20069 27.2375 0.115799 27.3393Z" fill="#CFABFF"/>
<path fill-rule="evenodd" clip-rule="evenodd" d="M8.8837 27.3393C8.79881 27.2375 8.67696 27.1736 8.54495 27.1616C8.41293 27.1496 8.28156 27.1905 8.1797 27.2753L4.1797 30.6083C4.12747 30.6498 4.08406 30.7012 4.05201 30.7597C4.01997 30.8182 3.99994 30.8824 3.99311 30.9488C3.98628 31.0151 3.99278 31.0821 4.01223 31.1459C4.03168 31.2096 4.06369 31.2689 4.10637 31.3201C4.14905 31.3713 4.20154 31.4135 4.26076 31.4441C4.31998 31.4747 4.38472 31.4932 4.45119 31.4985C4.51765 31.5037 4.5845 31.4956 4.64778 31.4746C4.71107 31.4536 4.76952 31.4202 4.8197 31.3763L8.8197 28.0433C8.92151 27.9584 8.98544 27.8366 8.99744 27.7046C9.00944 27.5726 8.96853 27.4412 8.8837 27.3393Z" fill="#CFABFF"/>
</svg>
