<svg width="39" height="40" viewBox="0 0 39 40" fill="none" xmlns="http://www.w3.org/2000/svg">
<path d="M19.6053 39.8746C30.2252 39.8746 38.8344 31.1442 38.8344 20.3746C38.8344 9.60508 30.2252 0.874634 19.6053 0.874634C8.98529 0.874634 0.376099 9.60508 0.376099 20.3746C0.376099 31.1442 8.98529 39.8746 19.6053 39.8746Z" fill="#395BA9" fill-opacity="0.1"/>
<path d="M12.6188 31.3606H10.9746L8.22488 27.1388V31.3606H6.58081V24.5161H8.22488L10.9746 28.7573V24.5161H12.6188V31.3606ZM16.5395 24.5161C17.2509 24.5161 17.8727 24.659 18.4047 24.9451C18.9367 25.2311 19.3469 25.634 19.6354 26.1541C19.9302 26.6675 20.0776 27.2623 20.0776 27.9383C20.0776 28.6078 19.9302 29.2025 19.6354 29.7226C19.3469 30.2426 18.9335 30.6455 18.395 30.9316C17.8631 31.2176 17.2445 31.3606 16.5395 31.3606H14.0108V24.5161H16.5395ZM16.4337 29.9176C17.0555 29.9176 17.5394 29.7453 17.8855 29.4008C18.2316 29.0563 18.4047 28.5688 18.4047 27.9383C18.4047 27.3078 18.2316 26.8171 17.8855 26.4661C17.5394 26.1151 17.0555 25.9396 16.4337 25.9396H15.6549V29.9176H16.4337ZM26.3405 26.7196C26.3405 27.116 26.2508 27.4801 26.0713 27.8116C25.8918 28.1366 25.6162 28.3998 25.2445 28.6013C24.8727 28.8028 24.4112 28.9036 23.86 28.9036H22.8408V31.3606H21.1967V24.5161H23.86C24.3984 24.5161 24.8534 24.6103 25.2253 24.7988C25.597 24.9873 25.8758 25.2473 26.0617 25.5788C26.2476 25.9103 26.3405 26.2906 26.3405 26.7196ZM23.735 27.5776C24.049 27.5776 24.283 27.5028 24.4369 27.3533C24.5907 27.2038 24.6676 26.9926 24.6676 26.7196C24.6676 26.4466 24.5907 26.2353 24.4369 26.0858C24.283 25.9363 24.049 25.8616 23.735 25.8616H22.8408V27.5776H23.735ZM30.8388 31.3606L29.435 28.7768H29.0409V31.3606H27.3967V24.5161H30.1561C30.6881 24.5161 31.14 24.6103 31.5118 24.7988C31.89 24.9873 32.172 25.2473 32.3579 25.5788C32.5438 25.9038 32.6367 26.2678 32.6367 26.6708C32.6367 27.1258 32.5085 27.5321 32.2521 27.8896C32.0021 28.247 31.6304 28.5005 31.1368 28.6501L32.6944 31.3606H30.8388ZM29.0409 27.5971H30.06C30.3612 27.5971 30.5856 27.5223 30.733 27.3728C30.8869 27.2233 30.9638 27.0121 30.9638 26.7391C30.9638 26.4791 30.8869 26.2743 30.733 26.1248C30.5856 25.9753 30.3612 25.9006 30.06 25.9006H29.0409V27.5971Z" fill="#919094"/>
<mask id="mask0_534_467" style="mask-type:luminance" maskUnits="userSpaceOnUse" x="9" y="4" width="21" height="21">
<path d="M29.2199 4.9375H9.99072V24.4375H29.2199V4.9375Z" fill="white"/>
</mask>
<g mask="url(#mask0_534_467)">
<path fill-rule="evenodd" clip-rule="evenodd" d="M19.0429 6.71988C19.4056 6.58206 19.8052 6.58206 20.1678 6.71988L25.7763 8.85274C26.0818 8.96886 26.3451 9.17677 26.5309 9.44873C26.7168 9.72068 26.8163 10.0437 26.8163 10.3745V14.732C26.8163 16.09 26.4435 17.4212 25.7394 18.5764C25.0354 19.7317 24.0281 20.6652 22.8303 21.2726L20.143 22.6344C19.9761 22.719 19.792 22.7631 19.6053 22.7631C19.4187 22.7631 19.2347 22.719 19.0677 22.6344L16.3805 21.2718C15.1827 20.6644 14.1754 19.7308 13.4713 18.5756C12.7673 17.4204 12.3944 16.0892 12.3944 14.7311V10.3753C12.3942 10.0443 12.4937 9.72118 12.6795 9.44906C12.8654 9.17693 13.1287 8.96892 13.4344 8.85274L19.0429 6.71988ZM20.4066 14.4687C20.712 14.2898 20.9508 14.0138 21.0858 13.6833C21.2208 13.3528 21.2444 12.9864 21.1531 12.6409C21.0618 12.2953 20.8607 11.99 20.5808 11.7723C20.301 11.5545 19.9581 11.4365 19.6053 11.4365C19.2526 11.4365 18.9097 11.5545 18.6299 11.7723C18.3501 11.99 18.1489 12.2953 18.0576 12.6409C17.9663 12.9864 17.99 13.3528 18.125 13.6833C18.26 14.0138 18.4987 14.2898 18.8042 14.4687V17.124C18.8042 17.3395 18.8886 17.5461 19.0388 17.6985C19.1891 17.8509 19.3929 17.9364 19.6053 17.9364C19.8178 17.9364 20.0217 17.8509 20.1719 17.6985C20.3222 17.5461 20.4066 17.3395 20.4066 17.124V14.4687Z" fill="#919094"/>
</g>
</svg>
