<svg width="120" height="20" viewBox="0 0 120 20" fill="none" xmlns="http://www.w3.org/2000/svg">
<path d="M7.15323 3.408C8.42023 1.136 9.05323 0 10.0002 0C10.9472 0 11.5802 1.136 12.8472 3.408L13.1752 3.996C13.5352 4.642 13.7152 4.965 13.9952 5.178C14.2752 5.391 14.6252 5.47 15.3252 5.628L15.9612 5.772C18.4212 6.329 19.6502 6.607 19.9432 7.548C20.2352 8.488 19.3972 9.469 17.7202 11.43L17.2862 11.937C16.8102 12.494 16.5712 12.773 16.4642 13.117C16.3572 13.462 16.3932 13.834 16.4652 14.577L16.5312 15.254C16.7842 17.871 16.9112 19.179 16.1452 19.76C15.3792 20.342 14.2272 19.811 11.9252 18.751L11.3282 18.477C10.6742 18.175 10.3472 18.025 10.0002 18.025C9.65323 18.025 9.32623 18.175 8.67123 18.477L8.07623 18.751C5.77323 19.811 4.62123 20.341 3.85624 19.761C3.08924 19.179 3.21623 17.871 3.46923 15.254L3.53523 14.578C3.60723 13.834 3.64323 13.462 3.53523 13.118C3.42923 12.773 3.19024 12.494 2.71424 11.938L2.28024 11.43C0.603235 9.47 -0.234765 8.489 0.057235 7.548C0.350235 6.607 1.58024 6.328 4.04024 5.772L4.67624 5.628C5.37524 5.47 5.72424 5.391 6.00524 5.178C6.28524 4.965 6.46523 4.642 6.82523 3.996L7.15323 3.408Z" fill="white"/>
<path d="M32.1537 3.408C33.4207 1.136 34.0537 0 35.0007 0C35.9477 0 36.5807 1.136 37.8477 3.408L38.1757 3.996C38.5357 4.642 38.7157 4.965 38.9957 5.178C39.2757 5.391 39.6257 5.47 40.3257 5.628L40.9617 5.772C43.4217 6.329 44.6507 6.607 44.9437 7.548C45.2357 8.488 44.3977 9.469 42.7207 11.43L42.2867 11.937C41.8107 12.494 41.5717 12.773 41.4647 13.117C41.3577 13.462 41.3937 13.834 41.4657 14.577L41.5317 15.254C41.7847 17.871 41.9117 19.179 41.1457 19.76C40.3797 20.342 39.2277 19.811 36.9257 18.751L36.3287 18.477C35.6747 18.175 35.3477 18.025 35.0007 18.025C34.6537 18.025 34.3267 18.175 33.6717 18.477L33.0767 18.751C30.7737 19.811 29.6217 20.341 28.8567 19.761C28.0897 19.179 28.2167 17.871 28.4697 15.254L28.5357 14.578C28.6077 13.834 28.6437 13.462 28.5357 13.118C28.4297 12.773 28.1907 12.494 27.7147 11.938L27.2807 11.43C25.6037 9.47 24.7657 8.489 25.0577 7.548C25.3507 6.607 26.5807 6.328 29.0407 5.772L29.6767 5.628C30.3757 5.47 30.7247 5.391 31.0057 5.178C31.2857 4.965 31.4657 4.642 31.8257 3.996L32.1537 3.408Z" fill="white"/>
<path d="M57.1542 3.408C58.4212 1.136 59.0542 0 60.0012 0C60.9482 0 61.5812 1.136 62.8482 3.408L63.1762 3.996C63.5362 4.642 63.7162 4.965 63.9962 5.178C64.2762 5.391 64.6262 5.47 65.3262 5.628L65.9622 5.772C68.4222 6.329 69.6512 6.607 69.9442 7.548C70.2362 8.488 69.3982 9.469 67.7212 11.43L67.2872 11.937C66.8112 12.494 66.5722 12.773 66.4652 13.117C66.3582 13.462 66.3942 13.834 66.4662 14.577L66.5322 15.254C66.7852 17.871 66.9122 19.179 66.1462 19.76C65.3802 20.342 64.2282 19.811 61.9262 18.751L61.3292 18.477C60.6752 18.175 60.3482 18.025 60.0012 18.025C59.6542 18.025 59.3272 18.175 58.6722 18.477L58.0772 18.751C55.7742 19.811 54.6222 20.341 53.8572 19.761C53.0902 19.179 53.2172 17.871 53.4702 15.254L53.5362 14.578C53.6082 13.834 53.6442 13.462 53.5362 13.118C53.4302 12.773 53.1912 12.494 52.7152 11.938L52.2812 11.43C50.6042 9.47 49.7662 8.489 50.0582 7.548C50.3512 6.607 51.5812 6.328 54.0412 5.772L54.6772 5.628C55.3762 5.47 55.7252 5.391 56.0062 5.178C56.2862 4.965 56.4662 4.642 56.8262 3.996L57.1542 3.408Z" fill="white"/>
<path d="M82.1547 3.408C83.4217 1.136 84.0547 0 85.0017 0C85.9487 0 86.5817 1.136 87.8487 3.408L88.1767 3.996C88.5367 4.642 88.7167 4.965 88.9967 5.178C89.2767 5.391 89.6267 5.47 90.3267 5.628L90.9627 5.772C93.4227 6.329 94.6517 6.607 94.9447 7.548C95.2367 8.488 94.3987 9.469 92.7217 11.43L92.2877 11.937C91.8117 12.494 91.5727 12.773 91.4657 13.117C91.3587 13.462 91.3947 13.834 91.4667 14.577L91.5327 15.254C91.7857 17.871 91.9127 19.179 91.1467 19.76C90.3807 20.342 89.2287 19.811 86.9267 18.751L86.3297 18.477C85.6757 18.175 85.3487 18.025 85.0017 18.025C84.6547 18.025 84.3277 18.175 83.6727 18.477L83.0777 18.751C80.7747 19.811 79.6227 20.341 78.8577 19.761C78.0907 19.179 78.2177 17.871 78.4707 15.254L78.5367 14.578C78.6087 13.834 78.6447 13.462 78.5367 13.118C78.4307 12.773 78.1917 12.494 77.7157 11.938L77.2817 11.43C75.6047 9.47 74.7667 8.489 75.0587 7.548C75.3517 6.607 76.5817 6.328 79.0417 5.772L79.6777 5.628C80.3767 5.47 80.7257 5.391 81.0067 5.178C81.2867 4.965 81.4667 4.642 81.8267 3.996L82.1547 3.408Z" fill="white"/>
<path d="M107.155 3.408C108.422 1.136 109.055 0 110.002 0C110.949 0 111.582 1.136 112.849 3.408L113.177 3.996C113.537 4.642 113.717 4.965 113.997 5.178C114.277 5.391 114.627 5.47 115.327 5.628L115.963 5.772C118.423 6.329 119.652 6.607 119.945 7.548C120.237 8.488 119.399 9.469 117.722 11.43L117.288 11.937C116.812 12.494 116.573 12.773 116.466 13.117C116.359 13.462 116.395 13.834 116.467 14.577L116.533 15.254C116.786 17.871 116.913 19.179 116.147 19.76C115.381 20.342 114.229 19.811 111.927 18.751L111.33 18.477C110.676 18.175 110.349 18.025 110.002 18.025C109.655 18.025 109.328 18.175 108.673 18.477L108.078 18.751C105.775 19.811 104.623 20.341 103.858 19.761C103.091 19.179 103.218 17.871 103.471 15.254L103.537 14.578C103.609 13.834 103.645 13.462 103.537 13.118C103.431 12.773 103.192 12.494 102.716 11.938L102.282 11.43C100.605 9.47 99.7672 8.489 100.059 7.548C100.352 6.607 101.582 6.328 104.042 5.772L104.678 5.628C105.377 5.47 105.726 5.391 106.007 5.178C106.287 4.965 106.467 4.642 106.827 3.996L107.155 3.408Z" fill="white"/>
</svg>
