<svg width="13" height="12" viewBox="0 0 13 12" fill="none" xmlns="http://www.w3.org/2000/svg">
<path fill-rule="evenodd" clip-rule="evenodd" d="M11.9348 6.39038C11.884 6.51221 11.8096 6.62286 11.7159 6.71582C11.623 6.80951 11.5123 6.88391 11.3905 6.93469C11.2686 6.98547 11.1379 7.0116 11.0059 7.0116C10.8739 7.0116 10.7432 6.98547 10.6213 6.93469C10.5533 6.90631 10.4887 6.87054 10.4287 6.82819C10.3813 6.79474 10.3369 6.75714 10.2959 6.71582L6.00592 2.41577L1.71594 6.71582C1.62299 6.80951 1.51233 6.88391 1.3905 6.93469C1.26862 6.98547 1.13794 7.0116 1.00592 7.0116C0.873901 7.0116 0.743225 6.98547 0.621338 6.93469C0.54602 6.90332 0.474975 6.86285 0.409729 6.81445C0.369446 6.78455 0.33136 6.75159 0.295898 6.71582C0.202209 6.62286 0.127807 6.51221 0.0770261 6.39038C0.0262448 6.26849 0.000121802 6.13782 0.000121808 6.0058C0.000121814 5.87378 0.0262449 5.7431 0.0770261 5.62122C0.127807 5.49939 0.202209 5.38873 0.295898 5.29578L5.2959 0.295776C5.38885 0.202087 5.49951 0.127685 5.62134 0.076904C5.74323 0.0261228 5.8739 -2.68293e-07 6.00592 -2.62522e-07C6.13794 -2.56751e-07 6.26862 0.0261228 6.3905 0.0769041C6.51233 0.127685 6.62299 0.202087 6.71594 0.295776L11.7159 5.29578C11.8096 5.38873 11.884 5.49939 11.9348 5.62122C11.9604 5.68262 11.9797 5.74628 11.9926 5.81122C12.0053 5.87518 12.0117 5.94031 12.0117 6.0058C12.0117 6.13782 11.9856 6.26849 11.9348 6.39038Z" fill="#FF5656" fill-opacity="0.65"/>
<path fill-rule="evenodd" clip-rule="evenodd" d="M11.9348 10.8904C11.884 11.0122 11.8096 11.1228 11.7159 11.2158C11.623 11.3095 11.5124 11.3839 11.3905 11.4347C11.2686 11.4855 11.1379 11.5116 11.0059 11.5116C10.8739 11.5116 10.7432 11.4855 10.6213 11.4347C10.4995 11.3839 10.3889 11.3095 10.2959 11.2158L6.00592 6.9158L1.71592 11.2158C1.62296 11.3095 1.51236 11.3839 1.3905 11.4347C1.26864 11.4855 1.13793 11.5116 1.00592 11.5116C0.873909 11.5116 0.743203 11.4855 0.621343 11.4347C0.499484 11.3839 0.388884 11.3095 0.295921 11.2158C0.202193 11.1228 0.127797 11.0122 0.077028 10.8904C0.0262591 10.7685 0.000121802 10.6378 0.000121808 10.5058C0.000121814 10.3738 0.0262592 10.2431 0.077028 10.1212C0.127797 9.99936 0.202193 9.88876 0.295921 9.7958L5.29592 4.7958C5.38888 4.70207 5.49948 4.62768 5.62134 4.57691C5.7432 4.52614 5.87391 4.5 6.00592 4.5C6.13793 4.5 6.26864 4.52614 6.3905 4.57691C6.51236 4.62768 6.62296 4.70207 6.71592 4.7958L11.7159 9.7958C11.8096 9.88876 11.884 9.99936 11.9348 10.1212C11.9856 10.2431 12.0117 10.3738 12.0117 10.5058C12.0117 10.6378 11.9856 10.7685 11.9348 10.8904Z" fill="#FF5656" fill-opacity="0.65"/>
</svg>
