<svg width="41" height="206" viewBox="0 0 41 206" fill="none" xmlns="http://www.w3.org/2000/svg">
<path d="M21 0.85791V205.641" stroke="url(#paint0_linear_671_2956)"/>
<circle cx="20.5" cy="153.5" r="20.5" fill="#FFC87F"/>
<path d="M29.1159 149.437H27.2565V147.456C27.2565 146.321 26.8293 145.239 26.0537 144.411C25.9095 144.257 25.6678 144.249 25.5139 144.393C25.3599 144.537 25.352 144.779 25.4961 144.933C26.1387 145.619 26.4926 146.515 26.4926 147.456V149.437H18.7205C16.2635 149.437 14.2645 151.436 14.2645 153.893V155.26H13.6663C13.4283 155.26 13.2045 155.352 13.0361 155.521L11.0089 157.548V155.508C11.0089 155.196 10.8417 154.902 10.5723 154.742C9.45685 154.079 8.76386 152.863 8.76386 151.567V147.456C8.76386 145.42 10.4201 143.764 12.456 143.764H22.8005C23.2776 143.764 23.7418 143.853 24.18 144.03C24.3756 144.109 24.5982 144.014 24.677 143.819C24.7559 143.623 24.6613 143.401 24.4656 143.322C23.9363 143.108 23.376 143 22.8005 143H12.456C9.99896 143 8 144.999 8 147.456V151.567C8 153.131 8.83608 154.599 10.182 155.399C10.2209 155.422 10.2451 155.464 10.2451 155.509V157.732C10.2451 158.011 10.4117 158.26 10.6695 158.367C10.8415 158.45 11.1928 158.438 11.4187 158.218L13.5762 156.061C13.6003 156.037 13.6323 156.023 13.6663 156.023H14.2645V158.005C14.2645 158.606 14.3824 159.19 14.6148 159.739C14.697 159.933 14.9211 160.024 15.1154 159.942C15.3097 159.86 15.4005 159.636 15.3184 159.442C15.126 158.987 15.0284 158.503 15.0284 158.005V153.893C15.0284 151.857 16.6847 150.201 18.7206 150.201H29.1159C31.1518 150.201 32.8081 151.857 32.8081 153.893V158.005C32.8081 159.305 32.1432 160.485 31.0296 161.161C30.7672 161.321 30.6041 161.612 30.6041 161.921V164.412L28.1499 161.958C27.9816 161.789 27.7578 161.697 27.5197 161.697H18.7205C17.794 161.697 16.908 161.352 16.2257 160.726C16.0703 160.584 15.8287 160.594 15.6861 160.75C15.5435 160.905 15.5539 161.147 15.7094 161.289C16.5329 162.045 17.6023 162.461 18.7205 162.461H27.5196C27.5531 162.461 27.586 162.474 27.6096 162.498L30.1942 165.083C30.3938 165.236 30.5889 165.354 30.9434 165.231C31.2012 165.125 31.3678 164.875 31.3678 164.596V161.921C31.3678 161.877 31.3902 161.836 31.4261 161.814C32.7698 160.998 33.5719 159.574 33.5719 158.005V153.893C33.5719 151.436 31.573 149.437 29.1159 149.437Z" fill="white"/>
<path d="M22.8404 158.546C22.6165 158.229 22.2085 158.017 21.7431 158.017C21.0375 158.017 20.4636 158.505 20.4636 159.104C20.4636 159.704 21.0376 160.191 21.7431 160.191C22.3622 160.191 22.8799 159.816 22.9975 159.319C23.5609 159.082 24.0044 158.609 24.1969 158.011C24.7547 157.884 25.1724 157.384 25.1724 156.788V155.411C25.1724 154.836 24.7831 154.35 24.2543 154.203C24.1298 153.436 23.7529 152.732 23.1749 152.2C22.5301 151.606 21.692 151.28 20.8151 151.28C19.0894 151.28 17.6461 152.523 17.3755 154.203C16.8469 154.35 16.4578 154.836 16.4578 155.411V156.788C16.4578 157.48 17.0203 158.042 17.7117 158.042C18.4032 158.042 18.9657 157.48 18.9657 156.788V155.411C18.9657 154.872 18.6236 154.411 18.1452 154.234C18.3928 152.969 19.4989 152.043 20.8151 152.043C22.1146 152.043 23.2346 152.985 23.484 154.235C23.006 154.412 22.6644 154.872 22.6644 155.411V156.788C22.6644 157.298 22.9702 157.737 23.4078 157.933C23.2864 158.194 23.0867 158.407 22.8404 158.546ZM21.7431 159.428C21.4392 159.428 21.2274 159.257 21.2274 159.104C21.2274 158.951 21.4392 158.781 21.7431 158.781C22.047 158.781 22.2588 158.951 22.2588 159.104C22.2588 159.257 22.047 159.428 21.7431 159.428ZM18.2018 156.788C18.2018 157.058 17.982 157.278 17.7117 157.278C17.4415 157.278 17.2216 157.058 17.2216 156.788V155.411C17.2216 155.141 17.4415 154.921 17.7117 154.921C17.982 154.921 18.2018 155.141 18.2018 155.411V156.788ZM23.4283 155.411C23.4283 155.141 23.6482 154.921 23.9184 154.921C24.1887 154.921 24.4085 155.141 24.4085 155.411V156.788C24.4085 157.058 24.1887 157.278 23.9184 157.278C23.6482 157.278 23.4283 157.058 23.4283 156.788V155.411Z" fill="white"/>
<path d="M26.1646 153.444H29.2069C29.4178 153.444 29.5888 153.273 29.5888 153.062C29.5888 152.851 29.4178 152.68 29.2069 152.68H26.1646C25.9537 152.68 25.7827 152.851 25.7827 153.062C25.7827 153.273 25.9537 153.444 26.1646 153.444Z" fill="white"/>
<path d="M26.1646 155.154H28.5104C28.7213 155.154 28.8924 154.983 28.8924 154.772C28.8924 154.561 28.7213 154.39 28.5104 154.39H26.1646C25.9537 154.39 25.7827 154.561 25.7827 154.772C25.7827 154.983 25.9537 155.154 26.1646 155.154Z" fill="white"/>
<path d="M11.7577 148.565C12.0721 148.565 12.3271 148.31 12.3271 147.996C12.3271 147.681 12.0721 147.426 11.7577 147.426C11.4432 147.426 11.1882 147.681 11.1882 147.996C11.1882 148.31 11.4432 148.565 11.7577 148.565Z" fill="white"/>
<path d="M13.482 148.565C13.7965 148.565 14.0514 148.31 14.0514 147.996C14.0514 147.681 13.7965 147.426 13.482 147.426C13.1675 147.426 12.9126 147.681 12.9126 147.996C12.9126 148.31 13.1675 148.565 13.482 148.565Z" fill="white"/>
<path d="M15.1966 148.565C15.5111 148.565 15.766 148.31 15.766 147.996C15.766 147.681 15.5111 147.426 15.1966 147.426C14.8821 147.426 14.6272 147.681 14.6272 147.996C14.6272 148.31 14.8821 148.565 15.1966 148.565Z" fill="white"/>
<defs>
<linearGradient id="paint0_linear_671_2956" x1="21.5" y1="0.85791" x2="21.5" y2="205.641" gradientUnits="userSpaceOnUse">
<stop stop-color="#FFC87F"/>
<stop offset="1" stop-color="#FFC87F" stop-opacity="0"/>
</linearGradient>
</defs>
</svg>
