<svg width="41" height="153" viewBox="0 0 41 153" fill="none" xmlns="http://www.w3.org/2000/svg">
<path d="M20.7278 0.0871582L20.7278 152.641" stroke="#CFABFF"/>
<circle cx="20.5" cy="77.5" r="20.5" fill="#CFABFF"/>
<path d="M29.1159 73.4371H27.2565V71.456C27.2565 70.3208 26.8293 69.2393 26.0537 68.411C25.9095 68.2569 25.6678 68.249 25.5139 68.3932C25.3599 68.5374 25.352 68.7791 25.4961 68.933C26.1387 69.6193 26.4926 70.5153 26.4926 71.456V73.4371H18.7205C16.2635 73.4371 14.2645 75.4361 14.2645 77.8931V79.2595H13.6663C13.4283 79.2595 13.2045 79.3522 13.0361 79.5206L11.0089 81.5477V79.5085C11.0089 79.1961 10.8417 78.9025 10.5723 78.7424C9.45685 78.0791 8.76386 76.8626 8.76386 75.5674V71.456C8.76386 69.4201 10.4201 67.7639 12.456 67.7639H22.8005C23.2776 67.7639 23.7418 67.8534 24.18 68.0301C24.3756 68.1089 24.5982 68.0143 24.677 67.8187C24.7559 67.6231 24.6613 67.4005 24.4656 67.3216C23.9363 67.1082 23.376 67 22.8005 67H12.456C9.99896 67 8 68.999 8 71.456V75.5674C8 77.1306 8.83608 78.5988 10.182 79.3989C10.2209 79.4221 10.2451 79.4641 10.2451 79.5085V81.7322C10.2451 82.0112 10.4117 82.2605 10.6695 82.3673C10.8415 82.45 11.1928 82.4381 11.4187 82.2183L13.5762 80.0608C13.6003 80.0367 13.6323 80.0235 13.6663 80.0235H14.2645V82.0045C14.2645 82.606 14.3824 83.1896 14.6148 83.7392C14.697 83.9334 14.9211 84.0242 15.1154 83.9422C15.3097 83.86 15.4005 83.6359 15.3184 83.4416C15.126 82.9867 15.0284 82.5032 15.0284 82.0046V77.8932C15.0284 75.8573 16.6847 74.201 18.7206 74.201H29.1159C31.1518 74.201 32.8081 75.8573 32.8081 77.8932V82.0046C32.8081 83.3048 32.1432 84.4849 31.0296 85.1614C30.7672 85.3209 30.6041 85.6119 30.6041 85.9209V88.4119L28.1499 85.9577C27.9816 85.7894 27.7578 85.6967 27.5197 85.6967H18.7205C17.794 85.6967 16.908 85.3521 16.2257 84.7263C16.0703 84.5838 15.8287 84.5942 15.6861 84.7497C15.5435 84.9051 15.5539 85.1467 15.7094 85.2893C16.5329 86.0446 17.6023 86.4606 18.7205 86.4606H27.5196C27.5531 86.4606 27.586 86.4742 27.6096 86.4979L30.1942 89.0825C30.3938 89.2359 30.5889 89.3545 30.9434 89.2315C31.2012 89.1247 31.3678 88.8754 31.3678 88.5963V85.9208C31.3678 85.8769 31.3902 85.836 31.4261 85.8142C32.7698 84.9979 33.5719 83.5738 33.5719 82.0045V77.8931C33.5719 75.4361 31.573 73.4371 29.1159 73.4371Z" fill="white"/>
<path d="M22.8404 82.5457C22.6165 82.2293 22.2085 82.0171 21.7431 82.0171C21.0375 82.0171 20.4636 82.5048 20.4636 83.1043C20.4636 83.7037 21.0376 84.1915 21.7431 84.1915C22.3622 84.1915 22.8799 83.8159 22.9975 83.3189C23.5609 83.0816 24.0044 82.6087 24.1969 82.0106C24.7547 81.8835 25.1724 81.3839 25.1724 80.7881V79.4109C25.1724 78.8358 24.7831 78.3502 24.2543 78.203C24.1298 77.4359 23.7529 76.732 23.1749 76.2C22.5301 75.6064 21.692 75.2795 20.8151 75.2795C19.0894 75.2795 17.6461 76.5225 17.3755 78.203C16.8469 78.3504 16.4578 78.8359 16.4578 79.4109V80.7881C16.4578 81.4795 17.0203 82.0421 17.7117 82.0421C18.4032 82.0421 18.9657 81.4795 18.9657 80.7881V79.4109C18.9657 78.8717 18.6236 78.411 18.1452 78.2341C18.3928 76.9688 19.4989 76.0434 20.8151 76.0434C22.1146 76.0434 23.2346 76.985 23.484 78.2345C23.006 78.4116 22.6644 78.872 22.6644 79.4109V80.7881C22.6644 81.2977 22.9702 81.7371 23.4078 81.933C23.2864 82.1939 23.0867 82.407 22.8404 82.5457ZM21.7431 83.4276C21.4392 83.4276 21.2274 83.2573 21.2274 83.1044C21.2274 82.9514 21.4392 82.781 21.7431 82.781C22.047 82.781 22.2588 82.9514 22.2588 83.1044C22.2588 83.2573 22.047 83.4276 21.7431 83.4276ZM18.2018 80.7882C18.2018 81.0584 17.982 81.2783 17.7117 81.2783C17.4415 81.2783 17.2216 81.0584 17.2216 80.7882V79.411C17.2216 79.1407 17.4415 78.9208 17.7117 78.9208C17.982 78.9208 18.2018 79.1407 18.2018 79.411V80.7882ZM23.4283 79.411C23.4283 79.1407 23.6482 78.9208 23.9184 78.9208C24.1887 78.9208 24.4085 79.1407 24.4085 79.411V80.7882C24.4085 81.0584 24.1887 81.2783 23.9184 81.2783C23.6482 81.2783 23.4283 81.0584 23.4283 80.7882V79.411Z" fill="white"/>
<path d="M26.1646 77.4442H29.2069C29.4178 77.4442 29.5888 77.2732 29.5888 77.0622C29.5888 76.8513 29.4178 76.6803 29.2069 76.6803H26.1646C25.9537 76.6803 25.7827 76.8513 25.7827 77.0622C25.7827 77.2732 25.9537 77.4442 26.1646 77.4442Z" fill="white"/>
<path d="M26.1646 79.1539H28.5104C28.7213 79.1539 28.8924 78.983 28.8924 78.772C28.8924 78.561 28.7213 78.3901 28.5104 78.3901H26.1646C25.9537 78.3901 25.7827 78.561 25.7827 78.772C25.7827 78.983 25.9537 79.1539 26.1646 79.1539Z" fill="white"/>
<path d="M11.7577 72.5651C12.0721 72.5651 12.3271 72.3102 12.3271 71.9957C12.3271 71.6812 12.0721 71.4263 11.7577 71.4263C11.4432 71.4263 11.1882 71.6812 11.1882 71.9957C11.1882 72.3102 11.4432 72.5651 11.7577 72.5651Z" fill="white"/>
<path d="M13.482 72.5651C13.7965 72.5651 14.0514 72.3102 14.0514 71.9957C14.0514 71.6812 13.7965 71.4263 13.482 71.4263C13.1675 71.4263 12.9126 71.6812 12.9126 71.9957C12.9126 72.3102 13.1675 72.5651 13.482 72.5651Z" fill="white"/>
<path d="M15.1966 72.5651C15.5111 72.5651 15.766 72.3102 15.766 71.9957C15.766 71.6812 15.5111 71.4263 15.1966 71.4263C14.8821 71.4263 14.6272 71.6812 14.6272 71.9957C14.6272 72.3102 14.8821 72.5651 15.1966 72.5651Z" fill="white"/>
</svg>
