<svg width="41" height="206" viewBox="0 0 41 206" fill="none" xmlns="http://www.w3.org/2000/svg">
<path d="M20.0732 0.85791L20.0732 205.641" stroke="url(#paint0_linear_671_2955)"/>
<circle cx="20.5" cy="130.5" r="20.5" fill="#FF8A8A"/>
<path d="M29.1159 126.437H27.2565V124.456C27.2565 123.321 26.8293 122.239 26.0537 121.411C25.9095 121.257 25.6678 121.249 25.5139 121.393C25.3599 121.537 25.352 121.779 25.4961 121.933C26.1387 122.619 26.4926 123.515 26.4926 124.456V126.437H18.7205C16.2635 126.437 14.2645 128.436 14.2645 130.893V132.26H13.6663C13.4283 132.26 13.2045 132.352 13.0361 132.521L11.0089 134.548V132.508C11.0089 132.196 10.8417 131.902 10.5723 131.742C9.45685 131.079 8.76386 129.863 8.76386 128.567V124.456C8.76386 122.42 10.4201 120.764 12.456 120.764H22.8005C23.2776 120.764 23.7418 120.853 24.18 121.03C24.3756 121.109 24.5982 121.014 24.677 120.819C24.7559 120.623 24.6613 120.401 24.4656 120.322C23.9363 120.108 23.376 120 22.8005 120H12.456C9.99896 120 8 121.999 8 124.456V128.567C8 130.131 8.83608 131.599 10.182 132.399C10.2209 132.422 10.2451 132.464 10.2451 132.509V134.732C10.2451 135.011 10.4117 135.26 10.6695 135.367C10.8415 135.45 11.1928 135.438 11.4187 135.218L13.5762 133.061C13.6003 133.037 13.6323 133.023 13.6663 133.023H14.2645V135.005C14.2645 135.606 14.3824 136.19 14.6148 136.739C14.697 136.933 14.9211 137.024 15.1154 136.942C15.3097 136.86 15.4005 136.636 15.3184 136.442C15.126 135.987 15.0284 135.503 15.0284 135.005V130.893C15.0284 128.857 16.6847 127.201 18.7206 127.201H29.1159C31.1518 127.201 32.8081 128.857 32.8081 130.893V135.005C32.8081 136.305 32.1432 137.485 31.0296 138.161C30.7672 138.321 30.6041 138.612 30.6041 138.921V141.412L28.1499 138.958C27.9816 138.789 27.7578 138.697 27.5197 138.697H18.7205C17.794 138.697 16.908 138.352 16.2257 137.726C16.0703 137.584 15.8287 137.594 15.6861 137.75C15.5435 137.905 15.5539 138.147 15.7094 138.289C16.5329 139.045 17.6023 139.461 18.7205 139.461H27.5196C27.5531 139.461 27.586 139.474 27.6096 139.498L30.1942 142.083C30.3938 142.236 30.5889 142.354 30.9434 142.231C31.2012 142.125 31.3678 141.875 31.3678 141.596V138.921C31.3678 138.877 31.3902 138.836 31.4261 138.814C32.7698 137.998 33.5719 136.574 33.5719 135.005V130.893C33.5719 128.436 31.573 126.437 29.1159 126.437Z" fill="white"/>
<path d="M22.8404 135.546C22.6165 135.229 22.2085 135.017 21.7431 135.017C21.0375 135.017 20.4636 135.505 20.4636 136.104C20.4636 136.704 21.0376 137.191 21.7431 137.191C22.3622 137.191 22.8799 136.816 22.9975 136.319C23.5609 136.082 24.0044 135.609 24.1969 135.011C24.7547 134.884 25.1724 134.384 25.1724 133.788V132.411C25.1724 131.836 24.7831 131.35 24.2543 131.203C24.1298 130.436 23.7529 129.732 23.1749 129.2C22.5301 128.606 21.692 128.28 20.8151 128.28C19.0894 128.28 17.6461 129.523 17.3755 131.203C16.8469 131.35 16.4578 131.836 16.4578 132.411V133.788C16.4578 134.48 17.0203 135.042 17.7117 135.042C18.4032 135.042 18.9657 134.48 18.9657 133.788V132.411C18.9657 131.872 18.6236 131.411 18.1452 131.234C18.3928 129.969 19.4989 129.043 20.8151 129.043C22.1146 129.043 23.2346 129.985 23.484 131.235C23.006 131.412 22.6644 131.872 22.6644 132.411V133.788C22.6644 134.298 22.9702 134.737 23.4078 134.933C23.2864 135.194 23.0867 135.407 22.8404 135.546ZM21.7431 136.428C21.4392 136.428 21.2274 136.257 21.2274 136.104C21.2274 135.951 21.4392 135.781 21.7431 135.781C22.047 135.781 22.2588 135.951 22.2588 136.104C22.2588 136.257 22.047 136.428 21.7431 136.428ZM18.2018 133.788C18.2018 134.058 17.982 134.278 17.7117 134.278C17.4415 134.278 17.2216 134.058 17.2216 133.788V132.411C17.2216 132.141 17.4415 131.921 17.7117 131.921C17.982 131.921 18.2018 132.141 18.2018 132.411V133.788ZM23.4283 132.411C23.4283 132.141 23.6482 131.921 23.9184 131.921C24.1887 131.921 24.4085 132.141 24.4085 132.411V133.788C24.4085 134.058 24.1887 134.278 23.9184 134.278C23.6482 134.278 23.4283 134.058 23.4283 133.788V132.411Z" fill="white"/>
<path d="M26.1646 130.444H29.2069C29.4178 130.444 29.5888 130.273 29.5888 130.062C29.5888 129.851 29.4178 129.68 29.2069 129.68H26.1646C25.9537 129.68 25.7827 129.851 25.7827 130.062C25.7827 130.273 25.9537 130.444 26.1646 130.444Z" fill="white"/>
<path d="M26.1646 132.154H28.5104C28.7213 132.154 28.8924 131.983 28.8924 131.772C28.8924 131.561 28.7213 131.39 28.5104 131.39H26.1646C25.9537 131.39 25.7827 131.561 25.7827 131.772C25.7827 131.983 25.9537 132.154 26.1646 132.154Z" fill="white"/>
<path d="M11.7577 125.565C12.0721 125.565 12.3271 125.31 12.3271 124.996C12.3271 124.681 12.0721 124.426 11.7577 124.426C11.4432 124.426 11.1882 124.681 11.1882 124.996C11.1882 125.31 11.4432 125.565 11.7577 125.565Z" fill="white"/>
<path d="M13.482 125.565C13.7965 125.565 14.0514 125.31 14.0514 124.996C14.0514 124.681 13.7965 124.426 13.482 124.426C13.1675 124.426 12.9126 124.681 12.9126 124.996C12.9126 125.31 13.1675 125.565 13.482 125.565Z" fill="white"/>
<path d="M15.1966 125.565C15.5111 125.565 15.766 125.31 15.766 124.996C15.766 124.681 15.5111 124.426 15.1966 124.426C14.8821 124.426 14.6272 124.681 14.6272 124.996C14.6272 125.31 14.8821 125.565 15.1966 125.565Z" fill="white"/>
<defs>
<linearGradient id="paint0_linear_671_2955" x1="20.5732" y1="0.85791" x2="20.5732" y2="205.641" gradientUnits="userSpaceOnUse">
<stop stop-color="#FF5656" stop-opacity="0.65"/>
<stop offset="1" stop-color="#FF5656"/>
</linearGradient>
</defs>
</svg>
