<svg width="32" height="32" viewBox="0 0 32 32" fill="none" xmlns="http://www.w3.org/2000/svg">
<circle cx="16" cy="16" r="16" fill="#F0E5FF"/>
<path d="M6.98214 26H12.875C13.1355 26 13.3853 25.891 13.5695 25.697C13.7537 25.503 13.8571 25.2399 13.8571 24.9655V22.631C13.8571 22.5643 13.8387 22.499 13.8042 22.4431C13.7696 22.3871 13.7204 22.343 13.6625 22.3159C13.6046 22.2889 13.5404 22.2801 13.4779 22.2907C13.4154 22.3013 13.3571 22.3307 13.3101 22.3755C13.1865 22.4897 13.0267 22.5507 12.8624 22.5465C12.6981 22.5423 12.5413 22.4732 12.4232 22.3529C12.305 22.2325 12.2341 22.0698 12.2246 21.897C12.2151 21.7241 12.2676 21.5539 12.3718 21.42C12.4882 21.2809 12.6517 21.1956 12.8272 21.1823C13.0026 21.169 13.1761 21.2289 13.3101 21.3489C13.3571 21.3937 13.4154 21.4232 13.478 21.4337C13.5406 21.4443 13.6047 21.4355 13.6626 21.4084C13.7205 21.3813 13.7698 21.3371 13.8043 21.2811C13.8388 21.2251 13.8572 21.1598 13.8571 21.0931V18.7586C13.8571 18.4842 13.7537 18.2211 13.5695 18.0271C13.3853 17.8331 13.1355 17.7241 12.875 17.7241H11.1965C11.2586 17.4713 11.2513 17.2051 11.1754 16.9566C11.0995 16.708 10.9583 16.4872 10.768 16.3199C10.619 16.1901 10.4447 16.0962 10.2576 16.0449C10.0704 15.9936 9.87487 15.9862 9.68467 16.023C9.43157 16.0729 9.1981 16.2004 9.01362 16.3896C8.82914 16.5789 8.70189 16.8213 8.64786 17.0865C8.60557 17.2972 8.60971 17.5153 8.65997 17.7241H6.98214C6.72166 17.7241 6.47185 17.8331 6.28766 18.0271C6.10348 18.2211 6 18.4842 6 18.7586V24.9655C6 25.2399 6.10348 25.503 6.28766 25.697C6.47185 25.891 6.72166 26 6.98214 26ZM6.65476 18.7586C6.65476 18.6671 6.68925 18.5794 6.75065 18.5147C6.81205 18.4501 6.89532 18.4137 6.98214 18.4137H9.19851C9.26192 18.4138 9.32398 18.3944 9.37714 18.358C9.4303 18.3216 9.47227 18.2697 9.49796 18.2086C9.52366 18.1475 9.53196 18.0799 9.52187 18.014C9.51177 17.9481 9.48371 17.8866 9.4411 17.8372C9.35662 17.738 9.30121 17.6152 9.28158 17.4836C9.26195 17.352 9.27893 17.2172 9.33047 17.0955C9.38202 16.9738 9.46591 16.8705 9.57203 16.798C9.67814 16.7255 9.80192 16.6869 9.92841 16.6869C10.0549 16.6869 10.1787 16.7255 10.2848 16.798C10.3909 16.8705 10.4748 16.9738 10.5263 17.0955C10.5779 17.2172 10.5949 17.352 10.5752 17.4836C10.5556 17.6152 10.5002 17.738 10.4157 17.8372C10.3731 17.8866 10.345 17.9481 10.3349 18.0141C10.3249 18.0801 10.3332 18.1477 10.3589 18.2088C10.3847 18.2698 10.4267 18.3217 10.4799 18.3581C10.5331 18.3945 10.5952 18.4138 10.6586 18.4137H12.875C12.9618 18.4137 13.0451 18.4501 13.1065 18.5147C13.1679 18.5794 13.2024 18.6671 13.2024 18.7586V20.5265C12.9887 20.4682 12.7645 20.4677 12.5507 20.5251C12.3368 20.5825 12.1401 20.6959 11.979 20.8548C11.8179 21.0137 11.6975 21.2129 11.629 21.4339C11.5606 21.6549 11.5463 21.8905 11.5874 22.1189C11.6348 22.3855 11.7559 22.6314 11.9356 22.8257C12.1152 23.0199 12.3453 23.154 12.5971 23.211C12.7971 23.2558 13.0043 23.2513 13.2024 23.1979V24.9655C13.2024 25.057 13.1679 25.1447 13.1065 25.2093C13.0451 25.274 12.9618 25.3103 12.875 25.3103H6.98214C6.89532 25.3103 6.81205 25.274 6.75065 25.2093C6.68925 25.1447 6.65476 25.057 6.65476 24.9655V18.7586Z" fill="black"/>
<path d="M11.3458 13.2104C11.5513 13.2548 11.7639 13.2502 11.9674 13.197V14.9655C11.9674 15.2399 12.0737 15.503 12.2627 15.697C12.4518 15.891 12.7082 16 12.9756 16H19.0245C19.2919 16 19.5483 15.891 19.7374 15.697C19.9264 15.503 20.0326 15.2399 20.0326 14.9655V13.197C20.2367 13.2501 20.4499 13.2547 20.656 13.2104C20.8817 13.16 21.091 13.0507 21.2636 12.8931C21.4362 12.7355 21.5663 12.535 21.6413 12.3108C21.7164 12.0866 21.7338 11.8463 21.692 11.6132C21.6502 11.3801 21.5506 11.1619 21.4027 10.9798C21.2379 10.7812 21.0224 10.6336 20.7804 10.5536C20.5384 10.4737 20.2794 10.4645 20.0326 10.527V8.75881C20.0326 8.48445 19.9264 8.22134 19.7374 8.02734C19.5483 7.83334 19.2919 7.72435 19.0245 7.72435H17.3016C17.365 7.47141 17.3573 7.20519 17.2794 6.95655C17.2014 6.70791 17.0563 6.48705 16.861 6.31956C16.7081 6.18947 16.5291 6.09553 16.3368 6.0444C16.1445 5.99327 15.9436 5.9862 15.7483 6.02371C15.489 6.07377 15.2498 6.20135 15.0609 6.39042C14.8719 6.5795 14.7417 6.82164 14.6864 7.08644C14.6434 7.29732 14.6478 7.51552 14.6995 7.72435H12.9756C12.7082 7.72435 12.4518 7.83334 12.2627 8.02734C12.0737 8.22134 11.9674 8.48445 11.9674 8.75881V10.5263C11.7206 10.4638 11.4617 10.4731 11.2197 10.5531C10.9778 10.633 10.7623 10.7805 10.5974 10.9791C10.4493 11.1613 10.3496 11.3797 10.3078 11.613C10.266 11.8463 10.2836 12.0868 10.3588 12.3111C10.4341 12.5355 10.5644 12.7361 10.7373 12.8936C10.9102 13.0512 11.1198 13.1603 11.3458 13.2104ZM11.1142 11.4212C11.2338 11.2821 11.4018 11.1966 11.5821 11.1831C11.7624 11.1697 11.9407 11.2292 12.0787 11.3491C12.1269 11.3936 12.1867 11.4229 12.2508 11.4333C12.3149 11.4438 12.3805 11.435 12.4399 11.4079C12.4992 11.3809 12.5496 11.3369 12.585 11.2811C12.6205 11.2253 12.6394 11.1602 12.6395 11.0936V8.75881C12.6395 8.66736 12.675 8.57965 12.738 8.51498C12.801 8.45032 12.8865 8.41399 12.9756 8.41399H15.2506C15.3156 8.41398 15.3791 8.39467 15.4335 8.35841C15.488 8.32214 15.5311 8.27047 15.5575 8.20964C15.5839 8.1488 15.5926 8.08141 15.5826 8.0156C15.5725 7.9498 15.544 7.8884 15.5007 7.83883C15.4276 7.75563 15.3754 7.65542 15.3486 7.54687C15.3217 7.43832 15.3211 7.3247 15.3466 7.21583C15.3722 7.10695 15.4232 7.0061 15.4952 6.92199C15.5673 6.83787 15.6582 6.77303 15.7601 6.73306C15.8621 6.69309 15.972 6.67919 16.0804 6.69257C16.1887 6.70595 16.2923 6.74621 16.3821 6.80986C16.4719 6.87352 16.5452 6.95865 16.5957 7.0579C16.6463 7.15716 16.6725 7.26755 16.6721 7.37953C16.6724 7.54884 16.611 7.71215 16.5001 7.83745C16.4563 7.88691 16.4275 7.94834 16.4172 8.01428C16.4068 8.08022 16.4153 8.14782 16.4417 8.20888C16.4681 8.26994 16.5112 8.32183 16.5657 8.35824C16.6203 8.39465 16.684 8.41402 16.7491 8.41399H19.0245C19.1136 8.41399 19.1991 8.45032 19.2621 8.51498C19.3251 8.57965 19.3605 8.66736 19.3605 8.75881V11.0929C19.3606 11.1596 19.3795 11.2249 19.4149 11.2808C19.4504 11.3367 19.5009 11.3809 19.5604 11.4079C19.6198 11.435 19.6856 11.4438 19.7498 11.4332C19.814 11.4226 19.8739 11.3932 19.9221 11.3484C20.0601 11.2285 20.2383 11.169 20.4186 11.1824C20.5989 11.1959 20.7669 11.2814 20.8865 11.4205C20.9506 11.4994 20.9967 11.5921 21.0214 11.6916C21.0461 11.7912 21.0488 11.8952 21.0294 11.996C21.0061 12.1154 20.9524 12.2263 20.8737 12.3175C20.7951 12.4087 20.6943 12.4769 20.5817 12.5152C20.469 12.5535 20.3485 12.5605 20.2323 12.5355C20.1162 12.5105 20.0085 12.4544 19.9204 12.3729C19.8719 12.3285 19.812 12.2994 19.7478 12.2893C19.6836 12.2791 19.6179 12.2883 19.5586 12.3156C19.4994 12.343 19.4492 12.3874 19.414 12.4435C19.3788 12.4995 19.3603 12.5648 19.3605 12.6315V14.9655C19.3605 15.057 19.3251 15.1447 19.2621 15.2094C19.1991 15.274 19.1136 15.3104 19.0245 15.3104H12.9756C12.8865 15.3104 12.801 15.274 12.738 15.2094C12.675 15.1447 12.6395 15.057 12.6395 14.9655V12.6315C12.6395 12.5649 12.6208 12.4997 12.5855 12.4439C12.5502 12.388 12.4998 12.3438 12.4406 12.3167C12.3814 12.2895 12.3157 12.2805 12.2516 12.2908C12.1875 12.3011 12.1277 12.3302 12.0794 12.3746C11.9529 12.4901 11.7887 12.5524 11.6194 12.5491C11.4502 12.5458 11.2884 12.477 11.1664 12.3566C11.0444 12.2361 10.9712 12.0729 10.9614 11.8995C10.9516 11.7261 11.0059 11.5552 11.1135 11.4212H11.1142Z" fill="black"/>
<path d="M25.0178 17.7242H23.34C23.3903 17.5155 23.3944 17.2974 23.3521 17.0867C23.2981 16.8215 23.1708 16.5791 22.9863 16.3898C22.8019 16.2006 22.5684 16.0731 22.3153 16.0232C22.1251 15.9862 21.9295 15.9935 21.7423 16.0448C21.5551 16.0961 21.3809 16.1901 21.232 16.3201C21.0417 16.4874 20.9004 16.7082 20.8246 16.9568C20.7487 17.2053 20.7414 17.4715 20.8034 17.7242H19.125C18.8645 17.7242 18.6147 17.8332 18.4305 18.0272C18.2463 18.2212 18.1428 18.4843 18.1428 18.7587V21.0932C18.1428 21.1599 18.1611 21.2252 18.1957 21.2812C18.2302 21.3372 18.2794 21.3814 18.3373 21.4085C18.3953 21.4356 18.4594 21.4444 18.522 21.4338C18.5846 21.4233 18.6429 21.3938 18.6899 21.349C18.8239 21.229 18.9973 21.1691 19.1728 21.1824C19.3483 21.1957 19.5118 21.281 19.6281 21.4201C19.7315 21.554 19.7834 21.724 19.7735 21.8963C19.7637 22.0686 19.6929 22.2307 19.5751 22.3507C19.4572 22.4707 19.301 22.5398 19.1372 22.5443C18.9733 22.5488 18.8138 22.4885 18.6902 22.3752C18.6432 22.3303 18.5849 22.3008 18.5223 22.2901C18.4597 22.2795 18.3955 22.2883 18.3376 22.3153C18.2796 22.3424 18.2303 22.3866 18.1958 22.4426C18.1612 22.4986 18.1428 22.5639 18.1428 22.6307V24.9655C18.1428 25.2399 18.2463 25.503 18.4305 25.697C18.6147 25.891 18.8645 26 19.125 26H25.0178C25.2783 26 25.5281 25.891 25.7123 25.697C25.8965 25.503 26 25.2399 26 24.9655V18.7587C26 18.4843 25.8965 18.2212 25.7123 18.0272C25.5281 17.8332 25.2783 17.7242 25.0178 17.7242ZM25.3452 24.9655C25.3452 25.057 25.3107 25.1447 25.2493 25.2094C25.1879 25.274 25.1046 25.3104 25.0178 25.3104H19.125C19.0381 25.3104 18.9549 25.274 18.8935 25.2094C18.8321 25.1447 18.7976 25.057 18.7976 24.9655V23.198C18.9957 23.2514 19.2029 23.2558 19.4029 23.2111C19.6233 23.1609 19.8276 23.0517 19.9961 22.8939C20.1646 22.7362 20.2916 22.5353 20.3648 22.3107C20.438 22.0862 20.4549 21.8455 20.4139 21.612C20.3729 21.3785 20.2753 21.1601 20.1307 20.978C19.9703 20.7796 19.7606 20.6323 19.5251 20.5525C19.2896 20.4728 19.0377 20.4638 18.7976 20.5266V18.7587C18.7976 18.6673 18.8321 18.5795 18.8935 18.5149C18.9549 18.4502 19.0381 18.4139 19.125 18.4139H21.3413C21.4047 18.4139 21.4667 18.3946 21.5199 18.3582C21.573 18.3218 21.615 18.27 21.6407 18.209C21.6664 18.148 21.6748 18.0804 21.6648 18.0145C21.6547 17.9486 21.6268 17.8872 21.5843 17.8377C21.4763 17.7122 21.4165 17.5488 21.4166 17.3794C21.4162 17.2675 21.4417 17.1571 21.4909 17.0579C21.5401 16.9587 21.6114 16.8735 21.6988 16.8098C21.7862 16.7461 21.887 16.7058 21.9925 16.6923C22.098 16.6788 22.205 16.6926 22.3043 16.7324C22.4036 16.7722 22.4923 16.8369 22.5625 16.9208C22.6328 17.0048 22.6826 17.1055 22.7077 17.2143C22.7327 17.3231 22.7323 17.4366 22.7064 17.5452C22.6804 17.6537 22.6298 17.754 22.5589 17.8373C22.5163 17.8868 22.4882 17.9482 22.4781 18.0141C22.468 18.08 22.4763 18.1476 22.5019 18.2086C22.5276 18.2697 22.5695 18.3216 22.6226 18.358C22.6757 18.3944 22.7377 18.4138 22.8011 18.4139H25.0178C25.1046 18.4139 25.1879 18.4502 25.2493 18.5149C25.3107 18.5795 25.3452 18.6673 25.3452 18.7587V24.9655Z" fill="black"/>
<path d="M13.9642 12.3615C14.0318 12.405 14.1223 12.4291 14.2162 12.4286C14.3102 12.428 14.4 12.4029 14.4665 12.3585C14.5329 12.3142 14.5706 12.2543 14.5714 12.1916C14.5722 12.1289 14.5361 12.0685 14.4708 12.0234L14.0076 11.7143L14.4708 11.4052C14.5361 11.3601 14.5722 11.2997 14.5714 11.237C14.5706 11.1743 14.5329 11.1143 14.4665 11.07C14.4 11.0257 14.3102 11.0006 14.2162 11C14.1223 10.9995 14.0318 11.0236 13.9642 11.0671L13.2477 11.5453C13.1806 11.5901 13.1428 11.6509 13.1428 11.7143C13.1428 11.7777 13.1806 11.8385 13.2477 11.8833L13.9642 12.3615Z" fill="black"/>
<path d="M17.533 12.3587C17.6 12.4034 17.6909 12.4286 17.7856 12.4286C17.8803 12.4286 17.9711 12.4034 18.0381 12.3587L18.7525 11.8815C18.8194 11.8368 18.857 11.7761 18.857 11.7128C18.857 11.6496 18.8194 11.5889 18.7525 11.5442L18.0381 11.067C17.9707 11.0235 17.8805 10.9995 17.7869 11C17.6932 11.0006 17.6036 11.0256 17.5374 11.0699C17.4712 11.1141 17.4336 11.174 17.4328 11.2365C17.432 11.2991 17.468 11.3593 17.533 11.4043L17.9949 11.7128L17.533 12.0213C17.4661 12.0661 17.4285 12.1268 17.4285 12.19C17.4285 12.2533 17.4661 12.314 17.533 12.3587Z" fill="black"/>
<path d="M15.5309 13.1246C15.6207 13.1545 15.7186 13.1474 15.8032 13.105C15.8878 13.0627 15.9521 12.9884 15.982 12.8986L16.6959 10.7561C16.7108 10.7115 16.7167 10.6645 16.7133 10.6176C16.7099 10.5708 16.6974 10.5251 16.6764 10.4831C16.6554 10.4412 16.6263 10.4037 16.5908 10.373C16.5554 10.3422 16.5142 10.3188 16.4696 10.304C16.4251 10.2892 16.3781 10.2833 16.3313 10.2866C16.2845 10.29 16.2388 10.3025 16.1968 10.3236C16.1549 10.3446 16.1174 10.3737 16.0867 10.4091C16.056 10.4446 16.0326 10.4858 16.0177 10.5304L15.3038 12.6729C15.289 12.7175 15.2832 12.7645 15.2866 12.8114C15.29 12.8582 15.3026 12.9039 15.3237 12.9459C15.3448 12.9879 15.3739 13.0252 15.4095 13.0559C15.445 13.0866 15.4863 13.1099 15.5309 13.1246Z" fill="black"/>
<path d="M16.8216 18.6047L16.3583 19.0665V16.3571C16.3583 16.2624 16.3206 16.1716 16.2534 16.1046C16.1862 16.0376 16.0951 16 16.0001 16C15.9051 16 15.814 16.0376 15.7468 16.1046C15.6796 16.1716 15.6419 16.2624 15.6419 16.3571V19.0665L15.1787 18.6047C15.1111 18.5396 15.0206 18.5036 14.9267 18.5044C14.8327 18.5053 14.7429 18.5428 14.6765 18.609C14.61 18.6753 14.5724 18.7648 14.5715 18.8585C14.5707 18.9521 14.6068 19.0423 14.6721 19.1097L15.7468 20.1811C15.814 20.2481 15.9051 20.2857 16.0001 20.2857C16.0951 20.2857 16.1862 20.2481 16.2534 20.1811L17.3281 19.1097C17.3934 19.0423 17.4295 18.9521 17.4287 18.8585C17.4278 18.7648 17.3902 18.6753 17.3237 18.609C17.2573 18.5428 17.1675 18.5053 17.0735 18.5044C16.9796 18.5036 16.8891 18.5396 16.8216 18.6047Z" fill="black"/>
</svg>
