<svg width="48" height="48" viewBox="0 0 48 48" fill="none" xmlns="http://www.w3.org/2000/svg">
<circle cx="24" cy="24" r="24" fill="#F0E5FF"/>
<path d="M17.652 36H16.113L13.539 32.103V36H12V29.682H13.539L16.113 33.597V29.682H17.652V36ZM21.3221 29.682C21.9881 29.682 22.5701 29.814 23.0681 30.078C23.5661 30.342 23.95 30.714 24.22 31.194C24.496 31.668 24.6341 32.217 24.6341 32.841C24.6341 33.459 24.496 34.008 24.22 34.488C23.95 34.968 23.5631 35.34 23.0591 35.604C22.5611 35.868 21.9821 36 21.3221 36H18.9551V29.682H21.3221ZM21.2231 34.668C21.8051 34.668 22.258 34.509 22.5821 34.191C22.906 33.873 23.0681 33.423 23.0681 32.841C23.0681 32.259 22.906 31.806 22.5821 31.482C22.258 31.158 21.8051 30.996 21.2231 30.996H20.4941V34.668H21.2231ZM30.4967 31.716C30.4967 32.082 30.4127 32.418 30.2447 32.724C30.0767 33.024 29.8187 33.267 29.4706 33.453C29.1227 33.639 28.6907 33.732 28.1747 33.732H27.2207V36H25.6817V29.682H28.1747C28.6786 29.682 29.1047 29.769 29.4527 29.943C29.8006 30.117 30.0617 30.357 30.2357 30.663C30.4097 30.969 30.4967 31.32 30.4967 31.716ZM28.0576 32.508C28.3517 32.508 28.5707 32.439 28.7146 32.301C28.8587 32.163 28.9306 31.968 28.9306 31.716C28.9306 31.464 28.8587 31.269 28.7146 31.131C28.5707 30.993 28.3517 30.924 28.0576 30.924H27.2207V32.508H28.0576ZM34.7074 36L33.3934 33.615H33.0244V36H31.4854V29.682H34.0684C34.5664 29.682 34.9894 29.769 35.3374 29.943C35.6914 30.117 35.9554 30.357 36.1294 30.663C36.3034 30.963 36.3904 31.299 36.3904 31.671C36.3904 32.091 36.2704 32.466 36.0304 32.796C35.7964 33.126 35.4484 33.36 34.9864 33.498L36.4444 36H34.7074ZM33.0244 32.526H33.9784C34.2604 32.526 34.4704 32.457 34.6084 32.319C34.7524 32.181 34.8244 31.986 34.8244 31.734C34.8244 31.494 34.7524 31.305 34.6084 31.167C34.4704 31.029 34.2604 30.96 33.9784 30.96H33.0244V32.526Z" fill="#0B885A"/>
<mask id="mask0_885_3157" style="mask-type:luminance" maskUnits="userSpaceOnUse" x="15" y="12" width="19" height="18">
<path d="M33.1919 12H15.1919V30H33.1919V12Z" fill="white"/>
</mask>
<g mask="url(#mask0_885_3157)">
<path fill-rule="evenodd" clip-rule="evenodd" d="M23.6654 13.6467C24.0048 13.5195 24.3789 13.5195 24.7184 13.6467L29.9684 15.6154C30.2544 15.7227 30.5008 15.9146 30.6747 16.1656C30.8487 16.4167 30.942 16.7148 30.9419 17.0202V21.0424C30.9419 22.2961 30.5928 23.5249 29.9338 24.5912C29.2748 25.6576 28.3319 26.5193 27.2106 27.0799L24.6951 28.3369C24.5389 28.4151 24.3666 28.4558 24.1919 28.4558C24.0172 28.4558 23.8449 28.4151 23.6886 28.3369L21.1731 27.0792C20.0519 26.5186 19.109 25.6568 18.45 24.5905C17.7909 23.5241 17.4419 22.2953 17.4419 21.0417V17.0209C17.4417 16.7155 17.5348 16.4171 17.7088 16.1659C17.8827 15.9148 18.1293 15.7227 18.4154 15.6154L23.6654 13.6467ZM24.9419 20.7994C25.2279 20.6344 25.4513 20.3795 25.5777 20.0745C25.704 19.7694 25.7262 19.4311 25.6407 19.1122C25.5552 18.7933 25.3669 18.5115 25.105 18.3105C24.843 18.1094 24.5221 18.0005 24.1919 18.0004C23.8617 18.0005 23.5407 18.1094 23.2788 18.3105C23.0169 18.5115 22.8285 18.7933 22.743 19.1122C22.6576 19.4311 22.6797 19.7694 22.8061 20.0745C22.9325 20.3795 23.1559 20.6344 23.4419 20.7994V23.2504C23.4419 23.4494 23.5209 23.6401 23.6616 23.7808C23.8022 23.9215 23.993 24.0004 24.1919 24.0004C24.3908 24.0004 24.5816 23.9215 24.7222 23.7808C24.8628 23.6401 24.9419 23.4494 24.9419 23.2504V20.7994Z" fill="#006C46"/>
</g>
</svg>
