<svg width="98" height="18" viewBox="0 0 98 18" fill="none" xmlns="http://www.w3.org/2000/svg">
<path d="M20.6208 13.8232H19.0881V8.17952C19.0881 6.87941 18.5133 6.2392 17.3541 6.2392C16.8177 6.2392 16.1758 6.41649 15.4286 6.78091C15.5435 7.09609 15.601 7.49992 15.601 7.99238V13.8232H14.0682V8.16967C14.0682 6.88926 13.4935 6.2392 12.3343 6.2392C11.8362 6.2392 11.223 6.38694 10.5141 6.69227C10.5333 6.8991 10.5525 7.05669 10.5525 7.14534V13.8134H9.01969V6.87941C9.01969 6.64302 8.98137 6.26875 8.91431 5.73688C10.38 5.15577 11.5775 4.86029 12.5067 4.86029C13.5701 4.86029 14.3652 5.12622 14.873 5.66793C15.898 5.12622 16.8464 4.86029 17.7182 4.86029C18.6378 4.86029 19.3563 5.11637 19.864 5.62854C20.3718 6.1407 20.6304 6.87941 20.6304 7.83479V13.8035L20.6208 13.8232Z" fill="#202D66"/>
<path d="M6.07869 9.46979L2.80239 6.80061C0.196679 4.02309 3.18558 2.35855 3.18558 2.35855C0.68525 3.17604 0.378695 5.30351 0.378695 5.30351C0.0817211 7.34232 1.53785 8.35681 1.53785 8.35681L4.37348 10.6911C7.5444 13.4686 4.15314 15.9901 4.15314 15.9901C7.10373 15.5567 7.42944 13.1042 7.42944 13.1042C7.83179 10.9964 6.06911 9.45994 6.06911 9.45994L6.07869 9.46979Z" fill="#202D66"/>
<path d="M27.8344 12.3557C27.8153 12.1882 27.7961 12.0799 27.7961 12.0011V9.2531C27.5758 9.43039 27.0106 9.61753 26.0909 9.83421C25.4778 9.97211 25.0371 10.1297 24.7785 10.2873C24.3953 10.5335 24.2037 10.8782 24.2037 11.3215C24.2037 12.2079 24.8264 12.6511 26.0622 12.6511C26.6849 12.6511 27.2788 12.5526 27.8344 12.3557ZM29.4534 13.3701C28.1506 13.8035 27.0201 14.0202 26.0622 14.0202C24.9796 14.0202 24.1366 13.8035 23.5044 13.3701C22.8338 12.9171 22.4985 12.2769 22.4985 11.4397C22.4985 10.6025 22.8146 9.91301 23.4373 9.45994C23.878 9.13491 24.5486 8.87883 25.4299 8.69169C26.3112 8.50455 26.8573 8.36666 27.068 8.28786C27.547 8.09088 27.7865 7.80525 27.7865 7.43097C27.7865 6.63317 27.2309 6.2392 26.1196 6.2392C25.4682 6.2392 24.721 6.42634 23.8684 6.80061L23.3415 5.57929C24.3091 5.11637 25.267 4.87999 26.2154 4.87999C28.2943 4.87999 29.3289 5.81568 29.3289 7.6772V12.2473C29.3289 12.4738 29.3672 12.8383 29.4438 13.3701H29.4534Z" fill="#202D66"/>
<path d="M36.4658 5.02773L36.006 6.40664C35.6899 6.33769 35.3546 6.29829 35.0193 6.29829C34.4636 6.29829 33.908 6.39679 33.3715 6.59377C33.3811 6.76121 33.3907 6.87941 33.3907 6.9582V13.8035H31.8579V6.98775C31.8579 6.74152 31.81 6.33769 31.7238 5.76643C33.0937 5.15577 34.272 4.86029 35.23 4.86029C35.6515 4.86029 36.0635 4.90953 36.4754 5.01788L36.4658 5.02773Z" fill="#202D66"/>
<path d="M42.549 13.6262C41.7156 13.9217 41.0258 14.0596 40.4702 14.0596C38.8895 14.0596 38.104 13.311 38.104 11.8041V6.42634L37.1364 6.37709V5.13607L38.104 5.08682V2.66388H39.6367V5.06712H42.1083V6.43619H39.6367V11.745C39.6367 12.3655 39.9625 12.6708 40.6235 12.6708C41.045 12.6708 41.5527 12.5625 42.1371 12.336L42.549 13.6361V13.6262Z" fill="#202D66"/>
<path d="M50.4855 13.4588C49.7095 13.8232 48.9048 14.0005 48.0522 14.0005C46.7877 14.0005 45.7435 13.5967 44.9004 12.789C44.0287 11.9321 43.588 10.8191 43.588 9.44022C43.588 8.06131 43.9808 6.98773 44.7663 6.14068C45.5519 5.29364 46.5865 4.87012 47.8702 4.87012C48.742 4.87012 49.6233 5.05726 50.4951 5.43153L50.0352 6.71195C49.2497 6.39677 48.5599 6.23918 47.9564 6.23918C47.0942 6.23918 46.4236 6.56421 45.9446 7.22411C45.5136 7.80523 45.2932 8.53408 45.2932 9.41067C45.2932 10.3759 45.5806 11.1639 46.1458 11.7745C46.6823 12.3556 47.3433 12.6511 48.1384 12.6511C48.6941 12.6511 49.3263 12.5132 50.0448 12.2276L50.4855 13.4489V13.4588Z" fill="#202D66"/>
<path d="M58.4367 9.45011C58.4367 8.52427 58.2355 7.77572 57.8427 7.19461C57.4116 6.56425 56.8081 6.24907 56.0226 6.24907C55.237 6.24907 54.6335 6.56425 54.2024 7.19461C53.7905 7.77572 53.5893 8.53412 53.5893 9.45011C53.5893 10.3661 53.7905 11.1245 54.2024 11.7056C54.6335 12.336 55.237 12.6512 56.0226 12.6512C56.8081 12.6512 57.4116 12.336 57.8427 11.7056C58.2355 11.1245 58.4367 10.3661 58.4367 9.45011ZM60.1419 9.45011C60.1419 10.7896 59.7587 11.8928 58.9923 12.7398C58.2259 13.5967 57.2296 14.0202 56.0034 14.0202C54.7772 14.0202 53.7809 13.5967 53.0241 12.7398C52.2673 11.8829 51.8841 10.7896 51.8841 9.45011C51.8841 8.1106 52.2673 7.00747 53.0241 6.16042C53.7809 5.30353 54.7772 4.88 56.0034 4.88C57.2296 4.88 58.2259 5.30353 58.9923 6.16042C59.7587 7.01732 60.1419 8.1106 60.1419 9.45011Z" fill="#202D66"/>
<path d="M73.6877 13.8232H72.155V8.17953C72.155 6.87941 71.5802 6.2392 70.421 6.2392C69.8846 6.2392 69.2427 6.41649 68.4955 6.78092C68.6104 7.0961 68.6679 7.49992 68.6679 7.99239V13.8232H67.1351V8.16968C67.1351 6.88926 66.5604 6.2392 65.4012 6.2392C64.903 6.2392 64.2899 6.38694 63.581 6.69227C63.6002 6.89911 63.6194 7.0567 63.6194 7.14534V13.8134H62.0866V6.87941C62.0866 6.64303 62.0483 6.26875 61.9812 5.73688C63.4469 5.15577 64.6444 4.86029 65.5736 4.86029C66.637 4.86029 67.4321 5.12622 67.9398 5.66794C68.9649 5.12622 69.9133 4.86029 70.7851 4.86029C71.7047 4.86029 72.4232 5.11637 72.9309 5.62854C73.4387 6.14071 73.6973 6.87941 73.6973 7.8348V13.8035L73.6877 13.8232Z" fill="#202D66"/>
<path d="M81.7636 9.43041C81.7636 8.50457 81.5624 7.76587 81.1696 7.20445C80.7002 6.56425 80.0296 6.23922 79.1387 6.23922C78.6406 6.23922 78.1424 6.33771 77.6347 6.5347C77.6347 6.54455 77.6347 6.60364 77.6634 6.70214C77.6826 6.80063 77.6922 6.87943 77.6922 6.93852V12.3655C78.0658 12.5527 78.5064 12.6413 79.0046 12.6413C80.8439 12.6413 81.7636 11.5677 81.7636 9.42056V9.43041ZM83.4688 9.43041C83.4688 10.7601 83.076 11.8632 82.2809 12.7201C81.4954 13.5868 80.4799 14.0202 79.2537 14.0202C78.7555 14.0202 78.2286 13.9217 77.6826 13.7247V17.7728H76.1498V6.61349C76.1498 6.37711 76.1115 6.01268 76.0444 5.51036C77.1365 5.08684 78.1616 4.88 79.1291 4.88C80.4703 4.88 81.5241 5.30353 82.3001 6.15057C83.076 6.99762 83.4592 8.0909 83.4592 9.43041H83.4688Z" fill="#202D66"/>
<path d="M88.4023 13.7543C87.8946 13.9315 87.4444 14.0202 87.0612 14.0202C85.9499 14.0202 85.3943 13.4588 85.3943 12.336V0.969788H86.9271V12.0405C86.9271 12.464 87.0995 12.6708 87.4348 12.6708C87.636 12.6708 87.8467 12.6216 88.0479 12.5329L88.4023 13.7543Z" fill="#202D66"/>
<path d="M97.3403 5.0671L94.3131 14.1876C94.0066 15.0938 93.5946 15.8817 93.0677 16.5318C92.4642 17.2803 91.7936 17.7531 91.056 17.9698L90.3279 16.7977C91.5446 16.4136 92.4163 15.4582 92.9528 13.9414C92.5888 13.8626 92.3109 13.5671 92.1193 13.0648L88.9484 5.05725H90.6824L93.3551 12.3261H93.3743L95.7118 5.05725H97.3499L97.3403 5.0671Z" fill="#202D66"/>
</svg>
