<svg width="102" height="18" viewBox="0 0 102 18" fill="none" xmlns="http://www.w3.org/2000/svg">
<path d="M20.6208 13.8232H19.0881V8.17952C19.0881 6.87941 18.5133 6.2392 17.3541 6.2392C16.8177 6.2392 16.1758 6.41649 15.4286 6.78091C15.5435 7.09609 15.601 7.49992 15.601 7.99238V13.8232H14.0682V8.16967C14.0682 6.88926 13.4935 6.2392 12.3343 6.2392C11.8362 6.2392 11.223 6.38694 10.5141 6.69227C10.5333 6.8991 10.5525 7.05669 10.5525 7.14534V13.8134H9.01969V6.87941C9.01969 6.64302 8.98137 6.26875 8.91431 5.73688C10.38 5.15577 11.5775 4.86029 12.5067 4.86029C13.5701 4.86029 14.3652 5.12622 14.873 5.66793C15.898 5.12622 16.8464 4.86029 17.7182 4.86029C18.6378 4.86029 19.3563 5.11637 19.864 5.62854C20.3718 6.1407 20.6304 6.87941 20.6304 7.83479V13.8035L20.6208 13.8232Z" fill="#202D66"/>
<path d="M6.07869 9.46979L2.80239 6.80061C0.196679 4.02309 3.18558 2.35855 3.18558 2.35855C0.68525 3.17604 0.378695 5.30351 0.378695 5.30351C0.0817211 7.34232 1.53785 8.35681 1.53785 8.35681L4.37348 10.6911C7.5444 13.4686 4.15314 15.9901 4.15314 15.9901C7.10373 15.5567 7.42944 13.1042 7.42944 13.1042C7.83179 10.9964 6.06911 9.45994 6.06911 9.45994L6.07869 9.46979Z" fill="#202D66"/>
<path d="M27.8344 12.3557C27.8153 12.1882 27.7961 12.0799 27.7961 12.0011V9.2531C27.5758 9.43039 27.0106 9.61753 26.0909 9.83421C25.4778 9.97211 25.0371 10.1297 24.7785 10.2873C24.3953 10.5335 24.2037 10.8782 24.2037 11.3215C24.2037 12.2079 24.8264 12.6511 26.0622 12.6511C26.6849 12.6511 27.2788 12.5526 27.8344 12.3557ZM29.4534 13.3701C28.1506 13.8035 27.0201 14.0202 26.0622 14.0202C24.9796 14.0202 24.1366 13.8035 23.5044 13.3701C22.8338 12.9171 22.4985 12.2769 22.4985 11.4397C22.4985 10.6025 22.8146 9.91301 23.4373 9.45994C23.878 9.13491 24.5486 8.87883 25.4299 8.69169C26.3112 8.50455 26.8573 8.36666 27.068 8.28786C27.547 8.09088 27.7865 7.80525 27.7865 7.43097C27.7865 6.63317 27.2309 6.2392 26.1196 6.2392C25.4682 6.2392 24.721 6.42634 23.8684 6.80061L23.3415 5.57929C24.3091 5.11637 25.267 4.87999 26.2154 4.87999C28.2943 4.87999 29.3289 5.81568 29.3289 7.6772V12.2473C29.3289 12.4738 29.3672 12.8383 29.4438 13.3701H29.4534Z" fill="#202D66"/>
<path d="M36.4658 5.02773L36.006 6.40664C35.6899 6.33769 35.3546 6.29829 35.0193 6.29829C34.4636 6.29829 33.908 6.39679 33.3715 6.59377C33.3811 6.76121 33.3907 6.87941 33.3907 6.9582V13.8035H31.8579V6.98775C31.8579 6.74152 31.81 6.33769 31.7238 5.76643C33.0937 5.15577 34.272 4.86029 35.23 4.86029C35.6515 4.86029 36.0635 4.90953 36.4754 5.01788L36.4658 5.02773Z" fill="#202D66"/>
<path d="M42.549 13.6262C41.7156 13.9217 41.0258 14.0596 40.4702 14.0596C38.8895 14.0596 38.104 13.311 38.104 11.8041V6.42634L37.1364 6.37709V5.13607L38.104 5.08682V2.66388H39.6367V5.06712H42.1083V6.43619H39.6367V11.745C39.6367 12.3655 39.9625 12.6708 40.6235 12.6708C41.045 12.6708 41.5527 12.5625 42.1371 12.336L42.549 13.6361V13.6262Z" fill="#202D66"/>
<path d="M54.4855 13.4588C53.7095 13.8232 52.9048 14.0005 52.0522 14.0005C50.7877 14.0005 49.7435 13.5967 48.9004 12.789C48.0287 11.9321 47.588 10.8192 47.588 9.44024C47.588 8.06133 47.9808 6.98775 48.7663 6.1407C49.5519 5.29366 50.5865 4.87014 51.8702 4.87014C52.742 4.87014 53.6233 5.05727 54.4951 5.43155L54.0352 6.71197C53.2497 6.39679 52.5599 6.2392 51.9564 6.2392C51.0942 6.2392 50.4236 6.56423 49.9446 7.22413C49.5136 7.80525 49.2932 8.5341 49.2932 9.41069C49.2932 10.3759 49.5806 11.1639 50.1458 11.7745C50.6823 12.3557 51.3433 12.6511 52.1384 12.6511C52.6941 12.6511 53.3263 12.5132 54.0448 12.2276L54.4855 13.4489V13.4588Z" fill="#202D66"/>
<path d="M62.4367 9.45009C62.4367 8.52425 62.2355 7.7757 61.8427 7.19459C61.4116 6.56423 60.8081 6.24905 60.0226 6.24905C59.237 6.24905 58.6335 6.56423 58.2024 7.19459C57.7905 7.7757 57.5893 8.5341 57.5893 9.45009C57.5893 10.3661 57.7905 11.1245 58.2024 11.7056C58.6335 12.336 59.237 12.6511 60.0226 12.6511C60.8081 12.6511 61.4116 12.336 61.8427 11.7056C62.2355 11.1245 62.4367 10.3661 62.4367 9.45009ZM64.1419 9.45009C64.1419 10.7896 63.7587 11.8927 62.9923 12.7398C62.2259 13.5967 61.2296 14.0202 60.0034 14.0202C58.7772 14.0202 57.7809 13.5967 57.0241 12.7398C56.2673 11.8829 55.8841 10.7896 55.8841 9.45009C55.8841 8.11058 56.2673 7.00745 57.0241 6.1604C57.7809 5.30351 58.7772 4.87999 60.0034 4.87999C61.2296 4.87999 62.2259 5.30351 62.9923 6.1604C63.7587 7.0173 64.1419 8.11058 64.1419 9.45009Z" fill="#202D66"/>
<path d="M77.6877 13.8232H76.155V8.17952C76.155 6.87941 75.5802 6.2392 74.421 6.2392C73.8846 6.2392 73.2427 6.41649 72.4955 6.78091C72.6104 7.09609 72.6679 7.49992 72.6679 7.99238V13.8232H71.1351V8.16967C71.1351 6.88926 70.5604 6.2392 69.4012 6.2392C68.903 6.2392 68.2899 6.38694 67.581 6.69227C67.6002 6.8991 67.6194 7.05669 67.6194 7.14534V13.8134H66.0866V6.87941C66.0866 6.64302 66.0483 6.26875 65.9812 5.73688C67.4469 5.15577 68.6444 4.86029 69.5736 4.86029C70.637 4.86029 71.4321 5.12622 71.9398 5.66793C72.9649 5.12622 73.9133 4.86029 74.7851 4.86029C75.7047 4.86029 76.4232 5.11637 76.9309 5.62854C77.4387 6.1407 77.6973 6.87941 77.6973 7.83479V13.8035L77.6877 13.8232Z" fill="#202D66"/>
<path d="M85.7636 9.43039C85.7636 8.50455 85.5624 7.76585 85.1696 7.20444C84.7002 6.56423 84.0296 6.2392 83.1387 6.2392C82.6406 6.2392 82.1424 6.33769 81.6347 6.53468C81.6347 6.54453 81.6347 6.60362 81.6634 6.70212C81.6826 6.80061 81.6922 6.87941 81.6922 6.9385V12.3655C82.0658 12.5526 82.5064 12.6413 83.0046 12.6413C84.8439 12.6413 85.7636 11.5677 85.7636 9.42054V9.43039ZM87.4688 9.43039C87.4688 10.7601 87.076 11.8632 86.2809 12.7201C85.4954 13.5868 84.4799 14.0202 83.2537 14.0202C82.7555 14.0202 82.2286 13.9217 81.6826 13.7247V17.7728H80.1498V6.61347C80.1498 6.37709 80.1115 6.01266 80.0444 5.51035C81.1365 5.08682 82.1616 4.87999 83.1291 4.87999C84.4703 4.87999 85.5241 5.30351 86.3001 6.15055C87.076 6.9976 87.4592 8.09088 87.4592 9.43039H87.4688Z" fill="#202D66"/>
<path d="M92.4023 13.7543C91.8946 13.9315 91.4444 14.0202 91.0612 14.0202C89.9499 14.0202 89.3943 13.4588 89.3943 12.336V0.969788H90.9271V12.0405C90.9271 12.464 91.0995 12.6708 91.4348 12.6708C91.636 12.6708 91.8467 12.6216 92.0479 12.5329L92.4023 13.7543Z" fill="#202D66"/>
<path d="M101.34 5.06712L98.3131 14.1876C98.0066 15.0938 97.5946 15.8817 97.0677 16.5318C96.4642 17.2803 95.7936 17.7531 95.056 17.9698L94.3279 16.7977C95.5446 16.4136 96.4163 15.4582 96.9528 13.9414C96.5888 13.8626 96.3109 13.5671 96.1193 13.0648L92.9484 5.05727H94.6824L97.3551 12.3261H97.3743L99.7118 5.05727H101.35L101.34 5.06712Z" fill="#202D66"/>
</svg>
