<svg width="94" height="28" viewBox="0 0 94 28" fill="none" xmlns="http://www.w3.org/2000/svg">
<path d="M17.5839 26.2802C22.466 25.4964 26.4973 24.8474 26.5439 24.8388L26.6286 24.8226L22.0202 19.8395C19.4848 17.0991 17.4117 14.8457 17.4117 14.8326C17.4117 14.8198 22.1706 2.89494 22.1979 2.85283C22.2075 2.8388 25.4457 7.92122 30.0487 15.1739L37.9447 27.6138L38.0048 27.7087H8.7103L17.5839 26.2802ZM0.00476074 24.76C0.00476074 24.7535 2.17636 21.3264 4.83064 17.1445L9.65657 9.54191L15.2866 5.25311C18.3798 2.89387 20.9193 0.960032 20.9289 0.956787C20.9087 1.02832 20.8784 1.09785 20.8387 1.1641L14.7259 13.0695L8.72256 24.7633H4.36164C2.90936 24.775 1.45699 24.7739 0.00476074 24.76Z" fill="#0089D6"/>
<path d="M53.8773 20.3338C53.9374 20.4988 53.9674 20.6338 53.9674 20.7387C53.9748 20.8361 53.9486 20.9112 53.8886 20.9637C53.8286 21.0161 53.7273 21.0498 53.5849 21.0649C53.45 21.0799 53.2662 21.0874 53.0338 21.0874C52.8013 21.0874 52.614 21.0799 52.4714 21.0649C52.3365 21.0574 52.2315 21.0424 52.1565 21.0199C52.089 20.9899 52.0366 20.9524 51.9991 20.9074C51.969 20.8624 51.939 20.8061 51.9091 20.7387L50.6605 17.1957H44.6094L43.4173 20.6937C43.3947 20.7612 43.3648 20.8212 43.3272 20.8736C43.2897 20.9186 43.2335 20.9599 43.1585 20.9974C43.091 21.0274 42.9898 21.0498 42.8549 21.0649C42.7274 21.0799 42.5587 21.0874 42.3487 21.0874C42.1313 21.0874 41.9513 21.0762 41.8089 21.0536C41.6739 21.0387 41.5764 21.0049 41.5164 20.9524C41.4639 20.8999 41.4377 20.8249 41.4377 20.7275C41.4452 20.6225 41.4789 20.4875 41.5389 20.3225L46.4203 6.80313C46.4503 6.72063 46.4878 6.65314 46.5328 6.60066C46.5852 6.54818 46.6565 6.50701 46.7465 6.47692C46.844 6.4469 46.9639 6.42821 47.1064 6.42074C47.2564 6.40574 47.4438 6.39819 47.6688 6.39819C47.9087 6.39819 48.1074 6.40574 48.2649 6.42074C48.4223 6.42821 48.5498 6.4469 48.6473 6.47692C48.7448 6.50701 48.8198 6.55195 48.8723 6.61197C48.9248 6.66438 48.9659 6.73187 48.996 6.81436L53.8773 20.3338ZM47.6125 8.40025H47.6013L45.0932 15.6549H50.1545L47.6125 8.40025ZM62.5604 20.2326C62.5604 20.375 62.5488 20.4988 62.5263 20.6037C62.5039 20.7012 62.4781 20.7837 62.4479 20.8511C62.4177 20.9112 62.3766 20.9561 62.3245 20.9861C62.2718 21.0087 62.2152 21.0199 62.1554 21.0199H55.9244C55.7669 21.0199 55.6357 20.9673 55.5308 20.8624C55.4332 20.7574 55.3845 20.5813 55.3845 20.3338V19.9514C55.3845 19.8464 55.392 19.7527 55.407 19.6702C55.422 19.5878 55.4445 19.5052 55.4745 19.4227C55.5045 19.3402 55.5457 19.254 55.5983 19.1641C55.6507 19.0666 55.7145 18.9578 55.7894 18.8379L60.2547 11.887H55.9244C55.8044 11.887 55.7069 11.827 55.632 11.7071C55.5645 11.5796 55.5308 11.3771 55.5308 11.0997C55.5308 10.9647 55.5382 10.8485 55.5533 10.751C55.5682 10.646 55.5907 10.5635 55.6207 10.5036C55.6582 10.436 55.6994 10.3911 55.7444 10.3685C55.797 10.3386 55.8569 10.3236 55.9244 10.3236H61.7279C61.8102 10.3236 61.8816 10.3348 61.942 10.3573C62.0095 10.3798 62.0655 10.4173 62.1104 10.4698C62.1554 10.5223 62.1895 10.5898 62.212 10.6722C62.2415 10.7548 62.257 10.8597 62.257 10.9872V11.3472C62.257 11.4521 62.2493 11.5495 62.2345 11.6395C62.2191 11.7295 62.1966 11.8195 62.167 11.9095C62.1368 11.992 62.0956 12.0819 62.0429 12.1794C61.9902 12.2769 61.9266 12.3856 61.852 12.5056L57.4091 19.4565H62.1554C62.2152 19.4565 62.2679 19.4715 62.313 19.5015C62.3657 19.524 62.4068 19.5652 62.4364 19.6253C62.4743 19.6852 62.5039 19.7677 62.5263 19.8727C62.5488 19.9701 62.5604 20.0901 62.5604 20.2326ZM73.7738 20.7387C73.7738 20.7987 73.7591 20.8511 73.7289 20.8962C73.7063 20.9336 73.6613 20.9673 73.5938 20.9974C73.5263 21.0274 73.4364 21.0498 73.3239 21.0649C73.2191 21.0799 73.0879 21.0874 72.9305 21.0874C72.7582 21.0874 72.6155 21.0799 72.503 21.0649C72.3982 21.0498 72.3121 21.0274 72.2446 20.9974C72.1842 20.9673 72.143 20.9336 72.1205 20.8962C72.098 20.8511 72.0871 20.7987 72.0871 20.7387V19.4002C71.5098 20.0376 70.9397 20.5025 70.3771 20.795C69.8147 21.0874 69.2451 21.2335 68.6679 21.2335C67.9929 21.2335 67.4228 21.1211 66.9579 20.8962C66.5009 20.6712 66.1294 20.3676 65.8446 19.9852C65.5598 19.5952 65.3535 19.1453 65.2262 18.6354C65.106 18.118 65.0462 17.4919 65.0462 16.7572V10.616C65.0462 10.556 65.0572 10.5073 65.0796 10.4698C65.1099 10.4248 65.1626 10.3873 65.2372 10.3573C65.3123 10.3198 65.4094 10.2973 65.5296 10.2899C65.6498 10.2748 65.7996 10.2674 65.9796 10.2674C66.1596 10.2674 66.3094 10.2748 66.4296 10.2899C66.5498 10.2973 66.643 10.3198 66.7105 10.3573C66.7857 10.3873 66.8384 10.4248 66.868 10.4698C66.8982 10.5073 66.913 10.556 66.913 10.616V16.5097C66.913 17.102 66.9541 17.5782 67.0371 17.9381C67.127 18.2906 67.2581 18.5942 67.4304 18.8492C67.6104 19.0966 67.8355 19.2915 68.1054 19.4339C68.3754 19.569 68.6904 19.6365 69.0504 19.6365C69.5152 19.6365 69.976 19.4715 70.4338 19.1416C70.8985 18.8117 71.3896 18.328 71.9071 17.6906V10.616C71.9071 10.556 71.918 10.5073 71.9405 10.4698C71.9707 10.4248 72.0234 10.3873 72.098 10.3573C72.1733 10.3198 72.2671 10.2973 72.3796 10.2899C72.4991 10.2748 72.6527 10.2674 72.8404 10.2674C73.0204 10.2674 73.1703 10.2748 73.2905 10.2899C73.4107 10.2973 73.5039 10.3198 73.5714 10.3573C73.6388 10.3873 73.6877 10.4248 73.7179 10.4698C73.7552 10.5073 73.7738 10.556 73.7738 10.616V20.7387ZM83.1208 11.2796C83.1208 11.4446 83.1169 11.5833 83.1098 11.6958C83.102 11.8082 83.0871 11.8982 83.0643 11.9657C83.0423 12.0257 83.0116 12.0744 82.9747 12.1119C82.9441 12.1419 82.8993 12.1569 82.8396 12.1569C82.7799 12.1569 82.7044 12.1419 82.6149 12.1119C82.5324 12.0744 82.4349 12.0407 82.3218 12.0107C82.2173 11.9733 82.0971 11.9395 81.962 11.9095C81.8268 11.8795 81.6815 11.8644 81.5236 11.8644C81.3358 11.8644 81.1519 11.9019 80.972 11.977C80.7921 12.0519 80.6012 12.1757 80.3985 12.3481C80.2036 12.5206 79.9978 12.7493 79.7802 13.0342C79.5625 13.3191 79.3229 13.6679 79.0605 14.0802V20.7387C79.0605 20.7987 79.0455 20.8511 79.0157 20.8962C78.9851 20.9336 78.9363 20.9673 78.8688 20.9974C78.8012 21.0274 78.7085 21.0498 78.5883 21.0649C78.4681 21.0799 78.3141 21.0874 78.1271 21.0874C77.9472 21.0874 77.7963 21.0799 77.6769 21.0649C77.5567 21.0498 77.4593 21.0274 77.3846 20.9974C77.3171 20.9673 77.2684 20.9336 77.2377 20.8962C77.2157 20.8511 77.2047 20.7987 77.2047 20.7387V10.616C77.2047 10.556 77.2157 10.5073 77.2377 10.4698C77.2605 10.4248 77.3053 10.3873 77.3728 10.3573C77.4404 10.3198 77.5268 10.2973 77.6321 10.2899C77.7366 10.2748 77.8757 10.2674 78.0477 10.2674C78.2135 10.2674 78.3479 10.2748 78.4531 10.2899C78.5655 10.2973 78.6519 10.3198 78.7116 10.3573C78.7721 10.3873 78.813 10.4248 78.8358 10.4698C78.8656 10.5073 78.8806 10.556 78.8806 10.616V12.0895C79.1579 11.6845 79.4164 11.3545 79.656 11.0997C79.9035 10.8447 80.1368 10.646 80.3537 10.5036C80.5713 10.3536 80.785 10.2523 80.9948 10.1998C81.2124 10.1399 81.4301 10.1099 81.6469 10.1099C81.7451 10.1099 81.8535 10.1174 81.9738 10.1323C82.101 10.1399 82.2322 10.1586 82.3674 10.1886C82.5025 10.2186 82.6227 10.2523 82.7272 10.2899C82.8396 10.3274 82.9181 10.3648 82.9629 10.4023C83.0077 10.4398 83.0383 10.4773 83.0533 10.5148C83.0682 10.5447 83.0792 10.586 83.0871 10.6386C83.102 10.691 83.1098 10.7698 83.1098 10.8747C83.1169 10.9722 83.1208 11.1071 83.1208 11.2796ZM93.5577 15.2387C93.5577 15.5311 93.4831 15.7411 93.333 15.8686C93.1908 15.9885 93.0258 16.0486 92.8388 16.0486H86.2023C86.2023 16.6109 86.2588 17.1171 86.3712 17.5669C86.4835 18.0168 86.6705 18.403 86.9337 18.7254C87.1961 19.0479 87.5371 19.2953 87.9575 19.4677C88.377 19.6402 88.8908 19.7264 89.4982 19.7264C89.9782 19.7264 90.4048 19.6889 90.7804 19.6139C91.1551 19.5315 91.4773 19.4415 91.7475 19.3441C92.0249 19.2466 92.2496 19.1603 92.4224 19.0853C92.6024 19.0028 92.7375 18.9616 92.8271 18.9616C92.8797 18.9616 92.9253 18.9766 92.9622 19.0065C93.007 19.0291 93.0415 19.0666 93.0635 19.119C93.0863 19.1716 93.1013 19.2466 93.1083 19.3441C93.1233 19.4339 93.1311 19.5465 93.1311 19.6814C93.1311 19.7789 93.1272 19.8651 93.1193 19.9402C93.1123 20.0076 93.1013 20.0714 93.0863 20.1313C93.0785 20.1839 93.0596 20.2326 93.0298 20.2775C93.007 20.3225 92.974 20.3676 92.9284 20.4126C92.8907 20.4501 92.7713 20.5175 92.5686 20.615C92.3667 20.705 92.1035 20.795 91.7813 20.8849C91.4584 20.9749 91.0837 21.0536 90.6562 21.1211C90.2367 21.1961 89.7865 21.2335 89.3072 21.2335C88.4744 21.2335 87.743 21.1173 87.1136 20.8849C86.4914 20.6525 85.9666 20.3076 85.5391 19.8501C85.111 19.3928 84.7896 18.8192 84.5712 18.1293C84.3543 17.4394 84.2451 16.6371 84.2451 15.7223C84.2451 14.8526 84.3583 14.0727 84.583 13.3829C84.8077 12.6856 85.1298 12.0969 85.5501 11.617C85.9776 11.1297 86.4914 10.7585 87.0916 10.5036C87.6911 10.2411 88.3621 10.1099 89.1045 10.1099C89.8988 10.1099 90.5737 10.2373 91.1284 10.4923C91.691 10.7472 92.1522 11.0922 92.512 11.5271C92.8718 11.9545 93.1343 12.4606 93.2993 13.0455C93.4721 13.6229 93.5577 14.2414 93.5577 14.9013V15.2387ZM91.691 14.6875C91.7138 13.7127 91.4961 12.948 91.0389 12.3931C90.5887 11.8382 89.9177 11.5608 89.0252 11.5608C88.5687 11.5608 88.1672 11.647 87.8223 11.8195C87.4766 11.992 87.1883 12.2207 86.9565 12.5056C86.7232 12.7905 86.5432 13.1242 86.416 13.5067C86.2887 13.8815 86.218 14.2752 86.2023 14.6875H91.691Z" fill="#2EA3E5"/>
</svg>
