<svg width="56" height="60" viewBox="0 0 56 60" fill="none" xmlns="http://www.w3.org/2000/svg">
<path d="M27.935 0.9729C25.7678 0.9729 23.6219 1.39976 21.6197 2.2291C19.6175 3.05844 17.7982 4.274 16.2658 5.80648C13.1709 8.9013 11.4323 13.0989 11.4323 17.4757C11.4323 24.7699 16.1686 30.9583 22.7202 33.1532C23.5453 33.2853 23.8093 32.7737 23.8093 32.3281V29.5391C19.2381 30.5293 18.2644 27.3278 18.2644 27.3278C17.5053 25.4135 16.4326 24.9019 16.4326 24.9019C14.9308 23.8787 16.5482 23.9118 16.5482 23.9118C18.1984 24.0273 19.073 25.6115 19.073 25.6115C20.5088 28.1199 22.9346 27.3773 23.8753 26.9812C24.0239 25.9086 24.4529 25.1825 24.915 24.7699C21.2514 24.3573 17.4063 22.938 17.4063 16.6505C17.4063 14.8187 18.0334 13.35 19.106 12.1783C18.941 11.7657 18.3635 10.0494 19.2711 7.82154C19.2711 7.82154 20.6573 7.37603 23.8093 9.50483C25.113 9.14174 26.5323 8.96023 27.935 8.96023C29.3378 8.96023 30.757 9.14174 32.0607 9.50483C35.2127 7.37603 36.599 7.82154 36.599 7.82154C37.5066 10.0494 36.929 11.7657 36.764 12.1783C37.8367 13.35 38.4638 14.8187 38.4638 16.6505C38.4638 22.9545 34.6021 24.3408 30.922 24.7534C31.5161 25.265 32.0607 26.2716 32.0607 27.8064V32.3281C32.0607 32.7737 32.3247 33.3017 33.1663 33.1532C39.718 30.9419 44.4377 24.7699 44.4377 17.4757C44.4377 15.3085 44.0109 13.1625 43.1816 11.1603C42.3523 9.15809 41.1367 7.3389 39.6042 5.80648C38.0718 4.274 36.2526 3.05844 34.2504 2.2291C32.2481 1.39976 30.1022 0.9729 27.935 0.9729Z" fill="black"/>
<path fill-rule="evenodd" clip-rule="evenodd" d="M23.0217 57.1181H22.997C23.0082 57.1181 23.0155 57.1303 23.0266 57.132H23.0341L23.0217 57.1193V57.1181ZM23.0266 57.132C22.9116 57.1332 22.6219 57.1939 22.3162 57.1939C21.3508 57.1939 21.0167 56.7483 21.0167 56.1666V52.2911H22.9846C23.096 52.2911 23.1827 52.1921 23.1827 52.056V49.9519C23.1827 49.8404 23.0836 49.7415 22.9846 49.7415H21.0167V47.1299C21.0167 47.0308 20.9548 46.969 20.8433 46.969H18.1699C18.0586 46.969 17.9966 47.0308 17.9966 47.1299V49.8157C17.9966 49.8157 16.6475 50.15 16.5609 50.1623C16.4619 50.187 16.4 50.2737 16.4 50.3727V52.056C16.4 52.1921 16.499 52.2911 16.6104 52.2911H17.9843V56.3506C17.9843 59.3708 20.0884 59.6804 21.5241 59.6804C22.18 59.6804 22.9722 59.4697 23.096 59.4078C23.1702 59.3829 23.2074 59.2967 23.2074 59.2099V57.3531C23.2091 57.3005 23.1918 57.249 23.1586 57.2085C23.1254 57.1674 23.0786 57.1396 23.0266 57.1303V57.132ZM52.3554 54.4076C52.3554 52.1673 51.4518 51.8703 50.4988 51.9694C49.7562 52.0188 49.1621 52.3901 49.1621 52.3901V56.7471C49.1621 56.7471 49.7685 57.1679 50.6721 57.1923C51.9469 57.2298 52.3554 56.7714 52.3554 54.4076ZM55.363 54.2095C55.363 58.4551 53.9892 59.6677 51.5879 59.6677C49.5582 59.6677 48.469 58.6403 48.469 58.6403C48.469 58.6403 48.4195 59.2099 48.3576 59.2839C48.3205 59.3586 48.2586 59.3829 48.1843 59.3829H46.3525C46.2287 59.3829 46.1173 59.2839 46.1173 59.1728L46.1421 45.4219C46.1421 45.3105 46.2411 45.2115 46.3525 45.2115H48.9888C49.1002 45.2115 49.1992 45.3105 49.1992 45.4219V50.088C49.1992 50.088 50.2142 49.432 51.6994 49.432L51.687 49.4073C53.1723 49.4073 55.363 49.9642 55.363 54.2095ZM44.5702 49.7415H41.971C41.8349 49.7415 41.7606 49.8404 41.7606 49.9766V56.7095C41.7606 56.7095 41.0799 57.1923 40.1516 57.1923C39.2233 57.1923 38.9511 56.7714 38.9511 55.8431V49.9642C38.9511 49.8529 38.852 49.7538 38.7406 49.7538H36.0919C35.9805 49.7538 35.8815 49.8529 35.8815 49.9642V56.2888C35.8815 59.0119 37.4039 59.6926 39.4956 59.6926C41.216 59.6926 42.6146 58.7393 42.6146 58.7393C42.6146 58.7393 42.6765 59.2221 42.7136 59.2967C42.7383 59.3586 42.825 59.4078 42.9116 59.4078H44.5702C44.7063 59.4078 44.7806 59.3088 44.7806 59.1977L44.8054 49.9519C44.8054 49.8404 44.7063 49.7415 44.5702 49.7415ZM15.2366 49.7291H12.6003C12.4889 49.7291 12.3898 49.8404 12.3898 49.9766V59.0611C12.3898 59.3088 12.5508 59.3957 12.7611 59.3957H15.1375C15.3851 59.3957 15.447 59.2839 15.447 59.0611V49.9395C15.447 49.8281 15.3479 49.7291 15.2366 49.7291ZM13.937 45.5456C12.984 45.5456 12.2289 46.3006 12.2289 47.2537C12.2289 48.2067 12.984 48.9617 13.937 48.9617C14.8652 48.9617 15.6202 48.2067 15.6202 47.2537C15.6202 46.3006 14.8652 45.5456 13.937 45.5456ZM34.3467 45.2362H31.7351C31.6238 45.2362 31.5248 45.3352 31.5248 45.4466V50.5088H27.428V45.4466C27.428 45.3352 27.329 45.2362 27.2176 45.2362H24.5812C24.4699 45.2362 24.3708 45.3352 24.3708 45.4466V59.1977C24.3708 59.3088 24.4822 59.4078 24.5812 59.4078H27.2176C27.329 59.4078 27.428 59.3088 27.428 59.1977V53.3184H31.5248L31.5 59.1977C31.5 59.3088 31.599 59.4078 31.7105 59.4078H34.3467C34.4582 59.4078 34.5571 59.3088 34.5571 59.1977V45.4466C34.5571 45.3352 34.4582 45.2362 34.3467 45.2362ZM10.9912 51.3257V58.4302C10.9912 58.4794 10.9789 58.5662 10.917 58.5911C10.917 58.5911 9.36982 59.6926 6.82018 59.6926C3.73827 59.6926 0.0870361 58.7272 0.0870361 52.3654C0.0870361 46.0036 3.28032 44.6916 6.39934 44.7039C9.09749 44.7039 10.1867 45.3105 10.36 45.4219C10.4095 45.4837 10.4343 45.5332 10.4343 45.5951L9.91442 47.7982C9.91442 47.9096 9.80304 48.0458 9.66691 48.0086C9.22132 47.8725 8.55297 47.6002 6.98109 47.6002C5.16163 47.6002 3.20606 48.1201 3.20606 52.2169C3.20606 56.3136 5.06262 56.7963 6.39934 56.7963C7.53803 56.7963 7.9465 56.6603 7.9465 56.6603V53.8135H6.12703C5.9909 53.8135 5.89187 53.7145 5.89187 53.6032V51.3257C5.89187 51.2143 5.9909 51.1153 6.12703 51.1153H10.7561C10.8922 51.1153 10.9912 51.2143 10.9912 51.3257Z" fill="black"/>
</svg>
