<svg width="56" height="60" viewBox="0 0 56 60" fill="none" xmlns="http://www.w3.org/2000/svg">
<path d="M3.72751 54.0171H6.91483C6.93301 54.09 6.94816 54.1778 6.96025 54.2808C6.97233 54.3833 6.97841 54.4864 6.97841 54.5895C6.97841 55.0071 6.91483 55.4008 6.78771 55.7697C6.66054 56.1392 6.4608 56.469 6.18839 56.7597C5.89779 57.0684 5.54969 57.3073 5.14409 57.4769C4.73849 57.6466 4.27538 57.7312 3.75475 57.7312C3.28256 57.7312 2.83761 57.6466 2.4199 57.4769C2.00219 57.3073 1.63896 57.0715 1.33022 56.7687C1.02147 56.4658 0.776304 56.109 0.594686 55.6973C0.413073 55.2792 0.322266 54.8252 0.322266 54.3353C0.322266 53.8448 0.413073 53.3937 0.594686 52.9821C0.776304 52.5643 1.02147 52.2042 1.33022 51.9015C1.63896 51.5987 2.00219 51.3627 2.4199 51.1932C2.83761 51.0237 3.28256 50.939 3.75475 50.939C4.28143 50.939 4.7506 51.0297 5.16227 51.2113C5.57998 51.393 5.93712 51.6442 6.23379 51.9651L5.38928 52.7914C5.17739 52.5674 4.94129 52.3979 4.68098 52.2828C4.42067 52.1617 4.1089 52.1012 3.74568 52.1012C3.44904 52.1012 3.16754 52.1557 2.90118 52.2647C2.63481 52.3676 2.40174 52.516 2.20196 52.7097C2.00219 52.9034 1.84176 53.1395 1.72069 53.4179C1.60566 53.6904 1.54815 53.9959 1.54815 54.3353C1.54815 54.674 1.60566 54.9828 1.72069 55.2613C1.84176 55.5335 2.00219 55.7666 2.20196 55.9606C2.40779 56.154 2.64389 56.3057 2.91025 56.4146C3.17662 56.5176 3.46115 56.5689 3.76384 56.5689C4.1089 56.5689 4.39948 56.5203 4.63558 56.4235C4.87773 56.3205 5.08356 56.1905 5.25307 56.033C5.37416 55.9241 5.47707 55.7882 5.5618 55.6244C5.6526 55.4553 5.72221 55.2676 5.77068 55.0615H3.72751V54.0171ZM9.90864 52.9912C10.2536 52.9912 10.5684 53.0517 10.853 53.1728C11.1436 53.2878 11.3918 53.4512 11.5976 53.6631C11.8095 53.8691 11.973 54.117 12.088 54.4077C12.209 54.6984 12.2696 55.016 12.2696 55.3612C12.2696 55.7063 12.209 56.024 12.088 56.3147C11.973 56.6054 11.8095 56.8564 11.5976 57.0684C11.3918 57.274 11.1436 57.4379 10.853 57.5589C10.5684 57.6735 10.2536 57.7312 9.90864 57.7312C9.56352 57.7312 9.24568 57.6735 8.95513 57.5589C8.67059 57.4379 8.42239 57.274 8.21052 57.0684C8.00467 56.8564 7.84129 56.6054 7.7202 56.3147C7.60518 56.024 7.54764 55.7063 7.54764 55.3612C7.54764 55.016 7.60518 54.6984 7.7202 54.4077C7.84129 54.117 8.00467 53.8691 8.21052 53.6631C8.42239 53.4512 8.67059 53.2878 8.95513 53.1728C9.24568 53.0517 9.56352 52.9912 9.90864 52.9912ZM9.90864 56.6323C10.0599 56.6323 10.2053 56.6054 10.3445 56.5509C10.4897 56.4901 10.6168 56.4056 10.7259 56.2967C10.8349 56.1873 10.9196 56.0546 10.9801 55.8971C11.0467 55.7396 11.08 55.561 11.08 55.3612C11.08 55.1614 11.0467 54.9827 10.9801 54.8252C10.9196 54.6682 10.8349 54.5351 10.7259 54.4256C10.6168 54.3168 10.4897 54.2354 10.3445 54.1809C10.2053 54.1202 10.0599 54.09 9.90864 54.09C9.75121 54.09 9.60289 54.1202 9.46363 54.1809C9.32444 54.2354 9.2003 54.3168 9.09136 54.4256C8.98242 54.5351 8.89462 54.6682 8.82803 54.8252C8.76752 54.9827 8.73719 55.1614 8.73719 55.3612C8.73719 55.561 8.76752 55.7396 8.82803 55.8971C8.89462 56.0546 8.98242 56.1873 9.09136 56.2967C9.2003 56.4056 9.32444 56.4901 9.46363 56.5509C9.60289 56.6054 9.75121 56.6323 9.90864 56.6323ZM15.1406 52.9912C15.4857 52.9912 15.8005 53.0517 16.085 53.1728C16.3756 53.2878 16.6238 53.4512 16.8296 53.6631C17.0415 53.8691 17.2049 54.117 17.32 54.4077C17.4411 54.6984 17.5016 55.016 17.5016 55.3612C17.5016 55.7063 17.4411 56.024 17.32 56.3147C17.2049 56.6054 17.0415 56.8564 16.8296 57.0684C16.6238 57.274 16.3756 57.4379 16.085 57.5589C15.8005 57.6735 15.4857 57.7312 15.1406 57.7312C14.7956 57.7312 14.4777 57.6735 14.1871 57.5589C13.9027 57.4379 13.6545 57.274 13.4425 57.0684C13.2367 56.8564 13.0732 56.6054 12.9522 56.3147C12.8372 56.024 12.7796 55.7063 12.7796 55.3612C12.7796 55.016 12.8372 54.6984 12.9522 54.4077C13.0732 54.117 13.2367 53.8691 13.4425 53.6631C13.6545 53.4512 13.9027 53.2878 14.1871 53.1728C14.4777 53.0517 14.7956 52.9912 15.1406 52.9912ZM15.1406 56.6323C15.292 56.6323 15.4373 56.6054 15.5765 56.5509C15.7218 56.4901 15.8489 56.4056 15.9579 56.2967C16.0669 56.1873 16.1516 56.0546 16.2121 55.8971C16.2787 55.7396 16.312 55.561 16.312 55.3612C16.312 55.1614 16.2787 54.9827 16.2121 54.8252C16.1516 54.6682 16.0669 54.5351 15.9579 54.4256C15.8489 54.3168 15.7218 54.2354 15.5765 54.1809C15.4373 54.1202 15.292 54.09 15.1406 54.09C14.9833 54.09 14.8349 54.1202 14.6957 54.1809C14.5564 54.2354 14.4324 54.3168 14.3234 54.4256C14.2144 54.5351 14.1266 54.6682 14.06 54.8252C13.9994 54.9827 13.9693 55.1614 13.9693 55.3612C13.9693 55.561 13.9994 55.7396 14.06 55.8971C14.1266 56.0546 14.2144 56.1873 14.3234 56.2967C14.4324 56.4056 14.5564 56.4901 14.6957 56.5509C14.8349 56.6054 14.9833 56.6323 15.1406 56.6323ZM20.3182 59.6926C20.0034 59.6926 19.7219 59.6503 19.4737 59.5658C19.2315 59.487 19.0196 59.3808 18.838 59.2476C18.6563 59.1207 18.5051 58.9785 18.384 58.821C18.2629 58.6635 18.1751 58.506 18.1206 58.3485L19.2557 57.8945C19.3404 58.1308 19.4797 58.3126 19.6734 58.4394C19.8672 58.5726 20.0821 58.6392 20.3182 58.6392C20.6935 58.6392 20.9901 58.5214 21.208 58.2851C21.426 58.0551 21.535 57.7312 21.535 57.3136V57.0049H21.4623C21.3231 57.1984 21.1385 57.3527 20.9084 57.468C20.6844 57.5768 20.418 57.6313 20.1093 57.6313C19.8429 57.6313 19.5826 57.5768 19.3284 57.468C19.0802 57.3591 18.8592 57.2048 18.6655 57.0049C18.4718 56.7988 18.3143 56.5536 18.1932 56.2692C18.0722 55.9848 18.0116 55.6667 18.0116 55.3157C18.0116 54.9648 18.0722 54.6471 18.1932 54.3622C18.3143 54.0715 18.4718 53.8268 18.6655 53.6268C18.8592 53.421 19.0802 53.2636 19.3284 53.1546C19.5826 53.0457 19.8429 52.9912 20.1093 52.9912C20.418 52.9912 20.6844 53.0487 20.9084 53.1637C21.1385 53.2727 21.3231 53.424 21.4623 53.6177H21.535V53.1365H22.67V57.2682C22.67 57.6434 22.6125 57.9796 22.4975 58.2761C22.3824 58.579 22.222 58.8332 22.0162 59.0388C21.8104 59.2508 21.5622 59.4114 21.2716 59.5203C20.9871 59.635 20.6693 59.6926 20.3182 59.6926ZM20.3636 56.5599C20.5089 56.5599 20.6511 56.5324 20.7904 56.478C20.9356 56.4236 21.0628 56.3448 21.1717 56.2423C21.2807 56.1329 21.3685 56.0029 21.4351 55.8516C21.5017 55.6941 21.535 55.5155 21.535 55.3157C21.535 55.1159 21.5017 54.9373 21.4351 54.7803C21.3685 54.6228 21.2807 54.4922 21.1717 54.3897C21.0628 54.2808 20.9356 54.1989 20.7904 54.1445C20.6511 54.09 20.5089 54.0625 20.3636 54.0625C20.2183 54.0625 20.076 54.09 19.9368 54.1445C19.7975 54.1989 19.6734 54.2808 19.5645 54.3897C19.4555 54.4986 19.3677 54.6318 19.3011 54.7893C19.2345 54.9405 19.2013 55.1159 19.2013 55.3157C19.2013 55.5155 19.2345 55.6941 19.3011 55.8516C19.3677 56.0029 19.4555 56.1329 19.5645 56.2423C19.6734 56.3448 19.7975 56.4236 19.9368 56.478C20.076 56.5324 20.2183 56.5599 20.3636 56.5599ZM23.6842 57.5858V51.0842H24.8737V57.5858H23.6842ZM30.0613 56.5145C29.8555 56.8775 29.577 57.1715 29.226 57.395C28.8808 57.6191 28.4571 57.7312 27.9546 57.7312C27.6156 57.7312 27.3008 57.6735 27.0103 57.5589C26.7257 57.4379 26.4775 57.2714 26.2657 57.0594C26.0537 56.8474 25.8873 56.599 25.7662 56.3147C25.6511 56.024 25.5937 55.7063 25.5937 55.3612C25.5937 55.0404 25.6511 54.7375 25.7662 54.4531C25.8813 54.1624 26.0417 53.9114 26.2474 53.6995C26.4533 53.4815 26.6955 53.309 26.9739 53.1818C27.2585 53.0547 27.5702 52.9912 27.9092 52.9912C28.2664 52.9912 28.5842 53.0517 28.8627 53.1728C29.1411 53.2878 29.3743 53.4512 29.562 53.6631C29.7496 53.8691 29.8919 54.1144 29.9887 54.3987C30.0856 54.6831 30.134 54.9917 30.134 55.3247C30.134 55.3675 30.134 55.4034 30.134 55.4341C30.1279 55.47 30.125 55.5033 30.125 55.5334C30.1189 55.5641 30.1158 55.5974 30.1158 55.6333H26.7651C26.7893 55.8152 26.8377 55.9727 26.9104 56.1059C26.9891 56.2327 27.0829 56.3422 27.1919 56.4325C27.3069 56.5176 27.431 56.5811 27.5642 56.6233C27.6974 56.6598 27.8336 56.6778 27.9728 56.6778C28.2452 56.6778 28.4692 56.6175 28.6447 56.4965C28.8264 56.3691 28.9686 56.2116 29.0716 56.024L30.0613 56.5145ZM28.9807 54.7893C28.9747 54.7105 28.9474 54.6228 28.899 54.5255C28.8567 54.4288 28.7901 54.3379 28.6992 54.2533C28.6145 54.1688 28.5055 54.099 28.3723 54.0446C28.2452 53.9902 28.0908 53.9626 27.9092 53.9626C27.655 53.9626 27.431 54.0356 27.2373 54.1809C27.0436 54.3257 26.9074 54.5287 26.8287 54.7893H28.9807ZM36.0944 57.7312C35.1319 57.7312 34.3267 57.4072 33.679 56.7597C33.0373 56.1117 32.7164 55.3036 32.7164 54.3353C32.7164 53.3665 33.0373 52.5614 33.679 51.9196C34.3207 51.2658 35.1259 50.939 36.0944 50.939C37.0751 50.939 37.8712 51.2931 38.4827 52.0013L37.8834 52.5825C37.4172 52.0195 36.8209 51.738 36.0944 51.738C35.3741 51.738 34.7717 51.9801 34.2874 52.4644C33.8092 52.9427 33.57 53.5663 33.57 54.3353C33.57 55.1038 33.8092 55.7274 34.2874 56.2058C34.7717 56.6899 35.3741 56.932 36.0944 56.932C36.8512 56.932 37.508 56.6143 38.065 55.9785L38.6734 56.5689C38.3646 56.9383 37.9862 57.2259 37.5383 57.4315C37.0903 57.6313 36.6091 57.7312 36.0944 57.7312ZM40.2512 51.0842V57.5858H39.4157V51.0842H40.2512ZM40.9705 55.3612C40.9705 54.6772 41.1854 54.1112 41.6152 53.6631C42.0511 53.2151 42.599 52.9912 43.2588 52.9912C43.9187 52.9912 44.4635 53.2151 44.8933 53.6631C45.3292 54.1112 45.5472 54.6772 45.5472 55.3612C45.5472 56.0515 45.3292 56.6175 44.8933 57.0594C44.4635 57.5071 43.9187 57.7312 43.2588 57.7312C42.599 57.7312 42.0511 57.5071 41.6152 57.0594C41.1854 56.6112 40.9705 56.0451 40.9705 55.3612ZM41.8059 55.3612C41.8059 55.8395 41.9451 56.227 42.2237 56.5234C42.502 56.82 42.8472 56.9684 43.2588 56.9684C43.6705 56.9684 44.0155 56.82 44.294 56.5234C44.5725 56.227 44.7117 55.8395 44.7117 55.3612C44.7117 54.8892 44.5725 54.5044 44.294 54.2079C44.0095 53.905 43.6644 53.7539 43.2588 53.7539C42.8532 53.7539 42.5081 53.905 42.2237 54.2079C41.9451 54.5044 41.8059 54.8892 41.8059 55.3612ZM50.1664 57.5858H49.3673V56.9684H49.3309C49.2038 57.1863 49.0071 57.3681 48.7407 57.5134C48.4804 57.6588 48.208 57.7312 47.9234 57.7312C47.3786 57.7312 46.9579 57.5768 46.6612 57.2682C46.3707 56.9532 46.2254 56.5087 46.2254 55.9331V53.1365H47.0608V55.8786C47.0789 56.6054 47.4452 56.9684 48.1595 56.9684C48.4925 56.9684 48.771 56.8353 48.9949 56.5689C49.2189 56.2967 49.3309 55.9727 49.3309 55.5974V53.1365H50.1664V57.5858ZM53.1366 56.9684C53.5483 56.9684 53.8845 56.82 54.1445 56.5234C54.4172 56.227 54.5531 55.8395 54.5531 55.3612C54.5531 54.895 54.4172 54.5107 54.1445 54.2079C53.8781 53.905 53.5425 53.7539 53.1366 53.7539C52.737 53.7539 52.4011 53.905 52.1287 54.2079C51.8564 54.5107 51.7201 54.895 51.7201 55.3612C51.7201 55.8332 51.8564 56.218 52.1287 56.5145C52.4011 56.8173 52.737 56.9684 53.1366 56.9684ZM53.0008 57.7312C52.4194 57.7312 51.9199 57.5013 51.5022 57.0409C51.0905 56.5753 50.8847 56.015 50.8847 55.3612C50.8847 54.7073 51.0905 54.1477 51.5022 53.6813C51.9199 53.2212 52.4194 52.9912 53.0008 52.9912C53.3274 52.9912 53.6239 53.0607 53.8903 53.2C54.163 53.3393 54.3718 53.5239 54.5171 53.7539H54.5531L54.5171 53.1365V51.0842H55.3522V57.5858H54.5531V56.9684H54.5171C54.3718 57.1984 54.163 57.3834 53.8903 57.5224C53.6239 57.6614 53.3274 57.7312 53.0008 57.7312Z" fill="#322323"/>
<path d="M34.8368 12.5635H36.4336L40.9842 8.01293L41.2025 6.08014C38.5952 3.78317 35.4458 2.18819 32.0513 1.44566C28.6568 0.703131 25.1293 0.837524 21.8011 1.83616C18.4729 2.8348 15.454 4.66476 13.0291 7.15346C10.6042 9.64212 8.85323 12.7075 7.94128 16.0604C8.44858 15.8534 9.01016 15.8203 9.53817 15.9667L18.6393 14.4636C18.6393 14.4636 19.1039 13.6979 19.3417 13.7459C21.2924 11.6042 23.9878 10.2888 26.8764 10.069C29.7648 9.84925 32.6282 10.7416 34.8804 12.5635H34.8368Z" fill="#EA4335"/>
<path d="M47.4674 16.0603C46.4203 12.2108 44.2725 8.75048 41.2872 6.104L34.8998 12.4914C36.2316 13.5784 37.2989 14.9539 38.0211 16.5139C38.7434 18.074 39.1015 19.7778 39.0687 21.4966V22.6309C40.5764 22.6309 42.0224 23.2299 43.0885 24.296C44.1546 25.3622 44.7536 26.8081 44.7536 28.3159C44.7536 29.8237 44.1546 31.2696 43.0885 32.3358C42.0224 33.4019 40.5764 34.0009 39.0687 34.0009H27.6987L26.5643 35.1505V41.9698L27.6987 43.102H39.0687C42.2439 43.1272 45.3429 42.1296 47.9071 40.2568C50.4713 38.384 52.3646 35.7354 53.3063 32.703C54.2487 29.6706 54.1895 26.4156 53.1377 23.4194C52.0862 20.4233 50.098 17.8453 47.4674 16.0669V16.0603Z" fill="#4285F4"/>
<path d="M16.314 43.0328H27.684V33.9316H16.314C15.504 33.9303 14.7036 33.7555 13.9667 33.4189L12.3699 33.9142L7.78873 38.4647L7.38953 40.0616C9.95901 42.0021 13.0942 43.0458 16.314 43.0328Z" fill="#34A853"/>
<path d="M16.3137 13.5064C13.2329 13.5245 10.2348 14.5044 7.73803 16.3092C5.24125 18.1141 3.37063 20.6536 2.38739 23.5733C1.40416 26.493 1.35746 29.6468 2.25381 32.5943C3.15016 35.5418 4.9448 38.1357 7.38696 40.0137L13.9816 33.4191C13.1434 33.0404 12.4095 32.4641 11.843 31.7395C11.2765 31.0148 10.8943 30.1635 10.7291 29.2586C10.5641 28.3538 10.6209 27.4224 10.895 26.5444C11.169 25.6664 11.652 24.8679 12.3025 24.2176C12.953 23.5673 13.7515 23.0846 14.6296 22.8108C15.5078 22.5371 16.4391 22.4804 17.3439 22.6458C18.2488 22.8112 19.1 23.1936 19.8244 23.7603C20.5489 24.3271 21.125 25.0611 21.5034 25.8995L28.0981 19.3026C26.7135 17.4935 24.9293 16.029 22.8851 15.0235C20.8409 14.018 18.5918 13.4988 16.3137 13.5064Z" fill="#FBBC05"/>
</svg>
